<svg xmlns="http://www.w3.org/2000/svg" xmlns:xlink="http://www.w3.org/1999/xlink" width="97.102" height="39.933" viewBox="0 0 97.102 39.933"><defs><clipPath id="a"><rect width="97.102" height="39.933"/></clipPath></defs><path d="M63.125,23.594h7.752c3.641,0,7.6.763,7.6,5.285a4.678,4.678,0,0,1-3.582,4.58v.059A4.979,4.979,0,0,1,79.451,38.6c0,4.345-4.111,5.784-7.81,5.784H63.125V23.594Zm4.58,8.31h3.319c1.409,0,2.878-.588,2.878-2.261,0-1.732-1.644-2.172-3.084-2.172H67.705V31.9Zm0,8.6h4.111c1.44,0,3.054-.617,3.054-2.437,0-1.967-2.2-2.29-3.7-2.29H67.706v4.727Z" transform="translate(-36.617 -15.113)" fill="#222221"/><path d="M101.275,19.8l4.4-1.4V41.629h-4.4V19.8Z" transform="translate(-56.82 -12.361)" fill="#222221"/><path d="M121.717,36.7c4.4,0,7.928,2.936,7.928,7.486s-3.523,7.488-7.928,7.488-7.928-2.936-7.928-7.488,3.523-7.486,7.928-7.486Zm0,11.1a3.337,3.337,0,0,0,3.524-3.611,3.525,3.525,0,1,0-7.047,0,3.337,3.337,0,0,0,3.523,3.611Z" transform="translate(-63.447 -22.054)" fill="#222221"/><path d="M160.763,41.664a2.723,2.723,0,0,0-2.172-1.086,3.337,3.337,0,0,0-3.523,3.611,3.337,3.337,0,0,0,3.523,3.611,2.8,2.8,0,0,0,2.172-1.086l2.907,3.054a7.158,7.158,0,0,1-5.079,1.909c-4.4,0-7.929-2.936-7.929-7.488s3.524-7.486,7.929-7.486a7.16,7.16,0,0,1,5.079,1.909l-2.907,3.054Z" transform="translate(-82.974 -22.054)" fill="#222221"/><path d="M181.667,19.8l4.405-1.4V33l4.874-5.637h5.4l-5.668,6.429,5.814,7.84h-5.549l-4.816-7.223h-.058v7.223h-4.405V19.8Z" transform="translate(-99.393 -12.361)" fill="#222221"/><path d="M30.867,5.565A3.151,3.151,0,0,1,31.956,8a3.153,3.153,0,0,1-1.089,2.434A3.152,3.152,0,0,1,29.778,8a3.15,3.15,0,0,1,1.089-2.433Z" transform="translate(-18.957 -5.565)" fill="#222221"/><path d="M37.7,6.957a3.146,3.146,0,0,1,.422,2.632,3.153,3.153,0,0,1-1.681,2.068,3.261,3.261,0,0,1,1.259-4.7Z" transform="translate(-22.198 -6.302)" fill="#222221"/><path d="M44.114,9.132a3.263,3.263,0,0,1-2.433,4.214,3.262,3.262,0,0,1,2.433-4.214Z" transform="translate(-25.167 -7.454)" fill="#222221"/><path d="M23.956,6.957a3.156,3.156,0,0,0-.421,2.632,3.149,3.149,0,0,0,1.68,2.068,3.261,3.261,0,0,0-1.259-4.7Z" transform="translate(-15.589 -6.302)" fill="#222221"/><g transform="translate(0 0)"><g clip-path="url(#a)"><path d="M17.034,9.132a3.264,3.264,0,0,0,2.433,4.214,3.263,3.263,0,0,0-2.433-4.214Z" transform="translate(-12.115 -7.454)" fill="#222221"/></g><g clip-path="url(#a)"><path d="M6.775,40.1H8.4a3.575,3.575,0,1,1,0,7.124H6.775V46H8.4a2.346,2.346,0,1,0,0-4.674H6.775V40.1Z" transform="translate(-6.775 -23.857)" fill="#222221"/></g></g><path d="M51.014,40.1H49.39a3.575,3.575,0,1,0,0,7.124h1.624V46h-1.62a2.346,2.346,0,1,1,0-4.674h1.62V40.1Z" transform="translate(-27.286 -23.857)" fill="#222221"/><path d="M16.526,20.239a2.914,2.914,0,0,1-.907-.344,2.187,2.187,0,0,0-1.3,1.69,1.246,1.246,0,0,0,.225.7,6.8,6.8,0,0,0,1.426.525,3.318,3.318,0,0,1,.551-2.566Zm.056,2.271c0,.143.008.283.02.42a10.281,10.281,0,0,0,3.741.016c.014-.143.022-.288.022-.436a3.764,3.764,0,0,0-.579-2.087,7.472,7.472,0,0,1-1.27.109,7.385,7.385,0,0,1-1.346-.122,3.761,3.761,0,0,0-.588,2.1Zm3.862-2.271a3.321,3.321,0,0,1,.551,2.566,6.761,6.761,0,0,0,1.426-.525,1.234,1.234,0,0,0,.225-.7,2.184,2.184,0,0,0-1.3-1.69,2.9,2.9,0,0,1-.906.345Zm1.223,9.468a1.217,1.217,0,0,1-.784.3,1.2,1.2,0,0,1-.825-.3,2.109,2.109,0,0,1-1.713.919,2.131,2.131,0,0,1-1.677-.907,1.164,1.164,0,0,1-1.551-.016H13.808v9.1c0,.042,0,.085,0,.127a4.6,4.6,0,0,0,4.829,4.311,4.584,4.584,0,0,0,4.814-4.311c0-.042,0-.085,0-.127l0-9.1H21.666Zm-4.033-1.924a.973.973,0,1,0,.973-.971.974.974,0,0,0-.973.971Zm10.2,14.031H26.142L24.534,40.09a5.982,5.982,0,0,1-5.907,4.4,6,6,0,0,1-5.847-4.175l-1.453,1.5H9.657l2.915-3.147V36.729L9.62,39.85H7.976l4.6-4.931,0-6.444H14.4a3.5,3.5,0,0,1-.106-.859c0-.058.013-.209.014-.227H6.777V26.163h8.594a4.7,4.7,0,0,0,.3-.918c.034-.15.061-.3.082-.46H6.777V23.559h7.881a2.842,2.842,0,0,1-1.144-1.331H6.777V21h6.73c.479-1.35,2.529-2.365,4.986-2.365S23,19.652,23.479,21H30.5v1.226H23.473a2.839,2.839,0,0,1-1.144,1.331H30.5v1.225H21.334a5.5,5.5,0,0,0,.113.588,4.645,4.645,0,0,0,.274.791H30.5v1.226H22.485c0,.075.007.15.007.227a3.5,3.5,0,0,1-.106.859h2.3v6.078l4.932,5.3H27.927l-3.245-3.481V38.41l3.151,3.4Z" transform="translate(-6.776 -12.488)" fill="#222221"/><path d="M25.183,52.953a4.934,4.934,0,0,1,.722,1.5c.3-.669,2.145-3.019,3.06-2.915.3.035.308.251.308.251a3.185,3.185,0,0,1,.745-.709,8.941,8.941,0,0,0-2.138.333A13.83,13.83,0,0,1,29.924,48.5c-.631-.12-1.13-1.062-1.13-1.062a5.122,5.122,0,0,0-.549,1.039,5.19,5.19,0,0,1-.445-1.233,1.53,1.53,0,0,0-.433.559,1.5,1.5,0,0,1,.4,1.25,8.27,8.27,0,0,1-1.2,2.357,10.694,10.694,0,0,1-.555-1.917c-.125.019-.445.479-.445.479a3.007,3.007,0,0,1,.537,1.6,2.556,2.556,0,0,1-.928,1.384Zm4.279-5.86c.2.567.712.923,1.046.789.3-.122.359-.676.14-1.236s-.613-.9-.939-.809c-.347.093-.447.689-.247,1.256Zm-5.349,6.018s1.3-1.258,1.313-1.637a1.881,1.881,0,0,0-.217-.764c-.147-.323-.35-.381-.4-.683s.284-.5.684-.989c.268-.314.579-.967,1.018-.692.235.147.164.4.164.668a3.148,3.148,0,0,0,.089.628,1.054,1.054,0,0,0,.216-1.126c-.09-.256-.4-.234-.343-.73a5.5,5.5,0,0,1,.97-1.476s.267-.381.616-.188c.238.131.219.487.208.586,0-.017.008-.044.017-.08.078-.366.521-1.556,1.43-1.524s1.591,1.445,1.617,2.112c.037.9-.551,1.2-.88,1.527-.253.255-1.315,1.67-1.315,1.67.205-.039,1.513-.165,1.528.457.008.413-.365.658-.742,1.07-.477.523-.662.891-1.043.923s-.434-.49-.436-.493a9.721,9.721,0,0,0-2.257,2.664c-.182.34-.172.554-.414.636,0,0-.464.1-.519-.273a9,9,0,0,0-.508-1.682,1.156,1.156,0,0,0-.8-.6Z" transform="translate(-15.957 -26.504)" fill="#222221" fill-rule="evenodd"/><path d="M204.671,78.29a3.741,3.741,0,1,1-3.741-3.74,3.741,3.741,0,0,1,3.741,3.74Z" transform="translate(-107.613 -42.098)" fill="#f4d332"/><path d="M184.346,78.29a3.74,3.74,0,1,1-3.739-3.74,3.74,3.74,0,0,1,3.739,3.74Z" transform="translate(-96.851 -42.098)" fill="#c20e1a"/><path d="M163.862,78.29a3.741,3.741,0,1,1-3.741-3.74,3.741,3.741,0,0,1,3.741,3.74Z" transform="translate(-86.002 -42.098)" fill="#222221"/><path d="M6.938,78.321h.731v1.656H9.332V78.321h.731V82.44H9.332V80.613H7.669V82.44H6.938Z" transform="translate(-6.861 -44.095)" fill="#222221"/><path d="M15.774,78.321h.731V82.44h-.731Z" transform="translate(-11.541 -44.095)" fill="#222221"/><path d="M19.509,78.321H22v.617H20.24V80.1h1.493v.617H20.24V82.44h-.731Z" transform="translate(-13.519 -44.095)" fill="#222221"/><path d="M26.284,78.321h.731V82.44h-.731Z" transform="translate(-17.106 -44.095)" fill="#222221"/><path d="M32.858,77.035h.485v6.3h-.485Z" transform="translate(-20.588 -43.414)" fill="#222221"/><path d="M38.742,81.329a1.639,1.639,0,0,0,1.077.467c.46,0,.718-.208.718-.53,0-.34-.264-.447-.643-.6l-.56-.246a1.177,1.177,0,0,1-.832-1.1,1.251,1.251,0,0,1,1.38-1.16,1.824,1.824,0,0,1,1.273.523l-.378.467a1.326,1.326,0,0,0-.894-.353c-.39,0-.642.183-.642.485,0,.322.315.441.655.58l.555.233a1.145,1.145,0,0,1,.831,1.115,1.31,1.31,0,0,1-1.48,1.223,2.121,2.121,0,0,1-1.48-.6l.421-.5Z" transform="translate(-23.481 -44.01)" fill="#222221"/><path d="M46.339,78.938H45.148v-.617h3.105v.617H47.069v3.5h-.731Z" transform="translate(-27.096 -44.095)" fill="#222221"/><path d="M53.912,80.248h.58c.567,0,.869-.239.869-.705s-.3-.636-.869-.636h-.58v1.342Zm1.512,2.192-.888-1.613h-.624V82.44h-.731V78.321h1.386c.857,0,1.519.3,1.519,1.222a1.151,1.151,0,0,1-.826,1.178l.983,1.719Z" transform="translate(-31.35 -44.095)" fill="#222221"/><path d="M61.161,78.321h2.475v.617H61.892v1.052h1.48v.617h-1.48v1.216H63.7v.617H61.161Z" transform="translate(-35.576 -44.095)" fill="#222221"/><path d="M69.445,80.752l-.145-.5c-.126-.435-.252-.907-.372-1.361H68.9c-.113.46-.233.926-.366,1.361l-.145.5Zm.164.574H68.23l-.321,1.114h-.749l1.348-4.119h.856l1.342,4.119H69.93l-.321-1.114Z" transform="translate(-38.753 -44.095)" fill="#222221"/><path d="M75.74,78.321h.8l.744,2.028.271.781h.025l.271-.781.724-2.028h.806V82.44h-.686V80.557c0-.384.057-.932.094-1.31h-.025l-.333.938-.712,1.871h-.334l-.712-1.871-.328-.938H76.32c.031.378.088.926.088,1.31V82.44H75.74V78.321Z" transform="translate(-43.297 -44.095)" fill="#222221"/><path d="M85.675,78.321h.731V82.44h-.731Z" transform="translate(-48.558 -44.095)" fill="#222221"/><path d="M89.408,78.321h.75l1.279,2.318.429.875h.025c-.038-.422-.095-.946-.095-1.4V78.321h.692V82.44h-.75L90.46,80.122l-.428-.875h-.025c.038.435.094.932.094,1.392v1.8h-.693V78.321Z" transform="translate(-50.535 -44.095)" fill="#222221"/><path d="M99.649,78.16a1.674,1.674,0,0,1,1.228.523l-.4.454a1.075,1.075,0,0,0-.819-.341c-.731,0-1.222.567-1.222,1.493s.441,1.506,1.266,1.506a.906.906,0,0,0,.586-.183v-.889h-.775v-.6h1.43v1.813a1.994,1.994,0,0,1-1.329.492,1.9,1.9,0,0,1-1.928-2.124,1.954,1.954,0,0,1,1.965-2.147Z" transform="translate(-54.918 -44.009)" fill="#222221"/><path d="M109.345,77.035h.485v6.3h-.485Z" transform="translate(-61.093 -43.414)" fill="#222221"/><path d="M116.545,80.752l-.145-.5c-.126-.435-.251-.907-.371-1.361H116c-.113.46-.233.926-.365,1.361l-.145.5Zm.164.574h-1.38l-.321,1.114h-.75l1.348-4.119h.856L117.8,82.44h-.774l-.321-1.114Z" transform="translate(-63.695 -44.095)" fill="#222221"/><path d="M122.612,78.321h.731v2.368c0,.894.341,1.191.838,1.191s.85-.3.85-1.191V78.321h.706v2.312c0,1.354-.6,1.884-1.556,1.884s-1.569-.53-1.569-1.884V78.321Z" transform="translate(-68.119 -44.095)" fill="#222221"/><path d="M132.441,81.848c.832,0,1.31-.472,1.31-1.487s-.478-1.448-1.31-1.448h-.315v2.935h.315ZM131.4,78.321h1.1a2.061,2.061,0,0,1,.038,4.119H131.4V78.321Z" transform="translate(-72.771 -44.095)" fill="#222221"/><path d="M139.736,78.321h.731V82.44h-.731Z" transform="translate(-77.188 -44.095)" fill="#222221"/><path d="M145.888,80.276c0-.92-.421-1.48-1.065-1.48s-1.071.56-1.071,1.48.421,1.519,1.071,1.519,1.065-.593,1.065-1.519Zm-2.885,0c0-1.329.743-2.116,1.821-2.116s1.814.787,1.814,2.116-.743,2.155-1.814,2.155S143,81.612,143,80.276Z" transform="translate(-78.918 -44.009)" fill="#222221"/></svg>