<svg xmlns="http://www.w3.org/2000/svg" width="97.102" height="35.27" viewBox="0 0 97.102 35.27"><g transform="translate(0 0)"><g transform="translate(0 0)"><path d="M230.146,20.238c0,5.493-3.975,9.938-8.854,9.938s-8.492-4.445-8.492-9.938,3.614-9.938,8.492-9.938C226.207,10.3,230.146,14.745,230.146,20.238Z" transform="translate(-136.044 -7.807)" fill="#f49600"/><path d="M17.638,19.881v-.506a7.913,7.913,0,0,0-2.06-4.915,10.389,10.389,0,0,0-1.554-1.193,1.68,1.68,0,0,0-.325-.108c-.181-.072-.8-.253-.8-.361s.289-.4.434-.578a2.338,2.338,0,0,0,.289-.325,6.254,6.254,0,0,0,.94-3.578c0-3.325-3.108-4.517-6-4.517a4.9,4.9,0,0,0-.723.072,5.391,5.391,0,0,1-.759.072,7.017,7.017,0,0,1-.867-.072A7.018,7.018,0,0,0,5.351,3.8a4.449,4.449,0,0,0-.723.072,4.448,4.448,0,0,1-.723.072,7.017,7.017,0,0,1-.867-.072A7.018,7.018,0,0,0,2.171,3.8,1.854,1.854,0,0,0,.4,5.824c0,.542.036,1.12.072,1.662s.072,1.12.072,1.662c0,.253-.036.542-.036.8a6.125,6.125,0,0,0-.036.831,5.391,5.391,0,0,0,.072.759,5.431,5.431,0,0,1,.072.723v2.891c0,.8-.036,1.626-.036,2.421S.545,19.195.545,19.99a5.337,5.337,0,0,0,.036.759c0,.253.036.506.036.759,0,.831-.036,1.662-.108,2.457C.472,24.76.4,25.591.4,26.422a1.64,1.64,0,0,0,1.879,1.843c.361,0,.723-.036,1.084-.036.361-.036.723-.036,1.084-.036.506,0,1.012.036,1.482.072s.976.072,1.482.072c2.566,0,5.493-.145,7.444-1.951a9.5,9.5,0,0,0,2.024-2.746,3.812,3.812,0,0,0,.217-.867c.036-.145.036-.289.072-.434l.036-.181a8.458,8.458,0,0,0,.325-2.132l.108-.145ZM7.628,11.895h-.4c-1.193,0-2.024.072-2.024-1.518V8.606c0-.4.325-.614,1.012-.614.361,0,.723-.036,1.084-.072s.723-.072,1.084-.072a1.883,1.883,0,0,1,1.7,1.879A2.312,2.312,0,0,1,7.628,11.895Zm-2.2,5.529c.072-1.337.108-1.482,1.59-1.482a2.222,2.222,0,0,0,.506-.036c.181,0,.325-.036.506-.036a4.709,4.709,0,0,1,1.409.325c.145.036.253.108.4.145a3.838,3.838,0,0,1,2.71,1.988,6.9,6.9,0,0,1,.434,1.7,5.328,5.328,0,0,1-.289,1.265c-.94,2.421-2.674,2.6-4.842,2.6-1.807,0-2.638-.542-2.638-1.662C5.242,20.64,5.315,18.978,5.423,17.424Z" transform="translate(-0.4 -3.655)"/><path d="M66.857,25.049c0-1.084-1.156-1.156-2.168-1.229a4.565,4.565,0,0,1-1.156-.181,4.49,4.49,0,0,1-1.409-1.048l-.325-.325c-.036-.036-.145-.108-.253-.217-.217-.145-.614-.47-.614-.614,0-.289.253-.4.65-.506a3.413,3.413,0,0,0,.325-.108,16.818,16.818,0,0,0,3-2.277,9.759,9.759,0,0,0,1.554-3.794,2.337,2.337,0,0,1,.145-.47,3.936,3.936,0,0,0,.181-.94c0-.289-.036-.614-.036-.9a6.679,6.679,0,0,1-.036-.831,5.214,5.214,0,0,0-.542-2.746c-.145-.217-.289-.434-.434-.614a3.161,3.161,0,0,1-.289-.361c-.108-.145-.181-.289-.289-.434a3.581,3.581,0,0,0-.4-.614,4.563,4.563,0,0,0-1.446-1.193c-.108-.072-.181-.108-.289-.181C61.219,4.27,60.424,3.8,58.184,3.8a8.86,8.86,0,0,0-.976.072,8.26,8.26,0,0,1-.9.072,2.735,2.735,0,0,1-.542-.036,6.569,6.569,0,0,0-1.193,0,13.327,13.327,0,0,1-1.7-.036c-.4-.036-.759-.072-1.193-.072C50.017,3.8,49.8,5.137,49.8,6.438a6.664,6.664,0,0,0,.217,1.446,6.344,6.344,0,0,1,.217,1.409,1.482,1.482,0,0,1-.036.4,1.76,1.76,0,0,0-.036.434,4.427,4.427,0,0,0,.072.687,3.982,3.982,0,0,1,.072.65,1.759,1.759,0,0,1-.036.434,2.06,2.06,0,0,0-.036.47,4.9,4.9,0,0,0,.072.723,3.928,3.928,0,0,1,.036.65,9.255,9.255,0,0,1-.108,1.409c-.036.47-.108.976-.108,1.446a7.63,7.63,0,0,0,.072.94,8.224,8.224,0,0,1,.072.94c0,.4-.036.831-.036,1.229-.036.4-.036.831-.036,1.229,0,.181.036.361.036.506a2.386,2.386,0,0,1,.036.506c0,.145-.036.253-.036.4a1.759,1.759,0,0,0-.036.434,5.911,5.911,0,0,0,.072.8,5.391,5.391,0,0,1,.072.759,4.544,4.544,0,0,1-.181,1.193,6.71,6.71,0,0,0-.181,1.229c0,.976.4,1.482,1.337,1.482a3.983,3.983,0,0,0,.65-.072,6.881,6.881,0,0,1,1.229.036c.217,0,.4.036.578.036.687,0,1.373-.217,1.373-1.482a5.443,5.443,0,0,0-.217-1.337,5.441,5.441,0,0,1-.217-1.3c0-.47.072-1.265.614-1.265h.036a1.192,1.192,0,0,1,.867.434l.108.108a5.586,5.586,0,0,1,.867.976,6.849,6.849,0,0,0,.687.759A15.305,15.305,0,0,0,61.87,27.9a9.086,9.086,0,0,0,3.036.4c1.048,0,1.807-.289,1.807-1.337a1.62,1.62,0,0,0-.036-.4v-.361a2.789,2.789,0,0,1,.072-.542A1.836,1.836,0,0,0,66.857,25.049ZM54.787,14.967c.036-.4.072-.831.072-1.229,0-.361-.036-.723-.036-1.048a9.809,9.809,0,0,1-.036-1.048v-.434c0-1.12,0-1.988.506-2.493a2.637,2.637,0,0,1,1.915-.542,1.7,1.7,0,0,1,.614.145,3.011,3.011,0,0,0,.542.145c2.313.253,3.216,1.915,3.758,3.541l.036.072a2.416,2.416,0,0,1,.181.687,12.273,12.273,0,0,1-.289,1.662,19.187,19.187,0,0,1-1.735,2.71,3.179,3.179,0,0,1-1.265.614c-.217.072-.4.181-.542.217a3.886,3.886,0,0,1-1.988.4,4.085,4.085,0,0,1-1.265-.325h-.036a1.53,1.53,0,0,1-.181-.253l-.108-.108-.108-.542a4.9,4.9,0,0,1-.145-.976Z" transform="translate(-31.948 -3.655)"/><path d="M116.465,5.279c0-.506,0-1.7-1.048-1.7a3.183,3.183,0,0,0-.614.072,3.982,3.982,0,0,1-.65.072,4.427,4.427,0,0,1-.687-.072,4.9,4.9,0,0,0-.723-.072c-1.409,0-1.409,1.482-1.409,2.168a12.362,12.362,0,0,0,.145,1.662,12.354,12.354,0,0,1,.145,1.626c0,.47-.036.94-.072,1.373-.036.47-.072.94-.072,1.409a6.452,6.452,0,0,0,.072.831,7.014,7.014,0,0,1,.072.867,3.927,3.927,0,0,1-.036.65,4.151,4.151,0,0,0-.036.687c0,.361.036.759.036,1.12.036.361.036.723.036,1.12a4.842,4.842,0,0,1-.036.723c0,.253-.036.506-.036.723a7.635,7.635,0,0,0,.072.94,7.625,7.625,0,0,1,.072.94v.072a6.411,6.411,0,0,1-.072,1.156,3.185,3.185,0,0,1-3.361,2.6A12.692,12.692,0,0,1,105.877,24c-1.7-.578-1.7-2.1-1.7-3.686V20.2a2.837,2.837,0,0,1,.072-.506,2.788,2.788,0,0,0,.072-.542c0-.434.036-.867.072-1.265s.072-.831.072-1.229c0-.181-.036-.361-.036-.542a2.386,2.386,0,0,1-.036-.506c0-.4,0-.8-.036-1.229V13.157a4.845,4.845,0,0,1,.036-.723c0-.253.036-.47.036-.723,0-.687-.036-1.373-.072-2.06s-.072-1.409-.072-2.1a5.58,5.58,0,0,1,.181-1.12,4.073,4.073,0,0,0,.181-1.156c0-.65-.325-1.735-1.156-1.735-.253,0-.506.036-.723.036a4.608,4.608,0,0,1-.723.036,2.5,2.5,0,0,1-.723-.108,5.482,5.482,0,0,0-.759-.108c-.578,0-1.265.289-1.265,1.7a9.876,9.876,0,0,0,.181,1.446,6.277,6.277,0,0,1,.181,1.409c0,.542-.036,1.084-.036,1.59-.036.542-.036,1.084-.036,1.626v2.566a7.014,7.014,0,0,0,.072.867,6.454,6.454,0,0,1,.072.831,6.96,6.96,0,0,1-.036.867v.867a9.518,9.518,0,0,1-.072,1.012,9.555,9.555,0,0,0-.072,1.048,10.22,10.22,0,0,0,.072,1.048,9.518,9.518,0,0,1,.072,1.012v.867a6.646,6.646,0,0,0,.9,3.18c1.12,2.1,3.614,2.674,7.878,2.674a9.06,9.06,0,0,0,5.1-1.12c.289-.217.614-.4.9-.65,1.409-1.373,1.807-4.77,1.807-6.541,0-.831-.036-1.7-.036-2.53-.036-.831-.036-1.7-.036-2.53a3.979,3.979,0,0,1,.072-.65,4,4,0,0,0,.072-.687v-2.1c0-.181-.036-.4-.036-.578a3.11,3.11,0,0,1-.036-.578,5.394,5.394,0,0,1,.072-.759,4.9,4.9,0,0,0,.072-.723,4.372,4.372,0,0,0-.036-.687c0-.217-.036-.47-.036-.687a4.817,4.817,0,0,1,.108-1.012A3.748,3.748,0,0,1,116.465,5.279Z" transform="translate(-63.56 -3.4)"/><path d="M168.8,25.238a7.945,7.945,0,0,1-.181-1.337,4.846,4.846,0,0,1,.036-.723c0-.253.036-.506.036-.723,0-.253-.036-.542-.036-.8a5.858,5.858,0,0,1-.036-.8c0-.506.036-1.048.036-1.554.036-.506.036-1.048.036-1.59,0-.253-.036-.506-.036-.8a5.34,5.34,0,0,1-.036-.759c0-.542.036-1.12.072-1.662.036-.578.072-1.156.072-1.735a12.928,12.928,0,0,0-.145-1.626,9.052,9.052,0,0,1-.108-1.337c0-.614.072-1.265.108-1.879a16.549,16.549,0,0,0,.108-1.915c0-1.193-.217-2.313-1.7-2.313a5.391,5.391,0,0,0-.759.072c-.145.036-.325.036-.47.072h-.036c-1.048.072-1.988.108-1.988,1.626a3.825,3.825,0,0,0,.181,1.12,5.664,5.664,0,0,1,.181,1.084c0,.217-.036.4-.036.578a3.308,3.308,0,0,0-.036.614v5.276c0,.578.072,1.156.108,1.7a13.829,13.829,0,0,1,.108,1.7c0,.108-.072.289-.181.289-.072,0-.144-.108-.217-.181l-.108-.108a12.4,12.4,0,0,1-1.012-1.7,15.944,15.944,0,0,0-.9-1.554,2.34,2.34,0,0,0-.289-.325,3.82,3.82,0,0,1-.361-.434,4.255,4.255,0,0,0-.181-.4c-.036-.108-.072-.181-.108-.289a15.345,15.345,0,0,0-1.409-2.457l-.325-.434a3.983,3.983,0,0,1-.614-.9,2.041,2.041,0,0,1-.145-.434,2.337,2.337,0,0,0-.145-.47,2.024,2.024,0,0,0-.361-.542,3.018,3.018,0,0,1-.289-.434,5.321,5.321,0,0,1-.361-.8,5.81,5.81,0,0,0-.94-1.662,2.089,2.089,0,0,0-1.59-.759,3.506,3.506,0,0,0-.614.036c-.181,0-.4.036-.578.036a5.931,5.931,0,0,1-.831-.072,7.017,7.017,0,0,0-.867-.072c-.723,0-1.156.542-1.156,1.446a5.887,5.887,0,0,0,.289,1.554,5.627,5.627,0,0,1,.289,1.554,9.466,9.466,0,0,0,.036,1.012v1.012a8.869,8.869,0,0,1-.072.976,5.392,5.392,0,0,0-.072.759c-.036.65-.036,1.337-.036,1.988v.65c0,.253.036.506.036.723a4.608,4.608,0,0,1,.036.723,4.15,4.15,0,0,1-.036.687c0,.217-.036.47-.036.723,0,.4.036.8.036,1.193.036.4.036.8.036,1.156,0,.217-.036.47-.036.687a5.331,5.331,0,0,0-.036.759c0,.434.036.9.036,1.337.036.434.036.867.036,1.337A10.306,10.306,0,0,1,151.1,25.2a5.889,5.889,0,0,0-.108,1.12c0,1.409.542,1.951,1.843,1.951.217,0,.434-.036.651-.036a3.634,3.634,0,0,1,1.084,0c.145,0,.325.036.47.036.687,0,1.048-.434,1.048-1.229a7.6,7.6,0,0,0-.181-1.554,11.257,11.257,0,0,1-.181-1.59c0-.361.036-.759.072-1.12s.072-.759.072-1.156a7.016,7.016,0,0,0-.072-.867,7.018,7.018,0,0,1-.072-.867,4.938,4.938,0,0,1,.072-.687,4.448,4.448,0,0,0,.072-.723,3.182,3.182,0,0,0-.072-.614,3.183,3.183,0,0,1-.072-.614c0-.181.036-.325.036-.47s.036-.325.036-.506a9.532,9.532,0,0,0-.072-1.012,8.847,8.847,0,0,1-.072-.976c0-.108.072-.325.108-.325.108,0,.506.506.614.687a.5.5,0,0,0,.108.145,9.435,9.435,0,0,1,1.192,1.879,11.827,11.827,0,0,0,.614,1.12,8.42,8.42,0,0,0,.614.94,8.164,8.164,0,0,1,.47.723,9.542,9.542,0,0,1,.542,1.048,14.106,14.106,0,0,0,.687,1.265c.217.325.434.65.65.94a12.542,12.542,0,0,1,1.518,2.6c.072.145.108.289.181.47a4.473,4.473,0,0,0,1.482,2.421,1.624,1.624,0,0,0,.831.145H167a2.1,2.1,0,0,0,1.265-.217c.325-.217.434-.614.434-1.337v-.217A1.6,1.6,0,0,0,168.8,25.238Z" transform="translate(-96.385 -3.592)"/><path d="M226.747,11.242a14.542,14.542,0,0,0-4.626-6.107,6.626,6.626,0,0,0-1.518-.759l-.217-.072a11.4,11.4,0,0,0-2.674-.8,12.892,12.892,0,0,0-2.024-.108H215a11.217,11.217,0,0,0-7.336,2.746,2.848,2.848,0,0,0-.434.542.959.959,0,0,1-.181.217,13.05,13.05,0,0,0-3.252,8.745,4.378,4.378,0,0,0,.036.687,4.838,4.838,0,0,1,.036.723,11.169,11.169,0,0,0,.723,3.722,9.4,9.4,0,0,0,4.915,6c.217.108.4.145.614.253.181.072.361.108.542.181a12.108,12.108,0,0,0,5.023.9c.47,0,.578-.036,1.012-.036.434-.036.9-.036,1.337-.036a15.6,15.6,0,0,0,1.735-.4,15.642,15.642,0,0,0,2.53-1.409,11.031,11.031,0,0,0,2.819-2.674,17.851,17.851,0,0,0,2.132-5.421,19.449,19.449,0,0,0,.145-2.2A34.159,34.159,0,0,0,226.747,11.242Zm-8.854,7.119-.181.072c-.831.289-2.06.723-1.988,2.313,0,.361.145,1.048.65,1.048a2.165,2.165,0,0,0,1.193-.434,3.416,3.416,0,0,1,.723-.4,2.036,2.036,0,0,1,.434-.145,4.483,4.483,0,0,1,1.951-.361h.253a1.457,1.457,0,0,1,.4,0,7.021,7.021,0,0,1-.361.614.974.974,0,0,1-.289.253,1.1,1.1,0,0,0-.289.289l-.181.217a5.423,5.423,0,0,1-1.735,1.409,7.97,7.97,0,0,1-3.289.614,4.368,4.368,0,0,1-2.06-.542l-.253-.108a5.461,5.461,0,0,1-1.048-.47,5.019,5.019,0,0,1-1.156-1.156l-.145-.181c-.072-.108-.181-.217-.253-.325a6.639,6.639,0,0,1-.614-.8,9.65,9.65,0,0,1-.9-3.867,3.163,3.163,0,0,1,.072-.578,4,4,0,0,0,.072-.687,4.984,4.984,0,0,1,.181-1.337l.108-.434a1.114,1.114,0,0,0,.036-.361,3.833,3.833,0,0,1,.145-.687A7.078,7.078,0,0,1,212,8.748a1.78,1.78,0,0,1,.614-.217,1.3,1.3,0,0,0,.4-.145,4.287,4.287,0,0,1,2.53-.542,6.876,6.876,0,0,1,3.18.723,3.847,3.847,0,0,0-1.662.325,2.327,2.327,0,0,0-1.554,1.879c0,.361.325,1.084.831,1.084a2.286,2.286,0,0,0,1.265-.4,3.349,3.349,0,0,1,.723-.325,4.994,4.994,0,0,1,2.746-.289,8.112,8.112,0,0,1,.94,2.2h-1.084a8.548,8.548,0,0,0-3.072.578c-.867.325-1.735.976-1.735,1.7v.181c-.036.325-.072.759.687,1.084a.962.962,0,0,0,.434.108,1.764,1.764,0,0,0,.976-.4,4.12,4.12,0,0,1,.687-.361,6.288,6.288,0,0,1,2.674-.506,3.035,3.035,0,0,1,.687.108,2.809,2.809,0,0,1,.036.47v.759a2.568,2.568,0,0,1-.145.94v.036h0a5.6,5.6,0,0,0-.8.036,3.927,3.927,0,0,1-.65.036A7.387,7.387,0,0,0,217.894,18.361Z" transform="translate(-130.296 -3.4)"/></g></g><g transform="translate(14.455 27.031)"><path d="M45.748,83.259a3.367,3.367,0,0,1-1.626,3.036c-.181.072-.217.145-.434.145h-.4a2.2,2.2,0,0,1-1.265-.578c-.181,0-.108.108-.108.217,0,.181-.108.253-.289.253-.145,0-.289-.072-.434-.072-.108,0-.253.036-.4.036-.325,0-.361-.361-.361-.614,0-.289.072-.542.072-.8s-.036-.542-.036-.8.036-.506.036-.759c0-.4-.036-.759-.036-1.156,0-.361.036-.759.036-1.156,0-.506-.036-1.048-.036-1.59,0-.217-.072-.4-.072-.614,0-.289.108-.614.434-.614.108,0,.253.036.361.036s.253-.036.361-.036c.4,0,.4.181.4.506,0,.253-.108.47-.108.687v.542c0,.217.036.4.036.614,0,.036.036.108.072.108a3.115,3.115,0,0,1,1.446-.578,2.31,2.31,0,0,1,2.168,1.951c.036.072,0,.181.036.253a9.073,9.073,0,0,0,.145.976ZM43.11,81.6a1.905,1.905,0,0,0-.434.108c-.831.325-.867.867-.867,1.662,0,.687.325,1.626,1.156,1.626a1.323,1.323,0,0,0,1.12-.506,2.628,2.628,0,0,0,.217-.759,2.115,2.115,0,0,0,.072-.47C44.339,82.428,44.014,81.6,43.11,81.6Z" transform="translate(-40.4 -78.2)"/><path d="M61.506,89.282c0,.289-.108.4-.361.4-.145,0-.325-.036-.47-.036s-.325.036-.47.036c-.253,0-.108-.289-.361-.289a2.123,2.123,0,0,1-1.012.4A1.974,1.974,0,0,1,56.881,88.6c-.036-.108-.036-.181-.072-.289a4.073,4.073,0,0,1-.108-.651,2.242,2.242,0,0,1,.361-1.265,1.358,1.358,0,0,1,1.265-.723,5.394,5.394,0,0,1,.759-.072c.253,0,.47.108.687.108a.171.171,0,0,0,.181-.181c0-.651-.145-.723-.723-.8-.072,0-.145-.036-.253-.036-.542,0-.759.4-1.193.4s-.4-.578-.4-.867c0-.723,1.12-.687,1.626-.687.181,0,.4-.036.578-.036a1.9,1.9,0,0,1,1.518.759A3.965,3.965,0,0,1,61.4,85.7c0,.253-.036.47-.036.723,0,.145-.036.253-.036.4,0,.181.036.361.036.542,0,.325-.036.687-.036,1.012a6.657,6.657,0,0,0,.181.9Zm-1.7-2.1c-.036-.036-.036-.108-.072-.145a1.292,1.292,0,0,0-.831-.181.8.8,0,0,0-.867.8c0,.361.253.867.65.867h.253a.982.982,0,0,0,1.048-.94C59.989,87.367,59.916,87.331,59.808,87.186Z" transform="translate(-50.81 -81.585)"/><path d="M74.246,89.887a3.506,3.506,0,0,1-1.193-.361,2.592,2.592,0,0,1-1.373-1.7,3.711,3.711,0,0,1-.181-.867c0-.253.036-.506.036-.759a.681.681,0,0,1,.072-.289A2.493,2.493,0,0,1,72.729,84c.108-.072.217-.181.325-.253a3.958,3.958,0,0,1,.976-.145c.4,0,1.12-.036,1.12.506,0,.108-.036.253-.036.361s.036.181.036.289a.328.328,0,0,1-.289.361c-.253,0-.434-.108-.687-.108a1.154,1.154,0,0,0-.867.4,2.509,2.509,0,0,0-.289,1.265,2.178,2.178,0,0,0,.289,1.048,1.2,1.2,0,0,0,.217.361,1.766,1.766,0,0,0,1.12.4c.108,0,.217-.036.289-.036.325,0,.289.4.289.614,0,.145.036.253.036.4C75.258,89.887,74.608,89.887,74.246,89.887Z" transform="translate(-60.261 -81.648)"/><path d="M88.109,86a.324.324,0,0,1-.325.325c-.145,0-.253-.036-.4-.036-.181,0-.325.072-.47.072a.758.758,0,0,1-.4-.145c-.145-.108-.181-.4-.253-.578a3.432,3.432,0,0,0-.361-.614c-.108-.181-.325-.94-.542-.94-.108,0-.145.108-.145.181,0,.325-.036.687-.036,1.048,0,.253.108.47.108.723s-.217.289-.434.289c-.108,0-.217-.036-.325-.036s-.217.036-.361.036c-.361,0-.47-.253-.47-.578,0-.289.108-.578.108-.867,0-.325-.036-.65-.036-.976,0-.181-.036-.325-.036-.506V82.384c0-.4.072-.8.072-1.229,0-.289-.036-.578-.036-.831v-.542c0-.145.036-.289.036-.434,0-.181-.072-.325-.072-.506,0-.217.145-.542.4-.542h.759c.253,0,.361.217.361.434,0,.289-.108.542-.108.831v.759c0,.217.036.47.036.687,0,.181-.036.325-.036.506,0,.108-.036.759.145.759.108,0,.108-.072.181-.108a5.272,5.272,0,0,0,.614-1.084,1.572,1.572,0,0,0,.145-.253c.072-.145.036-.253.181-.361a.494.494,0,0,1,.4-.145c.145,0,.289.036.434.036s.289-.036.434-.036a.266.266,0,0,1,.289.289c0,.325-.253.506-.434.8-.145.217-.253.47-.434.723-.145.253-.361.47-.47.687a.513.513,0,0,0-.072.217c0,.289.145.361.253.578a1.3,1.3,0,0,1,.145.4c.145.289.47.9.614,1.12.108.145.253.289.361.434a.667.667,0,0,1,.181.434Z" transform="translate(-68.052 -78.264)"/><path d="M100.587,85.885a.71.71,0,0,1-.65.723H98.057l-.687.036a.518.518,0,0,0-.181.4,1.275,1.275,0,0,0,1.156,1.409c1.048,0,1.156-.578,1.482-.578s.289.361.4.578c.108.181.289.253.289.506,0,.47-.4.506-.759.614a3.518,3.518,0,0,1-1.229.217,3.161,3.161,0,0,1-1.3-.181c-1.337-.651-1.626-1.915-1.626-3.289a3.405,3.405,0,0,1,.867-2.241,2.526,2.526,0,0,1,1.59-.578,2.2,2.2,0,0,1,2.168,1.084,2.821,2.821,0,0,1,.361,1.3Zm-2.349-1.3a.857.857,0,0,0-.9.831c0,.289.361.217.578.217.108,0,.217.036.325.036.145,0,.289-.036.434-.036s.4,0,.4-.217A.778.778,0,0,0,98.238,84.584Z" transform="translate(-75.652 -81.585)"/><path d="M115.322,89.835c-.145,0-.289.036-.434.036-.325,0-.4-.289-.4-.542,0-.289.072-.542.072-.831s-.036-.542-.036-.831.036-.614.036-.9c0-.108-.036-.217-.036-.325,0-.47-.036-1.048-.614-1.048a.3.3,0,0,0-.253.072,1.652,1.652,0,0,0-.506.723,8.074,8.074,0,0,0-.072,1.337c0,.145.036.289.036.4v.8c0,.253.072.506.072.8,0,.325-.181.4-.47.4h-.65c-.4,0-.434-.289-.434-.614,0-.289.072-.614.072-.94,0-.072-.036-.181-.036-.253a5.836,5.836,0,0,0,0-.8c0-.108-.036-.217-.036-.325,0-.145.036-.253.036-.4V85.354c0-.289-.072-.614-.072-.9,0-.325.145-.578.506-.578.145,0,.289.036.4.036s.217-.036.325-.036c.434,0,.217.578.434.578a1.711,1.711,0,0,1,1.3-.651,1.521,1.521,0,0,1,1.409,1.446v3.108c0,.361.072.723.072,1.12C116.045,89.98,115.72,89.835,115.322,89.835Z" transform="translate(-85.87 -81.776)"/><path d="M140.145,89.465c0,.542-.361.434-.759.434-.181,0-.361.036-.506.036-.253,0-.253-.145-.253-.361,0-.072,0-.108-.108-.108s-.506.614-1.156.614a1.385,1.385,0,0,1-1.048-.361c-.65-.542-.542-1.084-.542-1.843,0-.108-.036-.181-.036-.289,0-.145.036-.289.036-.4,0-.434-.036-.831-.036-1.265,0-.108.036-.253.036-.4v-.542c0-.145-.072-.289-.072-.47,0-.614.108-.542.65-.542.181,0,.361-.036.542-.036.325,0,.434.253.434.506,0,.181-.108.361-.108.542v.434c0,.361.036.759.036,1.12,0,.145-.036.289-.036.47,0,.108.036.253.036.361,0,.506-.072,1.084.614,1.084.506,0,.8-.723.8-1.156,0-.506-.036-1.012-.036-1.482,0-.108.036-.253.036-.4,0-.289-.036-.578-.036-.867,0-.253,0-.65.361-.65.145,0,.289.036.434.036.108,0,.253-.036.4-.036.325,0,.361.289.361.542,0,.289-.072.578-.072.867,0,.072.036.145.036.253,0,.036-.036.108-.036.145,0,.325.036.65.036.94,0,.253-.036.506-.036.759,0,.108.036.253.036.361,0,.217-.036.47-.036.687a4.659,4.659,0,0,0,.036,1.012Z" transform="translate(-101.261 -81.84)"/><path d="M154.722,89.835c-.145,0-.289.036-.434.036-.325,0-.4-.289-.4-.542,0-.289.072-.542.072-.831s-.036-.542-.036-.831.036-.614.036-.9c0-.108-.036-.217-.036-.325,0-.47-.036-1.048-.614-1.048a.305.305,0,0,0-.253.072,1.652,1.652,0,0,0-.506.723,8.069,8.069,0,0,0-.072,1.337c0,.145.036.289.036.4v.8c0,.253.072.506.072.8,0,.325-.181.4-.47.4h-.651c-.4,0-.434-.289-.434-.614,0-.289.072-.614.072-.94,0-.072-.036-.181-.036-.253a5.838,5.838,0,0,0,0-.8c0-.108-.036-.217-.036-.325,0-.145.036-.253.036-.4V85.354c0-.289-.072-.614-.072-.9,0-.325.145-.578.506-.578.145,0,.289.036.4.036s.217-.036.325-.036c.434,0,.217.578.434.578a1.711,1.711,0,0,1,1.3-.651,1.521,1.521,0,0,1,1.409,1.446v3.108c0,.361.072.723.072,1.12C155.445,89.98,155.12,89.835,154.722,89.835Z" transform="translate(-111.032 -81.776)"/><path d="M170.921,85.961c0,.253-.108.361-.361.361-.145,0-.289-.072-.434-.072s-.289.072-.47.072c-.108,0-.145-.036-.253-.108l-.036-.072c-.036-.036-.036-.181-.181-.181s-.542.47-1.229.47a2.443,2.443,0,0,1-1.735-.976,3.851,3.851,0,0,1-.723-2.241,3.249,3.249,0,0,1,1.735-2.927,1.113,1.113,0,0,1,.47-.108c.759,0,1.084.47,1.373.47s.289-.325.289-.542c0-.434-.108-.867-.108-1.337,0-.289.072-.47.4-.47.145,0,.289.036.434.036.108,0,.253-.036.361-.036.325,0,.361.181.361.47,0,.217-.072.434-.072.65,0,.108.036.253.036.361v1.337c0,.253-.036.47-.036.723,0,.4.036.831.036,1.229,0,.108-.036.217-.036.325,0,.253.036.506.036.759s-.036.47-.036.723c0,.108-.036.253-.036.361,0,.289.145.578.145.831v-.108ZM169.4,82.817c0-.036.036-.108.036-.145a1.219,1.219,0,0,0-1.229-1.084.981.981,0,0,0-.614.217,1.62,1.62,0,0,0-.578,1.373,4.557,4.557,0,0,0,.145,1.012,1.373,1.373,0,0,0,1.3.867c.578,0,1.012-1.048,1.012-1.554C169.475,83.251,169.4,83.034,169.4,82.817Z" transform="translate(-120.292 -78.264)"/><path d="M194.391,78.634c0,.289.108.94-.325.94-.145,0-.289-.108-.47-.108-.217,0-.289.217-.289.4,0,.145.036.4.253.4.108,0,.253-.036.361-.036.4,0,.325.361.325.614,0,.108.036.217.036.325,0,.253-.108.361-.325.361-.072,0-.145-.036-.217-.036-.361,0-.253.361-.253.578,0,.181-.036.325-.036.506,0,.289.036.542.036.831,0,.181-.036.361-.036.542,0,.217.036.434.036.614,0,.108.036.217.036.325,0,.145-.036.253-.036.4,0,.217.072.4.072.578a.383.383,0,0,1-.434.434c-.108,0-.253-.036-.361-.036s-.217.036-.325.036c-.4,0-.47-.289-.47-.65,0-.253.072-.47.072-.687,0-.145-.036-.325-.036-.47,0-.108-.036-.217-.036-.325,0-.145.036-.325.036-.47,0-.108-.036-.217-.036-.325,0-.181.036-.325.036-.506,0-.108-.036-.253-.036-.4,0-.181.072-.723-.108-.9-.108-.108-.361,0-.361-.253,0-.072.036-.145.036-.253,0-.145-.036-.289-.036-.4a.863.863,0,0,1,.072-.325c.072-.036.108-.036.181-.072.145-.108.289-.108.289-.4,0-.181-.036-.361-.036-.578a1,1,0,0,1,1.048-1.084h.542c.289.036.795,0,.795.434Z" transform="translate(-136.896 -78.2)"/><path d="M204.787,85.885a.71.71,0,0,1-.65.723h-1.879l-.687.036a.518.518,0,0,0-.181.4,1.275,1.275,0,0,0,1.156,1.409c1.048,0,1.156-.578,1.482-.578s.289.361.4.578c.108.181.289.253.289.506,0,.47-.4.506-.759.614a3.518,3.518,0,0,1-1.229.217,3.161,3.161,0,0,1-1.3-.181c-1.337-.651-1.626-1.915-1.626-3.289a3.405,3.405,0,0,1,.867-2.241,2.526,2.526,0,0,1,1.59-.578,2.2,2.2,0,0,1,2.168,1.084,3.341,3.341,0,0,1,.361,1.3Zm-2.349-1.3a.857.857,0,0,0-.9.831c0,.289.361.217.578.217.108,0,.217.036.325.036.145,0,.289-.036.434-.036s.4,0,.4-.217A.778.778,0,0,0,202.438,84.584Z" transform="translate(-142.197 -81.585)"/><path d="M217.165,86.423c-.145,0-.253-.036-.4-.036s-.325.036-.47.036c-.289,0-.4-.108-.4-.4,0-.4.072-.723.072-1.12,0-.47-.036-.976-.036-1.482v-.614c0-.4.036-.8.036-1.193,0-.253-.072-.542-.072-.8s.036-.47.325-.47c.145,0,.325.036.47.036s.289-.036.47-.036.289.072.289.253c0,.361-.072.759-.072,1.12,0,.145.036.289.036.47,0,.145-.036.289-.036.434,0,.253.036.506.036.759V85.3c0,.253.036.506.036.759C217.454,86.206,217.382,86.423,217.165,86.423Zm-.181-6.577c-.108,0-.217-.036-.361-.036-.108,0-.253.036-.361.036-.361,0-.325-.289-.325-.578,0-.108-.036-.181-.036-.289,0-.325.036-.578.434-.578.145,0,.289.036.434.036.108,0,.253-.036.361-.036.4,0,.289.361.289.65,0,.145.036.289.036.434C217.454,79.773,217.237,79.846,216.984,79.846Z" transform="translate(-152.478 -78.328)"/><path d="M226.922,89.835c-.145,0-.289.036-.434.036-.325,0-.4-.289-.4-.542,0-.289.072-.542.072-.831s-.036-.542-.036-.831.036-.614.036-.9c0-.108-.036-.217-.036-.325,0-.47-.036-1.048-.614-1.048a.305.305,0,0,0-.253.072,1.652,1.652,0,0,0-.506.723,8.077,8.077,0,0,0-.072,1.337c0,.145.036.289.036.4v.8c0,.253.072.506.072.8,0,.325-.181.4-.47.4h-.65c-.4,0-.434-.289-.434-.614,0-.289.072-.614.072-.94,0-.072-.036-.181-.036-.253a5.84,5.84,0,0,0,0-.8c0-.108-.036-.217-.036-.325,0-.145.036-.253.036-.4V85.354c0-.289-.072-.614-.072-.9,0-.325.145-.578.506-.578.145,0,.289.036.4.036s.217-.036.325-.036c.434,0,.217.578.434.578a1.711,1.711,0,0,1,1.3-.651,1.521,1.521,0,0,1,1.409,1.446v3.108c0,.361.072.723.072,1.12C227.645,89.98,227.32,89.835,226.922,89.835Z" transform="translate(-157.14 -81.776)"/><path d="M242.187,85.885a.71.71,0,0,1-.65.723h-1.879l-.687.036a.518.518,0,0,0-.181.4,1.275,1.275,0,0,0,1.156,1.409c1.048,0,1.156-.578,1.482-.578s.289.361.4.578c.108.181.289.253.289.506,0,.47-.4.506-.759.614a3.518,3.518,0,0,1-1.229.217,3.161,3.161,0,0,1-1.3-.181c-1.337-.651-1.626-1.915-1.626-3.289a3.406,3.406,0,0,1,.867-2.241,2.526,2.526,0,0,1,1.59-.578,2.2,2.2,0,0,1,2.168,1.084,2.445,2.445,0,0,1,.361,1.3Zm-2.313-1.3a.857.857,0,0,0-.9.831c0,.289.361.217.578.217.108,0,.217.036.325.036.145,0,.289-.036.434-.036s.4,0,.4-.217A.8.8,0,0,0,239.874,84.584Z" transform="translate(-166.081 -81.585)"/><path d="M255.936,89.571a5.443,5.443,0,0,1-1.337.217,2.83,2.83,0,0,1-.94-.145c-.072-.036-.108-.072-.145-.072a1.9,1.9,0,0,1-.434-.108.368.368,0,0,1-.181-.289c0-.108.036-.253.036-.361,0-.145-.036-.325-.036-.47,0-.217.036-.47.325-.47.361,0,.651.65,1.409.65.361,0,.8-.181.8-.614,0-.506-.325-.506-.687-.687-.108-.072-.253-.145-.361-.217a3.793,3.793,0,0,1-1.012-.506,2.046,2.046,0,0,1-.47-1.3,1.563,1.563,0,0,1,1.771-1.7c.325,0,.65.072,1.012.072.4,0,.65.181.65.578,0,.108-.036.253-.036.4,0,.108.036.181.036.289a.3.3,0,0,1-.325.289c-.361,0-.578-.361-1.229-.361-.289,0-.434.181-.434.47,0,.867,2.566.47,2.566,2.783A2.138,2.138,0,0,1,255.936,89.571Z" transform="translate(-176.108 -81.585)"/></g></svg>