<svg xmlns="http://www.w3.org/2000/svg" width="97.942" height="34.915" viewBox="0 0 97.942 34.915"><g transform="translate(26.979 0)"><rect width="2.381" height="4.874" transform="translate(8.389)" fill="#004899"/><rect width="2.381" height="4.874" transform="translate(12.016)" fill="#004899"/><path d="M29.808,0H23.8V18.024a6.048,6.048,0,0,0,6.008,6.008H40.69A6.048,6.048,0,0,0,46.7,18.024V0H40.69V16.437a3.168,3.168,0,0,1-3.061,2.834H32.755a3.048,3.048,0,0,1-3.061-3.061Z" transform="translate(-23.8)" fill="#004899" fill-rule="evenodd"/></g><path d="M65.09,4.874V0H54.208A6.048,6.048,0,0,0,48.2,6.008V34.915h6.008V15.644h9.635V10.882H54.208V7.6a2.979,2.979,0,0,1,2.947-2.834Z" transform="translate(6.439 0)" fill="#004899" fill-rule="evenodd"/><path d="M83.09,24.132H89.1V6.108A6.048,6.048,0,0,0,83.09.1H72.208A6.048,6.048,0,0,0,66.2,6.108V24.132h6.008V15.744H83.09Zm0-13.263H72.208V7.582a2.979,2.979,0,0,1,2.947-2.834H80.03A3.048,3.048,0,0,1,83.09,7.808Z" transform="translate(8.844 0.013)" fill="#004899" fill-rule="evenodd"/><path d="M15.644,0H0V24.145H16.21a6.58,6.58,0,0,0,6.575-6.575,6.787,6.787,0,0,0-4.308-6.235,5.961,5.961,0,0,0,3.061-5.215A5.774,5.774,0,0,0,15.644,0M13.036,4.874a2.394,2.394,0,0,1,2.381,2.381,2.325,2.325,0,0,1-2.381,2.381H6.008V4.874Zm-7.028,14.4V14.4h8.275a2.381,2.381,0,1,1,0,4.761H6.008Z" transform="translate(0 0)" fill="#004899"/></svg>