<?xml version="1.0" encoding="utf-8"?>
<!-- Generator: Adobe Illustrator 25.4.1, SVG Export Plug-In . SVG Version: 6.00 Build 0)  -->
<svg version="1.1" id="Ebene_1" xmlns="http://www.w3.org/2000/svg" xmlns:xlink="http://www.w3.org/1999/xlink" x="0px" y="0px"
	 viewBox="0 0 218 58" style="enable-background:new 0 0 218 58;" xml:space="preserve">
<style type="text/css">
	.st0{opacity:0.5;}
	.st1{fill:#878795;}
	.st2{fill:#6C6C79;}
	.st3{fill:#B5B5BF;}
	.st4{enable-background:new    ;}
</style>
<g transform="translate(-295 -32)" class="st0">
	<g>
		<path class="st1" d="M323,40h14v28h-14V40z"/>
	</g>
	<g>
		<rect x="309" y="54" class="st2" width="14" height="14"/>
	</g>
	<g>
		<rect x="295" y="68" class="st3" width="28" height="14"/>
	</g>
	<g class="st4">
		<path class="st2" d="M354.8,43.9c1.8,0,3.4,0.8,4.3,2.1v-6.5h4.3V58h-4.3v-2c-0.8,1.3-2.2,2.2-4.3,2.2c-3.4,0-6.1-2.8-6.1-7.2
			C348.7,46.6,351.4,43.9,354.8,43.9z M356.1,47.6c-1.6,0-3,1.2-3,3.4s1.4,3.5,3,3.5c1.6,0,3-1.2,3-3.4
			C359.1,48.8,357.7,47.6,356.1,47.6z"/>
		<path class="st2" d="M372,58.2c-4.1,0-7-2.8-7-7.2s2.9-7.2,7-7.2c4.1,0,6.9,2.7,6.9,6.9c0,0.4,0,0.8-0.1,1.2h-9.7
			c0.1,1.8,1.3,2.7,2.6,2.7c1.2,0,1.9-0.6,2.2-1.3h4.5C377.9,56.1,375.4,58.2,372,58.2z M369.2,49.7h5.3c0-1.5-1.2-2.4-2.6-2.4
			C370.5,47.3,369.4,48.1,369.2,49.7z"/>
		<path class="st2" d="M394.2,58h-4.3v-1.9c-0.8,1.2-2.3,2-4.2,2c-3.2,0-5.4-2.2-5.4-5.9v-8.1h4.2v7.6c0,1.9,1.1,2.9,2.7,2.9
			c1.6,0,2.7-1,2.7-2.9v-7.6h4.3V58z"/>
		<path class="st2" d="M402.1,54.1l-2.2,3.9h-4.6l4.6-7.1l-4.7-6.8h4.8l2.7,3.8l2.2-3.8h4.6l-4.7,7l4.8,6.9h-4.8L402.1,54.1z"/>
	</g>
	<g class="st4">
		<path class="st2" d="M348.1,67.1h4.3l2,10l2.3-10h4.5l2.4,9.9l1.9-9.9h4L365.8,81h-4.7l-2.2-9l-2.3,9h-4.7L348.1,67.1z"/>
		<path class="st2" d="M376.6,81.2c-4.1,0-7-2.8-7-7.2s2.9-7.2,7-7.2c4.1,0,6.9,2.7,6.9,6.9c0,0.4,0,0.8-0.1,1.2h-9.7
			c0.1,1.8,1.3,2.7,2.6,2.7c1.2,0,1.9-0.6,2.2-1.3h4.5C382.6,79.1,380.1,81.2,376.6,81.2z M373.9,72.7h5.3c0-1.5-1.2-2.4-2.6-2.4
			C375.2,70.3,374.1,71.1,373.9,72.7z"/>
		<path class="st2" d="M393.7,66.9c3.4,0,6.1,2.7,6.1,7.1c0,4.4-2.7,7.2-6.1,7.2c-2,0-3.5-0.9-4.3-2.1V81h-4.3V62.5h4.3V69
			C390.1,67.8,391.7,66.9,393.7,66.9z M392.4,70.6c-1.6,0-3,1.2-3,3.4c0,2.2,1.4,3.4,3,3.4c1.6,0,3.1-1.2,3.1-3.5
			S394,70.6,392.4,70.6z"/>
		<path class="st2" d="M407,81.2c-3.7,0-6.2-2.1-6.4-4.8h4.2c0.1,1,1,1.6,2.1,1.6c1.1,0,1.7-0.5,1.7-1.1c0-2.2-7.6-0.6-7.6-5.7
			c0-2.4,2-4.3,5.7-4.3c3.6,0,5.6,2,5.9,4.7h-3.9c-0.1-1-0.8-1.6-2-1.6c-1,0-1.5,0.4-1.5,1.1c0,2.2,7.5,0.6,7.6,5.8
			C412.6,79.4,410.5,81.2,407,81.2z"/>
		<path class="st2" d="M420.9,81.2c-4.1,0-7.2-2.8-7.2-7.2s3.2-7.2,7.2-7.2c4.1,0,7.2,2.7,7.2,7.2S425,81.2,420.9,81.2z M420.9,77.5
			c1.5,0,2.9-1.1,2.9-3.5c0-2.4-1.4-3.5-2.9-3.5c-1.5,0-2.9,1.1-2.9,3.5C418,76.4,419.3,77.5,420.9,77.5z"/>
		<path class="st2" d="M429.7,62.5h4.3V81h-4.3V62.5z"/>
		<path class="st2" d="M450.1,81h-4.3v-1.9c-0.9,1.2-2.3,2-4.2,2c-3.2,0-5.4-2.2-5.4-5.9v-8.1h4.2v7.6c0,1.9,1.1,2.9,2.7,2.9
			c1.6,0,2.7-1,2.7-2.9v-7.6h4.3V81z"/>
		<path class="st2" d="M453.1,70.6h-1.7v-3.5h1.7v-3.4h4.3v3.4h2.8v3.5h-2.8v5.6c0,0.8,0.3,1.2,1.3,1.2h1.5V81H458
			c-2.9,0-4.9-1.2-4.9-4.8V70.6z"/>
		<path class="st2" d="M461.4,63.3c0-1.3,1-2.3,2.5-2.3c1.5,0,2.5,1,2.5,2.3c0,1.3-1,2.3-2.5,2.3C462.4,65.6,461.4,64.6,461.4,63.3z
			 M461.8,67.1h4.3V81h-4.3V67.1z"/>
		<path class="st2" d="M474.8,81.2c-4.1,0-7.2-2.8-7.2-7.2s3.2-7.2,7.2-7.2c4.1,0,7.2,2.7,7.2,7.2S478.9,81.2,474.8,81.2z
			 M474.8,77.5c1.5,0,2.9-1.1,2.9-3.5c0-2.4-1.4-3.5-2.9-3.5c-1.6,0-2.9,1.1-2.9,3.5C471.9,76.4,473.2,77.5,474.8,77.5z"/>
		<path class="st2" d="M493.2,73.4c0-1.9-1-2.9-2.7-2.9c-1.6,0-2.7,1-2.7,2.9V81h-4.3V67.1h4.3v1.8c0.8-1.2,2.3-2,4.2-2
			c3.2,0,5.4,2.2,5.4,5.9V81h-4.2V73.4z"/>
		<path class="st2" d="M505.4,81.2c-3.7,0-6.2-2.1-6.4-4.8h4.2c0.1,1,1,1.6,2.2,1.6c1.1,0,1.7-0.5,1.7-1.1c0-2.2-7.6-0.6-7.6-5.7
			c0-2.4,2-4.3,5.7-4.3c3.6,0,5.6,2,5.9,4.7H507c-0.1-1-0.8-1.6-2-1.6c-1,0-1.6,0.4-1.6,1.1c0,2.2,7.5,0.6,7.6,5.8
			C511,79.4,508.9,81.2,505.4,81.2z"/>
	</g>
</g>
</svg>
