<?xml version="1.0" encoding="UTF-8" standalone="no"?>
<!DOCTYPE svg PUBLIC "-//W3C//DTD SVG 1.1//EN" "http://www.w3.org/Graphics/SVG/1.1/DTD/svg11.dtd">
<svg width="100%" height="100%" viewBox="0 0 696 109" version="1.1" xmlns="http://www.w3.org/2000/svg" xmlns:xlink="http://www.w3.org/1999/xlink" xml:space="preserve" xmlns:serif="http://www.serif.com/" style="fill-rule:evenodd;clip-rule:evenodd;stroke-linejoin:round;stroke-miterlimit:2;">
    <g transform="matrix(4.16667,0,0,4.16667,0,0)">
        <path d="M19.3,18.043L11.027,22.819L2.755,18.043L2.755,8.49L11.027,3.714L19.3,8.49L19.3,18.043ZM0,6.9L0,19.634L11.027,26L22.055,19.634L22.055,6.9L11.027,0.533L0,6.9Z" style="fill:rgb(203,178,132);fill-rule:nonzero;"/>
        <path d="M6.305,9.622L5.51,10.081L5.51,10.999L10.232,13.726L10.232,19.178L11.027,19.638L11.823,19.178L11.823,13.726L16.545,10.999L16.545,10.081L15.749,9.622L11.027,12.348L6.305,9.622Z" style="fill:rgb(203,178,132);fill-rule:nonzero;"/>
        <path d="M34.446,16.824L32.652,16.824L32.652,9.494L34.446,9.494C36.832,9.494 38.397,10.945 38.397,13.159C38.397,15.373 36.832,16.824 34.446,16.824ZM34.56,6.764L29.502,6.764L29.502,19.554L34.56,19.554C38.779,19.554 41.566,16.958 41.566,13.159C41.566,9.36 38.779,6.764 34.56,6.764Z" style="fill:rgb(203,178,132);fill-rule:nonzero;"/>
        <path d="M46.39,11.804L46.39,9.971L43.336,9.971L43.336,19.554L46.39,19.554L46.39,16.557C46.39,14.075 47.555,12.968 49.693,12.968L50.246,12.968L50.38,9.914C50.151,9.856 49.96,9.837 49.693,9.837C48.128,9.837 47.078,10.658 46.39,11.804Z" style="fill:rgb(203,178,132);fill-rule:nonzero;"/>
        <rect x="51.828" y="9.971" width="3.054" height="9.583" style="fill:rgb(203,178,132);fill-rule:nonzero;"/>
        <path d="M53.355,5.409C52.324,5.409 51.599,6.21 51.599,7.146C51.599,8.12 52.324,8.845 53.355,8.845C54.386,8.845 55.13,8.12 55.13,7.146C55.13,6.21 54.386,5.409 53.355,5.409Z" style="fill:rgb(203,178,132);fill-rule:nonzero;"/>
        <path d="M63.241,9.685C62.038,9.685 61.027,10.124 60.301,10.887L60.301,9.971L57.247,9.971L57.247,19.554L60.301,19.554L60.301,15.106C60.301,13.254 61.084,12.434 62.286,12.434C63.26,12.434 63.928,13.197 63.928,14.323L63.928,19.554L66.963,19.554L66.963,13.674C66.963,11.269 65.474,9.685 63.241,9.685Z" style="fill:rgb(203,178,132);fill-rule:nonzero;"/>
        <path d="M73.678,16.5C72.343,16.5 71.388,15.583 71.388,14.305C71.388,13.025 72.343,12.128 73.678,12.128C74.9,12.128 75.912,13.025 75.912,14.305C75.912,15.583 74.9,16.5 73.678,16.5ZM75.912,10.601C75.225,10.009 74.27,9.685 73.03,9.685C70.529,9.685 68.41,11.651 68.41,14.305C68.41,17.015 70.529,19 73.03,19C74.27,19 75.225,18.676 75.912,18.084L75.912,18.351C75.912,19.859 74.919,20.68 73.526,20.68C72.533,20.68 71.999,20.355 71.273,19.496L68.735,20.871C69.67,22.417 71.35,23.181 73.545,23.181C76.656,23.181 78.909,21.558 78.909,18.6L78.909,9.971L75.912,9.971L75.912,10.601Z" style="fill:rgb(203,178,132);fill-rule:nonzero;"/>
        <path d="M83.562,13.674C83.849,12.701 84.727,12.166 85.586,12.166C86.464,12.166 87.227,12.643 87.514,13.674L83.562,13.674ZM85.586,9.685C82.799,9.685 80.508,11.746 80.508,14.763C80.508,17.798 82.799,19.84 85.567,19.84C87.762,19.84 89.499,18.866 90.32,16.843L87.609,16.289C87.094,17.225 86.273,17.396 85.567,17.396C84.536,17.396 83.753,16.69 83.505,15.545L90.53,15.545L90.53,14.763C90.472,11.632 88.297,9.685 85.586,9.685Z" style="fill:rgb(203,178,132);fill-rule:nonzero;"/>
        <path d="M98.104,9.685C96.902,9.685 95.89,10.124 95.164,10.887L95.164,9.971L92.11,9.971L92.11,19.554L95.164,19.554L95.164,15.106C95.164,13.254 95.947,12.434 97.15,12.434C98.123,12.434 98.791,13.197 98.791,14.323L98.791,19.554L101.827,19.554L101.827,13.674C101.827,11.269 100.338,9.685 98.104,9.685Z" style="fill:rgb(203,178,132);fill-rule:nonzero;"/>
        <path d="M109.306,17.244C108.065,17.244 106.958,16.251 106.958,14.763C106.958,13.292 108.065,12.281 109.306,12.281C110.642,12.281 111.615,13.292 111.615,14.763C111.615,16.251 110.642,17.244 109.306,17.244ZM109.936,9.685C108.695,9.685 107.702,10.066 106.958,10.735L106.958,5.81L103.904,5.81L103.904,19.554L106.958,19.554L106.958,18.79C107.702,19.458 108.695,19.84 109.936,19.84C112.475,19.84 114.613,17.798 114.613,14.763C114.613,11.746 112.475,9.685 109.936,9.685Z" style="fill:rgb(203,178,132);fill-rule:nonzero;"/>
        <path d="M122.721,14.419C122.721,16.27 121.938,17.091 120.736,17.091C119.762,17.091 119.094,16.328 119.094,15.201L119.094,9.971L116.059,9.971L116.059,15.85C116.059,18.256 117.549,19.84 119.782,19.84C120.984,19.84 121.996,19.401 122.721,18.638L122.721,19.554L125.775,19.554L125.775,9.971L122.721,9.971L122.721,14.419Z" style="fill:rgb(203,178,132);fill-rule:nonzero;"/>
        <path d="M131.039,11.804L131.039,9.971L127.986,9.971L127.986,19.554L131.039,19.554L131.039,16.557C131.039,14.075 132.205,12.968 134.342,12.968L134.896,12.968L135.03,9.914C134.8,9.856 134.609,9.837 134.342,9.837C132.777,9.837 131.727,10.658 131.039,11.804Z" style="fill:rgb(203,178,132);fill-rule:nonzero;"/>
        <path d="M140.907,16.5C139.57,16.5 138.616,15.583 138.616,14.305C138.616,13.025 139.57,12.128 140.907,12.128C142.129,12.128 143.14,13.025 143.14,14.305C143.14,15.583 142.129,16.5 140.907,16.5ZM143.14,10.601C142.453,10.009 141.499,9.685 140.258,9.685C137.757,9.685 135.638,11.651 135.638,14.305C135.638,17.015 137.757,19 140.258,19C141.499,19 142.453,18.676 143.14,18.084L143.14,18.351C143.14,19.859 142.147,20.68 140.754,20.68C139.761,20.68 139.226,20.355 138.502,19.496L135.963,20.871C136.898,22.417 138.578,23.181 140.773,23.181C143.884,23.181 146.136,21.558 146.136,18.6L146.136,9.971L143.14,9.971L143.14,10.601Z" style="fill:rgb(203,178,132);fill-rule:nonzero;"/>
        <path d="M150.79,13.674C151.076,12.701 151.955,12.166 152.813,12.166C153.691,12.166 154.455,12.643 154.741,13.674L150.79,13.674ZM152.813,9.685C150.026,9.685 147.736,11.746 147.736,14.763C147.736,17.798 150.026,19.84 152.795,19.84C154.989,19.84 156.726,18.866 157.548,16.843L154.837,16.289C154.321,17.225 153.501,17.396 152.795,17.396C151.763,17.396 150.981,16.69 150.733,15.545L157.758,15.545L157.758,14.763C157.7,11.632 155.524,9.685 152.813,9.685Z" style="fill:rgb(203,178,132);fill-rule:nonzero;"/>
        <path d="M165.695,9.837C164.13,9.837 163.08,10.658 162.392,11.804L162.392,9.971L159.339,9.971L159.339,19.554L162.392,19.554L162.392,16.557C162.392,14.075 163.557,12.968 165.695,12.968L166.249,12.968L166.383,9.914C166.153,9.856 165.962,9.837 165.695,9.837Z" style="fill:rgb(203,178,132);fill-rule:nonzero;"/>
    </g>
</svg>
