<svg xmlns="http://www.w3.org/2000/svg" width="78.891" height="80.936" viewBox="0 0 78.891 80.936"><path d="M39.435,12.357a38.568,38.568,0,1,1-22.3,7.094c1.061.075,2.175.118,3.311.118a31.792,31.792,0,0,0,5.83-.482,10.257,10.257,0,0,0,7.63-6.333,39.278,39.278,0,0,1,5.529-.4m0-.857a39.813,39.813,0,0,0-5.647.407l-.472.064-.193.439a9.438,9.438,0,0,1-7.008,5.83,31.174,31.174,0,0,1-5.679.472c-1.039,0-2.132-.043-3.247-.118l-.3-.021-.246.171A39.3,39.3,0,0,0,0,50.946,39.458,39.458,0,0,0,75.794,66.3,39.43,39.43,0,0,0,39.435,11.5Z" transform="translate(0 -10.268)" fill="#fff"/><path d="M46.578,19.5a39.278,39.278,0,0,0-5.529.4,10.277,10.277,0,0,1-7.63,6.333,36.957,36.957,0,0,1-9.141.364,38.582,38.582,0,1,0,22.3-7.094Z" transform="translate(-7.143 -17.41)" fill="#3c4455"/><circle cx="30.787" cy="30.787" r="30.787" transform="translate(8.648 9.891)" fill="#e0e0e0"/><path d="M108.073,151.446a31.172,31.172,0,1,1,22.043-9.13A31,31,0,0,1,108.073,151.446Zm0-61.478A30.312,30.312,0,1,0,129.5,98.841,30.069,30.069,0,0,0,108.073,89.968Z" transform="translate(-68.659 -79.552)" fill="#3c4455"/><rect width="29.887" height="12.57" transform="translate(4.094 27.679)" fill="#3c4455"/><g transform="translate(24.829 21.003)"><path d="M237.3,220.546l.257-.343c3.4-4.479,4.833-8.862,4.147-12.688a9.034,9.034,0,0,0-2.015-4.4l-.289-.311.3-.3.922-.9.3.3a10.541,10.541,0,0,1,2.465,5.251,13.8,13.8,0,0,1-.321,6.1,23.673,23.673,0,0,1-4.136,7.983l-.257.343Z" transform="translate(-236.7 -201)" fill="#2f4760"/><path d="M235.611,197.211a10.081,10.081,0,0,1,2.347,5.026,13.409,13.409,0,0,1-.311,5.9,22.847,22.847,0,0,1-4.072,7.833l-.686-.514c3.472-4.576,4.929-9.076,4.233-13.02A9.51,9.51,0,0,0,235,197.811l.611-.6m.011-1.211-.611.6-.611.6-.611.6.589.611a8.732,8.732,0,0,1,1.9,4.179c.664,3.708-.75,7.973-4.061,12.356l-.514.686.686.514.686.514.686.514.514-.686a23.869,23.869,0,0,0,4.211-8.133,14.18,14.18,0,0,0,.322-6.29,10.81,10.81,0,0,0-2.583-5.476l-.6-.589Z" transform="translate(-231.7 -196)" fill="#fff"/></g><path d="M75.024,46.518l.943-1.4c.439-.664,2.733.354,3.568-.461,1.372-1.34,6.955-2.068,10.705-6.955,2.025-2.636,1.565-7.544,1.018-10.287a11.232,11.232,0,0,0-1.307-3.193,42.356,42.356,0,0,1-6.3-1.007c-4.522-.889-5.808-.675-7.04-.472a13.172,13.172,0,0,1-1.886.2,4.145,4.145,0,0,1-2.979-.975,2.293,2.293,0,0,0-.364.7,3.519,3.519,0,0,1-3.29,2.411l-.954.011-.289-.911a26.568,26.568,0,0,1-1.05-7.212,12.628,12.628,0,0,1,1.543-6.451,8.028,8.028,0,0,1,4.544-3.6c2.122-.739,7.308-.975,10.223-1.05a2.154,2.154,0,0,1,1.372.45,4.5,4.5,0,0,0,3.483-2.347,7.478,7.478,0,0,1,4.3-3.4A11.1,11.1,0,0,1,93.959,0h26.468l-2.561,3.279H127.1l-2.775,3.579a8.365,8.365,0,0,1-5.851,3.2,14.163,14.163,0,0,1,2.775,8.444V44.7Zm3.483-25.665a29.253,29.253,0,0,1,5.476.686c1.05.2,2.036.364,2.936.482l.386.043,4.051,1.189a10.647,10.647,0,0,1,1.586,3.826c.654,3.247,1,8.626-1.34,11.67-3.826,4.983-11.209,4.211-12.613,5.583l-.332.332,40.882-1.607V18.517a12.469,12.469,0,0,0-3.493-8.669L114.651,8.4h3.043a6.67,6.67,0,0,0,5.283-2.583l.622-.8h-9.987L115.359,3.5a7.235,7.235,0,0,0,.922-.975l.622-.8H94.012a9.786,9.786,0,0,0-2.218.472,5.721,5.721,0,0,0-3.343,2.583,6.218,6.218,0,0,1-5.272,3.268l-.418.011-.268-.321a.443.443,0,0,0-.354-.161c-4.715.118-8.337.482-9.709.954l-.021.011a6.415,6.415,0,0,0-3.611,2.85,11.155,11.155,0,0,0-1.307,5.594,24.843,24.843,0,0,0,.868,6.365,1.8,1.8,0,0,0,1.361-1.211A4.8,4.8,0,0,1,71.2,20.05l.814-.707.5.954a2.127,2.127,0,0,0,2.132.964,9.931,9.931,0,0,0,1.64-.182A11.426,11.426,0,0,1,78.506,20.853Z" transform="translate(-58.746 0)" fill="#fff"/><path d="M88.405,60.535l3.708-4.265s13.963-14.37,6.644-24.229l-8.584-1.4-4.715.482s-1.982-1.072-2.625-1.554-1.768,2.679-1.768,2.679l-1.672.836s-2.025-8.926-.043-11.98,3.8-3.7,6.8-4.018,7.308-.654,7.308-.654l.857.611a8.038,8.038,0,0,0,5.829-4.083c1.768-3.59,9.752-2.358,9.752-2.358l19.214-.032L126.769,13.6l9.216.268a9.049,9.049,0,0,1-8.519,4.286s3.643,3.429,3.858,11.091-.054,21.325-.054,21.325Z" transform="translate(-70.07 -9.28)" fill="#fd0"/><circle cx="3.054" cy="3.054" r="3.054" transform="translate(28.89 7.373)" fill="#fff"/><path d="M493.4,51.4" transform="translate(-440.527 -45.892)" fill="none" stroke="#212e59" stroke-miterlimit="10" stroke-width="8"/><path d="M225.518,15.19H225.4l.043-.857A5.358,5.358,0,0,0,230.2,11.5a6.611,6.611,0,0,1,3.826-2.99A10.037,10.037,0,0,1,236.5,8H261.17l-1.7,2.186a7.487,7.487,0,0,1-5.958,2.915h-3.515v-.857h3.515a6.67,6.67,0,0,0,5.283-2.583l.622-.8H236.534c-.225.011-4.1.332-5.583,3.054A6.209,6.209,0,0,1,225.518,15.19Z" transform="translate(-201.246 -7.143)" fill="#3c4455"/><path d="M474.209,43.7h-2.2l-.118-.1a14.505,14.505,0,0,0-4.8-2.722,8.563,8.563,0,0,0-1.661-.354c-.107,0-.225-.011-.332-.021l.021-.857c.021,0,.161,0,.407.021,3.74.161,5.294-.975,5.3-.986l.118-.086h10.941l-1.7,2.186A7.575,7.575,0,0,1,474.209,43.7Zm-1.886-.857h1.886a6.67,6.67,0,0,0,5.283-2.583l.622-.8h-8.9a7.4,7.4,0,0,1-2.915.943A16.378,16.378,0,0,1,472.323,42.844Z" transform="translate(-415.26 -34.464)" fill="#3c4455"/><path d="M124.793,176.715s.622-2.893,5.358-2.968c0,0-4.3-.857-7.351,1.522A2.3,2.3,0,0,0,124.793,176.715Z" transform="translate(-109.641 -154.994)" fill="#3c4455"/><path d="M74.9,80.119l-.1-.3A25.635,25.635,0,0,1,73.8,72.864c.032-4.886,1.929-8.091,5.508-9.259,2.079-.729,7.662-.943,9.966-1.007a1.3,1.3,0,0,1,1.275.922,4.93,4.93,0,0,0,4.2,3.579l-.129.847a5.836,5.836,0,0,1-4.9-4.19.437.437,0,0,0-.429-.311c-1.768.043-7.683.246-9.719.954-3.236,1.082-4.9,3.922-4.919,8.466a24.55,24.55,0,0,0,.879,6.365,1.811,1.811,0,0,0,1.361-1.211,5.305,5.305,0,0,1,1.993-2.5l.011-.011c3.343-2.3,8.316-1.49,14.059-.547.975.161,1.982.321,3.011.482,2.047.311,3.526,0,4.372-.911,1.3-1.393.782-3.761.772-3.783l.836-.193c.021.118.611,2.84-.986,4.554-1.061,1.136-2.786,1.532-5.122,1.179-1.029-.15-2.047-.321-3.022-.482-5.562-.911-10.373-1.693-13.438.407A4.388,4.388,0,0,0,77.7,78.3a2.666,2.666,0,0,1-2.486,1.832Z" transform="translate(-65.889 -55.89)" fill="#3c4455"/><path d="M137.971,141.651a31.945,31.945,0,0,1-6.022-.7c-4.672-.922-6.033-.7-7.351-.471a12.2,12.2,0,0,1-1.768.193c-2.25.054-3.033-1.329-3.129-2.068l.847-.118-.429.054.429-.064c.021.139.268,1.382,2.261,1.329a9.931,9.931,0,0,0,1.64-.182c1.393-.225,2.829-.471,7.651.482,6.033,1.189,9.537.847,11.359-1.1a3.757,3.757,0,0,0,.8-3.151,3.1,3.1,0,0,0-1.865-2.272l.343-.782a3.942,3.942,0,0,1,2.358,2.883,4.6,4.6,0,0,1-1.018,3.9C142.8,140.976,140.843,141.651,137.971,141.651Z" transform="translate(-106.873 -118.569)" fill="#3c4455"/><path d="M267.936,70.973a3.536,3.536,0,1,1,3.536-3.536A3.54,3.54,0,0,1,267.936,70.973Zm0-6.215a2.679,2.679,0,1,0,2.679,2.679A2.68,2.68,0,0,0,267.936,64.757Z" transform="translate(-236.067 -57.052)" fill="#3c4455"/><path d="M270.29,111.8a5.488,5.488,0,0,1-5.09-3.933l.814-.268a4.635,4.635,0,0,0,4.276,3.343,4.05,4.05,0,0,0,2.068-.557l.429.739A5.047,5.047,0,0,1,270.29,111.8Z" transform="translate(-236.781 -96.07)" fill="#3c4455"/><path d="M312.7,111.086v-.857c1.8,0,3.311-1.286,4.018-3.429l.814.268C316.708,109.543,314.854,111.086,312.7,111.086Z" transform="translate(-279.191 -95.355)" fill="#3c4455"/><path d="M265.16,51.4a10.369,10.369,0,0,1-4.136,2.711,3.626,3.626,0,0,0-2.4,3.911l-2.1-.836a4.445,4.445,0,0,1,3.011-4.962C260.82,51.711,262.5,52.182,265.16,51.4Z" transform="translate(-228.982 -45.892)" fill="#3c4455"/><path d="M203.668,107.3a5.481,5.481,0,0,1-1.768-3.9,12.025,12.025,0,0,1,3.954,3.226l-.954.739A.92.92,0,0,1,203.668,107.3Z" transform="translate(-180.264 -92.32)" fill="#3c4455"/><path d="M200.5,87.8a37.191,37.191,0,0,1,9.141,5.4l-.729-1.929-1.4-1.49a12.455,12.455,0,0,1-3.515-1.95Z" transform="translate(-179.014 -78.391)" fill="#3c4455"/><path d="M287.679,88.65V87.311c-.032,0-.075-.011-.107-.011a1.372,1.372,0,1,0,1.372,1.372,1.385,1.385,0,0,0-.193-.7Z" transform="translate(-255.531 -77.945)" fill="#3c4455"/><rect width="0.857" height="23.339" transform="translate(48.393 28.558)" fill="#3c4455"/><path d="M463.695,83.309h-.857V61.095A12.554,12.554,0,0,0,450.3,48.557V47.7a13.414,13.414,0,0,1,13.4,13.395Z" transform="translate(-402.046 -42.588)" fill="#3c4455"/><path d="M261.1,76.138l1.918.161a12.393,12.393,0,0,0,3.611-.332c2.347-.611,3.7-1.9,4.018-3.847a3.012,3.012,0,0,0-1.811-3.033l-.086-.032-.2-.2.011-.2a.572.572,0,0,1,.311-.418,4.512,4.512,0,0,0,1.682-2.25h-.064a2.84,2.84,0,1,1,0-5.679c.364.011,8.884.257,15.131,4.5l.847.579-3.858.772a10.294,10.294,0,0,1,2.3,1.843c1.575,1.65,3.451,4.683,3.451,9.73v27.154H287.5V77.714a12.941,12.941,0,0,0-3.183-9.109,8.693,8.693,0,0,0-3.193-2.229l-1.511-.514,4.629-.922c-5.958-3.558-13.7-3.783-13.77-3.783a1.982,1.982,0,1,0,0,3.965,1.921,1.921,0,0,0,.546-.075l.707-.2-.171.707a5.564,5.564,0,0,1-1.8,3.065,3.77,3.77,0,0,1,1.736,3.611v.011c-.364,2.293-1.95,3.665-4.64,4.361a14.883,14.883,0,0,1-2.883.3A5.433,5.433,0,0,1,261.1,76.138Z" transform="translate(-233.121 -53.838)" fill="#3c4455"/><path d="M243.172,238.091l-.772-.375a138.134,138.134,0,0,0,7.03-17.735c1.179-3.922,1.093-7.137-.236-9.559a7.3,7.3,0,0,0-4.008-3.4l.225-.825a8.07,8.07,0,0,1,4.522,3.8c1.447,2.625,1.554,6.065.311,10.212A136.309,136.309,0,0,1,243.172,238.091Z" transform="translate(-216.424 -184.104)" fill="#3c4455"/><path d="M243.486,226.064l-.686-.514c3.472-4.576,4.929-9.076,4.233-13.02a9.51,9.51,0,0,0-2.122-4.629l.611-.6a10.08,10.08,0,0,1,2.347,5.026,13.41,13.41,0,0,1-.311,5.9A23.037,23.037,0,0,1,243.486,226.064Z" transform="translate(-216.782 -185.086)" fill="#3c4455"/><g transform="translate(3.836 38.01)"><rect width="4.715" height="2.025" transform="translate(36.809 0.225)" fill="#3c4455"/><rect width="4.983" height="3.547" transform="translate(7.351 0.868)" fill="#3c4455"/><circle cx="2.615" cy="2.615" r="2.615" transform="translate(9.537 5.862)" fill="#3c4455"/><circle cx="2.079" cy="2.079" r="2.079" transform="translate(21.271 7.983)" fill="#3c4455"/><rect width="5.508" height="10.03" transform="translate(41.321 3.183)" fill="#3c4455"/><path d="M495.163,402.024H482.7V387.6h12.784l1.029,7.93-1.35.054Z" transform="translate(-434.81 -384.074)" fill="#3c4455"/><path d="M42.969,358.3c1.886,0,2.818,1,2.818,3v1.339a2.2,2.2,0,0,1-1.3,2.325,2.273,2.273,0,0,1,1.479,2.411v2.636c0,2-.943,3-2.818,3H38.983a1.678,1.678,0,0,1-1.682-1.682V359.972a1.678,1.678,0,0,1,1.682-1.682h3.986M40.494,364.4h1.682a.4.4,0,0,0,.311-.139.454.454,0,0,0,.129-.322v-3.022a.472.472,0,0,0-.129-.321.422.422,0,0,0-.311-.139H40.494V364.4m0,6.44h1.865a.4.4,0,0,0,.311-.139.454.454,0,0,0,.129-.321v-3.3a.473.473,0,0,0-.129-.321.386.386,0,0,0-.311-.139H40.494v4.222M42.969,356.8H38.983a3.183,3.183,0,0,0-3.183,3.183v11.359a3.183,3.183,0,0,0,3.183,3.183h4.169a4.216,4.216,0,0,0,3.215-1.222,4.6,4.6,0,0,0,1.114-3.279v-2.636a4.284,4.284,0,0,0-.7-2.508,4.447,4.447,0,0,0,.514-2.229v-1.339a4.6,4.6,0,0,0-1.114-3.279,4.183,4.183,0,0,0-3.215-1.232Z" transform="translate(-35.8 -356.575)" fill="#3c4455"/><path d="M348.073,358.3l-2.508,6.762,2.979,7.962h-3.258l-2.186-5.829h-1.029v5.829h-3.183V358.3h3.183v6.172h.772l2.3-6.172h2.925m2.154-1.5h-6.108l-.364.975-.172.45V356.8H337.4v17.724h6.183v-1.79l.3.814.364.975h6.462l-.761-2.025-2.786-7.448,2.315-6.237.75-2.015Z" transform="translate(-305.081 -356.575)" fill="#3c4455"/><path d="M445.819,358.3v2.593h-3.526v3.461h3.3v2.508h-3.3v3.526h3.526v2.636H439.1V358.3h6.719m1.5-1.5H437.6v17.724h9.719v-5.637h-3.525v-.525h3.3v-5.508h-3.3v-.461h3.525V356.8Z" transform="translate(-394.543 -356.575)" fill="#3c4455"/><path d="M519.162,358.3v2.711h-2.39v12.013H513.59V360.883H511.2V358.3h7.962m1.5-1.5H509.7v5.583h2.39v12.141h6.183V362.512h2.39V356.8Z" transform="translate(-458.917 -356.575)" fill="#3c4455"/><path d="M144.54,356.2c1.886,0,2.818,1,2.818,3v11.948h-3.183v-4.94h-2.3v4.94H138.69V356.2h5.851m-2.658,7.555h2.3v-4.94a.473.473,0,0,0-.129-.322.386.386,0,0,0-.311-.139h-1.436a.4.4,0,0,0-.311.139.436.436,0,0,0-.129.322v4.94m2.668-9.055H137.2v17.949h11.659V359.2a4.6,4.6,0,0,0-1.114-3.279,4.175,4.175,0,0,0-3.2-1.222Z" transform="translate(-126.334 -354.7)" fill="#3c4455"/><path d="M246.947,356.2c1.886,0,2.818,1,2.818,3v1.093h-3.022v-1.157a.472.472,0,0,0-.129-.321.422.422,0,0,0-.311-.139h-1.254a.355.355,0,0,0-.268.107V362.1a.423.423,0,0,0,.268.107H247.1c1.886.032,2.818,1.029,2.818,3v3.161c0,2-.943,3-2.818,3h-2.69c-1.886,0-2.818-1-2.818-3v-1.522h3.022v1.64a.472.472,0,0,0,.129.321.421.421,0,0,0,.311.139h1.415a.4.4,0,0,0,.311-.139.454.454,0,0,0,.129-.321V365.6a.472.472,0,0,0-.129-.321.422.422,0,0,0-.311-.139h-2.047c-1.886,0-2.818-1-2.818-3V356.2h5.347m0-1.5H240.1v7.437a4.683,4.683,0,0,0,1.05,3.215H240.1v3.022a4.6,4.6,0,0,0,1.114,3.279,4.2,4.2,0,0,0,3.215,1.222h2.69a4.216,4.216,0,0,0,3.215-1.222,4.6,4.6,0,0,0,1.114-3.279v-3.161a4.585,4.585,0,0,0-1.114-3.258l-.161-.161h1.114V359.2a4.6,4.6,0,0,0-1.114-3.279,4.24,4.24,0,0,0-3.226-1.222Z" transform="translate(-218.207 -354.7)" fill="#3c4455"/><path d="M604.447,358.3c1.886,0,2.818,1,2.818,3v.868h-3.022v-1.125a.472.472,0,0,0-.129-.321.422.422,0,0,0-.311-.139h-1.254a.355.355,0,0,0-.268.107v3.279a.422.422,0,0,0,.268.107h2.058c1.886.032,2.818,1.029,2.818,3v3.161c0,2-.943,3-2.818,3h-2.69c-1.886,0-2.818-1-2.818-3v-1.522h3.022v1.64a.473.473,0,0,0,.129.322.422.422,0,0,0,.311.139h1.4a.4.4,0,0,0,.311-.139.454.454,0,0,0,.129-.322v-2.893a.473.473,0,0,0-.129-.321.422.422,0,0,0-.311-.139h-2.047c-1.886,0-2.818-1-2.818-3V358.29h5.347m0-1.49H597.6v7.212a4.683,4.683,0,0,0,1.05,3.215H597.6v3.022a4.6,4.6,0,0,0,1.115,3.279,4.2,4.2,0,0,0,3.215,1.222h2.679a4.215,4.215,0,0,0,3.215-1.222,4.6,4.6,0,0,0,1.115-3.279v-3.161a4.585,4.585,0,0,0-1.115-3.258l-.161-.161h1.114V361.3a4.6,4.6,0,0,0-1.114-3.279,4.232,4.232,0,0,0-3.215-1.222Z" transform="translate(-537.398 -356.575)" fill="#3c4455"/><path d="M321.7,414.4h2.8l-.386,3.386Z" transform="translate(-291.063 -408.003)" fill="#3c4455"/><g transform="translate(1.5 1.5)"><path d="M56.99,377.465a2.273,2.273,0,0,1,1.479,2.411v2.636c0,2-.943,3-2.818,3H49.8V370.8h5.669c1.886,0,2.818,1,2.818,3v1.34A2.191,2.191,0,0,1,56.99,377.465Zm-2.315-4.5H52.993V376.9h1.682a.4.4,0,0,0,.311-.139.454.454,0,0,0,.129-.322v-3.022a.473.473,0,0,0-.129-.322A.429.429,0,0,0,54.676,372.965Zm.611,9.923v-3.3a.473.473,0,0,0-.129-.322.386.386,0,0,0-.311-.139H52.993v4.211h1.865a.4.4,0,0,0,.311-.139A.467.467,0,0,0,55.287,382.888Z" transform="translate(-49.8 -370.575)" fill="#fff"/><path d="M454.793,382.888h3.526v2.636H451.6V370.8h6.719v2.593h-3.526v3.461h3.3v2.508h-3.3Z" transform="translate(-408.543 -370.575)" fill="#fff"/><path d="M523.6,373.511V370.8h7.973v2.711h-2.39v12.013H526V373.511Z" transform="translate(-472.828 -370.575)" fill="#fff"/><path d="M157.04,368.7H151.2v14.949h3.183v-4.94h2.3v4.94h3.172V371.7C159.859,369.7,158.926,368.7,157.04,368.7Zm-.364,7.555h-2.3v-4.94a.473.473,0,0,1,.129-.322.386.386,0,0,1,.311-.139h1.436a.4.4,0,0,1,.311.139.436.436,0,0,1,.129.322v4.94Z" transform="translate(-140.334 -368.7)" fill="#fff"/><path d="M617.019,376.576h-2.047a.356.356,0,0,1-.268-.107v-3.1a.423.423,0,0,1,.268-.107h1.254a.4.4,0,0,1,.311.139.454.454,0,0,1,.129.321v1.157h3.022V373.8c0-2-.943-3-2.818-3h-5.347v5.722c0,2,.943,3,2.818,3h2.036a.4.4,0,0,1,.311.139.437.437,0,0,1,.129.321v2.893a.473.473,0,0,1-.129.321.422.422,0,0,1-.311.139h-1.415a.4.4,0,0,1-.311-.139.454.454,0,0,1-.129-.321v-1.64H611.5v1.522c0,2,.943,3,2.818,3h2.7c1.886,0,2.818-1,2.818-3V379.6C619.837,377.615,618.894,376.608,617.019,376.576Z" transform="translate(-551.308 -370.575)" fill="#fff"/></g><path d="M230.5,360.932a11.319,11.319,0,0,0,1.586-.932l-.343,2.1Z" transform="translate(-209.636 -359.432)" fill="#3c4455"/><rect width="4.94" height="1.436" transform="translate(18.206)" fill="#3c4455"/></g><g transform="translate(5.379 29.244)"><path d="M216.136,317.6H212.9v-6h3.236" transform="translate(-195.465 -307.453)" fill="#3c4455"/><path d="M52.043,280H54.09v1.532H50.2V273h3.89v1.5H52.043v2h1.907v1.447H52.043Z" transform="translate(-50.2 -272.989)" fill="#fd0"/><path d="M102.626,272.9h1.64l.986,6.419.739-6.419h1.79l-1.382,8.53h-2.1l-.857-5.229-.857,5.229h-2.1L99.1,272.9h1.79l.739,6.419Z" transform="translate(-93.86 -272.9)" fill="#fd0"/><path d="M197.543,280h2.047v1.532H195.7V273h3.89v1.5h-2.047v2h1.907v1.447h-1.907Z" transform="translate(-180.108 -272.989)" fill="#fd0"/></g><g transform="translate(18.112 66.771)"><path d="M169.677,630.354a1.462,1.462,0,1,1,1.682-2.39,1.391,1.391,0,0,1,.375,2.047A1.407,1.407,0,0,1,169.677,630.354Zm1.425-2a.936.936,0,0,0-1.329.279.92.92,0,0,0,.182,1.34.994.994,0,0,0,1.147-1.618Z" transform="translate(-169.014 -627.171)" fill="#fff" stroke="#fff" stroke-miterlimit="10" stroke-width="2"/><path d="M214.1,654.918l1.243-2.518.482.236-1.05,2.111,1.029.514-.2.407Z" transform="translate(-209.269 -649.26)" fill="#fff" stroke="#fff" stroke-miterlimit="10" stroke-width="2"/><path d="M258.2,672.336a1.5,1.5,0,0,1-1.211.054l-.986-.311.857-2.679,1,.322a1.412,1.412,0,0,1,.964.739,1.478,1.478,0,0,1,.064,1.05A1.529,1.529,0,0,1,258.2,672.336Zm.043-1.833a1.139,1.139,0,0,0-.589-.364l-.407-.129-.568,1.779.407.129a.877.877,0,0,0,1.232-.589A.906.906,0,0,0,258.24,670.5Z" transform="translate(-246.679 -664.438)" fill="#fff" stroke="#fff" stroke-miterlimit="10" stroke-width="2"/><path d="M309.1,685.086l.407-2.786,1.693.247-.064.45-1.168-.171-.1.686.954.139-.064.45-.954-.139-.107.739,1.222.182-.064.45Z" transform="translate(-294.088 -675.956)" fill="#fff" stroke="#fff" stroke-miterlimit="10" stroke-width="2"/><path d="M358.654,690.04l-1.2-1.822a.853.853,0,0,0-.064-.107.167.167,0,0,1-.032-.064.85.85,0,0,1-.043-.1v2.058H356.8V687.2h.622l1.179,1.854c0,.011.021.032.032.064s.021.043.021.054l.021.075.021.054v-2.09h.5v2.84Z" transform="translate(-336.677 -680.331)" fill="#fff" stroke="#fff" stroke-miterlimit="10" stroke-width="2"/><path d="M410.286,685.6l-1.136.182L408.7,683l1.007-.161a.956.956,0,0,1,.729.075.719.719,0,0,1,.3.461.745.745,0,0,1-.086.461.571.571,0,0,1-.418.279.671.671,0,0,1,.8.6C411.1,685.2,410.843,685.511,410.286,685.6Zm-.611-2.315-.343.054.118.718.311-.053c.3-.043.439-.2.4-.439C410.125,683.346,409.943,683.239,409.675,683.282Zm.193,1.168-.343.054.129.761.343-.054a.614.614,0,0,0,.311-.107.363.363,0,0,0,.139-.354C410.393,684.5,410.19,684.4,409.868,684.45Z" transform="translate(-383.015 -676.413)" fill="#fff" stroke="#fff" stroke-miterlimit="10" stroke-width="2"/><path d="M455.911,671.158a1.643,1.643,0,0,1-1.511.493c-.343-.1-.5-.289-.664-.782l-.536-1.629.5-.161.547,1.661a.644.644,0,0,0,1.222-.407l-.547-1.661.514-.172.536,1.629C456.136,670.622,456.125,670.868,455.911,671.158Z" transform="translate(-422.747 -663.635)" fill="#fff" stroke="#fff" stroke-miterlimit="10" stroke-width="2"/><path d="M503.361,653.809l-1.082-.707-.236.118.514,1-.482.247-1.275-2.508.836-.429a.99.99,0,0,1,.772-.161.77.77,0,0,1,.482.439.927.927,0,0,1,.107.536.705.705,0,0,1-.268.429l1.168.75Zm-1.575-1.833-.311.161.354.686.311-.161c.3-.15.386-.332.257-.579S502.1,651.816,501.786,651.977Z" transform="translate(-465.246 -648.312)" fill="#fff" stroke="#fff" stroke-miterlimit="10" stroke-width="2"/><path d="M546.3,625.382a3.59,3.59,0,0,1-.514.493,1.475,1.475,0,0,1-2.4-1.4,1.5,1.5,0,0,1,.664-.954,2.246,2.246,0,0,1,.514-.289,2.677,2.677,0,0,1,.429-.129l.161.439c-.107.032-.182.054-.236.064a1.714,1.714,0,0,0-.525.257.97.97,0,0,0-.311,1.393,1.051,1.051,0,0,0,1.49.171,1.03,1.03,0,0,0,.257-.268l-.461-.632.439-.311.675.932A2.059,2.059,0,0,1,546.3,625.382Z" transform="translate(-503.241 -623.1)" fill="#fff" stroke="#fff" stroke-miterlimit="10" stroke-width="2"/></g><g transform="translate(38.91 53.419)"><rect width="0.857" height="17.971" fill="#3c4455"/></g><g transform="translate(24.24 54.662)"><path d="M226.6,524.192l-.4-.879.193.439-.193-.439a12.42,12.42,0,0,0,3.611-2.851,16.465,16.465,0,0,0,4.008-10.362l.964.054a17.425,17.425,0,0,1-4.286,10.995A12.837,12.837,0,0,1,226.6,524.192Z" transform="translate(-226.2 -510.1)" fill="#3c4455"/></g><g transform="translate(45.907 54.662)"><path d="M436.587,524.192a12.836,12.836,0,0,1-3.9-3.043,17.452,17.452,0,0,1-4.286-10.995l.964-.054c.547,9.955,7.555,13.181,7.619,13.213Z" transform="translate(-428.4 -510.1)" fill="#3c4455"/></g><path d="M360.484,370.8l-2.507,6.762,2.979,7.962H357.7l-2.186-5.829h-1.029v5.829H351.3V370.8h3.183v6.172h.772l2.3-6.172Z" transform="translate(-313.655 -331.065)" fill="#fff"/><path d="M259.608,374.612h-2.047a.355.355,0,0,1-.268-.107v-3.322a.423.423,0,0,1,.268-.107h1.254a.4.4,0,0,1,.311.139.453.453,0,0,1,.129.321v1.157h3.022V371.6c0-2-.943-3-2.818-3h-5.347v5.937c0,2,.943,3,2.818,3h2.047a.4.4,0,0,1,.311.139.436.436,0,0,1,.129.321v2.893a.473.473,0,0,1-.129.321.421.421,0,0,1-.311.139h-1.414a.4.4,0,0,1-.311-.139.454.454,0,0,1-.129-.321v-1.639H254.1v1.522c0,2,.943,3,2.818,3h2.69c1.886,0,2.818-1,2.818-3v-3.161C262.437,375.651,261.494,374.644,259.608,374.612Z" transform="translate(-226.871 -329.101)" fill="#fff"/></svg>