<svg xmlns="http://www.w3.org/2000/svg" xmlns:xlink="http://www.w3.org/1999/xlink" width="283.888" height="250.437" viewBox="0 0 283.888 250.437"><defs><linearGradient id="a" x1="0.499" y1="1.376" x2="0.511" y2="-2.048" gradientUnits="objectBoundingBox"><stop offset="0" stop-color="#010101" stop-opacity="0"/><stop offset="0.95" stop-color="#010101"/></linearGradient><linearGradient id="b" x1="0.499" y1="-0.245" x2="0.503" y2="2.593" xlink:href="#a"/><linearGradient id="c" x1="0.816" y1="0.587" x2="-0.654" y2="0.156" xlink:href="#a"/><linearGradient id="d" x1="0.734" y1="0.512" x2="-1.358" y2="0.373" xlink:href="#a"/><linearGradient id="e" x1="0.498" y1="-0.242" x2="0.506" y2="2.584" xlink:href="#a"/><linearGradient id="f" x1="3.693" y1="1.626" x2="4.8" y2="2.195" gradientUnits="objectBoundingBox"><stop offset="0" stop-color="#fff" stop-opacity="0"/><stop offset="0.95" stop-color="#fff"/></linearGradient><linearGradient id="g" x1="0.454" y1="0.288" x2="-0.591" y2="5.536" xlink:href="#a"/><linearGradient id="h" x1="0.579" y1="0.501" x2="-1.937" y2="1.25" xlink:href="#a"/><linearGradient id="i" x1="0.685" y1="0.636" x2="-1.375" y2="-0.418" xlink:href="#a"/><linearGradient id="j" x1="0.455" y1="0.054" x2="0.521" y2="0.681" xlink:href="#a"/><linearGradient id="k" x1="-0.015" y1="0.552" x2="2.877" y2="0.176" xlink:href="#a"/><linearGradient id="l" x1="0.304" y1="0.556" x2="2.507" y2="-0.286" xlink:href="#a"/><linearGradient id="m" x1="0.831" y1="0.479" x2="-2.127" y2="1.1" xlink:href="#a"/><linearGradient id="n" x1="-0.13" y1="0.926" x2="5.102" y2="-2.836" xlink:href="#a"/><linearGradient id="o" x1="0.267" y1="0.516" x2="4.836" y2="0.138" xlink:href="#a"/></defs><path d="M350.11,440.962H279.29L291.65,413.7h49.089Z" transform="translate(-170.337 -195.157)" fill="#454595"/><path d="M350.528,436.99H282.8l10.7-23.29h49.089Z" transform="translate(-172.182 -195.157)" fill="url(#a)"/><rect width="83.152" height="6.603" transform="translate(103.167 243.834)" fill="#454595"/><path d="M349.569,166.8V322.7a7.7,7.7,0,0,1-1.923,5.142,6.2,6.2,0,0,1-4.627,2.116H151.536c-3.6.006-6.53-3.244-6.536-7.258V166.8c.005-4.026,2.935-7.289,6.55-7.295H343.019C346.634,159.516,349.564,162.778,349.569,166.8Z" transform="translate(-100.645 -105.864)" fill="#454595"/><path d="M349.569,166.8V297.166H145V166.8c.005-4.026,2.935-7.289,6.55-7.295H343.019C346.634,159.516,349.564,162.778,349.569,166.8Z" transform="translate(-100.645 -105.864)" fill="url(#b)"/><rect width="190.421" height="122.802" transform="translate(51.844 62.832)" fill="#fff"/><path d="M436.774,184.4l41.434-12.25a3.607,3.607,0,0,1,3.017.459,4.387,4.387,0,0,1,1.83,2.71l10.434,45.554a4.847,4.847,0,0,1-.44,3.351,4.026,4.026,0,0,1-2.444,2.016L447.393,238.2a3.613,3.613,0,0,1-3.058-.523,4.424,4.424,0,0,1-1.784-2.815L433.9,189.575A4.457,4.457,0,0,1,436.774,184.4Z" transform="translate(-252.481 -111.757)" fill="#454595" opacity="0.24" style="isolation:isolate"/><rect width="88.544" height="34.541" rx="17.27" transform="translate(3.002 128.802)" fill="#454595" opacity="0.24" style="isolation:isolate"/><rect width="88.544" height="34.541" rx="17.27" transform="translate(192.095 164.833)" fill="#454595" opacity="0.24" style="isolation:isolate"/><path d="M236.128,150.911c.138,3.286-3.633,19.634-4.454,20.242-.683.528-1.9-.174-2.618-.65-.138-.111-.237-.2-.332-.264-.55-.454.332-13.016.332-13.016s.275-4.263-2.4-6.745c-2.988-2.763-6.412-5.314-6.166-7.268,0-.285,4.226-2.921,4.42-3.169,1.508-2,5.957,1.9,7.755,3.375a.736.736,0,0,0,.1.063.082.082,0,0,1,0,.042c.038.048.095.132.194.243.138.2.351.475.588.8a24.913,24.913,0,0,1,1.7,3.069,9.623,9.623,0,0,1,.887,3.275Z" transform="translate(-140.322 -96.414)" fill="#606161"/><path d="M235.238,147.729c0,.85-5.881-.565-6.607.85s.882.85,1.447,3.983,0,16.085-.626,17.432a1.566,1.566,0,0,1-.408.565c-.138-.111-.237-.2-.332-.264-.55-.454.332-13.016.332-13.016s.275-4.263-2.4-6.745c0,0,.413-2.831-1.447-4.442a21.674,21.674,0,0,0-4.743-2.826c.213-.09,5.9-3.861,6.374-3.6.057.042,1.613.185,5.919,3.919.038.048.095.132.194.243.138.2.351.475.588.8A11.433,11.433,0,0,1,235.238,147.729Z" transform="translate(-140.31 -96.497)" fill="url(#c)"/><path d="M212.931,167.772a6.8,6.8,0,0,1-1.485,2.609,2.126,2.126,0,0,1-2.6.412c-.92-.629-1.1-1.981-1.19-3.169-.313-4.094-.332-11.209-.645-15.319a1.908,1.908,0,0,0-.526-1.2h-.024a4.748,4.748,0,0,0-1.56-.893,14.032,14.032,0,0,1-3.538-1.5,3.629,3.629,0,0,1-.949-.977c-1.836-2.81-2.523-8.515-1-11.235a2.685,2.685,0,0,1,2.011-1.521c2.661-.37,7.446,1.585,8.561,4.226a13.92,13.92,0,0,0,1.015,2.594c.882,1.368,2.623,1.785,3.481,3.169a6.147,6.147,0,0,1,.7,2.4A41.225,41.225,0,0,1,212.931,167.772Z" transform="translate(-128.812 -94.27)" fill="#606161"/><path d="M206.974,151.588a1.554,1.554,0,0,1-.043,1.262c-.157-.09-.289-.2-.446-.285h-.024c-.507-.3-1.034-.607-1.56-.893-.745-.37-1.527-.718-2.305-1.019-.413-.153-.825-.306-1.233-.481a3.629,3.629,0,0,1-.949-.977c-1.836-2.81-2.523-8.515-1-11.235a11.338,11.338,0,0,1,4.269,1.585c.8.438,1.6.85,2.371,1.352.508.322,1.541.8.74,1.437-1.091.845-3.182-.655-4.022.718a2.269,2.269,0,0,0-.237,1.019c-.038.528-.076,1.056-.119,1.611a4.4,4.4,0,0,0,.081,1.437,3.141,3.141,0,0,0,1.134,1.437,29.24,29.24,0,0,1,2.618,2.023A3.289,3.289,0,0,1,206.974,151.588Z" transform="translate(-128.812 -95.697)" fill="url(#d)"/><ellipse cx="4.515" cy="5.029" rx="4.515" ry="5.029" transform="translate(140.559 202.4)" fill="url(#e)"/><rect width="79.789" height="9.498" transform="translate(108.607 119.373)" fill="#454595" opacity="0.61" style="isolation:isolate"/><rect width="78.229" height="7.606" transform="translate(109.342 120.25)" fill="#fff"/><rect width="39.617" height="5.515" transform="translate(108.607 131.634)" fill="#454595" opacity="0.61" style="isolation:isolate"/><rect width="39.617" height="5.515" transform="translate(149.874 131.634)" fill="#454595" opacity="0.61" style="isolation:isolate"/><path d="M443.561,183.224l36.52-10.8a4.251,4.251,0,0,1,5.184,3.4l9.168,40.092a4.815,4.815,0,0,1-3.092,5.758l-38.085,10.565a3.9,3.9,0,0,1-3.272-.589,4.777,4.777,0,0,1-1.907-3.019L440.487,188.8A4.807,4.807,0,0,1,443.561,183.224Z" transform="translate(-255.938 -111.888)" fill="#fff"/><path d="M484.04,194.93c2.533.111,4.269,1.622,5.891,3.7,5.023,6.492,10.169,12.862,15.239,19.307a7.334,7.334,0,0,1-1.034,10.306,5.561,5.561,0,0,1-7.864-.935c-2.993-3.618-5.886-7.342-8.822-11.019-.2-.254-.427-.491-.64-.74-1.769-2.245-3.5-4.522-5.307-6.73-1.584-1.944-3.168-3.861-3.552-6.592.28-3.085,1.494-5.472,4.088-6.841Z" transform="translate(-275.681 -122.574)" fill="#454595"/><path d="M470.741,208.75c.384,2.731,1.968,4.648,3.552,6.592,1.8,2.208,3.538,4.485,5.307,6.73l-3.643,12.012a2.145,2.145,0,0,1-.474,1.056v-.528c-.209-4.881-3.832-7.818-8.02-6.513a7.72,7.72,0,0,0-3.235,2.6c-.142-.528.161-.988.3-1.458q2.931-9.931,5.891-19.835A.708.708,0,0,1,470.741,208.75Z" transform="translate(-268.448 -129.094)" fill="#454595"/><path d="M470.741,208.75c.384,2.731,1.968,4.648,3.552,6.592,1.8,2.208,3.538,4.485,5.307,6.73l-3.643,12.012a2.145,2.145,0,0,1-.474,1.056v-.528c-.209-4.881-3.832-7.818-8.02-6.513a7.72,7.72,0,0,0-3.235,2.6c-.142-.528.161-.988.3-1.458q2.931-9.931,5.891-19.835A.708.708,0,0,1,470.741,208.75Z" transform="translate(-268.448 -129.094)" fill="url(#f)"/><path d="M463.03,247.767a7.76,7.76,0,0,1,3.235-2.6c4.188-1.3,7.811,1.632,8.02,6.513v.528a6.509,6.509,0,0,1-5.17,6.223,6.06,6.06,0,0,1-6.583-3.962A8.568,8.568,0,0,1,462.8,248c.152,0,.251-.037.218-.238Z" transform="translate(-267.302 -146.127)" fill="#454595"/><path d="M479.228,71.353l-1.7-58.015.161-.048,1.7,58.015Z" transform="translate(-274.555 -6.255)" fill="#454595"/><path d="M234.075,91.53a74.691,74.691,0,0,1,9.7,6.339,2.716,2.716,0,0,0,1.086.666,2.478,2.478,0,0,0,1.423-.238L250.8,96.57a2.235,2.235,0,0,1,1.371-.211,1.947,1.947,0,0,1,1.029,2.261,5.621,5.621,0,0,1-1.323,2.356l-2.371,2.937a7.792,7.792,0,0,1-3.126,2.731c-1.926.681-3.965-.428-5.691-1.585-3.216-2.2-7.627-3.375-9.486-7.131-.564-1.136-.583-4.986.474-6.149C232.8,90.474,232.941,90.9,234.075,91.53Z" transform="translate(-145.763 -73.508)" fill="#454595"/><path d="M238.31,108.417l.275-2.757s7.337,5.282,9.078,5,8.286-4.949,8.286-4.949-1.589,5.156-4.43,6.994S249.958,114.851,238.31,108.417Z" transform="translate(-149.699 -80.459)" fill="url(#g)"/><path d="M199.192,112.26a3.534,3.534,0,0,0,.413,1.907,3.234,3.234,0,0,0,1.162.924,24.915,24.915,0,0,0,6.782,2.953,8.12,8.12,0,0,0,6.972-1.447,4.665,4.665,0,0,0,1.527-2.24,10.982,10.982,0,0,0,.047-3.439c-.133-2.874.726-5.668,1.328-8.452s.915-5.863-.223-8.452c-.9-2.028,1.034-3.735-.664-4.976a11.314,11.314,0,0,0-9.121-1.944c-1.518.254-6.7,2.641-7.257,4.226s1.077,3.212.882,4.907C200.449,101.484,199.192,106.962,199.192,112.26Z" transform="translate(-129.13 -71.598)" fill="#454595"/><path d="M209.546,112.454a5.238,5.238,0,0,1-1.617-3.476c-.047-.951.171-1.907.071-2.852a3.959,3.959,0,0,0-1.233-2.509.6.6,0,0,0-.524-.224.627.627,0,0,0-.477.33c-1.527,1.632-1.755,4.226-1.84,6.587a5.049,5.049,0,0,0,.617,3.222,3.5,3.5,0,0,0,2.4,1.152c.882.132,3.794.6,4.463-.158C212.368,113.458,210.181,113.057,209.546,112.454Z" transform="translate(-131.616 -79.388)" fill="url(#h)"/><path d="M202.38,132.531a.64.64,0,0,1,.2-.232.618.618,0,0,1,.379-.042,54.7,54.7,0,0,0,5.8.291c.194-.148,4.212-2.187,4.117-2.425s-6.872-.861-7.114-.919c-.821-.211-1.9,1.273-2.642.84a11.845,11.845,0,0,0-2.039-1.125c-.574-.19-1.356-.116-1.556.528a1.752,1.752,0,0,0-.062.449l-.081,1.9a4.478,4.478,0,0,0,.232,2.076,3.76,3.76,0,0,0,2.049,1.643,1.088,1.088,0,0,0,.773.121A3.417,3.417,0,0,1,202.38,132.531Z" transform="translate(-129.216 -91.388)" fill="url(#i)"/><path d="M216.44,105.1a192.966,192.966,0,0,1,28.784-17.379,145.266,145.266,0,0,1,31.023-11.4,147.16,147.16,0,0,1,16.164-2.683q8.115-.988,16.254-1.643a243.389,243.389,0,0,1,32.6-.6A242.93,242.93,0,0,0,308.7,72.538q-8.12.782-16.206,1.912a130.471,130.471,0,0,0-46.66,14.78A192.319,192.319,0,0,0,217.569,106.9Z" transform="translate(-138.202 -64.145)" fill="#454595"/><path d="M216.44,105.152C225.617,98.443,235.715,93,245.7,88.116a142.79,142.79,0,0,1,30.762-11.378A144.668,144.668,0,0,1,292.492,74.1c5.407-.66,10.833-1.373,16.259-1.812,10.847-.787,21.67-1.505,32.531-.84a242.93,242.93,0,0,0-32.564,1.141q-8.12.782-16.206,1.912a130.4,130.4,0,0,0-46.674,14.78,192.313,192.313,0,0,0-28.267,17.674Z" transform="translate(-138.202 -64.194)" fill="url(#j)"/><path d="M233.541,173.74a4.418,4.418,0,0,0,.413,2.678c1.314-.872,1.707-2.757,1.873-4.448a40.93,40.93,0,0,0-.247-10.036,4.939,4.939,0,0,0-.413-1.537,3.843,3.843,0,0,0-1.717-1.521,2.653,2.653,0,0,0-1.356-.4,1.159,1.159,0,0,0-1.067.872,2.087,2.087,0,0,0,.09.961,14.952,14.952,0,0,0,1.024,3.238,9.685,9.685,0,0,1,1.029,2.673A26.341,26.341,0,0,1,233.541,173.74Z" transform="translate(-145.86 -105.378)" fill="url(#k)"/><path d="M196.751,161.518a5.781,5.781,0,0,0,3.462,1.194c.474.032.9.048,1.352.069a2.687,2.687,0,0,1,2.424,2.683q.047,1.585.052,3.122c0,2.5-.076,5.108.906,7.348.209.465.541.967,1.005.972a1.069,1.069,0,0,0,.683-.306,4.029,4.029,0,0,0,1.181-2.176,11.668,11.668,0,0,0,.2-2.572,27.324,27.324,0,0,0-1.423-9.725,7.171,7.171,0,0,0-.474-1,5.225,5.225,0,0,0-3.211-2.382,11.423,11.423,0,0,0-3.932-.227c-.626.042-1.247.1-1.9.137-.351,0-1.66-.2-1.9,0C194.721,159.13,196.376,161.2,196.751,161.518Z" transform="translate(-126.984 -105.357)" fill="url(#l)"/><path d="M219.062,206.068a5.27,5.27,0,0,0,1.091.914l1.707,1.183c.617.428,1.423.845,2.006.364a1.843,1.843,0,0,0,.275-2,6.446,6.446,0,0,0-1.546-2.641,1.545,1.545,0,0,1-.375-.475,1.5,1.5,0,0,1-.076-.618v-1.954c0-1.986-2.447-1.627-3.22-.454C217.971,201.811,217.942,204.748,219.062,206.068Z" transform="translate(-139.135 -124.696)" fill="#606161"/><path d="M237.533,201.968a3.839,3.839,0,0,0,1.769,1.611,11.859,11.859,0,0,0,2.167.893.914.914,0,0,0,.949-.09,1.071,1.071,0,0,0,.228-.528,4.235,4.235,0,0,0-.858-3.518,6.284,6.284,0,0,1-.949-1.136,5.924,5.924,0,0,1-.322-2.2c-.133-1.638-2.476-1.21-3.04-.148A8.6,8.6,0,0,0,237.533,201.968Z" transform="translate(-149.069 -123.036)" fill="#606161"/><path d="M202.394,110.33a3.706,3.706,0,0,1,1.115-2,6.245,6.245,0,0,0,1.238-4.115c-.047-.85-.55-1.9-1.3-1.717a1.338,1.338,0,0,0-.474.269,9.93,9.93,0,0,0-3.514,5.462,4.859,4.859,0,0,0,1.461,5.2,13.446,13.446,0,0,0,5.075,3.375c.5.185,2.035.75,1.693-.328C207.478,115.882,202.375,111.117,202.394,110.33Z" transform="translate(-129.159 -78.959)" fill="url(#m)"/><path d="M218.06,138.73l4.828.032s-1.024,1.875-1.869,1.981Z" transform="translate(-139.053 -96.06)" fill="#454595"/><path d="M197.369,97.425a40.823,40.823,0,0,0-.849,8.008c0,1.907.138,3.941,1.19,5.446a5.65,5.65,0,0,0,3.87,2.24,15.574,15.574,0,0,0,4.454-.18l4.482-.618a2.189,2.189,0,0,0,.977-.3c.9-.634.579-2.3-.28-3.011s-1.85.407-2.874.063c-1.134-.38-5.174-1.3-6.009-2.234a1.284,1.284,0,0,1-.356-.613,1.661,1.661,0,0,1,.1-.755c1-3.344,3.529-9.043,1.385-11.822C200.836,90.241,197.981,94.462,197.369,97.425Z" transform="translate(-127.73 -74.194)" fill="#454595"/><path d="M218.6,88.781a2.406,2.406,0,0,0,2.846-.28,2.514,2.514,0,0,0,.7-1.426c.213-1.585-.949-3.011-.868-4.585.052-.782.422-1.585.171-2.319-.213-.623-3.353-1.643-3.467-.982C217.172,83.837,215.166,86.874,218.6,88.781Z" transform="translate(-138.317 -67.869)" fill="#f4a982"/><path d="M220.37,79.81s-.327,6.819,2.974,6.339c0,0,.517-.079.36-.919s-.787-1.706-.754-2.451S220.37,79.81,220.37,79.81Z" transform="translate(-140.263 -68.264)" fill="url(#n)"/><path d="M227.93,70.2a17.351,17.351,0,0,1-2.035,5.546,7.539,7.539,0,0,1-1.741,2.377,2.537,2.537,0,0,1-2.618.433,3.878,3.878,0,0,1-1.641-2.113,10.34,10.34,0,0,1-.821-4.353c.076-1.585.74-4.548,2.737-3.418.408.238.683.676,1.072.956a1.652,1.652,0,0,0,1.859.111c.213-.132.451-.327.683-.238a.9.9,0,0,1,.294.217,1.307,1.307,0,0,0,1.679,0,.826.826,0,0,0,.531.481Z" transform="translate(-139.585 -62.892)" fill="#f4a982"/><path d="M231.7,121.076a3.315,3.315,0,0,1,1.252,1.727,1.067,1.067,0,0,1,.095.417.837.837,0,0,1-.209.481c-.835,1.056-2.371.66-3.491,1.273a9.51,9.51,0,0,1-.821.491,2.652,2.652,0,0,1-1.186.132,10.26,10.26,0,0,1-1.266-.116c-1.015-.132-1.224-1.373-.906-2.3a1.591,1.591,0,0,1,1.494-1.157C228.185,121.736,230.177,120.183,231.7,121.076Z" transform="translate(-142.718 -87.603)" fill="#f4a982"/><path d="M228.81,63.344a2.037,2.037,0,0,0,.745-2.726,2.883,2.883,0,0,0-2.443-1.5.648.648,0,0,1-.474-.132,1.278,1.278,0,0,1-.232-.349,1.8,1.8,0,0,0-1.684-.671,3.241,3.241,0,0,0-1.76.327c-.427.259-.759.74-1.247.935a6.065,6.065,0,0,1-1.527.153,2.18,2.18,0,0,0-1.584,1.262,2.54,2.54,0,0,1-.332.671,4.94,4.94,0,0,1-.408.349,2.77,2.77,0,0,0-.863,2.05A8.982,8.982,0,0,0,217.351,66a.824.824,0,0,0,.175.391c.213.2.949.8,1.086.528.275-.528.133-1.733.7-2.034s.5.232.949.528a1.612,1.612,0,0,0,1.5.174c.256-.111.474-.259.745-.37a.95.95,0,0,1,.778-.042c.474.238.531.977.949,1.326a.987.987,0,0,0,1.423-.37,1.377,1.377,0,0,0,.389.7.48.48,0,0,0,.707-.042c.095-.132.114-.349.232-.481a.62.62,0,0,1,.432-.153,1.381,1.381,0,0,0,.8,0,1.87,1.87,0,0,0,1.266-1.22A1.318,1.318,0,0,0,228.81,63.344Z" transform="translate(-138.496 -57.951)" fill="#f55959"/><path d="M218.418,72.947a.5.5,0,0,0-.261-.058.486.486,0,0,0-.327.285,1.3,1.3,0,0,0-.081.47,3.217,3.217,0,0,0,.062.708,1.174,1.174,0,0,0,.707.972.7.7,0,0,0,.8-.528,1.853,1.853,0,0,0-.9-1.849Z" transform="translate(-138.89 -64.998)" fill="#f4a982"/><path d="M218.954,74.571c-.062-.127,0-.275,0-.417s-.171-.264-.346-.354a.106.106,0,0,0-.057.048,1.216,1.216,0,0,0-.081.914.721.721,0,0,0,.142.3.3.3,0,0,0,.28.116.423.423,0,0,0,.256-.306C219.168,74.645,219.04,74.735,218.954,74.571Z" transform="translate(-139.241 -65.428)" fill="url(#o)"/><path d="M275.937,97.672c-.5.465-1,.94-1.47,1.437a1.993,1.993,0,0,0-.569.85,1.728,1.728,0,0,0,.74,1.685,3.239,3.239,0,0,0,2.734.66,3.543,3.543,0,0,0,2.3-1.77,2.669,2.669,0,0,0,.28-2.192,1.98,1.98,0,0,0-1.314-1.167,2.921,2.921,0,0,0-2.7.5Z" transform="translate(-168.388 -76.391)" fill="#f4a982"/><path d="M351.959,254.417c-3.882,0-7.029-3.5-7.029-7.828s3.147-7.828,7.029-7.828,7.029,3.5,7.029,7.828S355.84,254.414,351.959,254.417Zm0-13.48a5.685,5.685,0,1,0,5.075,5.652,5.387,5.387,0,0,0-5.075-5.652Z" transform="translate(-205.751 -143.252)" fill="#454595"/><path d="M.547.16,2.75.043,2.333,8.092l-2.2.117Z" transform="matrix(0.784, -0.62, 0.62, 0.784, 148.158, 109.05)" fill="#454595"/><rect width="88.544" height="34.541" rx="17.27" transform="translate(0 123.235)" fill="#fff"/><rect width="71.703" height="2.974" rx="1.487" transform="translate(9.173 132.706)" fill="#454595" opacity="0.24" style="isolation:isolate"/><rect width="50.464" height="2.81" rx="1.405" transform="translate(9.173 140.92)" fill="#454595" opacity="0.24" style="isolation:isolate"/><rect width="88.544" height="34.541" rx="17.27" transform="translate(195.344 167.801)" fill="#fff"/><rect width="71.703" height="2.974" rx="1.487" transform="translate(204.517 177.272)" fill="#454595" opacity="0.24" style="isolation:isolate"/><rect width="50.464" height="2.81" rx="1.405" transform="translate(204.517 185.492)" fill="#454595" opacity="0.24" style="isolation:isolate"/></svg>