<svg xmlns="http://www.w3.org/2000/svg" xmlns:xlink="http://www.w3.org/1999/xlink" width="245.258" height="235.583" viewBox="0 0 245.258 235.583"><defs><linearGradient id="a" x1="0.443" y1="-0.194" x2="0.536" y2="1.236" gradientUnits="objectBoundingBox"><stop offset="0" stop-opacity="0"/><stop offset="0.99"/></linearGradient><linearGradient id="b" x1="0.587" y1="-1.132" x2="0.348" y2="3.293" gradientUnits="objectBoundingBox"><stop offset="0" stop-opacity="0"/><stop offset="0.95"/></linearGradient><linearGradient id="c" x1="0.845" y1="0.424" x2="-0.631" y2="0.76" xlink:href="#b"/><linearGradient id="d" x1="0.755" y1="0.67" x2="-0.826" y2="-0.439" xlink:href="#b"/><linearGradient id="e" x1="0.771" y1="0.534" x2="-0.7" y2="0.344" xlink:href="#b"/><linearGradient id="f" x1="0.205" y1="0.523" x2="1.862" y2="0.388" xlink:href="#b"/><linearGradient id="g" x1="1.497" y1="0.155" x2="-3.097" y2="1.443" xlink:href="#b"/><linearGradient id="h" x1="0.494" y1="-2.84" x2="0.515" y2="8.287" xlink:href="#b"/></defs><path d="M69.616,100.953c-2.162,25.321,3.731,51.311-1.461,76.083-1.828,8.719-5.008,17.1-6.009,26.027s.668,18.842,6.861,24.6c3.53,3.263,8.087,4.741,12.1,7.223s7.787,6.721,7.578,11.8c-.117,3.049-1.669,5.958-1.294,8.979.643,5.438,6.535,7.632,11.384,8.608a657.552,657.552,0,0,0,178.683,11.155c9.915-.744,21.166-2.538,26.783-11.666,5.208-8.477,3.021-20.961-3.714-27.979-1.669-1.738-3.622-3.272-4.666-5.577-2.554-5.577,1.4-11.824,4.006-17.354,6.343-13.5,4.707-29.745,2.9-44.822-.985-8.282-2.078-16.88-6.226-23.843-4.248-7.12-11.159-11.61-17.852-15.8C249.025,109.793,218.679,92.132,186.3,80.4,155.356,69.237,74.5,43.684,69.616,100.953Z" transform="translate(-61.876 -41.658)" fill="#454595" opacity="0.24" style="isolation:isolate"/><path d="M170.925,39.89H107.936C97.921,39.885,89.8,48.926,89.8,60.08v44.311H195.6V62.682Z" transform="translate(-66.494 -39.89)" fill="#454595"/><path d="M170.925,39.89H107.936C97.921,39.885,89.8,48.926,89.8,60.08v44.311H195.6V62.682Z" transform="translate(-66.494 -39.89)" fill="url(#a)"/><rect width="214.329" height="167.066" rx="28.3" transform="translate(23.273 23.647)" fill="#454595"/><g transform="translate(75.269 47.688)"><path d="M152.16,133.559v-1.943a1.769,1.769,0,0,0,.083-.279A24.47,24.47,0,0,1,154.2,124.2a14.173,14.173,0,0,1,2.554-4.192,3.177,3.177,0,0,1,3.681-1.032c.442.177.9.307,1.344.483a11.842,11.842,0,0,0,8.847.149,9.857,9.857,0,0,0,6.285-6.507,22.555,22.555,0,0,0,.409-11.982,4.741,4.741,0,0,1,.993-4.5,9.761,9.761,0,0,1,1.669-1.543,20.741,20.741,0,0,1,9.748-3.82c2.3-.316,3.53.548,4.407,2.947a.2.2,0,0,0,.058.167c1.427,3.644,3.6,6.507,6.986,7.966,6.053,2.462,12.769-.865,15.182-7.52a7.737,7.737,0,0,1,1.97-2.872,2.438,2.438,0,0,1,1.8-.706,16.667,16.667,0,0,1,6.176,1.515,14.506,14.506,0,0,1,6.109,4.769,4.357,4.357,0,0,1,.684,4.276c-.083.242-.159.493-.25.734a14.442,14.442,0,0,0-1,4.378,13.062,13.062,0,0,0,5.842,12.372c3.923,2.277,7.929,1.859,11.852-.1a3.532,3.532,0,0,1,4.49.8,12.3,12.3,0,0,1,1.594,2.287,29.426,29.426,0,0,1,3.121,10.578,4.355,4.355,0,0,1-2.5,4.787,14.349,14.349,0,0,0-5.8,4.648,14.019,14.019,0,0,0-2.369,11.362,12.6,12.6,0,0,0,6.826,8.846,7.717,7.717,0,0,1,1.978,1.357,4.97,4.97,0,0,1,1.669,4.006,21.14,21.14,0,0,1-3.8,11.619,5.5,5.5,0,0,1-6.527,2.166,13.516,13.516,0,0,0-8.037-.679,8.68,8.68,0,0,0-4.574,2.212,12.947,12.947,0,0,0-2.854,4.443,15.587,15.587,0,0,0,.225,11.238,6.862,6.862,0,0,1,.426,2.454,4.874,4.874,0,0,1-1.844,3.718,19.968,19.968,0,0,1-10.758,4.787,3.082,3.082,0,0,1-2.5-.679,6.359,6.359,0,0,1-1.736-2.566,16.759,16.759,0,0,0-3.338-5.577,10.046,10.046,0,0,0-13.613-1.8,15.088,15.088,0,0,0-5.575,7.436,4.158,4.158,0,0,1-3.338,3.021,6.348,6.348,0,0,1-2.053.046,23.189,23.189,0,0,1-8.58-3.281,13.345,13.345,0,0,1-3.564-3.049,4.422,4.422,0,0,1-.835-4.332c.242-.781.559-1.534.835-2.3a13.176,13.176,0,0,0-2.429-13.367,7.248,7.248,0,0,0-3.338-2.1,15.015,15.015,0,0,0-9.064.307c-2.654.864-4.582.093-6.084-2.5a24.533,24.533,0,0,1-2.763-6.8c-.317-1.339-.517-2.714-.768-4.071v-.846a5.682,5.682,0,0,1,.1-.641,4.266,4.266,0,0,1,2.5-3.793,15.758,15.758,0,0,0,6.577-5.782,12.328,12.328,0,0,0-.376-14.389,16.475,16.475,0,0,0-6.268-5.075,3.628,3.628,0,0,1-1.753-2.036A15.631,15.631,0,0,1,152.16,133.559Zm78.1,16.732c-.042-15.278-11.182-27.634-24.9-27.616s-24.833,12.4-24.844,27.679,11.087,27.681,24.8,27.722a23.64,23.64,0,0,0,17.647-8.1,29.371,29.371,0,0,0,7.291-19.646Z" transform="translate(-152.06 -91.193)" fill="url(#b)"/></g><path d="M234.432,273.726H95.727c-2.4,0-13.037-1.524-13.037-3.393h0c0-1.859,10.633-3.384,13.037-3.384h138.7Z" transform="translate(-65.318 -55.889)" fill="#fff"/><path d="M333.315,268.76v2.315c-.009,8.092-5.9,14.645-13.17,14.64H238.16c-5.835,0-10.972-4.282-12.628-10.513a15.913,15.913,0,0,1-.542-4.127V268.76a15.488,15.488,0,0,1,1.3-6.274c2.17-5.111,6.792-8.369,11.868-8.366h81.984c7.264,0,13.156,6.55,13.17,14.64Z" transform="translate(-88.852 -54.985)" fill="#454595"/><path d="M276.36,283.455v3.867H238.268c-5.835,0-10.972-4.282-12.628-10.513a11.368,11.368,0,0,1,2.854-.548s3.706,7.195,8.5,7.195Z" transform="translate(-88.96 -56.545)" fill="url(#c)"/><path d="M217.816,262.047v14.975a3.984,3.984,0,0,1-3.1,4.062,2.385,2.385,0,0,1-.576.065,3.933,3.933,0,0,1-3.706-4.127V262.047a3.951,3.951,0,0,1,3.706-4.127,2.385,2.385,0,0,1,.576.065,4,4,0,0,1,3.1,4.062Z" transform="translate(-86.444 -55.253)" fill="#454595"/><path d="M286.259,258.842s-44.777-.641-50,0-8.1,7.743-8.1,7.743a18.754,18.754,0,0,1-1.6-4.1c2.17-5.111,6.792-8.369,11.868-8.366h47.573Z" transform="translate(-89.11 -54.985)" fill="url(#d)"/><rect width="15.641" height="14.51" transform="translate(128.91 207.185)" fill="#454595"/><rect width="54.442" height="5.968" rx="2.984" transform="translate(137.74 212.353)" fill="url(#e)"/><rect width="54.442" height="5.968" rx="2.984" transform="translate(190.012 212.353)" fill="url(#f)"/><path d="M218.665,262.053v14.975a3.985,3.985,0,0,1-3.1,4.062V258A4,4,0,0,1,218.665,262.053Z" transform="translate(-87.293 -55.258)" fill="url(#g)"/><path d="M78.967,266.7l-3.622-3.709-19.255,2.9v7.092l17.377,3.709,5.358-3.542Z" transform="translate(-44.026 -55.638)" fill="#f55959"/><path d="M168.012,271.648,78.1,271.49l-6.084,2.984-15.591-1.915-.334,1.022,17.377,3.709,4.849-3.225,89.7.325Z" transform="translate(-44.026 -56.237)" fill="url(#h)"/></svg>