<?xml version="1.0" encoding="utf-8"?>
<!-- Generator: Adobe Illustrator 25.4.1, SVG Export Plug-In . SVG Version: 6.00 Build 0)  -->
<svg version="1.1" id="Ebene_1" xmlns="http://www.w3.org/2000/svg" xmlns:xlink="http://www.w3.org/1999/xlink" x="0px" y="0px"
	 viewBox="0 0 100.8 100.7" style="enable-background:new 0 0 100.8 100.7;" xml:space="preserve">
<style type="text/css">
	.st0{fill:#5392EE;}
	.st1{fill:none;}
	.st2{fill:#FFFFFF;}
</style>
<g transform="translate(-127.239 -2251.129)">
	<path class="st0" d="M224.8,2339.7c-9.2,13.8-28.5,12.5-45,11.5c-19.4-1.2-45.1,0.8-51.5-17.5c-6.3-18,18.3-29,30-44.1
		c11.2-14.4,15.7-40.4,33.8-38.3c18.2,2.1,18.2,27.8,24.6,44.9C222.1,2311,233.6,2326.6,224.8,2339.7"/>
	<g transform="translate(167.977 2289.977)">
		<path class="st1" d="M-7.2-7.3h44v44h-44V-7.3z"/>
		<g transform="translate(-0.891 1.555)">
			<path class="st1" d="M-7.2-7.3h44.9v44.9H-7.2V-7.3z"/>
			<path class="st2" d="M22.8,22.6c3.1,0,5.6,2.5,5.6,5.6s-2.5,5.6-5.6,5.6c-3.1,0-5.6-2.5-5.6-5.6c0,0,0,0,0,0
				C17.2,25.2,19.7,22.6,22.8,22.6z M4.1,15.2c4.1,0,7.5,3.4,7.5,7.5s-3.4,7.5-7.5,7.5s-7.5-3.4-7.5-7.5l0,0
				C-3.4,18.5-0.1,15.2,4.1,15.2C4.1,15.2,4.1,15.2,4.1,15.2z M22.8,26.4c-1,0-1.9,0.8-1.9,1.9c0,1,0.8,1.9,1.9,1.9s1.9-0.8,1.9-1.9
				C24.7,27.2,23.8,26.4,22.8,26.4z M4.1,18.9c-2.1,0-3.7,1.7-3.7,3.7s1.7,3.7,3.7,3.7s3.7-1.7,3.7-3.7C7.8,20.6,6.1,18.9,4.1,18.9
				C4.1,18.9,4.1,18.9,4.1,18.9z M20-3.6c5.7,0,10.3,4.6,10.3,10.3S25.7,17,20,17S9.7,12.4,9.7,6.7l0,0C9.7,1,14.3-3.6,20-3.6z
				 M20,0.2c-3.6,0-6.6,2.9-6.5,6.6s2.9,6.6,6.6,6.5c3.6,0,6.5-2.9,6.5-6.6C26.5,3.1,23.6,0.2,20,0.2C20,0.2,20,0.2,20,0.2z"/>
		</g>
	</g>
</g>
</svg>
