<?xml version="1.0" encoding="utf-8"?>
<!-- Generator: Adobe Illustrator 25.4.1, SVG Export Plug-In . SVG Version: 6.00 Build 0)  -->
<svg version="1.1" id="Ebene_1" xmlns="http://www.w3.org/2000/svg" xmlns:xlink="http://www.w3.org/1999/xlink" x="0px" y="0px"
	 viewBox="0 0 100 101.2" style="enable-background:new 0 0 100 101.2;" xml:space="preserve">
<style type="text/css">
	.st0{fill:#5392EE;}
	.st1{fill:none;}
	.st2{fill:#FFFFFF;}
</style>
<g transform="translate(-112.371 -2238.194)">
	<path class="st0" d="M117.3,2246.6c11.1-12.4,29.9-8.4,46.2-5.1c19,3.9,44.8,5.5,48.6,24.5c3.7,18.7-22.2,26.2-35.8,39.5
		c-13.1,12.7-21.1,37.8-38.8,33.2c-17.7-4.6-14.2-30-18.1-47.9C116,2275.4,106.7,2258.4,117.3,2246.6"/>
	<g transform="translate(170.555 2294)">
		<path class="st1" d="M-32.8-31.7H5.7V6.8h-38.5V-31.7z"/>
		<path class="st2" d="M-27.7-24.5c3.9-3.9,10-4.1,14.2-0.5c4.4-3.8,10.9-3.3,14.7,1.1c3.4,3.9,3.4,9.7,0,13.6L-11.3,2.1
			c-1.2,1.2-3.1,1.3-4.4,0.2l-0.2-0.2l-12.4-12.5C-31.8-14.5-31.6-20.7-27.7-24.5z M-25.5-22.2c-2.7,2.7-2.8,7.1-0.2,10l0.2,0.2
			l11.9,11.9l8.5-8.5l-5.7-5.7l-1.7,1.7c-1.8,1.9-4.9,2-6.8,0.1s-2-4.9-0.1-6.8c0,0,0.1-0.1,0.1-0.1l3.4-3.4
			c-2.8-2.2-6.7-2.1-9.4,0.3L-25.5-22.2L-25.5-22.2z M-11.9-17.7c0.6-0.6,1.6-0.6,2.3,0c0,0,0,0,0,0l6.8,6.8l1.1-1.1
			c2.8-2.8,2.8-7.4,0-10.2c-2.7-2.7-7.1-2.8-9.9-0.2l-0.2,0.2l-5.1,5.1c-0.6,0.6-0.6,1.5-0.1,2.1l0.1,0.1c0.6,0.6,1.5,0.6,2.1,0.1
			l0.1-0.1L-11.9-17.7z"/>
	</g>
</g>
</svg>
