<?xml version="1.0" encoding="utf-8"?>
<!-- Generator: Adobe Illustrator 25.4.1, SVG Export Plug-In . SVG Version: 6.00 Build 0)  -->
<svg version="1.1" id="Ebene_1" xmlns="http://www.w3.org/2000/svg" xmlns:xlink="http://www.w3.org/1999/xlink" x="0px" y="0px"
	 viewBox="0 0 98.9 103.3" style="enable-background:new 0 0 98.9 103.3;" xml:space="preserve">
<style type="text/css">
	.st0{fill:#5392EE;}
	.st1{fill:none;}
	.st2{fill:#FFFFFF;}
</style>
<g transform="translate(-134.309 -2241.928)">
	<path class="st0" d="M230.6,2263.4c7.6,14.8-2.8,31-11.8,45c-10.5,16.4-21.2,39.9-40.3,36.6c-18.8-3.2-16.5-30.1-24-47.6
		c-7.2-16.8-27.7-33.3-17.1-48.2c10.6-14.9,33.1-2.5,51.2,0.3C204.2,2251.8,223.3,2249.3,230.6,2263.4"/>
	<g transform="translate(170.126 2293)">
		<path class="st1" d="M-6.3-27.4h42v42h-42V-27.4z"/>
		<path class="st2" d="M14.7,11.1C5,11.1-2.8,3.3-2.8-6.4S5-23.9,14.7-23.9s17.5,7.8,17.5,17.5C32.2,3.3,24.4,11.1,14.7,11.1
			C14.7,11.1,14.7,11.1,14.7,11.1z M14.7,7.6c7.7,0,14-6.3,14-14c0-7.7-6.3-14-14-14c-7.7,0-14,6.3-14,14C0.7,1.3,7,7.6,14.7,7.6
			C14.7,7.6,14.7,7.6,14.7,7.6L14.7,7.6z M11.3-8.2H20v3.5h-8.7c0.5,2.4,2.8,3.9,5.2,3.4c0.7-0.1,1.4-0.5,2-0.9l3,2
			C18.5,3,13.5,3.2,10.3,0.3C8.9-1,8-2.8,7.8-4.7H6v-3.5h1.8c0.5-4.3,4.4-7.4,8.7-7c1.9,0.2,3.6,1.1,4.9,2.5l-3,2
			c-1.8-1.6-4.6-1.3-6.2,0.5C11.8-9.6,11.5-8.9,11.3-8.2z"/>
	</g>
</g>
</svg>
