<?xml version="1.0" encoding="utf-8"?>
<!-- Generator: Adobe Illustrator 25.4.1, SVG Export Plug-In . SVG Version: 6.00 Build 0)  -->
<svg version="1.1" id="Ebene_1" xmlns="http://www.w3.org/2000/svg" xmlns:xlink="http://www.w3.org/1999/xlink" x="0px" y="0px"
	 viewBox="0 0 101 100.4" style="enable-background:new 0 0 101 100.4;" xml:space="preserve">
<style type="text/css">
	.st0{fill:#5392EE;}
	.st1{fill:none;}
	.st2{fill:#FFFFFF;}
</style>
<g transform="translate(-115.346 -2252.346)">
	<path class="st0" d="M125,2348.6c-12.9-10.4-10-29.4-7.5-45.9c2.9-19.2,3.1-45,22-49.8c18.5-4.7,27.3,20.8,41.3,33.7
		c13.4,12.4,38.8,19.1,35.2,37c-3.6,17.9-29.2,15.7-46.9,20.5C153.8,2348.4,137.4,2358.5,125,2348.6"/>
	<g transform="translate(169.555 2290.977)">
		<path class="st1" d="M-32.5-7.6h42v42h-42V-7.6z"/>
		<path class="st2" d="M-23.7,15.2c0-8.9,5.1-16.5,12.3-19.6C-4.3-1.3,0.8,6.3,0.8,15.2c0,1.4-0.1,2.8-0.4,4.2l3.4,3.2
			c0.3,0.3,0.4,0.7,0.2,1.1l-4.4,8c-0.2,0.4-0.8,0.6-1.2,0.4c-0.1,0-0.1-0.1-0.2-0.2L-5.7,28C-6,27.6-6.5,27.5-7,27.5H-16
			c-0.5,0-0.9,0.2-1.2,0.5l-3.9,3.9c-0.3,0.3-0.9,0.3-1.2,0c-0.1-0.1-0.1-0.1-0.2-0.2l-4.4-8c-0.2-0.3-0.1-0.8,0.2-1.1l3.4-3.2
			C-23.6,18-23.7,16.6-23.7,15.2z M-21.2,26.9l1.4-1.4c1-1,2.3-1.5,3.7-1.5H-7c1.4,0,2.7,0.6,3.7,1.5l1.4,1.4l1.7-3.2L-2,21.9
			c-0.9-0.8-1.3-2-1-3.2c0.2-1.2,0.3-2.4,0.3-3.6c0.1-6.4-3.2-12.4-8.8-15.7c-5.5,3.3-8.9,9.3-8.8,15.7c0,1.2,0.1,2.4,0.3,3.6
			c0.2,1.2-0.2,2.4-1,3.2l-1.9,1.8L-21.2,26.9z M-11.5,15.2c-1.9,0-3.5-1.6-3.5-3.5s1.6-3.5,3.5-3.5S-8,9.8-8,11.7
			S-9.6,15.2-11.5,15.2z"/>
	</g>
</g>
</svg>
