<?xml version="1.0" encoding="utf-8"?>
<!-- Generator: Adobe Illustrator 25.4.1, SVG Export Plug-In . SVG Version: 6.00 Build 0)  -->
<svg version="1.1" id="Ebene_1" xmlns="http://www.w3.org/2000/svg" xmlns:xlink="http://www.w3.org/1999/xlink" x="0px" y="0px"
	 viewBox="0 0 100 101.2" style="enable-background:new 0 0 100 101.2;" xml:space="preserve">
<style type="text/css">
	.st0{fill:#5392EE;}
	.st1{fill:none;}
	.st2{fill:#FFFFFF;}
</style>
<g transform="translate(-112.37 -2238.194)">
	<path class="st0" d="M117.3,2246.6c11.1-12.4,29.9-8.4,46.2-5.1c19,3.9,44.8,5.5,48.6,24.5c3.7,18.7-22.2,26.2-35.8,39.5
		c-13.1,12.7-21.1,37.8-38.8,33.2c-17.7-4.6-14.2-30-18.1-47.9C116,2275.4,106.7,2258.4,117.3,2246.6"/>
	<g transform="translate(167.977 2289.977)">
		<path class="st1" d="M-32.8-31.7h44v44h-44V-31.7z"/>
		<path class="st2" d="M-14.5,1.4h1.9v-9.2h3.7v9.2h1.9c0.2-2.2,1.4-4,3.2-6c0.2-0.2,1.5-1.6,1.7-1.8c3.8-4.7,3-11.7-1.7-15.5
			s-11.7-3-15.5,1.7c-3.2,4-3.2,9.7,0,13.8c0.2,0.2,1.5,1.6,1.7,1.8C-15.9-2.7-14.7-0.8-14.5,1.4z M-14.5,5v1.8h7.3V5L-14.5,5z
			 M-22.2-4.1c-5.1-6.3-4-15.6,2.3-20.6s15.6-4,20.6,2.3C5-17.1,5-9.5,0.7-4.1c-1.1,1.4-4.1,3.7-4.1,6.4v4.6c0,2-1.6,3.7-3.7,3.7
			l0,0h-7.3c-2,0-3.7-1.6-3.7-3.7l0,0V2.3C-18.1-0.5-21.1-2.7-22.2-4.1z"/>
	</g>
</g>
</svg>
