<svg xmlns="http://www.w3.org/2000/svg" width="48.066" height="61.115" viewBox="0 0 48.066 61.115"><path d="M38.258,2.83c0,5.933-5.112,10.737-11.395,10.737S15.486,8.739,15.468,2.83H2.83C2.83,15.353,13.6,25.5,26.863,25.5S50.872,15.353,50.9,2.83Z" transform="translate(-2.83 -2.83)" fill="#00316a"/><path d="M3.81,45.73V72.093H50.693V45.73ZM15.748,68.888H8.506V49.037h7.242ZM31.084,54.723H25.049v2.034h5.293v5.166H25.049v6.965H17.806V49.037H31.084ZM45.756,68.888H32.2V49.037H45.569v5.432h-6.1v1.9H45.02v5.16H39.467v1.949h6.289Z" transform="translate(-3.219 -19.838)" fill="#00316a"/><path d="M3.77,90.37H9.244V92.6H6.751v.779H9.027v2.112H6.751v.8H9.341v2.221H3.77Z" transform="translate(-3.203 -37.536)" fill="#00316a"/><path d="M14.11,90.37h3.555c1.811,0,3.386.779,3.386,2.831a1.935,1.935,0,0,1-1.575,2.118v.06a2.09,2.09,0,0,1,.5.489l1.768,2.644H18.353L17.061,95.9H17v2.613H14.11ZM17,93.991h.205c.483,0,.972-.079.972-.682s-.441-.7-.948-.7H17Z" transform="translate(-7.302 -37.536)" fill="#00316a"/><path d="M26.79,90.37h2.957v8.142H26.79Z" transform="translate(-12.329 -37.536)" fill="#00316a"/><path d="M33.1,90.37h2.885L35.919,93.9h.066a3.2,3.2,0,0,1,.4-.917l1.424-2.613h3.229l-2.571,3.965,2.819,4.177H37.868L36.48,96.049a3.482,3.482,0,0,1-.495-.948h-.066l.066,3.41H33.1Z" transform="translate(-14.831 -37.536)" fill="#00316a"/><path d="M47.081,95.491l.151.121a3.089,3.089,0,0,0,1.865.76c.29,0,.754-.121.754-.483s-.392-.4-.658-.453l-.6-.109a2.243,2.243,0,0,1-2.124-2.161c0-1.931,1.762-3.018,3.531-3.018a4.828,4.828,0,0,1,2.577.712l-.8,2.082a3.084,3.084,0,0,0-1.714-.6c-.26,0-.64.1-.64.435s.368.344.6.4l.67.151c1.255.284,2.161.954,2.161,2.33,0,1.943-1.768,2.909-3.531,2.909a7.309,7.309,0,0,1-3.126-.748Z" transform="translate(-20.025 -37.449)" fill="#00316a"/><path d="M57.74,90.37h5.474V92.6H60.722v.779H63v2.112H60.722v.8h2.607v2.221H57.74Z" transform="translate(-24.6 -37.536)" fill="#00316a"/><path d="M68,90.37h2.837l2.656,4.514h.085a12.676,12.676,0,0,1-.247-2.07V90.4H76.16v8.142H73.335l-2.6-4.273H70.65a9.554,9.554,0,0,1,.181,1.63v2.644H68Z" transform="translate(-28.667 -37.536)" fill="#00316a"/></svg>