<svg xmlns="http://www.w3.org/2000/svg" width="93.863" height="70.052" viewBox="0 0 93.863 70.052"><g transform="translate(0 50.426)"><g transform="translate(0 0.237)"><path d="M0,136.4v-8.1H1.145v7.226H4.778v.869Z" transform="translate(0 -128.3)" fill="#9c9b9b"/></g><g transform="translate(6.476)"><path d="M22.679,136.4l-.869-2.251H18.374l-.908,2.251H16.4l3.2-8.1h1.145l3.159,8.1Zm-1.224-3.12L20.072,129.8l-1.382,3.475Z" transform="translate(-16.4 -128.063)" fill="#9c9b9b"/><path d="M41.393,136.229a8.219,8.219,0,0,1-2.093-.355v-1.145a5.437,5.437,0,0,0,2.251.632,1.689,1.689,0,0,0,1.106-.355,1.171,1.171,0,0,0,.395-.948,1.239,1.239,0,0,0-.276-.829,3.718,3.718,0,0,0-.987-.75l-.553-.316a5.349,5.349,0,0,1-1.461-1.106,1.93,1.93,0,0,1-.434-1.224,2,2,0,0,1,.671-1.54,2.506,2.506,0,0,1,1.737-.592,7.324,7.324,0,0,1,1.974.316v1.066a6.833,6.833,0,0,0-1.9-.513,1.637,1.637,0,0,0-.987.316.922.922,0,0,0-.395.79.952.952,0,0,0,.276.711,5.311,5.311,0,0,0,1.027.75l.592.316A4.788,4.788,0,0,1,43.8,132.6a2.04,2.04,0,0,1,.434,1.264,2.117,2.117,0,0,1-.79,1.7A2.806,2.806,0,0,1,41.393,136.229Z" transform="translate(-30.257 -127.7)" fill="#9c9b9b"/></g><g transform="translate(22.982 0.237)"><path d="M58.2,136.4v-8.1h4.541v.869H59.385v2.606h2.843v.829H59.385v2.922h3.593v.869Z" transform="translate(-58.2 -128.3)" fill="#9c9b9b"/><path d="M75.8,136.4v-8.1h2.448a2.582,2.582,0,0,1,1.777.513,1.9,1.9,0,0,1,.632,1.5,2.353,2.353,0,0,1-1.619,2.29l2.685,3.791H80.3l-2.29-3.435H76.945V136.4Zm1.145-4.3H77.3c1.461,0,2.172-.553,2.172-1.7,0-.829-.592-1.264-1.816-1.264h-.711Z" transform="translate(-68.85 -128.3)" fill="#9c9b9b"/></g><g transform="translate(37.395 0.237)"><path d="M94.7,136.4v-.908l4.344-6.318H94.976V128.3h5.449v.869l-4.344,6.318h4.344v.908Z" transform="translate(-94.7 -128.3)" fill="#9c9b9b"/></g><g transform="translate(45.569 0.237)"><path d="M115.4,136.4v-8.1h4.541v.869h-3.356v2.606h2.843v.829h-2.843v2.922h3.593v.869Z" transform="translate(-115.4 -128.3)" fill="#9c9b9b"/></g><g transform="translate(52.519 0.237)"><path d="M133,136.4v-8.1h1.145l4.067,6.239V128.3h.987v8.1h-1.106l-4.067-6.239V136.4Z" transform="translate(-133 -128.3)" fill="#9c9b9b"/></g><g transform="translate(60.733 0.237)"><path d="M156.683,136.4v-7.226H153.8V128.3h6.91v.869h-2.883V136.4Z" transform="translate(-153.8 -128.3)" fill="#9c9b9b"/><path d="M176.4,136.4v-8.1h2.448a2.582,2.582,0,0,1,1.777.513,1.9,1.9,0,0,1,.632,1.5,2.353,2.353,0,0,1-1.619,2.29l2.685,3.791H180.9l-2.29-3.435h-1.066V136.4Zm1.145-4.3h.355c1.461,0,2.172-.553,2.172-1.7,0-.829-.592-1.264-1.817-1.264h-.711Z" transform="translate(-167.476 -128.3)" fill="#9c9b9b"/></g><g transform="translate(77.555 0.237)"><path d="M196.44,128.3h1.145v5.094a2.926,2.926,0,0,0,.434,1.777,1.813,1.813,0,0,0,1.421.553,1.655,1.655,0,0,0,1.382-.513,2.955,2.955,0,0,0,.395-1.777V128.3h.987v5.133a3.655,3.655,0,0,1-.671,2.409,2.792,2.792,0,0,1-2.172.75,3,3,0,0,1-2.251-.79,3.512,3.512,0,0,1-.711-2.409V128.3Z" transform="translate(-196.4 -128.3)" fill="#9c9b9b"/></g><g transform="translate(86.321 0.237)"><path d="M218.6,136.4v-8.1h1.58l2.251,6.279,2.29-6.279h1.422v8.1h-1.066V129.8l-2.251,6.042H221.72l-2.172-6.081v6.594H218.6Z" transform="translate(-218.6 -128.3)" fill="#9c9b9b"/></g><g transform="translate(0 14.966)"><path d="M0,170.181V165.6H1.54a2.85,2.85,0,0,1,1.106.158,1.827,1.827,0,0,1,.711.513,2.351,2.351,0,0,1,.474,1.5,2.542,2.542,0,0,1-.592,1.777,2.205,2.205,0,0,1-1.7.632Zm.632-.513h.829a1.5,1.5,0,0,0,1.264-.474,2.131,2.131,0,0,0,.395-1.382,1.8,1.8,0,0,0-.395-1.264,1.31,1.31,0,0,0-.553-.395,3.189,3.189,0,0,0-.987-.118H.632Z" transform="translate(0 -165.6)" fill="#9c9b9b"/></g><g transform="translate(5.212 14.966)"><path d="M13.2,170.181V165.6h2.567v.474h-1.9v1.461H15.49v.474H13.871v1.659h2.014v.474H13.2Z" transform="translate(-13.2 -165.6)" fill="#9c9b9b"/></g><g transform="translate(9.201 14.966)"><path d="M23.3,170.181V165.6h1.382a1.588,1.588,0,0,1,1.027.276,1.02,1.02,0,0,1,.355.829,1.315,1.315,0,0,1-.908,1.3l1.54,2.132h-.79l-1.3-1.935h-.632v1.935H23.3Zm.671-2.448h.2c.829,0,1.224-.316,1.224-.948,0-.474-.355-.711-1.027-.711h-.395Z" transform="translate(-23.3 -165.6)" fill="#9c9b9b"/></g><g transform="translate(13.742 14.966)"><path d="M34.8,170.181V165.6h.908l1.264,3.554,1.3-3.554h.79v4.581h-.592v-3.751l-1.264,3.435h-.632l-1.224-3.435v3.751Z" transform="translate(-34.8 -165.6)" fill="#9c9b9b"/></g><g transform="translate(19.112 14.966)"><path d="M51.954,170.181l-.513-1.264H49.506l-.513,1.264H48.4l1.816-4.581h.632l1.777,4.581Zm-.711-1.777-.79-1.974-.79,1.974Z" transform="translate(-48.4 -165.6)" fill="#9c9b9b"/></g><g transform="translate(23.772 14.966)"><path d="M61.819,170.181v-4.107H60.2V165.6h3.87v.474H62.451v4.107Z" transform="translate(-60.2 -165.6)" fill="#9c9b9b"/></g><g transform="translate(27.879 14.808)"><path d="M72.732,170.017a2,2,0,0,1-1.54-.671,2.844,2.844,0,0,1,0-3.475,2.026,2.026,0,0,1,1.58-.671,2.085,2.085,0,0,1,1.58.671,2.506,2.506,0,0,1,.592,1.737,2.542,2.542,0,0,1-.592,1.777A2.084,2.084,0,0,1,72.732,170.017Zm.039-.474a1.3,1.3,0,0,0,1.106-.513,2.756,2.756,0,0,0,0-2.843,1.273,1.273,0,0,0-1.066-.513,1.181,1.181,0,0,0-1.066.513,2.177,2.177,0,0,0-.395,1.422,2.25,2.25,0,0,0,.395,1.422A1.075,1.075,0,0,0,72.772,169.544Z" transform="translate(-70.6 -165.2)" fill="#9c9b9b"/></g><g transform="translate(33.367 14.966)"><path d="M84.5,170.181V165.6h.632v4.107h2.053v.474Z" transform="translate(-84.5 -165.6)" fill="#9c9b9b"/></g><g transform="translate(36.408 14.808)"><path d="M94.332,170.017a2,2,0,0,1-1.54-.671,2.844,2.844,0,0,1,0-3.475,2.026,2.026,0,0,1,1.58-.671,2.085,2.085,0,0,1,1.58.671,2.506,2.506,0,0,1,.592,1.737,2.542,2.542,0,0,1-.592,1.777A2.142,2.142,0,0,1,94.332,170.017Zm0-.474a1.3,1.3,0,0,0,1.106-.513,2.756,2.756,0,0,0,0-2.843,1.273,1.273,0,0,0-1.066-.513,1.181,1.181,0,0,0-1.066.513,2.177,2.177,0,0,0-.395,1.422,2.25,2.25,0,0,0,.395,1.422A1.157,1.157,0,0,0,94.332,169.544Z" transform="translate(-92.2 -165.2)" fill="#9c9b9b"/><path d="M109.051,169.781a5.329,5.329,0,0,1-1.461.237,2.205,2.205,0,0,1-1.7-.632,2.962,2.962,0,0,1,0-3.554,2.116,2.116,0,0,1,1.658-.632,6.48,6.48,0,0,1,1.461.2v.592a5.428,5.428,0,0,0-1.461-.316,1.323,1.323,0,0,0-1.145.513,2.645,2.645,0,0,0,.039,2.843,1.477,1.477,0,0,0,1.224.513,2.657,2.657,0,0,0,.711-.118v-1.5h.632v1.856Z" transform="translate(-100.127 -165.2)" fill="#9c9b9b"/></g><g transform="translate(46.714 14.966)"><path d="M118.3,170.181V165.6h.671v4.581Z" transform="translate(-118.3 -165.6)" fill="#9c9b9b"/></g><g transform="translate(48.807 14.966)"><path d="M123.6,170.181V165.6h2.567v.474h-1.9v1.461h1.619v.474h-1.619v1.659h2.053v.474H123.6Z" transform="translate(-123.6 -165.6)" fill="#9c9b9b"/></g><g transform="translate(54.493 14.808)"><path d="M140.132,170.017a2,2,0,0,1-1.54-.671,2.845,2.845,0,0,1,0-3.475,2.026,2.026,0,0,1,1.579-.671,2.086,2.086,0,0,1,1.58.671,2.507,2.507,0,0,1,.592,1.737,2.543,2.543,0,0,1-.592,1.777A2.2,2.2,0,0,1,140.132,170.017Zm0-.474a1.3,1.3,0,0,0,1.106-.513,2.756,2.756,0,0,0,0-2.843,1.273,1.273,0,0,0-1.066-.513,1.181,1.181,0,0,0-1.066.513,2.176,2.176,0,0,0-.395,1.422,2.249,2.249,0,0,0,.395,1.422A1.115,1.115,0,0,0,140.132,169.544Z" transform="translate(-138 -165.2)" fill="#9c9b9b"/></g><g transform="translate(60.14 14.966)"><path d="M152.3,170.181V165.6h.632v4.107h2.053v.474Z" transform="translate(-152.3 -165.6)" fill="#9c9b9b"/><path d="M161.5,170.181V165.6h1.54a2.85,2.85,0,0,1,1.106.158,1.828,1.828,0,0,1,.711.513,2.352,2.352,0,0,1,.474,1.5,2.542,2.542,0,0,1-.592,1.777,2.205,2.205,0,0,1-1.7.632Zm.632-.513h.829a1.5,1.5,0,0,0,1.264-.474,2.131,2.131,0,0,0,.395-1.382,1.8,1.8,0,0,0-.395-1.264,1.31,1.31,0,0,0-.553-.395,3.19,3.19,0,0,0-.987-.118h-.553Z" transform="translate(-157.867 -165.6)" fill="#9c9b9b"/></g><g transform="translate(68.788 14.966)"><path d="M174.2,170.181V165.6h2.567v.474h-1.9v1.461h1.619v.474h-1.619v1.659h2.053v.474H174.2Z" transform="translate(-174.2 -165.6)" fill="#9c9b9b"/><path d="M183.5,170.181V165.6h.632l2.33,3.554V165.6h.553v4.581h-.632l-2.33-3.554v3.554Z" transform="translate(-179.828 -165.6)" fill="#9c9b9b"/></g><g transform="translate(77.436 14.966)"><path d="M196.1,170.181V165.6h1.184a1.638,1.638,0,0,1,1.066.276.867.867,0,0,1,.355.75,1.236,1.236,0,0,1-.948,1.185c.75.237,1.145.632,1.145,1.224a1.1,1.1,0,0,1-.355.869,1.638,1.638,0,0,1-1.066.276Zm.632-2.606h.2a1.111,1.111,0,0,0,.79-.237.736.736,0,0,0,.276-.632c0-.434-.355-.671-1.066-.671h-.237v1.54Zm0,2.093h.118a4.333,4.333,0,0,0,.948-.079.609.609,0,0,0,.395-.632.776.776,0,0,0-.355-.671,1.385,1.385,0,0,0-.908-.276h-.2Z" transform="translate(-196.1 -165.6)" fill="#9c9b9b"/></g><g transform="translate(81.266 14.887)"><path d="M205.8,165.439h.632v2.883a1.572,1.572,0,0,0,.237.987,1.012,1.012,0,0,0,.829.316.98.98,0,0,0,.79-.316,1.572,1.572,0,0,0,.237-.987V165.4h.553v2.922a1.994,1.994,0,0,1-.395,1.382,1.646,1.646,0,0,1-1.224.434,1.682,1.682,0,0,1-1.264-.434,1.929,1.929,0,0,1-.395-1.382Z" transform="translate(-205.8 -165.4)" fill="#9c9b9b"/></g><g transform="translate(85.965 14.966)"><path d="M217.7,170.181V165.6h1.382a1.588,1.588,0,0,1,1.027.276,1.02,1.02,0,0,1,.355.829,1.315,1.315,0,0,1-.908,1.3l1.54,2.132h-.79l-1.3-1.935h-.592v1.935H217.7Zm.671-2.448h.2c.829,0,1.224-.316,1.224-.948,0-.474-.355-.711-1.027-.711h-.395Z" transform="translate(-217.7 -165.6)" fill="#9c9b9b"/></g><g transform="translate(89.954 14.808)"><path d="M231.551,169.781a5.33,5.33,0,0,1-1.461.237,2.205,2.205,0,0,1-1.7-.632,2.962,2.962,0,0,1,0-3.554,2.117,2.117,0,0,1,1.659-.632,6.479,6.479,0,0,1,1.461.2v.592a5.427,5.427,0,0,0-1.461-.316,1.323,1.323,0,0,0-1.145.513,2.645,2.645,0,0,0,.04,2.843,1.477,1.477,0,0,0,1.224.513,2.657,2.657,0,0,0,.711-.118v-1.5h.632v1.856Z" transform="translate(-227.8 -165.2)" fill="#9c9b9b"/></g></g><g transform="translate(26.694 0)"><path d="M99.937,41.077,76.758,11.5A20.172,20.172,0,0,0,70.4,20.622Z" transform="translate(-69.294 -6.959)" fill="#4e6d87"/><path d="M88.6,4.03l22.982,29.3L98.551.2A20.333,20.333,0,0,0,88.6,4.03Z" transform="translate(-80.308 -0.121)" fill="#4e6d87"/><path d="M68.39,37.1a20.042,20.042,0,0,0-.79,5.607,19.741,19.741,0,0,0,.711,5.331l29.616,9.556Z" transform="translate(-67.6 -22.45)" fill="#4e6d87"/><path d="M70.3,67.8a20.29,20.29,0,0,0,30.959,9.991Z" transform="translate(-69.234 -41.027)" fill="#4e6d87"/><path d="M148.488,40.278a20.1,20.1,0,0,0,7.068-15.361A20.307,20.307,0,0,0,146,7.7Z" transform="translate(-115.041 -4.659)" fill="#4e6d87"/><path d="M129.313,32.854l-2.33-30.406A19.692,19.692,0,0,0,117.387,0a8.588,8.588,0,0,0-.987.039Z" transform="translate(-97.13 0)" fill="#4e6d87"/></g></svg>