<svg xmlns="http://www.w3.org/2000/svg" width="274.89" height="108" viewBox="0 0 274.89 108">
    <g id="Logo" transform="translate(-442.549 -289.661)">
        <rect id="Rechteck_51" data-name="Rechteck 51" width="274.439" height="107.238" transform="translate(443 290)" fill="#fff"></rect>
        <path id="Pfad_165" data-name="Pfad 165" d="M443.444,290.552h273.1V396.77h-273.1Zm-.9,107.109h274.89v-108H442.549ZM714.772,292.334H445.222V394.991h269.55ZM712.1,392.32h-264.2V295H712.1ZM574.551,364.664a8.058,8.058,0,1,0,8.058-7.985,7.883,7.883,0,0,0-8.058,7.985m8.058-5.127c2.837,0,4.761,2.219,4.761,5.127s-1.924,5.127-4.761,5.127-4.761-2.221-4.761-5.127,1.92-5.127,4.761-5.127m-22.931,5.309h6.659v-7.965h3.2v15.565h-3.2v-4.74h-6.659v4.74h-3.2V356.882h3.2Zm36-7.966H605.7V359.7H598.88v5.154h6.206v2.858H598.88v4.738h-3.2Zm-54.507,8.71h9.27v3.01h-9.27Zm70.572,0h9.265v3.01h-9.265Zm-109.647-15.76a8.406,8.406,0,1,0-10.843-5,8.3,8.3,0,0,0,10.843,5m-4.717-12.971c2.806-1.022,5.506.483,6.553,3.357s-.06,5.764-2.866,6.784-5.508-.483-6.553-3.358.057-5.764,2.866-6.784m-20.231,23.791L469.9,345.793l.306-.145L481.037,349a23.364,23.364,0,0,1,2.713,1.168s-1.01-1.573-1.505-2.59l-3-6.172,2.833-1.382,7.24,14.855-.3.148-10.823-3.353a24.768,24.768,0,0,1-2.737-1.158,28.164,28.164,0,0,1,1.525,2.579l3.008,6.172Zm200.049-3.63,1.821-3.641,1.033.516a6.5,6.5,0,0,0,.895.366l.56,4.913,3.489,1.744-.751-6.087a5.1,5.1,0,0,0,5.094-3.135c1.79-3.58.314-6.77-3.785-8.814l-4.049-2.023-7.323,14.651Zm6-12,.947.477c2.415,1.2,3.127,2.583,2.09,4.651s-2.5,2.3-4.952,1.078l-.951-.473Zm-24.476,4.138,6.024-15.232,10.08,3.986-1.089,2.757-6.945-2.748-1.915,4.837,6.114,2.419-1.06,2.687-6.12-2.418-.866,2.2,7.261,2.871-1.093,2.757ZM550.4,337.965l-1.574-16.3,10.787-1.041.289,2.948-7.434.716.5,5.184,6.541-.635.281,2.879-6.547.631.229,2.348,7.769-.749.281,2.949Zm39.321-1.675-3.366-.184.891-16.358,3.366.183-.456,8.373,7,.381.456-8.371,3.366.183-.888,16.356-3.368-.184L597,331.69l-7-.379Zm48.152,6.631-10.519-2.4,3.635-15.971,3.289.748L631.3,338.382l7.234,1.651Zm-24.14-4.333a8.408,8.408,0,1,0-7.241-9.5,8.293,8.293,0,0,0,7.241,9.5m-3.805-9.02c.422-3.029,2.747-5.063,5.708-4.651s4.64,3.005,4.217,6.034-2.75,5.065-5.71,4.653-4.634-3.006-4.215-6.037m-42.875,6.844-.346-16.52.337-.009,8.424,7.582a23.431,23.431,0,0,1,1.973,2.2s-.256-1.851-.277-2.981l-.148-6.863,3.156-.069.346,16.524-.337.009-8.424-7.584a24.517,24.517,0,0,1-2-2.2,27.894,27.894,0,0,1,.3,2.981l.142,6.863Zm-48.735,7.963-1.014-3.943,1.122-.287a6.409,6.409,0,0,0,.916-.31l3.643,3.35,3.776-.968-4.553-4.109a5.094,5.094,0,0,0,1.8-5.706c-.993-3.872-4.2-5.319-8.633-4.185L511,329.337l4.053,15.871Zm-2.3-13.262c2.615-.666,4.053-.092,4.627,2.148s-.379,3.379-3.041,4.059l-1.024.262-1.59-6.207Zm20.68,9.061c4.984-.868,7.923-4.779,7.091-9.549s-4.94-7.455-9.9-6.588l-4.961.864,2.81,16.137Zm-2.469-13.189c3.587-.625,5.6,1.226,6.118,4.24s-.739,5.433-4.326,6.06l-1.472.256-1.792-10.3Zm119.393,20.44-11.782-3.57.085-.275,11-10.386-5.921-1.8.858-2.833,10.9,3.306-.081.275-10.978,10.392,6.778,2.055Z" transform="translate(0 0)" fill="#c8bbae"></path>
    </g>
</svg>