<svg xmlns="http://www.w3.org/2000/svg" xmlns:xlink="http://www.w3.org/1999/xlink" width="213.885" height="226.944" viewBox="0 0 213.885 226.944"><defs><linearGradient id="a" x1="0.502" y1="-4.717" x2="0.499" y2="3.481" gradientUnits="objectBoundingBox"><stop offset="0.01"/><stop offset="0.13" stop-opacity="0.69"/><stop offset="1" stop-opacity="0"/></linearGradient><linearGradient id="b" x1="-0.733" y1="0.784" x2="1.914" y2="0.174" xlink:href="#a"/><linearGradient id="c" x1="0.679" y1="0.009" x2="0.12" y2="1.756" xlink:href="#a"/><linearGradient id="d" x1="0.262" y1="1.25" x2="0.726" y2="-0.211" xlink:href="#a"/><linearGradient id="e" x1="3.516" y1="0.648" x2="-1.648" y2="0.397" xlink:href="#a"/><linearGradient id="f" x1="1.05" y1="1.147" x2="0.087" y2="0.013" xlink:href="#a"/><linearGradient id="g" x1="163.65" y1="0.834" x2="163.482" y2="0.616" xlink:href="#a"/><linearGradient id="h" x1="685.907" y1="0.5" x2="686.906" y2="0.5" xlink:href="#a"/><linearGradient id="i" x1="320.787" y1="0.534" x2="316.428" y2="0.461" xlink:href="#a"/><linearGradient id="j" x1="388.236" y1="0.5" x2="389.236" y2="0.5" xlink:href="#a"/><linearGradient id="k" x1="615.731" y1="0.501" x2="616.731" y2="0.501" xlink:href="#a"/><linearGradient id="l" x1="130.029" y1="0.98" x2="129.751" y2="0.528" xlink:href="#a"/><linearGradient id="m" x1="0.505" y1="-2.907" x2="0.493" y2="5.079" xlink:href="#a"/></defs><path d="M55.137,362.519c2.674,3.355,7.1,3.983,11.123,4.311a321.219,321.219,0,0,0,56.365-.335,204.978,204.978,0,0,0,20.636-2.881c8.286-1.646,16.471-4,24.845-4.917,26.21-2.86,52.889,8.5,78.68,2.56,2.975-.7,6.388-2.092,7.146-5.385.67-2.867-1.215-5.859-3.614-7.149s-5.167-1.283-7.829-1.255c-54.881.53-109.762,1.3-164.643,1.59-4.384,0-9.112-.607-13.308,1.1C61.043,351.575,51.26,357.664,55.137,362.519Z" transform="translate(-54.243 -140.962)" fill="url(#a)"/><rect width="71.07" height="214.191" rx="23.69" transform="translate(4.476)" fill="#454595"/><rect width="71.07" height="214.191" rx="23.69" transform="translate(4.476)" fill="url(#b)"/><rect width="89.383" height="214.191" rx="26.57" transform="translate(14.778)" fill="#454595"/><rect width="76.149" height="181.596" transform="translate(22.099 16.133)" fill="#fff"/><path d="M227.518,284.136l.263,40.616-3.845.4s-4.979-17.738-4.384-20.4,1.879-8.977,1.879-8.977-3.758-7.979-3.632-10.463a8.946,8.946,0,0,1,1.5-4.325Z" transform="translate(-115.366 -120.856)" fill="#f3bd8f"/><path d="M196.115,285.161s0,6.431-.595,7.979-16.528,29.714-16.528,29.714l-2.342-2.274s4.334-19.677,7.515-23.666l3.182-3.99.489-8.544Z" transform="translate(-99.989 -121.881)" fill="#f3bd8f"/><path d="M197.474,138.986c-.15-1.883-.833-3.585-.5-5.58a8.487,8.487,0,0,1,6.495-6.619c3.05-.7,6.225.1,9.163,1.256a15.477,15.477,0,0,1,5.386,3.25c3.877,3.878,4.334,10.309,5.843,15.868.589,2.155,1.453,4.366,3.131,5.657,2.2,1.716,5.161,1.4,7.716,2.288a10.072,10.072,0,0,1,6.206,8.182c.42,3.3-.532,7.129,1.39,9.681,1,1.332,2.624,2.009,3.463,3.488a7.988,7.988,0,0,1,.8,2.685c.482,2.86.626,6.368-1.459,8.091a6.378,6.378,0,0,1-3.495,1.116,19.5,19.5,0,0,1-8.9-.781,26.76,26.76,0,0,1-6.92-4.548,139.173,139.173,0,0,1-12.926-11.537c-2.505-2.63-4.847-5.35-7.515-7.77-1.785-1.618-3.131-4.387-4.9-5.775-.914-.7-2.029-.7-2.931-1.646a6.877,6.877,0,0,1-1.534-2.79,15.529,15.529,0,0,1,.263-7.477c.47-2.093,1.39-4.541,1.253-6.724Z" transform="translate(-107.079 -74.132)" fill="#f55959"/><path d="M223.134,147.927a56.992,56.992,0,0,1,2.086,6.975,17.28,17.28,0,0,0,2.962,6.522,28.119,28.119,0,0,1,2.242,2.671c1.359,2.2,1.2,5.2.363,7.673-.413,1.221-1.14,2.518-2.3,2.72s-2.117-.7-2.95-1.562l-8.937-9.068a16.959,16.959,0,0,1-3.219-4,13.6,13.6,0,0,1-1.1-7.533,14.765,14.765,0,0,1,1.879-6.278c.864-1.4,3.05-3.9,4.772-3.348C220.836,143.359,222.37,146.121,223.134,147.927Z" transform="translate(-113.268 -79)" fill="url(#c)"/><path d="M240.16,228.274l21.356-.314L269.351,255l9.488,37.24H257.665Zm26.654,27.614-7.221-24.922-15.864.237,15.895,58.116h15.7Z" transform="translate(-123.724 -104.815)" fill="#454595"/><rect width="33.443" height="67.847" transform="translate(147.387 113.499)" fill="#454595"/><rect width="33.443" height="67.847" transform="translate(147.387 113.499)" fill="url(#d)"/><path d="M317.783,212.867V232.99L305.69,280.219h16.421l3.589-14.306L324.5,212.7Z" transform="translate(-143.667 -99.201)" fill="url(#e)"/><path d="M0,0,27.51.812l1.479,54.929-27.51-.812Z" transform="matrix(0.962, 0.272, -0.272, 0.962, 181.549, 118.911)" fill="#454595"/><path d="M0,0,27.51.812l1.479,54.929-27.51-.812Z" transform="matrix(0.962, 0.272, -0.272, 0.962, 181.55, 118.83)" fill="url(#f)"/><path d="M292.732,345.24a5.372,5.372,0,0,1,1.346-6.759,4.211,4.211,0,0,1,6.125,1.179h0a5.494,5.494,0,0,1,.455,5.126,4.525,4.525,0,0,1-3.841,2.869A4.4,4.4,0,0,1,292.732,345.24Zm5.273-3.941a1.8,1.8,0,0,0-1.931-.921,1.994,1.994,0,0,0-1.491,1.649,2.2,2.2,0,0,0,.814,2.157,1.722,1.722,0,0,0,2.1-.032,2.246,2.246,0,0,0,.507-2.853Z" transform="translate(-143.129 -137.989)" fill="#2e2e3f"/><path d="M345.383,345.214a5.374,5.374,0,0,1,1.314-6.82,4.216,4.216,0,0,1,6.163,1.24h0a5.374,5.374,0,0,1-1.314,6.82A4.216,4.216,0,0,1,345.383,345.214Zm5.273-3.941a1.8,1.8,0,0,0-1.933-.917,2,2,0,0,0-1.488,1.653,2.2,2.2,0,0,0,.819,2.155,1.722,1.722,0,0,0,2.1-.038A2.246,2.246,0,0,0,350.656,341.273Z" transform="translate(-162.793 -137.963)" fill="#2e2e3f"/><path d="M233.523,192.644a7.061,7.061,0,0,0,.689,1.646,5.931,5.931,0,0,0,2.2,1.814c3.357,1.925,8.5,3.99,11.329,6.766a3.424,3.424,0,0,1,.845,1.123,4.4,4.4,0,0,1-.376,3.118,3.4,3.4,0,0,1-.871,1.451,2.726,2.726,0,0,1-2.593.049,90.149,90.149,0,0,1-9.776-3.878,40.877,40.877,0,0,1-5.186-2.79,4.346,4.346,0,0,1-2.324-3.578,97.482,97.482,0,0,1-1.215-10.825l-.626-8.544c-.119-1.646-4.609-7.387-3.257-8.524,2.643-2.211,6.5,3.808,7.108,5.043C231.174,178.987,232.859,190.538,233.523,192.644Z" transform="translate(-116.98 -87.278)" fill="#454595"/><path d="M233.523,192.644a7.061,7.061,0,0,0,.689,1.646,5.931,5.931,0,0,0,2.2,1.814c3.357,1.925,8.5,3.99,11.329,6.766a3.424,3.424,0,0,1,.845,1.123,4.4,4.4,0,0,1-.376,3.118,3.4,3.4,0,0,1-.871,1.451,2.726,2.726,0,0,1-2.593.049,90.149,90.149,0,0,1-9.776-3.878,40.877,40.877,0,0,1-5.186-2.79,4.346,4.346,0,0,1-2.324-3.578,97.482,97.482,0,0,1-1.215-10.825l-.626-8.544c-.119-1.646-4.609-7.387-3.257-8.524,2.643-2.211,6.5,3.808,7.108,5.043C231.174,178.987,232.859,190.538,233.523,192.644Z" transform="translate(-116.98 -87.278)" fill="url(#g)"/><path d="M218.6,270.381a3.458,3.458,0,0,1-.438,1.967,2.6,2.6,0,0,1-1.3.809c-2.505.879-23.8,1.772-27.776.949a55.64,55.64,0,0,1-.827-19.621,20.042,20.042,0,0,1,1.967-7.324,4.173,4.173,0,0,1,1.253-1.486,4.4,4.4,0,0,1,2.461-.509c6.138-.07,12.382-.23,18.482.739a3.815,3.815,0,0,1,3.564,3.034,57.855,57.855,0,0,1,1.992,10.044A80.16,80.16,0,0,1,218.6,270.381Z" transform="translate(-104.144 -110.003)" fill="#2e2e3f"/><path d="M189.1,274.3l.952.181a7.527,7.527,0,0,0,.664-.432A3.766,3.766,0,0,0,192,272.695a4.6,4.6,0,0,0,.326-1.834c.175-5.266-.727-10.616.238-15.778.344-1.855,1.033-3.529,1.522-5.315.451-1.632-.551-2.609-1.735-3.564a3.972,3.972,0,0,0-.664-.453l-.213.119a4.039,4.039,0,0,0-1.253,1.486,19.924,19.924,0,0,0-1.973,7.324A56.1,56.1,0,0,0,189.1,274.3Z" transform="translate(-104.147 -110.196)" fill="url(#h)"/><path d="M208.718,161.025a4.634,4.634,0,0,0,1.065,2.86c.977.977,2.461.921,3.676,1.465a1.067,1.067,0,0,1,.413.286,1.1,1.1,0,0,1,.188.412,3.907,3.907,0,0,1-.144,2.141,7.107,7.107,0,0,1-4.19,4.311,11.466,11.466,0,0,1-5.824.453,4,4,0,0,1-1.879-.621,4.955,4.955,0,0,1-1.39-1.946,6.655,6.655,0,0,1-.745-2.288,2.521,2.521,0,0,1,.77-2.176,3.645,3.645,0,0,1,.858-.439,7.768,7.768,0,0,0,1.353-.76,2.2,2.2,0,0,0,.964-1.172,3.276,3.276,0,0,0-.05-1.3,13.316,13.316,0,0,1,0-4.345,4.3,4.3,0,0,1,.351-1.221,2.225,2.225,0,0,1,1.59-1.241,2.062,2.062,0,0,1,1.854.641C208.812,157.349,208.549,159.358,208.718,161.025Z" transform="translate(-108.666 -82.869)" fill="#f3bd8f"/><path d="M216.39,148.08a9.678,9.678,0,0,1-.219,2.916,5.384,5.384,0,0,1-4.9,3.815,3.583,3.583,0,0,1-2.023-.426,5.322,5.322,0,0,1-.99-.837,11.385,11.385,0,0,1-3.3-5.5,11.7,11.7,0,0,1-.194-2.525,10.967,10.967,0,0,1,.564-3.648,5.977,5.977,0,0,1,4.591-3.892c2.06-.293,3.983.865,5.486,2.3.752.7.626,2.141.733,3.216C216.252,145.025,216.346,146.553,216.39,148.08Z" transform="translate(-110.495 -77.583)" fill="#f3bd8f"/><path d="M190.771,224.059a7.251,7.251,0,0,0,3.182,1.4,38.2,38.2,0,0,0,18.494-.035c1.253-.328,2.687-.844,3.238-2.169a5.557,5.557,0,0,0,.276-2.281q-.213-10.944-.438-21.9a220.406,220.406,0,0,0-1.422-24.838,14.854,14.854,0,0,0-1.779-4.757c-.714-1.081-3.933-.5-6.62-2.441-.739-.53.864,2.218-1.547,3.355s-5.286-4.359-6.814-2.141c-.858,1.242-3.57.321-4.428,1.555-.689.99-1.115,3.09-1.384,5.615-.576,5.371-.432,12.66-.557,15.31-.451,9.277.25,21.114-2.505,28.779C187.878,221.165,189.525,222.964,190.771,224.059Z" transform="translate(-104.359 -86.364)" fill="#454595"/><path d="M190.771,227.615a7.251,7.251,0,0,0,3.182,1.4,38.609,38.609,0,0,0,4.609.844l.438-.063c-1.134-4.115-1.19-8.482-1.159-12.785q.038-3.557.106-7.129a9.179,9.179,0,0,1,.77-4.359c.7-1.283,2.273-2.092,3.432-1.318-1.992-1.339-3.62-6.975-4.434-9.3a50.964,50.964,0,0,1-2.449-10.407c-.313-2.441-.194-6.745-3.557-5.58l-.182.07c-.576,5.371-.432,12.66-.557,15.31-.451,9.277.251,21.114-2.505,28.779C187.878,224.72,189.525,226.52,190.771,227.615Z" transform="translate(-104.359 -89.92)" fill="url(#i)"/><path d="M227.473,343.5a.745.745,0,0,0-.5.279,1.1,1.1,0,0,0-.088.558c0,1.172-.676,2.253-.626,3.418,0,1.053.626,2.03.532,3.076,0,.209-.05.446.081.593a.56.56,0,0,0,.307.146q4,.844,8.023,1.486a1.9,1.9,0,0,0,1.478-.181,1.7,1.7,0,0,0,.47-.7c.727-1.653.081-3.669-.9-5.141C233.818,343.462,231.488,342.6,227.473,343.5Z" transform="translate(-118.528 -139.664)" fill="#2e2e3f"/><path d="M169.04,341.166a4.17,4.17,0,0,0,1.359,2.378,21.628,21.628,0,0,0,5.774,4.248,2.25,2.25,0,0,0,1.409.335,1.957,1.957,0,0,0,1.253-1.911,6.219,6.219,0,0,0-.589-2.455c-1.021-2.637-1.735-6.508-4.465-7.547C171.413,335.321,168.783,338.544,169.04,341.166Z" transform="translate(-97.138 -137.515)" fill="#2e2e3f"/><path d="M227.393,343.5a.745.745,0,0,0-.5.279,1.1,1.1,0,0,0-.088.558c0,1.172-.676,2.253-.626,3.418.031,1.053.626,2.03.532,3.076,0,.209-.05.446.081.593a.56.56,0,0,0,.307.146q4,.844,8.023,1.486a1.9,1.9,0,0,0,1.478-.181,1.7,1.7,0,0,0,.47-.7c.727-1.653.081-3.669-.9-5.141C233.738,343.462,231.408,342.6,227.393,343.5Z" transform="translate(-118.498 -139.664)" fill="url(#j)"/><path d="M171.22,346.79a21.63,21.63,0,0,0,5.774,4.248,2.25,2.25,0,0,0,1.409.335" transform="translate(-97.96 -140.76)" fill="url(#k)"/><path d="M194.3,192.122a5.166,5.166,0,0,0,.207,2.2,4.654,4.654,0,0,0,2.1,2.093L215.4,208.27a4.762,4.762,0,0,1,2.2,2.239c.827,2.337-1.766,4.478-4.014,4.666a16.005,16.005,0,0,1-6.927-1.458,115.5,115.5,0,0,1-20.392-10.274,4.164,4.164,0,0,1-2.336-4.534,120.585,120.585,0,0,1,1.19-17.27c.445-3.125,1.077-6.382,2.956-8.761,2.793-3.529,7.91-3.641,8.348,1.548C196.947,180.272,194.655,186.3,194.3,192.122Z" transform="translate(-102.688 -87.391)" fill="#454595"/><path d="M194.3,192.122a5.166,5.166,0,0,0,.207,2.2,4.654,4.654,0,0,0,2.1,2.093L215.4,208.27a4.762,4.762,0,0,1,2.2,2.239c.827,2.337-1.766,4.478-4.014,4.666a16.005,16.005,0,0,1-6.927-1.458,115.5,115.5,0,0,1-20.392-10.274,4.164,4.164,0,0,1-2.336-4.534,120.585,120.585,0,0,1,1.19-17.27c.445-3.125,1.077-6.382,2.956-8.761,2.793-3.529,7.91-3.641,8.348,1.548C196.947,180.272,194.655,186.3,194.3,192.122Z" transform="translate(-102.688 -87.391)" fill="url(#l)"/><path d="M238.6,227.49a5.086,5.086,0,0,1,3.657,1.6,3.94,3.94,0,0,1,.689,4.122,1.883,1.883,0,0,1-.983.991,1.748,1.748,0,0,1-1.146-.042c-1.077-.356-1.935-1.276-2.975-1.744a1.081,1.081,0,0,0-.814-.1,3.108,3.108,0,0,0-.495.349,1.425,1.425,0,0,1-1.434.056,2.78,2.78,0,0,1-1.09-1.1,3.4,3.4,0,0,1-.52-2.044,1.561,1.561,0,0,1,1.559-1.6A20.967,20.967,0,0,1,238.6,227.49Z" transform="translate(-121.227 -104.673)" fill="#f3bd8f"/><path d="M265.156,221.234a5.743,5.743,0,0,1,1,2.385,2.678,2.678,0,0,1-.038,1.242,1.92,1.92,0,0,1-1.823,1.283,4.189,4.189,0,0,1-2.167-.746,28.933,28.933,0,0,1-3.463-2.63,3.134,3.134,0,0,1-.626-.621,2.074,2.074,0,0,1,.276-2.365C260.134,217.761,263.81,219.372,265.156,221.234Z" transform="translate(-130.314 -102.058)" fill="#f3bd8f"/><path d="M275.22,244.63h75.492L333.37,297.271h-44.7Zm71.7,2.95H278.727l11.943,46.733h40.846Z" transform="translate(-136.827 -109.857)" fill="#454595"/><path d="M245,244.63h76.782l-17.348,52.641h-44.7Zm72.993,2.95H249.8l11.943,46.733h40.877Z" transform="translate(-125.533 -109.857)" fill="#454595"/><path d="M260.92,332.746h51.825V329.8H263.575V316.55H260.92Z" transform="translate(-126.936 -130.615)" fill="#454595"/><path d="M288.62,332.746h42.193V329.8H291.269V316.55H288.62Z" transform="translate(-137.288 -130.615)" fill="#454595"/><path d="M274.64,342.355a4.529,4.529,0,1,1,4.5,5.015,4.779,4.779,0,0,1-4.5-5.015Zm2.649,0a2.114,2.114,0,0,0,1.145,1.961,1.741,1.741,0,0,0,2.062-.447,2.27,2.27,0,0,0,.4-2.3,1.883,1.883,0,0,0-1.761-1.276,1.994,1.994,0,0,0-1.848,2.058Z" transform="translate(-136.61 -137.901)" fill="#2e2e3f"/><path d="M326.822,345.24a5.372,5.372,0,0,1,1.346-6.759,4.211,4.211,0,0,1,6.125,1.179h0a5.494,5.494,0,0,1,.455,5.126,4.525,4.525,0,0,1-3.841,2.869A4.4,4.4,0,0,1,326.822,345.24ZM332.1,341.3a1.8,1.8,0,0,0-1.931-.921,2,2,0,0,0-1.491,1.649,2.2,2.2,0,0,0,.814,2.157,1.722,1.722,0,0,0,2.1-.032,2.246,2.246,0,0,0,.507-2.853Z" transform="translate(-155.869 -137.989)" fill="#2e2e3f"/><rect width="83.815" height="2.225" transform="translate(124.139 145.319)" fill="#454595"/><rect width="79.832" height="2.225" transform="translate(126.325 152.803)" fill="#454595"/><rect width="75.053" height="2.225" transform="translate(128.517 160.288)" fill="#454595"/><rect width="70.275" height="2.225" transform="translate(130.709 167.772)" fill="#454595"/><rect width="65.496" height="2.225" transform="translate(132.895 175.249)" fill="#454595"/><path d="M.118,2.273,51.886.55l-.073,2.025L.044,4.3Z" transform="translate(184.318 184.162) rotate(-69.96)" fill="#454595"/><path d="M.1,1.851,50.3.45l-.062,2.016L.034,3.867Z" transform="matrix(0.283, -0.959, 0.959, 0.283, 164.672, 183.82)" fill="#454595"/><path d="M.01.224,49.59.055l-.008,2L0,2.223Z" transform="translate(157.995 184.858) rotate(-88.08)" fill="#454595"/><path d="M1.928.1,3.946.036,2.486,50.4l-2.018.064Z" transform="translate(132.961 137.805) rotate(-17.12)" fill="#454595"/><path d="M214.966,139.617c1.678,1.116,3.758.886,5.724.614a5.914,5.914,0,0,0-1.66-3.348,6.936,6.936,0,0,0-2.154-1.576c-1.1-.5-4.008-1.13-4.728.4C211.559,136.952,214.121,139.059,214.966,139.617Z" transform="translate(-113.223 -76.618)" fill="#f55959"/><rect width="17.717" height="7.54" rx="3.77" transform="translate(51.61 201.329)" fill="url(#m)"/></svg>