<svg xmlns="http://www.w3.org/2000/svg" width="70.907" height="74.608" viewBox="0 0 70.907 74.608"><g transform="translate(0 52.993)"><path d="M4.475,145.828a2.159,2.159,0,0,1-2.106,2.4A2.1,2.1,0,0,1,.3,145.865,2.13,2.13,0,0,1,2.406,143.5,2.074,2.074,0,0,1,4.475,145.828Zm-3.695,0c0,1.035.554,1.958,1.589,1.958,1.145,0,1.589-.924,1.589-1.958s-.517-1.921-1.589-1.921C1.261,143.906.78,144.83.78,145.828Z" transform="translate(-0.189 -143.463)" fill="#706f6f"/><path d="M20.6,143.6h.48v4.212h2.439l-.074.406H20.6Z" transform="translate(-12.988 -143.526)" fill="#706f6f"/><path d="M36.7,143.6h1.589a2.087,2.087,0,0,1,2.143,2.254,2.128,2.128,0,0,1-2.143,2.328H36.737V143.6Zm.443,4.212h1.035c1.145,0,1.7-.813,1.7-1.921a1.666,1.666,0,0,0-1.7-1.847H37.143Z" transform="translate(-23.139 -143.526)" fill="#706f6f"/><path d="M58.508,146.065H56.18v1.811h2.55l-.074.406H55.7V143.7h2.882v.407h-2.4v1.552h2.328Z" transform="translate(-35.119 -143.589)" fill="#706f6f"/><path d="M72.6,148.282V143.7h.665c.7,1.109,2.254,3.547,2.55,4.027h0c-.037-.628-.037-1.33-.037-2.069V143.7h.443v4.582H75.63c-.665-1.035-2.254-3.621-2.586-4.138h0c.037.554.037,1.293.037,2.106v2H72.6Z" transform="translate(-45.774 -143.589)" fill="#706f6f"/><path d="M92.237,143.6H93.9c.924,0,1.367.48,1.367,1.145a.988.988,0,0,1-.7,1,1.143,1.143,0,0,1,.85,1.109,1.334,1.334,0,0,1-1.515,1.33H92.2V143.6Zm1.552,1.958c.739,0,1.035-.3,1.035-.776,0-.443-.3-.776-.887-.776H92.717v1.552Zm-1.109,2.254H93.9c.591,0,1.035-.3,1.035-.924,0-.554-.333-.924-1.219-.924H92.643v1.848Z" transform="translate(-58.132 -143.526)" fill="#706f6f"/><path d="M110.28,143.6v2.771c0,1.145.628,1.478,1.256,1.478.739,0,1.256-.333,1.256-1.478V143.6h.48v2.771c0,1.478-.776,1.884-1.737,1.884a1.624,1.624,0,0,1-1.737-1.847V143.6Z" transform="translate(-69.229 -143.526)" fill="#706f6f"/><path d="M129.38,146.176v2.106h-.48V143.7h1.737c.924,0,1.4.517,1.4,1.219a1.02,1.02,0,0,1-.813,1.072c.443.111.739.406.739,1.182v.185a2.335,2.335,0,0,0,.074.924h-.48a3.331,3.331,0,0,1-.074-.961v-.111c0-.7-.222-1-1.071-1H129.38Zm0-.406h1.072c.739,0,1.109-.3,1.109-.85,0-.517-.333-.85-1-.85h-1.145v1.7Z" transform="translate(-81.272 -143.589)" fill="#706f6f"/><path d="M149.78,148.093h-.37a2.667,2.667,0,0,1-.037-.7,1.5,1.5,0,0,1-1.478.739c-1.33,0-2-1-2-2.328a2.124,2.124,0,0,1,2.106-2.4,1.642,1.642,0,0,1,1.811,1.367h-.48a1.281,1.281,0,0,0-1.367-.961c-1.109,0-1.589.887-1.589,1.958,0,1,.48,1.921,1.552,1.921,1.109,0,1.4-.7,1.4-1.626v-.037h-1.4v-.406h1.848Z" transform="translate(-91.99 -143.4)" fill="#706f6f"/><path d="M168.608,146.065H166.28v1.811h2.55l-.074.406H165.8V143.7h2.882v.407h-2.439v1.552h2.328v.406Z" transform="translate(-104.537 -143.589)" fill="#706f6f"/><path d="M183.18,146.176v2.106h-.48V143.7h1.737c.924,0,1.4.517,1.4,1.219a1.02,1.02,0,0,1-.813,1.072c.443.111.739.406.739,1.182v.185a2.335,2.335,0,0,0,.074.924h-.48a3.337,3.337,0,0,1-.074-.961v-.111c0-.7-.222-1-1.072-1H183.18Zm0-.406h1.072c.739,0,1.108-.3,1.108-.85,0-.517-.333-.85-1-.85H183.18Z" transform="translate(-115.193 -143.589)" fill="#706f6f"/><path d="M4.582,168.665a2.2,2.2,0,0,1-2.328,2.365A2.161,2.161,0,0,1,0,168.665,2.219,2.219,0,0,1,2.328,166.3,2.163,2.163,0,0,1,4.582,168.665Zm-3.215,0c0,.813.259,1.4.924,1.4.7,0,.924-.628.924-1.367,0-.813-.259-1.4-.924-1.4C1.663,167.261,1.367,167.815,1.367,168.665Z" transform="translate(0 -157.838)" fill="#706f6f"/><path d="M17.793,169.345v1.7H16.5V166.5h2.254c1.072,0,1.589.591,1.589,1.256a1.087,1.087,0,0,1-.665,1.072c.3.111.591.406.591,1.182v.185a3.036,3.036,0,0,0,.074.85H19.086a3.347,3.347,0,0,1-.074-1v-.111c0-.406-.111-.591-.7-.591Zm0-.924h.628c.443,0,.591-.185.591-.48s-.185-.48-.591-.48h-.628Z" transform="translate(-10.403 -157.965)" fill="#706f6f"/><path d="M31.33,167.5H30v-1h3.917v1H32.623v3.547h-1.33V167.5Z" transform="translate(-18.915 -157.965)" fill="#706f6f"/><path d="M44.2,166.6h1.33v1.7H46.9v-1.7h1.33v4.545H46.9V169.3H45.53v1.848H44.2Z" transform="translate(-27.868 -158.028)" fill="#706f6f"/><path d="M63.882,168.665a2.2,2.2,0,0,1-2.328,2.365,2.161,2.161,0,0,1-2.254-2.365,2.219,2.219,0,0,1,2.328-2.365A2.183,2.183,0,0,1,63.882,168.665Zm-3.252,0c0,.813.259,1.4.924,1.4.7,0,.924-.628.924-1.367,0-.813-.259-1.4-.924-1.4C60.926,167.261,60.63,167.815,60.63,168.665Z" transform="translate(-37.389 -157.838)" fill="#706f6f"/><path d="M75.7,166.6h2.106c1.035,0,1.7.591,1.7,1.441,0,1.035-.776,1.478-1.737,1.478h-.776v1.589H75.7Zm1.33,2h.554c.369,0,.628-.148.628-.517,0-.406-.259-.554-.628-.554H77.03Z" transform="translate(-47.729 -158.028)" fill="#706f6f"/><path d="M89.252,167.988l-.259.887H87.7l1.441-4.545h1.737l1.478,4.545h-1.4l-.259-.887Zm-.443-4.064V163h1v.924Zm1.626,3.067a14.8,14.8,0,0,1-.48-1.774h-.037c-.111.48-.3,1.146-.443,1.774Zm-.185-3.067V163h.961v.924Z" transform="translate(-55.295 -155.758)" fill="#706f6f"/><path d="M103.6,166.6h1.958a2.115,2.115,0,0,1,2.291,2.217,2.18,2.18,0,0,1-2.291,2.328h-1.921V166.6Zm1.33,3.584h.517c.7,0,1-.517,1-1.367,0-.739-.259-1.256-1-1.256h-.517Z" transform="translate(-65.32 -158.028)" fill="#706f6f"/><path d="M120.53,166.6v4.545H119.2V166.6Z" transform="translate(-75.156 -158.028)" fill="#706f6f"/><path d="M130.826,169.3h-2.069v.85h2.328l-.148,1H127.5V166.6h3.436v1h-2.143v.739h2.069v.961Z" transform="translate(-80.389 -158.028)" fill="#706f6f"/><path d="M150.193,166.6v2.808c0,.628.333.887.739.887.443,0,.7-.259.7-.887V166.6h1.33v2.66c0,1.515-.887,1.958-2.032,1.958-1.182,0-2.032-.48-2.032-1.958V166.6Z" transform="translate(-93.882 -158.028)" fill="#706f6f"/><path d="M164.3,171.145V166.6h1.589c.48,1.035,1.182,2.4,1.367,2.956h.037c-.037-.48-.074-1.256-.074-2V166.6h1.219v4.545h-1.515c-.37-.813-1.219-2.513-1.441-3.141h0c.037.443.037,1.293.037,2.106v1.035Z" transform="translate(-103.591 -158.028)" fill="#706f6f"/><path d="M180.1,166.6h1.958a2.115,2.115,0,0,1,2.291,2.217,2.18,2.18,0,0,1-2.291,2.328h-1.921V166.6Zm1.33,3.584h.517c.7,0,1-.517,1-1.367,0-.739-.259-1.256-1-1.256h-.517Z" transform="translate(-113.553 -158.028)" fill="#706f6f"/><path d="M1.793,189.3v2.808c0,.628.333.887.739.887.443,0,.7-.259.7-.887V189.3h1.33v2.66c0,1.515-.887,1.958-2.032,1.958-1.182,0-2.032-.48-2.032-1.958V189.3Z" transform="translate(-0.315 -172.34)" fill="#706f6f"/><path d="M15.2,193.845V189.3h1.589c.48,1.035,1.182,2.4,1.367,2.956h.037c-.037-.48-.074-1.256-.074-2V189.3h1.219v4.545H17.823c-.369-.813-1.219-2.513-1.441-3.141h0c.037.443.037,1.293.037,2.106v1.035Z" transform="translate(-9.584 -172.34)" fill="#706f6f"/><path d="M30.4,189.3h3.4v1H31.693v.887h1.958v1H31.693v1.663H30.4Z" transform="translate(-19.167 -172.34)" fill="#706f6f"/><path d="M42.452,192.958l-.259.887H40.9l1.441-4.545h1.737l1.478,4.545h-1.4l-.259-.887ZM43.634,192a14.809,14.809,0,0,1-.48-1.774h-.037c-.111.48-.3,1.145-.443,1.774Z" transform="translate(-25.787 -172.34)" fill="#706f6f"/><path d="M56.2,189.3h1.33v3.547h2.143l-.148,1H56.2Z" transform="translate(-35.434 -172.34)" fill="#706f6f"/><path d="M68.4,189.3h1.33v3.547h2.143l-.148,1H68.4Z" transform="translate(-43.126 -172.34)" fill="#706f6f"/><path d="M84.223,192.241a1.9,1.9,0,0,1-2.106,1.589A2.106,2.106,0,0,1,79.9,191.5a2.179,2.179,0,0,1,2.291-2.4,1.836,1.836,0,0,1,2.032,1.552h-1.33a.7.7,0,0,0-.739-.628c-.628,0-.887.628-.887,1.4,0,.7.185,1.441.887,1.441a.761.761,0,0,0,.739-.628Z" transform="translate(-50.377 -172.214)" fill="#706f6f"/><path d="M94.7,189.3h1.33V191H97.4v-1.7h1.33v4.545H97.4V192H96.03v1.848H94.7Z" transform="translate(-59.708 -172.34)" fill="#706f6f"/><path d="M111.03,189.3v4.545H109.7V189.3Z" transform="translate(-69.166 -172.34)" fill="#706f6f"/><path d="M118.493,192.145v1.7H117.2V189.3h2.254c1.072,0,1.589.591,1.589,1.256a1.086,1.086,0,0,1-.665,1.072c.3.111.591.406.591,1.182V193a3.034,3.034,0,0,0,.074.85h-1.256a3.347,3.347,0,0,1-.074-1v-.111c0-.407-.111-.591-.7-.591Zm0-.924h.628c.443,0,.591-.185.591-.48s-.185-.48-.591-.48h-.628Z" transform="translate(-73.895 -172.34)" fill="#706f6f"/><path d="M132.193,189.3v2.808c0,.628.333.887.739.887.443,0,.7-.259.7-.887V189.3h1.33v2.66c0,1.515-.887,1.958-2.032,1.958-1.182,0-2.032-.48-2.032-1.958V189.3Z" transform="translate(-82.533 -172.34)" fill="#706f6f"/><path d="M146.993,192.145v1.7H145.7V189.3h2.254c1.072,0,1.589.591,1.589,1.256a1.087,1.087,0,0,1-.665,1.072c.3.111.591.406.591,1.182V193a3.036,3.036,0,0,0,.074.85h-1.256a3.345,3.345,0,0,1-.074-1v-.111c0-.407-.111-.591-.7-.591Zm0-.924h.628c.443,0,.591-.185.591-.48s-.185-.48-.591-.48h-.628Z" transform="translate(-91.864 -172.34)" fill="#706f6f"/><path d="M163.3,193.782h-.887a1.573,1.573,0,0,1-.074-.406,1.594,1.594,0,0,1-1.33.517A2.067,2.067,0,0,1,158.9,191.6a2.193,2.193,0,0,1,2.328-2.4c1.367,0,2,.776,2.069,1.478h-1.33a.724.724,0,0,0-.776-.554c-.776,0-.961.7-.961,1.441,0,.7.222,1.4.961,1.4a.706.706,0,0,0,.776-.776v-.037h-.813v-.924h2.106v2.55Z" transform="translate(-100.187 -172.277)" fill="#706f6f"/><path d="M175.93,189.3v4.545H174.6V189.3Z" transform="translate(-110.086 -172.34)" fill="#706f6f"/><path d="M185.526,192.1h-2.069v.85h2.328l-.148,1H182.2V189.4h3.436v1h-2.143v.739h2.069v.961Z" transform="translate(-114.877 -172.403)" fill="#706f6f"/></g><g transform="translate(17.145 0)"><rect width="36.617" height="13.524" transform="translate(0 9.318)" fill="#706f6f"/><rect width="22.872" height="19.251" transform="translate(27.926) rotate(90)" fill="#706f6f"/><ellipse cx="6.688" cy="6.688" rx="6.688" ry="6.688" transform="translate(11.602 34.148)" fill="#cebe80"/><g transform="translate(0 6.621)"><path d="M46.4,61.837a20.554,20.554,0,0,0,9.57,16.147,8.9,8.9,0,0,1,17.477-.037A20.649,20.649,0,0,0,83.017,61.8H46.4Z" transform="translate(-46.4 -45.579)" fill="#dadada"/><ellipse cx="0.998" cy="0.998" rx="0.998" ry="0.998" transform="translate(17.293)" fill="#dadada"/><ellipse cx="0.591" cy="0.591" rx="0.591" ry="0.591" transform="translate(28.969 6.208)" fill="#dadada"/><ellipse cx="0.591" cy="0.591" rx="0.591" ry="0.591" transform="translate(6.466 5.838)" fill="#dadada"/><path d="M46.4,36.869h4.028V31.7h-.333V30.4h.333l3.03-3.03L56.45,30.44l.333-.037V31.7H56.45v3.436h3.1V29.59H59V27.41h.554L64.69,22.2l5.136,5.21h.591v2.18h-.554v5.542h3.1V32.1h-.333V30.809h.333l2.993-3.03,3.03,3.067h.333V32.1H78.99v4.767H46.4Z" transform="translate(-46.4 -20.611)" fill="#dadada"/></g></g></svg>