<?xml version="1.0" encoding="utf-8"?>
<!-- Generator: Adobe Illustrator 25.3.1, SVG Export Plug-In . SVG Version: 6.00 Build 0)  -->
<svg version="1.1" id="Ebene_1" xmlns="http://www.w3.org/2000/svg" xmlns:xlink="http://www.w3.org/1999/xlink" x="0px" y="0px"
	 viewBox="0 0 14 14" style="enable-background:new 0 0 14 14;" xml:space="preserve">
<style type="text/css">
	.st0{fill:#FFFFFF;}
</style>
<path class="st0" d="M5,6C5.7,7.3,6.7,8.3,8,9l0.7-1c0.2-0.3,0.7-0.4,1-0.2c1.1,0.6,2.3,1,3.6,1.1c0.4,0,0.7,0.4,0.7,0.8v3.5
	c0,0.4-0.3,0.7-0.7,0.8C6.7,14.6,0.7,9.8,0.1,3.2C0,2.4,0,1.5,0.1,0.7C0.1,0.3,0.4,0,0.8,0h3.5c0.4,0,0.7,0.3,0.8,0.7
	C5.2,2,5.5,3.2,6.1,4.3c0.2,0.3,0.1,0.8-0.2,1C5.9,5.3,5,6,5,6z M3,5.5l1.5-1.1C4,3.5,3.8,2.5,3.6,1.6H1.6c0,0.1,0,0.3,0,0.4
	c0,5.8,4.7,10.5,10.5,10.5c0.1,0,0.3,0,0.4,0v-2.1c-1-0.1-1.9-0.4-2.9-0.9L8.5,11c-0.4-0.2-0.8-0.4-1.2-0.6l0,0
	C5.7,9.5,4.5,8.3,3.6,6.7l0,0C3.3,6.3,3.2,5.9,3,5.5z"/>
</svg>
