<svg xmlns="http://www.w3.org/2000/svg" width="116.308" height="50.95" viewBox="0 0 116.308 50.95"><path d="M316.536,280.9l-.091,1.618c-.317-.03-.635-.106-.968-.106A2.558,2.558,0,0,0,312.771,285c-.076,1.391.7,2.283,1.814,2.283a1.675,1.675,0,0,0,1.633-1.013l.015.015-.045.892h.756l.332-6.274h-.741m-.212,3.78c-.076,1.436-.741,2.026-1.5,2.026-.892,0-1.361-.7-1.315-1.678A1.956,1.956,0,0,1,315.6,283a2.857,2.857,0,0,1,.8.121Z" transform="translate(-265.48 -238.447)" fill="#007858"/><path d="M434.69,283.824v-.015a1.625,1.625,0,0,0,1.149-1.527,1.331,1.331,0,0,0-1.512-1.482h-2.495l-.333,6.274h2.343a1.829,1.829,0,0,0,2.026-1.6,1.4,1.4,0,0,0-1.179-1.648m-2.1-2.434H434.1a.863.863,0,0,1,.922.952,1.2,1.2,0,0,1-1.179,1.225h-1.376Zm2.495,3.855a1.224,1.224,0,0,1-1.27,1.24h-1.482l.121-2.359h1.33C434.569,284.141,435.113,284.428,435.083,285.245Z" transform="translate(-366.263 -238.362)" fill="#007858"/><path d="M212.3,287.159h.756l.121-2.086c.076-1.467.68-2.041,1.633-2.041.7,0,1.164.333,1.119,1.119l-.166,3.024h.756l.166-3.22c.061-1.194-.741-1.542-1.663-1.542a1.811,1.811,0,0,0-1.754.983l-.015-.015.136-2.479h-.756l-.333,6.259" transform="translate(-180.203 -238.447)" fill="#007858"/><path d="M566.613,290.991h-.756l-.257,4.657h.756l.106-2.086c.076-1.467.7-2.041,1.633-2.041.7,0,1.164.333,1.119,1.119l-.166,3.024h.756l.166-3.22c.06-1.194-.726-1.542-1.663-1.542a1.811,1.811,0,0,0-1.754.983l-.015-.015.076-.877" transform="translate(-480.089 -246.935)" fill="#007858"/><path d="M379.8,290.991h-.756l-.242,4.657h.741l.106-2.086c.076-1.467.7-2.041,1.633-2.041.7,0,1.164.333,1.119,1.119l-.166,3.024h.756l.166-3.22c.06-1.194-.741-1.542-1.648-1.542a1.784,1.784,0,0,0-1.754.983l-.015-.015.06-.877" transform="translate(-321.53 -246.935)" fill="#007858"/><path d="M672.463,296.257h.756l.257-4.657h-.756l-.106,2.086c-.076,1.467-.68,2.041-1.633,2.041a.993.993,0,0,1-1.043-1.1l.166-3.009h-.756l-.166,3.205c-.06,1.209.741,1.542,1.588,1.542a1.776,1.776,0,0,0,1.754-1l.015.015-.076.877" transform="translate(-568.008 -247.529)" fill="#007858"/><path d="M536.7,290.9a2.269,2.269,0,0,0-2.222,2.434,2.078,2.078,0,0,0,2.117,2.434,5.581,5.581,0,0,0,1.436-.181l.166-.7a3.308,3.308,0,0,1-1.572.3c-1.134,0-1.451-.937-1.406-1.86v-.091h3.3l.03-.423a1.659,1.659,0,0,0-1.845-1.92m1.1,1.86H535.3a1.476,1.476,0,0,1,1.466-1.361C537.534,291.4,537.851,291.973,537.806,292.76Z" transform="translate(-453.67 -246.935)" fill="#007858"/><path d="M349.6,290.9a2.26,2.26,0,0,0-2.222,2.434,2.081,2.081,0,0,0,2.132,2.434,5.582,5.582,0,0,0,1.436-.181l.151-.7a3.282,3.282,0,0,1-1.557.3c-1.149,0-1.451-.937-1.406-1.86v-.091h3.311l.03-.423a1.686,1.686,0,0,0-1.875-1.92m1.1,1.86H348.2a1.466,1.466,0,0,1,1.467-1.361C350.449,291.4,350.751,291.989,350.706,292.76Z" transform="translate(-294.857 -246.935)" fill="#007858"/><path d="M639,295.662h.756l.181-3.553c.045-.741-.348-1.21-1.663-1.21a6.03,6.03,0,0,0-1.633.257l-.121.635a3.615,3.615,0,0,1,1.648-.393c.423,0,1.043.106,1.013.665-.06,1.255-3.19.575-3.3,2.374-.045.937.559,1.315,1.482,1.315a5.632,5.632,0,0,0,1-.091l.151-.574a2.759,2.759,0,0,1-.922.166c-.454,0-1-.166-.968-.756.06-1.089,1.95-1.013,2.495-1.557L639,295.662" transform="translate(-539.747 -246.935)" fill="#007858"/><path d="M248.686,295.662h.756l.2-3.553c.045-.741-.363-1.21-1.663-1.21a6.03,6.03,0,0,0-1.633.257l-.121.635a3.616,3.616,0,0,1,1.648-.393c.423,0,1.043.106,1.013.665-.06,1.255-3.19.575-3.3,2.374-.045.937.559,1.315,1.482,1.315a5.633,5.633,0,0,0,1-.091l.151-.574a2.761,2.761,0,0,1-.922.166c-.454,0-1-.166-.968-.756.06-1.089,1.95-1.013,2.495-1.557l-.136,2.721" transform="translate(-208.455 -246.935)" fill="#007858"/><path d="M704.7,290.936a4.557,4.557,0,0,0-1.028-.136c-.907,0-1.482.378-1.512,1.119-.061,1.179,1.814,1.724,1.769,2.54-.03.484-.529.62-.892.62a3.247,3.247,0,0,1-1.24-.3l.06.7a4.446,4.446,0,0,0,1.27.181c.7,0,1.5-.3,1.557-1.149.061-1.24-1.814-1.769-1.769-2.555.03-.469.544-.559.892-.559a2.3,2.3,0,0,1,.953.212l-.061-.665" transform="translate(-595.697 -246.85)" fill="#007858"/><path d="M278.43,285.828l.06-1.028-.771.166-.045.847h-.544l-.03.574h.544l-.166,3.054c-.045.816.3,1.119,1.058,1.119a3.9,3.9,0,0,0,.816-.106l.121-.635a2.557,2.557,0,0,1-.68.106c-.484,0-.574-.363-.544-.8l.151-2.737h1.194l.03-.574-1.194.015" transform="translate(-235.206 -241.757)" fill="#007858"/><path d="M619.013,290.991h-.756L618,295.647h.756l.136-2.616a1.433,1.433,0,0,1,1.255-1.512,1.506,1.506,0,0,1,.5.121l-.03-.7a1.108,1.108,0,0,0-.333-.045,1.324,1.324,0,0,0-1.285.786l-.015.015.03-.711" transform="translate(-524.567 -246.935)" fill="#007858"/><path d="M538.124,59.349C536.96,44.623,524.638,29.383,511.5,24.5c17.689,2.933,29.678,18.278,31.568,34.849h-4.944" transform="translate(-434.168 -20.811)" fill="#ef7d00"/><path d="M189.6,55.736A34.778,34.778,0,0,1,218.537,39l.106.015c-9.752,2.117-18.732,8.648-23.343,16.736" transform="translate(-160.935 -33.119)" fill="#ef7d00"/><path d="M467.153,290.9a2.338,2.338,0,0,0-2.374,2.434,2.078,2.078,0,0,0,2.117,2.434,2.338,2.338,0,0,0,2.374-2.434,2.078,2.078,0,0,0-2.117-2.434m1.391,2.434c-.045.922-.454,1.844-1.6,1.844-1.134,0-1.451-.937-1.406-1.844.06-1.194.635-1.844,1.6-1.844C468.121,291.49,468.62,292.14,468.544,293.334Z" transform="translate(-394.508 -246.935)" fill="#007858"/><path d="M501.878,290.8a2.558,2.558,0,0,0-2.706,2.585c-.076,1.391.7,2.283,1.814,2.283a1.868,1.868,0,0,0,1.739-1.028l.015.015-.06,1.179c-.06,1.194-.711,1.376-1.5,1.376a4.81,4.81,0,0,1-1.678-.333l.03.7a6.8,6.8,0,0,0,1.754.227c1.708,0,2.086-.922,2.132-1.845l.257-4.944a7.433,7.433,0,0,0-1.8-.212m.937,2.358c-.076,1.436-.862,1.92-1.587,1.935-.892,0-1.361-.7-1.315-1.678A1.956,1.956,0,0,1,502,291.39a4.388,4.388,0,0,1,.907.106Z" transform="translate(-423.699 -246.85)" fill="#007858"/><path d="M474.7,180.644h4.566l.363-7.151h.045l3.7,7.151h5.9l.65-13.244h-4.566L485,174.687h-.045l-3.628-7.287H475.35l-.65,13.244" transform="translate(-402.932 -142.106)" fill="#007858"/><path d="M215.2,180.559h4.974l.529-9.872h1.073c.741,0,1.346.06,1.285,1.119-.03.726-.665,1.028-1.466,1.028h-.62l.862,3.054a6.115,6.115,0,0,0,1.179.121c3.009,0,5.171-1.708,5.292-4.188.166-3.3-2.026-4.52-4.006-4.52h-8.376l-.726,13.259" transform="translate(-182.665 -142.022)" fill="#007858"/><path d="M303.5,180.559h4.974l.514-9.872h1.073c.741,0,1.346.06,1.285,1.119-.045.726-.665,1.028-1.467,1.028h-.635l.877,3.054a6.084,6.084,0,0,0,1.164.121c3.009,0,5.171-1.708,5.292-4.188.166-3.3-2.041-4.52-4.007-4.52H304.2l-.7,13.259" transform="translate(-257.615 -142.022)" fill="#007858"/><path d="M403.753,177.167h-6.486l.06-1.406h5.322l.181-3.477h-5.322l.061-1.406h6.5l.166-3.477H392.565l-.665,13.244h11.672l.181-3.477" transform="translate(-332.65 -142.106)" fill="#007858"/><path d="M112.136,166.8c-4.2,0-8.361,1.981-8.6,6.894-.257,4.883,3.7,6.864,7.907,6.864,4.188,0,8.361-1.981,8.6-6.864.242-4.9-3.719-6.894-7.907-6.894m2.736,6.909a3.332,3.332,0,0,1-3.235,3.266,2.959,2.959,0,0,1-2.9-3.266,3.371,3.371,0,0,1,3.235-3.3A2.977,2.977,0,0,1,114.872,173.709Z" transform="translate(-87.87 -141.597)" fill="#007858"/><path d="M0,165.7l.862-15.9H11.1c2.419,0,5.125,1.466,4.914,5.412-.166,2.993-2.8,5.035-6.471,5.035a7.7,7.7,0,0,1-1.436-.136l-1.058-3.674h.771c.968,0,1.739-.348,1.784-1.24.076-1.27-.68-1.33-1.572-1.33H6.713L6.078,165.7H0" transform="translate(0 -127.167)" fill="#007858"/><path d="M167.517.1a44.539,44.539,0,0,0-38.4,22.572l-.015.045h6.184A38.259,38.259,0,0,1,167.441,5.346c18.687,0,33.412,11.974,37.8,33.291h5.549C207.7,17.033,189.907.1,167.517.1" transform="translate(-109.582 -0.1)" fill="#007858"/><path d="M620.5,79.126C618.311,61.86,606.125,49.66,594,47.8c10.583,5.2,20.788,16.6,21.967,31.311v.015H620.5" transform="translate(-504.195 -40.588)" fill="#007858"/></svg>