<svg xmlns="http://www.w3.org/2000/svg" width="114.831" height="26.157" viewBox="0 0 114.831 26.157"><g transform="translate(1.166)"><path d="M66.744,0a1.048,1.048,0,0,0-1.07,1.07V24.81a1.048,1.048,0,0,0,1.07,1.07H83.913a1.048,1.048,0,0,0,1.07-1.07V1.07A1.048,1.048,0,0,0,83.913,0Z" transform="translate(-59.923)" fill="#89bd3d"/><path d="M1.166,120.116a22.641,22.641,0,0,0,1.4,3.978,14.118,14.118,0,0,0,2.42,3.741,11.271,11.271,0,0,0-.139-3.271C4.62,124.148,1.319,119.963,1.166,120.116Z" transform="translate(-1.166 -109.403)" fill="#a8cd79"/><path d="M1.166,120.116a22.641,22.641,0,0,0,1.4,3.978,14.118,14.118,0,0,0,2.42,3.741,11.271,11.271,0,0,0-.139-3.271C4.62,124.148,1.319,119.963,1.166,120.116Z" transform="translate(-1.166 -109.403)" fill="none" stroke="#a8cd79" stroke-width="2.117"/><path d="M52.152,179.532a16.379,16.379,0,0,1-.191-3.816c.973.641,3.336,2.083,3.5,2.486s.33,4.466.117,4.379A21.859,21.859,0,0,1,52.152,179.532Z" transform="translate(-47.39 -160.048)" fill="#c8dfab"/><path d="M52.152,179.532a16.379,16.379,0,0,1-.191-3.816c.973.641,3.336,2.083,3.5,2.486s.33,4.466.117,4.379A21.859,21.859,0,0,1,52.152,179.532Z" transform="translate(-47.39 -160.048)" fill="none" stroke="#c8dfab" stroke-linecap="round" stroke-width="2.117"/><path d="M102.1,211.74c-.1-.248-.573-4.521,0-4.586.608-.069,1.146.439,2.981.707s2.255.119,2.484.478a5.679,5.679,0,0,1,.267,1.911,26.391,26.391,0,0,1,0,3.133C107.7,213.458,102.562,212.88,102.1,211.74Z" transform="translate(-92.843 -188.679)" fill="#fff"/><path d="M102.1,211.74c-.1-.248-.573-4.521,0-4.586.608-.069,1.146.439,2.981.707s2.255.119,2.484.478a5.679,5.679,0,0,1,.267,1.911,26.391,26.391,0,0,1,0,3.133C107.7,213.458,102.562,212.88,102.1,211.74Z" transform="translate(-92.843 -188.679)" fill="none" stroke="#fff" stroke-width="2.117"/><path d="M309.591,120.116a22.643,22.643,0,0,1-1.4,3.978,14.119,14.119,0,0,1-2.42,3.741,11.269,11.269,0,0,1,.139-3.271C306.137,124.148,309.438,119.963,309.591,120.116Z" transform="translate(-278.558 -109.403)" fill="#a8cd79"/><path d="M309.591,120.116a22.643,22.643,0,0,1-1.4,3.978,14.119,14.119,0,0,1-2.42,3.741,11.269,11.269,0,0,1,.139-3.271C306.137,124.148,309.438,119.963,309.591,120.116Z" transform="translate(-278.558 -109.403)" fill="none" stroke="#a8cd79" stroke-width="2.117"/><path d="M259.761,179.532a16.383,16.383,0,0,0,.191-3.816c-.973.641-3.336,2.083-3.5,2.486s-.33,4.466-.117,4.379A21.857,21.857,0,0,0,259.761,179.532Z" transform="translate(-233.49 -160.048)" fill="#c8dfab"/><path d="M259.761,179.532a16.383,16.383,0,0,0,.191-3.816c-.973.641-3.336,2.083-3.5,2.486s-.33,4.466-.117,4.379A21.857,21.857,0,0,0,259.761,179.532Z" transform="translate(-233.49 -160.048)" fill="none" stroke="#c8dfab" stroke-linecap="round" stroke-width="2.117"/><path d="M186.335,211.74c.1-.248.573-4.521,0-4.586-.608-.069-1.146.439-2.981.707s-2.255.119-2.484.478a5.679,5.679,0,0,0-.267,1.911,26.391,26.391,0,0,0,0,3.133C180.727,213.458,185.868,212.88,186.335,211.74Z" transform="translate(-164.555 -188.679)" fill="#fff"/><path d="M186.335,211.74c.1-.248.573-4.521,0-4.586-.608-.069-1.146.439-2.981.707s-2.255.119-2.484.478a5.679,5.679,0,0,0-.267,1.911,26.391,26.391,0,0,0,0,3.133C180.727,213.458,185.868,212.88,186.335,211.74Z" transform="translate(-164.555 -188.679)" fill="none" stroke="#fff" stroke-width="2.117"/><path d="M155.76,130.335l1.608,1.219-1.608,1.133,1.7-.886.089,3.051.089-3.051,1.7.886-1.608-1.133,1.608-1.219-1.7.972-.089-3.051-.089,3.051Z" transform="translate(-141.977 -116.821)" fill="#fff"/><ellipse cx="0.609" cy="0.609" rx="0.609" ry="0.609" transform="translate(14.967 14.107)" fill="#fff"/><path d="M213.765,162.355l.931.706-.931.656.983-.513.052,1.766.052-1.766.983.513-.931-.656.931-.706-.983.563-.052-1.766-.052,1.766Z" transform="translate(-194.81 -146.784)" fill="#fff"/><ellipse cx="0.353" cy="0.353" rx="0.353" ry="0.353" transform="translate(19.64 15.914)" fill="#fff"/><g transform="translate(36.037 9.928)"><path d="M405.357,129.991V114.3h3.863a6.178,6.178,0,0,1,2.579.5,3.687,3.687,0,0,1,1.69,1.5,4.741,4.741,0,0,1,.593,2.458,4.341,4.341,0,0,1-.653,2.419,4.111,4.111,0,0,1-1.783,1.52,6.147,6.147,0,0,1-2.579.516H406.9v6.781h-1.547Zm1.547-14.342v6.211h1.088a14.954,14.954,0,0,0,1.765-.093,4.289,4.289,0,0,0,1.413-.411,2.347,2.347,0,0,0,1-.944,3.29,3.29,0,0,0,.363-1.657,2.813,2.813,0,0,0-3.1-3.105H406.9Z" transform="translate(-405.357 -114.036)" fill="#89bd3d"/><path d="M550.65,129.991V114.3h4.044a7.168,7.168,0,0,1,1.907.236,3.907,3.907,0,0,1,1.458.73,3.173,3.173,0,0,1,.921,1.256,4.806,4.806,0,0,1,.318,1.849,3.423,3.423,0,0,1-.459,1.761,3.515,3.515,0,0,1-1.247,1.256,4.592,4.592,0,0,1-1.772.6v.044a1.868,1.868,0,0,1,1.217.5,5.885,5.885,0,0,1,.812,1.382l2.656,6.068h-1.7l-2.273-5.3a5.272,5.272,0,0,0-.851-1.427,1.808,1.808,0,0,0-.889-.554,5.944,5.944,0,0,0-1.323-.115H552.2v7.4H550.65Zm1.547-14.342v5.6h1.638a5.316,5.316,0,0,0,2.754-.686,2.354,2.354,0,0,0,1.16-2.189,2.7,2.7,0,0,0-.511-1.8,2.323,2.323,0,0,0-1.347-.752,11.175,11.175,0,0,0-2.1-.164H552.2Z" transform="translate(-537.696 -114.036)" fill="#89bd3d"/><path d="M690.406,129.991,696.83,114.3h1.757l6.227,15.691H703.2l-1.691-4.2h-7.918l-1.68,4.2Zm10.586-5.552-3.393-8.647-3.415,8.647Z" transform="translate(-664.991 -114.036)" fill="#89bd3d"/><path d="M888.915,126.9l.154-1.591a5.326,5.326,0,0,0,1,.51,5.961,5.961,0,0,0,1.119.307,7.82,7.82,0,0,0,1.35.1,4.469,4.469,0,0,0,1.789-.346,2.776,2.776,0,0,0,1.267-1.075,3.269,3.269,0,0,0,.466-1.794,2.045,2.045,0,0,0-.834-1.684,22.628,22.628,0,0,0-2.672-1.685,13.572,13.572,0,0,1-2.76-1.926,3.036,3.036,0,0,1-.922-2.277,3.737,3.737,0,0,1,.384-1.685,3.818,3.818,0,0,1,1.065-1.311,4.837,4.837,0,0,1,1.58-.817,6.465,6.465,0,0,1,1.931-.28,8.652,8.652,0,0,1,3.083.516l-.252,1.415a4.223,4.223,0,0,0-1.24-.428,8.106,8.106,0,0,0-1.613-.154,5.07,5.07,0,0,0-1.635.263,2.67,2.67,0,0,0-1.267.878,2.427,2.427,0,0,0-.488,1.558,1.943,1.943,0,0,0,.785,1.624,21.232,21.232,0,0,0,2.639,1.6,11.422,11.422,0,0,1,2.809,1.992,3.5,3.5,0,0,1,.955,2.529,4.055,4.055,0,0,1-.741,2.5,4.375,4.375,0,0,1-1.931,1.459,6.658,6.658,0,0,1-2.474.472A8.83,8.83,0,0,1,888.915,126.9Z" transform="translate(-845.762 -111.348)" fill="#89bd3d"/><path d="M1033.595,126.9l.154-1.591a5.331,5.331,0,0,0,1,.51,5.966,5.966,0,0,0,1.119.307,7.822,7.822,0,0,0,1.35.1,4.469,4.469,0,0,0,1.788-.346,2.777,2.777,0,0,0,1.267-1.075,3.27,3.27,0,0,0,.467-1.794,2.045,2.045,0,0,0-.834-1.684,22.656,22.656,0,0,0-2.672-1.685,13.569,13.569,0,0,1-2.76-1.926,3.036,3.036,0,0,1-.922-2.277,3.737,3.737,0,0,1,.384-1.685,3.816,3.816,0,0,1,1.064-1.311,4.837,4.837,0,0,1,1.58-.817,6.463,6.463,0,0,1,1.931-.28,8.65,8.65,0,0,1,3.083.516l-.252,1.415a4.223,4.223,0,0,0-1.24-.428,8.107,8.107,0,0,0-1.613-.154,5.072,5.072,0,0,0-1.635.263,2.672,2.672,0,0,0-1.267.878,2.428,2.428,0,0,0-.488,1.558,1.943,1.943,0,0,0,.785,1.624,21.245,21.245,0,0,0,2.639,1.6,11.419,11.419,0,0,1,2.809,1.992,3.5,3.5,0,0,1,.955,2.529,4.056,4.056,0,0,1-.741,2.5,4.376,4.376,0,0,1-1.931,1.459,6.658,6.658,0,0,1-2.474.472A8.83,8.83,0,0,1,1033.595,126.9Z" transform="translate(-977.542 -111.348)" fill="#89bd3d"/><path d="M1185.246,129.991V114.3h7.692v1.35h-6.145v5.6h5.827v1.35h-5.827v6.046h6.408v1.35h-7.955Z" transform="translate(-1115.712 -114.036)" fill="#89bd3d"/></g><g transform="translate(35.187 0.08)"><path d="M395.823,8.656V7.817L399.2,2.971h-3.262v-.82h4.333V2.99L396.9,7.836h3.42v.82Z" transform="translate(-395.823 -2.039)" fill="#020203"/><path d="M451.744,8.656l2.777-6.5h.979l2.749,6.5h-1.016l-.662-1.64h-3.187l-.662,1.64Zm4.529-2.4-1.3-3.224-1.3,3.224Z" transform="translate(-446.758 -2.039)" fill="#020203"/><path d="M535.782,8.656v-6.5h.932V4.872h3.113V2.151h.932v6.5h-.932V5.692h-3.113V8.656Z" transform="translate(-523.303 -2.039)" fill="#020203"/><path d="M610.62,8.656v-6.5h1.273l2.883,5.237V2.151h.932v6.5h-1.2l-2.958-5.349V8.656Z" transform="translate(-591.469 -2.039)" fill="#020203"/><path d="M678.143,8.656l2.777-6.5h.979l2.749,6.5h-1.016l-.662-1.64h-3.187l-.662,1.64Zm4.529-2.4-1.3-3.224-1.3,3.224Z" transform="translate(-652.972 -2.039)" fill="#020203"/><path d="M761.031,8.656v-6.5h1.594a3.906,3.906,0,0,1,1.743.3,1.506,1.506,0,0,1,.783,1.463,1.374,1.374,0,0,1-.377.978,1.681,1.681,0,0,1-.965.5v.019a1.168,1.168,0,0,1,.634.652l1.23,2.591H764.61l-1-2.255a1.084,1.084,0,0,0-.466-.559,1.8,1.8,0,0,0-.624-.074h-.559V8.656h-.932Zm.932-5.685V4.947h.792a1.734,1.734,0,0,0,1.034-.27.871.871,0,0,0,.373-.746q0-.959-1.3-.96Z" transform="translate(-728.47 -2.039)" fill="#020203"/><path d="M819.669,8.656V7.817l3.373-4.846h-3.262v-.82h4.333V2.99L820.75,7.836h3.42v.82Z" transform="translate(-781.879 -2.039)" fill="#020203"/><path d="M877.507,8.656V2.971h-2.022v-.82h4.976v.82h-2.022V8.656Z" transform="translate(-832.719 -2.039)" fill="#020203"/><path d="M941.127,8.656v-6.5h1.705q2.441,0,2.442,1.948a1.754,1.754,0,0,1-.709,1.519,2.657,2.657,0,0,1-1.593.438h-.913v2.6h-.932Zm.932-5.685V5.236h.923a1.457,1.457,0,0,0,.867-.252,1.024,1.024,0,0,0,.438-.895.965.965,0,0,0-.5-.867,1.718,1.718,0,0,0-.932-.251h-.792Z" transform="translate(-892.508 -2.039)" fill="#020203"/><path d="M999.242,8.656v-6.5h1.594a3.906,3.906,0,0,1,1.743.3,1.506,1.506,0,0,1,.783,1.463,1.375,1.375,0,0,1-.377.978,1.682,1.682,0,0,1-.965.5v.019a1.167,1.167,0,0,1,.634.652l1.23,2.591h-1.062l-1-2.255a1.084,1.084,0,0,0-.466-.559,1.8,1.8,0,0,0-.624-.074h-.559V8.656h-.932Zm.932-5.685V4.947h.792a1.735,1.735,0,0,0,1.034-.27.87.87,0,0,0,.373-.746q0-.959-1.3-.96Z" transform="translate(-945.442 -2.039)" fill="#020203"/><path d="M1055.686,8.656l2.777-6.5h.978l2.75,6.5h-1.016l-.661-1.64h-3.187l-.662,1.64Zm4.529-2.4-1.3-3.224-1.3,3.224Z" transform="translate(-996.853 -2.039)" fill="#020203"/><path d="M1130.733,8.656l2.395-3.383-2.181-3.122h1.118l1.734,2.5,1.724-2.5h1.063l-2.19,3.1,2.4,3.4h-1.174l-1.92-2.759-1.854,2.759Z" transform="translate(-1065.209 -2.039)" fill="#020203"/><path d="M1208.914,8.656v-6.5h.932v6.5Z" transform="translate(-1136.42 -2.039)" fill="#020203"/><path d="M1237.058,1.128l-.13.857a3.408,3.408,0,0,0-1.221-.27q-1.137,0-1.137.867,0,.495.727.886,1.258.671,1.342.736a1.777,1.777,0,0,1,.727,1.482,1.719,1.719,0,0,1-.7,1.491,2.826,2.826,0,0,1-1.677.447,4.57,4.57,0,0,1-1.333-.27l.093-.867a3.647,3.647,0,0,0,1.351.317,1.478,1.478,0,0,0,.839-.242.94.94,0,0,0,.438-.82,1.175,1.175,0,0,0-.727-1l-1.342-.708a1.6,1.6,0,0,1-.727-1.37,1.6,1.6,0,0,1,.606-1.323,2.326,2.326,0,0,1,1.482-.447A4.158,4.158,0,0,1,1237.058,1.128Z" transform="translate(-1158.888 -0.895)" fill="#020203"/></g></g></svg>