<svg xmlns="http://www.w3.org/2000/svg" width="62.387" height="67.051" viewBox="0 0 62.387 67.051"><path d="M21.4,65.1" transform="translate(-17.276 -52.553)" fill="#353535"/><path d="M161.9,205.6" transform="translate(-130.697 -165.974)" fill="#353535"/><path d="M302.4,65.1" transform="translate(-244.118 -52.553)" fill="#353535"/><g transform="translate(0 24.65)"><g transform="translate(1.349)"><path d="M16.405,132.423l-.443,1.908c-.54,2.351-1.966,3.623-4.279,3.623h-1.1l-1.272,5.512H7L10.373,128.8h3.392C16.116,128.8,16.945,130.072,16.405,132.423ZM12.242,130.9l-1.137,4.972h1.1c.732,0,1.214-.328,1.445-1.388l.5-2.2c.251-1.041-.077-1.388-.809-1.388Z" transform="translate(-7 -128.627)" fill="#353535"/><path d="M50.059,134.987H53.22l-.482,2.1H49.578l-.983,4.279h3.99l-.482,2.1H45.8L49.173,128.8h6.283l-.482,2.1H51Z" transform="translate(-38.322 -128.627)" fill="#353535"/><path d="M88.3,143.386a4.273,4.273,0,0,1,.212-1.812l.54-2.313c.308-1.368-.039-1.87-1.079-1.87h-.79l-1.368,5.975H83.5L86.873,128.7h3.469c2.39,0,3.161,1.118,2.64,3.373l-.27,1.156a3.841,3.841,0,0,1-2.2,2.949l-.019.039c1.041.482,1.176,1.58.809,3.1l-.52,2.255a3.892,3.892,0,0,0-.154,1.773H88.3Zm.385-12.566-1.041,4.491h.906c.867,0,1.465-.385,1.735-1.542l.328-1.445c.251-1.041,0-1.5-.829-1.5Z" transform="translate(-68.756 -128.546)" fill="#353535"/><path d="M132.42,127.9c2.236,0,3.084,1.349,2.544,3.681l-.116.463h-2.178l.135-.617c.251-1.041-.077-1.445-.829-1.445-.732,0-1.253.4-1.484,1.445-.251,1.06.039,1.869,1.233,3.18,1.542,1.7,1.87,2.91,1.484,4.587-.54,2.351-2.024,3.681-4.279,3.681s-3.122-1.349-2.583-3.681l.212-.906h2.178l-.251,1.041c-.251,1.041.135,1.426.867,1.426s1.272-.385,1.523-1.426c.251-1.06-.039-1.87-1.234-3.18-1.542-1.7-1.869-2.91-1.484-4.587C128.72,129.249,130.185,127.9,132.42,127.9Z" transform="translate(-103.221 -127.9)" fill="#353535"/><path d="M167.333,131.681A4.263,4.263,0,0,1,171.689,128c2.255,0,3.2,1.349,2.66,3.681l-1.754,7.632a4.263,4.263,0,0,1-4.356,3.681c-2.255,0-3.2-1.349-2.66-3.681Zm.52,7.767c-.251,1.041.135,1.445.867,1.445s1.291-.4,1.523-1.445l1.831-7.921c.251-1.041-.135-1.445-.867-1.445s-1.291.4-1.523,1.445Z" transform="translate(-134.896 -127.981)" fill="#353535"/><path d="M208.068,132.847h-.039l-2.448,10.619H203.5l3.373-14.667h2.891l.308,8.789h.038l2.024-8.789H214.2l-3.373,14.667h-2.371Z" transform="translate(-165.628 -128.627)" fill="#353535"/><path d="M252.575,143.467h-2.332l.212-2.66h-2.833l-1,2.66H244.5l5.724-14.667H253.6Zm-4.182-4.645h2.216l.617-7.42h-.039Z" transform="translate(-198.726 -128.627)" fill="#353535"/><path d="M292.973,128.8h2.313l-2.91,12.566h3.8l-.482,2.1H289.6Z" transform="translate(-235.134 -128.627)" fill="#353535"/></g><g transform="translate(0 17.442)"><path d="M.79,219.4h8l-.5,2.351h-2.7L2.583,235.879H0l3.007-14.127H.289Z" transform="translate(0 -219.207)" fill="#353535"/><path d="M35.816,235.879a4.746,4.746,0,0,1,.193-2.024l.559-2.583c.328-1.523-.077-2.1-1.253-2.1h-.887L33,235.879H30.4L33.908,219.4H37.82c2.679,0,3.566,1.253,3.026,3.8l-.27,1.291a4.209,4.209,0,0,1-2.409,3.315l-.019.039c1.176.54,1.349,1.773.983,3.488l-.54,2.544a4.591,4.591,0,0,0-.135,2Zm.173-14.127L34.91,226.82h1.021c.964,0,1.638-.424,1.927-1.735l.347-1.619c.251-1.176-.039-1.7-.964-1.7H35.989Z" transform="translate(-24.541 -219.207)" fill="#353535"/><path d="M82.158,235.879H79.537l.193-2.987H76.55l-1.079,2.987H73.1L79.248,219.4h3.8Zm-4.8-5.223h2.506l.54-8.345h-.039Z" transform="translate(-59.011 -219.207)" fill="#353535"/><path d="M126.908,219.4h2.583l-3.508,16.479H123.4Z" transform="translate(-99.617 -219.207)" fill="#353535"/><path d="M148.515,223.949h-.039l-2.544,11.93H143.6l3.508-16.479h3.257l.52,9.868h.039l2.1-9.868h2.313l-3.508,16.479h-2.66Z" transform="translate(-115.924 -219.207)" fill="#353535"/><path d="M196.408,219.4h2.583l-3.508,16.479H192.9Z" transform="translate(-155.722 -219.207)" fill="#353535"/><path d="M218.015,223.949h-.039l-2.544,11.93H213.1l3.508-16.479h3.257l.52,9.868h.038l2.1-9.868h2.313l-3.508,16.479h-2.66Z" transform="translate(-172.029 -219.207)" fill="#353535"/><path d="M270.194,225.9h3.623L272.7,231.12c-.559,2.64-2.2,4.144-4.741,4.144s-3.546-1.5-2.987-4.144l1.831-8.576c.559-2.64,2.2-4.144,4.741-4.144s3.546,1.5,2.987,4.144l-.347,1.6h-2.448l.366-1.773c.251-1.176-.173-1.619-1-1.619s-1.445.443-1.7,1.619l-1.889,8.9c-.251,1.176.173,1.6,1,1.6s1.426-.424,1.677-1.6l.636-3.045h-1.176Z" transform="translate(-213.782 -218.4)" fill="#353535"/></g></g><g transform="translate(16.228)"><path d="M99.079,31.2,84.2,46.1,99.079,61m14.9-14.9" transform="translate(-84.2 -25.187)" fill="#353535"/><path d="M110.495,14.821A8.815,8.815,0,0,1,124.1,3.932h2.2a10.437,10.437,0,0,0-18.6,6.5,10.335,10.335,0,0,0,2.139,6.322Z" transform="translate(-103.171 0)" fill="#353535"/><path d="M140.866,29.4A8.81,8.81,0,0,1,127.3,40.463l-.6,1.638a10.418,10.418,0,0,0,17.172-7.941,10.164,10.164,0,0,0-1.156-4.76Z" transform="translate(-118.509 -23.734)" fill="#353535"/><path d="M175.9,22.833h-3.3s-.5-.058-.867.964l-3.681,10.446H166.4L170.332,23.3s.173-.443-.193-.443H166.4V21.639l9.5-.039Z" transform="translate(-150.557 -17.437)" fill="#353535"/><path d="M172.2,36.6" transform="translate(-155.24 -29.546)" fill="#353535"/><path d="M172.2,36.3" transform="translate(-155.24 -29.304)" fill="#353535"/><path d="M124.74,35.556h0l.077-.212c.039-.1.058-.231.077-.289a2.129,2.129,0,0,0,.019-.308h0v-.039h0a.313.313,0,0,0-.289-.308h-8.731l-.424,1.137h7.362s.347.135.135.636l-1.58,4.375s-.154.385-.443.385h-3.219l1.407-4.009-1.657-.039L113.6,48.2h1.523l2.216-6.11h4.529a1.6,1.6,0,0,0,.829-.848l2.043-5.686Z" transform="translate(-107.934 -27.77)" fill="#353535"/></g><g transform="translate(0.077 61.211)"><path d="M3.407,327.361,3,325.9c-.058-.154-.135-.52-.27-1.079H2.713a10.559,10.559,0,0,1-.27,1.079l-.424,1.465H1.287L.4,324.219h.675l.4,1.542a9.624,9.624,0,0,1,.193.983h.019c.019-.135.039-.289.077-.482.039-.173.077-.308.1-.4l.482-1.658h.732l.463,1.658c.019.1.058.231.116.424a3.06,3.06,0,0,1,.077.443h.019a8.479,8.479,0,0,1,.193-.983l.4-1.542h.675l-.887,3.142H3.407Z" transform="translate(-0.4 -322.928)" fill="#353535"/><path d="M28.007,327.361l-.4-1.465c-.058-.154-.135-.52-.27-1.079h-.019a10.56,10.56,0,0,1-.27,1.079l-.424,1.465h-.732L25,324.219h.675l.4,1.542a9.626,9.626,0,0,1,.193.983h.019c.019-.135.039-.289.077-.482s.077-.308.1-.4l.482-1.658H27.7l.463,1.658c.019.1.058.231.116.424a1.626,1.626,0,0,1,.077.443h.019a8.48,8.48,0,0,1,.193-.983l.4-1.542h.675l-.887,3.142h-.752Z" transform="translate(-20.259 -322.928)" fill="#353535"/><path d="M52.707,327.361l-.4-1.465c-.058-.154-.135-.52-.27-1.079h-.019a10.558,10.558,0,0,1-.27,1.079l-.424,1.465h-.732l-.887-3.142h.675l.4,1.542a9.624,9.624,0,0,1,.193.983h.019c.019-.135.039-.289.077-.482s.077-.308.1-.4l.482-1.658h.732l.463,1.658c.019.1.058.231.116.424a1.626,1.626,0,0,1,.077.443h.019a8.477,8.477,0,0,1,.193-.983l.4-1.542h.675l-.887,3.142h-.732Z" transform="translate(-40.198 -322.928)" fill="#353535"/><path d="M76.1,336.943a.453.453,0,0,1,.116-.328.407.407,0,0,1,.308-.116.38.38,0,0,1,.308.116.407.407,0,0,1,.116.308.453.453,0,0,1-.116.328.424.424,0,0,1-.732-.308Z" transform="translate(-61.51 -332.857)" fill="#353535"/><path d="M86.5,327.257a1.069,1.069,0,0,1-.925-.424h-.039c.019.27.039.424.039.482v1.291H84.9v-4.548h.54c.019.058.039.193.1.424h.039a1.037,1.037,0,0,1,.944-.482,1.117,1.117,0,0,1,.925.424,2.343,2.343,0,0,1,0,2.39A1.141,1.141,0,0,1,86.5,327.257Zm-.173-2.718a.677.677,0,0,0-.578.231,1.258,1.258,0,0,0-.193.752v.1a1.516,1.516,0,0,0,.173.829.674.674,0,0,0,.6.251.62.62,0,0,0,.54-.289,1.8,1.8,0,0,0,0-1.619A.634.634,0,0,0,86.326,324.54Z" transform="translate(-68.614 -322.766)" fill="#353535"/><path d="M103.342,323.973a1.4,1.4,0,0,0,.482-.077v.5a1.043,1.043,0,0,1-.289.077,2.13,2.13,0,0,1-.366.039c-.636,0-.944-.328-.944-1v-1.7H101.8v-.289l.463-.25.231-.675h.4v.694h.887v.5H102.9v1.677a.522.522,0,0,0,.116.366A.465.465,0,0,0,103.342,323.973Z" transform="translate(-82.257 -320.022)" fill="#353535"/><path d="M114.2,331.578V331h1.465v.559H114.2Z" transform="translate(-92.267 -328.417)" fill="#353535"/><path d="M127.368,325.538a1.662,1.662,0,0,1-.4,1.195,1.636,1.636,0,0,1-1.869.231,1.382,1.382,0,0,1-.52-.578,2.05,2.05,0,0,1-.173-.867,1.779,1.779,0,0,1,.385-1.195,1.424,1.424,0,0,1,1.1-.424,1.394,1.394,0,0,1,1.079.443A1.76,1.76,0,0,1,127.368,325.538Zm-2.293,0c0,.732.27,1.079.809,1.079s.79-.366.79-1.079-.27-1.079-.809-1.079a.722.722,0,0,0-.617.27A1.579,1.579,0,0,0,125.075,325.538Z" transform="translate(-100.501 -322.686)" fill="#353535"/><path d="M144.375,322.114H143.7V317.7h.675Z" transform="translate(-116.082 -317.681)" fill="#353535"/><path d="M152.453,322.252a1.117,1.117,0,0,1-.925-.424,1.958,1.958,0,0,1-.328-1.195,1.919,1.919,0,0,1,.328-1.195,1.117,1.117,0,0,1,.925-.424,1.086,1.086,0,0,1,.944.463h.039a3.438,3.438,0,0,1-.058-.54V317.8h.675v4.414h-.52l-.116-.4h-.039A1.06,1.06,0,0,1,152.453,322.252Zm.173-.54a.717.717,0,0,0,.6-.231,1.258,1.258,0,0,0,.193-.752v-.1a1.376,1.376,0,0,0-.193-.848.7.7,0,0,0-.6-.25.6.6,0,0,0-.54.289,1.566,1.566,0,0,0-.193.809,1.294,1.294,0,0,0,.193.79A.578.578,0,0,0,152.626,321.712Z" transform="translate(-122.136 -317.762)" fill="#353535"/><path d="M171.561,327.257a1.557,1.557,0,0,1-1.156-.424,1.644,1.644,0,0,1-.4-1.176,1.8,1.8,0,0,1,.385-1.214,1.352,1.352,0,0,1,1.06-.443,1.277,1.277,0,0,1,.983.385,1.485,1.485,0,0,1,.366,1.041v.366h-2.1a1.031,1.031,0,0,0,.251.713.817.817,0,0,0,.655.251,2.153,2.153,0,0,0,.52-.058,4.114,4.114,0,0,0,.52-.173v.54a2.2,2.2,0,0,1-.5.174C171.966,327.238,171.773,327.257,171.561,327.257Zm-.116-2.756a.627.627,0,0,0-.5.193,1,1,0,0,0-.231.6h1.426a.827.827,0,0,0-.193-.6A.7.7,0,0,0,171.446,324.5Z" transform="translate(-137.313 -322.766)" fill="#353535"/><path d="M191.175,327.28H190.5v-1.927a.819.819,0,0,0-.154-.54.569.569,0,0,0-.463-.173.712.712,0,0,0-.617.251,1.376,1.376,0,0,0-.193.848V327.3H188.4v-3.141h.52l.1.4h.039a.892.892,0,0,1,.4-.347,1.409,1.409,0,0,1,.578-.116,1.016,1.016,0,0,1,1.137,1.156Z" transform="translate(-152.167 -322.847)" fill="#353535"/><path d="M209.28,318.834a1.117,1.117,0,0,1,.925.424,1.957,1.957,0,0,1,.328,1.195,1.919,1.919,0,0,1-.328,1.2,1.092,1.092,0,0,1-.925.424,1.069,1.069,0,0,1-.925-.424h-.039l-.116.366h-.5V317.6h.675v1.06a2.618,2.618,0,0,1-.019.347c0,.154-.019.251-.019.289h.019A1.052,1.052,0,0,1,209.28,318.834Zm-.173.54a.676.676,0,0,0-.578.231,1.518,1.518,0,0,0-.193.79v.039a1.517,1.517,0,0,0,.173.829.674.674,0,0,0,.6.25.6.6,0,0,0,.54-.289,1.566,1.566,0,0,0,.193-.809C209.839,319.739,209.608,319.373,209.107,319.373Z" transform="translate(-167.747 -317.6)" fill="#353535"/><path d="M228.455,327.361l-.1-.4h-.039a.892.892,0,0,1-.4.347,1.408,1.408,0,0,1-.578.116,1.1,1.1,0,0,1-.848-.289,1.265,1.265,0,0,1-.289-.867V324.2h.675v1.947a.857.857,0,0,0,.154.54.569.569,0,0,0,.463.173.712.712,0,0,0,.617-.25,1.376,1.376,0,0,0,.193-.848V324.2h.675v3.141h-.52Z" transform="translate(-182.681 -322.928)" fill="#353535"/><path d="M247.2,324a1.559,1.559,0,0,1,.328.019l-.058.617a1.485,1.485,0,0,0-.289-.039.886.886,0,0,0-.655.27.916.916,0,0,0-.251.675v1.638H245.6v-3.141h.52l.1.559h.039a1.123,1.123,0,0,1,.4-.443A1.036,1.036,0,0,1,247.2,324Z" transform="translate(-198.342 -322.766)" fill="#353535"/><path d="M259.484,323.977v.366l-.54.1a.5.5,0,0,1,.116.25.8.8,0,0,1,.058.308.989.989,0,0,1-.328.771,1.392,1.392,0,0,1-.925.27,1.182,1.182,0,0,1-.27-.019.4.4,0,0,0-.212.308.153.153,0,0,0,.1.154,1.178,1.178,0,0,0,.366.058h.54a1.172,1.172,0,0,1,.79.231.814.814,0,0,1,.27.636.96.96,0,0,1-.443.829,2.3,2.3,0,0,1-1.272.289,1.765,1.765,0,0,1-.983-.231.735.735,0,0,1-.347-.655.639.639,0,0,1,.193-.482.9.9,0,0,1,.52-.27.411.411,0,0,1-.212-.193.442.442,0,0,1-.077-.27.473.473,0,0,1,.1-.289,2.077,2.077,0,0,1,.289-.251,1.148,1.148,0,0,1-.4-.347.906.906,0,0,1-.154-.559,1,1,0,0,1,.328-.79,1.33,1.33,0,0,1,.925-.289,1.561,1.561,0,0,1,.289.019,1.46,1.46,0,0,1,.212.039h1.079Zm-2.467,3.643a.358.358,0,0,0,.193.328,1.069,1.069,0,0,0,.54.116,1.714,1.714,0,0,0,.81-.154.483.483,0,0,0,.27-.424.317.317,0,0,0-.154-.289,1.165,1.165,0,0,0-.54-.077h-.5a.7.7,0,0,0-.463.135A.464.464,0,0,0,257.017,327.62Zm.289-2.621a.7.7,0,0,0,.154.463.545.545,0,0,0,.443.154c.385,0,.578-.212.578-.617a.718.718,0,0,0-.135-.482.653.653,0,0,0-.887,0A.634.634,0,0,0,257.306,325Z" transform="translate(-207.061 -322.686)" fill="#353535"/><path d="M274.9,336.943a.453.453,0,0,1,.116-.328.407.407,0,0,1,.308-.116.379.379,0,0,1,.308.116.407.407,0,0,1,.116.308.453.453,0,0,1-.116.328.424.424,0,0,1-.732-.308Z" transform="translate(-221.995 -332.857)" fill="#353535"/><path d="M283.953,322.252a1.117,1.117,0,0,1-.925-.424,1.958,1.958,0,0,1-.328-1.195,1.919,1.919,0,0,1,.328-1.195,1.117,1.117,0,0,1,.925-.424,1.086,1.086,0,0,1,.944.463h.039a3.443,3.443,0,0,1-.058-.54V317.8h.675v4.414h-.52l-.116-.4h-.039A1.037,1.037,0,0,1,283.953,322.252Zm.173-.54a.717.717,0,0,0,.6-.231,1.257,1.257,0,0,0,.193-.752v-.1a1.376,1.376,0,0,0-.193-.848.7.7,0,0,0-.6-.25.6.6,0,0,0-.54.289,1.4,1.4,0,0,0-.193.809,1.294,1.294,0,0,0,.193.79A.667.667,0,0,0,284.126,321.712Z" transform="translate(-228.292 -317.762)" fill="#353535"/><path d="M303.161,327.257a1.441,1.441,0,0,1-1.561-1.6,1.8,1.8,0,0,1,.385-1.214,1.352,1.352,0,0,1,1.06-.443,1.277,1.277,0,0,1,.983.385,1.485,1.485,0,0,1,.366,1.041v.366h-2.1a1.031,1.031,0,0,0,.251.713.817.817,0,0,0,.655.251,2.152,2.152,0,0,0,.52-.058,4.114,4.114,0,0,0,.52-.173v.54a2.2,2.2,0,0,1-.5.174A2.8,2.8,0,0,1,303.161,327.257Zm-.135-2.756a.627.627,0,0,0-.5.193.9.9,0,0,0-.231.6h1.426a.827.827,0,0,0-.193-.6A.7.7,0,0,0,303.026,324.5Z" transform="translate(-243.549 -322.766)" fill="#353535"/></g></svg>