<?xml version="1.0" encoding="utf-8"?>
<!-- Generator: Adobe Illustrator 25.2.3, SVG Export Plug-In . SVG Version: 6.00 Build 0)  -->
<svg version="1.1" id="Ebene_1" xmlns="http://www.w3.org/2000/svg" xmlns:xlink="http://www.w3.org/1999/xlink" x="0px" y="0px"
	 viewBox="0 0 95.1 45.1" style="enable-background:new 0 0 95.1 45.1;" xml:space="preserve">
<style type="text/css">
	.st0{fill:#009DE2;}
	.st1{fill:#E2000F;}
	.st2{fill:#FFEC00;}
	.st3{fill:#1A1A18;}
</style>
<path class="st0" d="M54,45.1h-6L59.2,0h6L54,45.1z"/>
<path class="st1" d="M69.8,5.3L60,45.1h-6l9.9-39.8L69.8,5.3z"/>
<path class="st2" d="M74.6,10.4L66,45.1h-6l8.6-34.6L74.6,10.4z"/>
<g>
	<g transform="translate(0)">
		<path class="st3" d="M3.5,37.8c-1.1,0-2.2-0.3-3.1-0.8l-0.1,0v-3.6l0.4,0.3c0.6,0.5,1.4,0.9,2.2,0.9c0.8,0.1,1.6-0.5,1.7-1.4
			c0-0.1,0-0.1,0-0.2c0-0.6-0.3-1.1-1.3-1.9C1.4,29.5,0,28.2,0,25.8c-0.2-2.5,1.7-4.6,4.1-4.8c0.1,0,0.3,0,0.4,0c1,0,2.1,0.3,3,0.9
			l0.1,0V25l-0.2-0.1c-0.7-0.4-1.6-0.7-2.4-0.7c-0.7,0-1.3,0.6-1.3,1.3c0,0,0,0.1,0,0.1c0,1.1,0.9,1.9,2,2.7c1.3,1,2.7,2.2,2.7,4.3
			C8.3,35.8,6.5,37.8,3.5,37.8"/>
		<path class="st3" d="M16.4,37.8c-5,0-7.9-3.1-7.9-8.6c0-5.3,3.6-8.2,6.9-8.2c0.2,0,0.5,0,0.7,0c0.1,0,0.3,0,0.4,0
			c0.5,0,0.9,0.1,1.3,0.2l0.1,0v3.4l-0.2-0.1c-0.2,0-0.3-0.1-0.5-0.2c-0.3-0.1-0.5-0.2-0.8-0.2c-2.8,0-4.1,1.6-4.1,4.9
			c-0.1,1.5,0.4,3,1.3,4.1c0.6,0.6,1.4,0.9,2.2,0.9c0.2,0,0.4,0,0.6-0.1c0.4-0.1,0.8-0.2,1.2-0.3l0.2-0.1v3.5l-0.1,0
			C17.4,37.7,16.9,37.8,16.4,37.8"/>
	</g>
</g>
<path class="st3" d="M25.8,37.6v-6.9h-3.4v6.9h-3.6V21.1h3.6v6h3.4v-6h3.7v16.5L25.8,37.6z"/>
<path class="st3" d="M39.2,21.3h4.4l1.4,16.2h-3.4l-0.6-12.8l-0.1,0l-0.7,5.1L39,37.5h-2.5l-1.2-7.7L34.5,25v-0.3h0l-0.8,12.8h-3.3
	L32,21.3h4.3l1.4,10.9L39.2,21.3z"/>
<path class="st3" d="M52.3,31.9l-0.6-4L51.4,26l-0.3,1.9l-0.7,4L52.3,31.9z M53.5,37.6l-0.6-2.8h-3.1l-0.5,2.8h-3.7l4.1-16.5h3.7
	l4,16.5H53.5z"/>
<g>
	<g transform="translate(0)">
		<path class="st3" d="M63.8,37.8c-4.4,0-7.3-3.4-7.3-8.6c0-4.1,2.7-8.3,7.2-8.3c0.8,0,1.5,0.2,2.2,0.4l0.1,0v3.2l-0.2-0.1
			c-0.6-0.1-1.1-0.2-1.7-0.2c-2.6,0-3.6,2.6-3.6,4.8c-0.1,1.5,0.4,2.9,1.3,4.1c0.6,0.6,1.4,0.9,2.3,0.9c0.6,0,1.2-0.1,1.7-0.2
			l0.2-0.1v3.4l-0.1,0C65.2,37.6,64.5,37.7,63.8,37.8"/>
	</g>
</g>
<path class="st3" d="M69.8,37.5h-3.2V21.4h3.2v7h0l3.3-7h3.5l-3.5,7.4l3.6,8.8h-3.5l-3.5-7.9L69.8,37.5z"/>
<path class="st3" d="M77.2,37.6V21.1h7.4v3.4h-3.9v3h3.5v3.3h-3.5v3.4h3.8v3.5L77.2,37.6z"/>
<g>
	<g transform="translate(0)">
		<path class="st3" d="M89.2,28.2c1.5,0,1.8-1.2,1.8-2.3c0.1-0.9-0.5-1.8-1.5-2c-0.1,0-0.2,0-0.3,0h-0.4v4.2L89.2,28.2z M91.3,37.6
			l-2.5-6.2v6.2h-3.5V21.1h3.4c1.6,0,5.8,0,5.8,4.8c0,2.4-0.8,3.7-2.5,4.3l3.2,7.4L91.3,37.6z"/>
	</g>
</g>
</svg>
