<svg xmlns="http://www.w3.org/2000/svg" xmlns:xlink="http://www.w3.org/1999/xlink" width="322.71" height="209.752" viewBox="0 0 322.71 209.752"><defs><linearGradient id="a" x1="0.267" y1="-1.498" x2="0.644" y2="-3.286" gradientUnits="objectBoundingBox"><stop offset="0.01"/><stop offset="0.08" stop-opacity="0.69"/><stop offset="0.21" stop-opacity="0.322"/><stop offset="1" stop-opacity="0"/></linearGradient><linearGradient id="b" x1="0.415" y1="-0.322" x2="1.517" y2="-2.387" xlink:href="#a"/><linearGradient id="c" x1="0.344" y1="0.706" x2="0.639" y2="-4.488" xlink:href="#a"/><linearGradient id="d" x1="0.221" y1="-4.95" x2="0.59" y2="-22" xlink:href="#a"/><linearGradient id="e" x1="-40.391" y1="-8.366" x2="-39.392" y2="-8.366" gradientUnits="objectBoundingBox"><stop offset="0" stop-color="#e5c5d5"/><stop offset="0.42" stop-color="#ead4d1"/><stop offset="1" stop-color="#f0e9cb"/></linearGradient><linearGradient id="f" x1="-1.052" y1="-2.473" x2="1.541" y2="-0.377" xlink:href="#a"/><linearGradient id="g" y1="-0.912" x2="1" y2="-0.912" gradientUnits="objectBoundingBox"><stop offset="0" stop-opacity="0"/><stop offset="0.99"/></linearGradient><linearGradient id="h" x1="-0.022" y1="1.021" x2="1.185" y2="-22.476" xlink:href="#a"/><linearGradient id="i" x1="-62.729" y1="-55.483" x2="-61.687" y2="-55.483" gradientUnits="objectBoundingBox"><stop offset="0" stop-color="#e3c5d5"/><stop offset="0.42" stop-color="#e8d3cf"/><stop offset="1" stop-color="#efe8cb"/></linearGradient><linearGradient id="j" x1="-44.728" y1="-89.185" x2="-44.212" y2="-92.639" gradientUnits="objectBoundingBox"><stop offset="0" stop-color="#010101" stop-opacity="0"/><stop offset="0.95" stop-color="#010101"/></linearGradient><linearGradient id="k" x1="-22.89" y1="-27.498" x2="-21.891" y2="-27.498" xlink:href="#i"/><linearGradient id="l" x1="-235.706" y1="-238.684" x2="-238.341" y2="-238.877" xlink:href="#j"/><linearGradient id="m" x1="-37.177" y1="-35.807" x2="-36.173" y2="-35.807" xlink:href="#i"/><linearGradient id="n" x1="-42.165" y1="-92.305" x2="-40.456" y2="-95.501" xlink:href="#j"/><linearGradient id="o" x1="-28.266" y1="-27.013" x2="-27.277" y2="-27.013" xlink:href="#i"/><linearGradient id="r" x1="-28.754" y1="-26.977" x2="-27.765" y2="-26.977" xlink:href="#i"/><linearGradient id="s" x1="-39.912" y1="-114.474" x2="-39.95" y2="-117.851" xlink:href="#j"/><linearGradient id="t" x1="-243.868" y1="-284.419" x2="-242.627" y2="-284.91" xlink:href="#j"/></defs><path d="M337.443,246v53.364q-1.978,1.616-4.07,3.053c-12.426,8.488-26.736,11.762-41.4,12.1a165.078,165.078,0,0,1-27.4-3.211l-5.332-1.049c-1.781-.346-3.57-.766-5.351-1.165V246Z" transform="translate(-42.1 -105.928)" fill="#454595"/><path d="M337.443,246v53.364q-1.978,1.616-4.07,3.053c-12.426,8.488-26.736,11.762-41.4,12.1a165.078,165.078,0,0,1-27.4-3.211l-5.332-1.049c-1.781-.346-3.57-.766-5.351-1.165V246Z" transform="translate(-42.1 -105.928)" fill="url(#a)"/><path d="M271.181,217.011H228.392l-7.782-36.9H263.4Z" transform="translate(-15.311 -84.494)" fill="#454595"/><path d="M268.741,217.011H225.952l-7.782-36.9h42.789Z" transform="translate(-15.17 -84.494)" fill="#454595"/><path d="M268.741,217.011H225.952l-7.782-36.9h42.789Z" transform="translate(-15.17 -84.494)" fill="url(#b)"/><rect width="151.195" height="107.242" rx="14.13" transform="translate(152.683)" fill="#454595"/><rect width="151.195" height="107.242" rx="14.13" transform="translate(149.508)" fill="#4c506d"/><path d="M338.965,194.43v6.442c0,8.188-5.96,14.826-13.312,14.826H201.082c-7.352,0-13.312-6.638-13.312-14.826h0V194.43Z" transform="translate(-38.271 -108.467)" fill="url(#c)"/><path d="M194.057,287.805a30.166,30.166,0,0,1-1.96,11.321h-.16c-3.684-.115-7.377,0-11.069.252a140.519,140.519,0,0,0-18.3,2.854c-2.826.577-5.577,1.217-8.356,1.847s-5.313,1.217-7.979,1.794c-5.059,1.049-9.92,2.046-14.631,2.8a45.319,45.319,0,0,1-16.015-12.769c-.48-.6-.942-1.207-1.394-1.826-.575-.808-1.121-1.647-1.63-2.529a20.47,20.47,0,0,1-2.911-8.247,13.607,13.607,0,0,1,.113-3.609c.707-4.124,3.41-7.408,6.463-9.936.33-.273.659-.546,1-.8a34.966,34.966,0,0,1,22.959-7.45c.678,0,1.366.063,2.044.115a64.133,64.133,0,0,1,12.963,2.5c6.708,1.91,13.406,4.585,20.029,6.946a50.668,50.668,0,0,1,13.933,6.621,12.565,12.565,0,0,1,3.194,3.368,13.677,13.677,0,0,1,1.705,6.747Z" transform="translate(-33.743 -105.166)" fill="#3e3e54"/><path d="M191.265,299.125c-3.684-.115-7.377,0-11.069.252a140.519,140.519,0,0,0-18.3,2.854c-2.826.577-5.577,1.217-8.356,1.847s-5.313,1.217-7.979,1.794c-14.263,3.1-27.452,6.652-42.13,3.609a5.611,5.611,0,0,1-2.459-.955,6.454,6.454,0,0,1-1.781-3.274,31.932,31.932,0,0,1,1.536-21.709c3.58-7.859,9.261-10.975,15.9-14.689,7.659-4.323,14.131-7.586,22.959-7.345.678,0,1.366.063,2.044.115a65.442,65.442,0,0,1,12.888,2.5c6.595,1.91,13.255,4.554,19.784,6.893a50.411,50.411,0,0,1,13.933,6.621,12.393,12.393,0,0,1,3.2,3.358,13.772,13.772,0,0,1,1.686,6.694h0a30.037,30.037,0,0,1-1.865,11.437Z" transform="translate(-33.07 -105.165)" fill="#3e3e54"/><path d="M213.711,301.125a152.884,152.884,0,0,0-21.282-2.287h-.16c-3.684-.115-7.377,0-11.069.252a140.52,140.52,0,0,0-18.3,2.854c-2.826.577-5.577,1.217-8.356,1.847-7.961-1.584-16.015-2.864-23.891-4.805a25.271,25.271,0,0,1-10.928-4.837,13.305,13.305,0,0,1-2.214-2.5,12.112,12.112,0,0,1-.791-1.312,11.513,11.513,0,0,1-1.394-6.1,8.393,8.393,0,0,1,.264-1.679,14.25,14.25,0,0,1,5.737-7.45,25.419,25.419,0,0,1,13.585-5.582c3.288-.2,6.595.535,9.835.336,2.92-.178,4.937-1.983,7.537-2.413a13.053,13.053,0,0,1,5.888.577c4.456,1.364,9.053,4.344,12.549,6.3l23.552,13.094.179.094,4.71,2.623a67.05,67.05,0,0,1,12.492,8.32,4.7,4.7,0,0,1,2.054,2.665Z" transform="translate(-34.075 -104.877)" fill="#3e3e54"/><path d="M303.641,238.8v7.554H30.276c-.424-2.518-.829-5.036-1.2-7.544Z" transform="translate(-29.08 -106.283)" fill="#454595"/><path d="M303.641,238.8v7.554H30.276c-.424-2.518-.829-5.036-1.2-7.544Z" transform="translate(-29.08 -106.283)" fill="url(#d)"/><path d="M172.381,137.5c-3.26-3.221-10.08-4-13.189-.441-2.3,2.623-2.449,6.715-3.015,10.356a34.6,34.6,0,0,1-5.756,14.364c-1.583,2.245-3.486,4.365-4.164,7.1a4.532,4.532,0,0,0,0,2.738,5.226,5.226,0,0,0,2.035,2.193,17.757,17.757,0,0,0,6.482,3.357,6,6,0,0,0,6.406-2.487c.546-.9.942-2.1,1.884-2.455,1.225-.43,2.327.892,3.514,1.416,2.007.85,4.305-.755,5.3-2.875a23.614,23.614,0,0,0,1.507-6.967,9.653,9.653,0,0,1,2.76-6.3c.65-.535,1.479-.934,1.8-1.763.575-1.532-.942-2.927-1.884-4.2C173.172,147.353,176.074,140.932,172.381,137.5Z" transform="translate(-35.854 -111.406)" fill="url(#e)"/><path d="M170.609,123.53c-4.1-5.246-10.363-8.215-15.714-4.554-2.016,1.385-3.618,3.473-5.737,4.638a17.4,17.4,0,0,1-4.079,1.406c-3.636.965-7.4,2.329-9.864,5.456s-2.92,8.52-.047,11.174a5.064,5.064,0,0,0,.339,6.012,18.551,18.551,0,0,0,2.826,2.046c2.826,2.1,2.826,4.459,2.61,7.649a2.769,2.769,0,0,0,.556,1.437l2.581,4.2c.895,1.416,2.082,2.927,3.6,2.927,2.242-.115,3.391-3.62,5.652-3.83a8.911,8.911,0,0,1,2.826.734c.942.252,2.223-.052,2.459-1.112a6.372,6.372,0,0,1-2.318-7.848c.537-1.175,1.884-2.172,2.826-1.4.575.472.716,1.343,1.046,2.1s1.281,1.228,1.705.588c1.253-3.284-.075-7.219.848-10.576a7.008,7.008,0,0,1,6.039-5.246c1.178-.1,2.365.168,3.542,0a2.915,2.915,0,0,0,2.572-2.319C175.489,132.438,173.643,127.38,170.609,123.53Z" transform="translate(-35.11 -112.261)" fill="#f55959"/><path d="M139.578,169.728a3.185,3.185,0,0,0-.433,2.466,1.978,1.978,0,0,0,1.884,1.144c5.342.577,10.919,1.4,15.912,4.3,1.083.577,2.506,1.2,3.26,0a3.221,3.221,0,0,0,0-2.822,5.836,5.836,0,0,0-1.649-1.983A61.8,61.8,0,0,0,151.778,168C147.416,165.133,142.932,163.622,139.578,169.728Z" transform="translate(-35.45 -109.891)" fill="#454595"/><path d="M153.4,267.506c2.544,5.645,7.876,9.086,2.544,14.784-9.421,10.1-26.067,14.343-38.682,14.207-8.479-.084-17.193-2.245-23.835-8.079a15.013,15.013,0,0,1-4.6-6.442,20.062,20.062,0,0,1-.754-5.246c-1.667-33.135,8.884-65.766,23.769-94.5,2.826-5.5,6.595-11.437,12.191-12.36a17.229,17.229,0,0,1,6.039.42,312.818,312.818,0,0,1,39.144,10.22,10.205,10.205,0,0,1,7.254,5.9l20.34,34.7c2.939,5.015,5.992,10.492,5.652,16.462a8.67,8.67,0,0,1-1.507,4.837,8.857,8.857,0,0,1-5.652,2.759,44.4,44.4,0,0,1-22.177-1.679c4.013-3.431,2.751-10.555.1-15.371a36.987,36.987,0,0,0-6.595-8.667,120.44,120.44,0,0,1-8.29,27.039C155.523,252.9,150.172,260.392,153.4,267.506Z" transform="translate(-32.487 -109.681)" fill="#454595"/><path d="M95.93,221.241c.518-2.161,2.025-9.023,3.872-12.8,7.358,5.844,12.756,17.249,15.478,26.85s4.937,19.694,10.467,27.647l5.992-2.319,1.112,4.2c.886,3.316-1.63,6.726-1.375,10.083s3.288,6.3,6.152,7.177c3.448,1.049,7.122.189,10.58-.829a15.159,15.159,0,0,0,6.2-2.969,7,7,0,0,0,2.242-6.663,4.5,4.5,0,0,1,1.639,4.858,9.45,9.45,0,0,1-2.826,4.512c-4.183,4.092-9.506,6.369-14.706,8.562a71.759,71.759,0,0,1-7.612,2.885c-5.879,1.731-12.03,1.9-18.107,2.1-3.693.094-5.907-.546-7.537-4.617-2.336-5.8-2.506-12.349-3.071-18.687a362.409,362.409,0,0,0-8.5-49.985Z" transform="translate(-32.952 -107.777)" fill="url(#f)"/><path d="M112.981,282.519q0,2.707-.113,5.508-.127,2.786-.443,5.7l-.141,1.27c-.16,1.322-.339,2.655-.556,4.008a.385.385,0,0,0,0,.147c-.122.745-.254,1.5-.386,2.266a24.725,24.725,0,0,1-1.357,12.171h0a89.617,89.617,0,0,1-10.071-.178,77.028,77.028,0,0,1-19.275-3.819h0a77.332,77.332,0,0,1-17.57-13.776,14.255,14.255,0,0,1-3.382-5.047,18.949,18.949,0,0,1-.575-6.474,135.7,135.7,0,0,0-4.268-35.957c-.65-2.539-1.385-5.057-2.186-7.544-.942-2.822-1.884-5.6-3.005-8.394-2.581-6.474-5.709-12.79-6.887-19.746a35.946,35.946,0,0,1-.113-11.542,3.264,3.264,0,0,1,.659-1.847,2.623,2.623,0,0,1,2.148-.661c7.857.241,15,5.246,22.761,6.726,3.985.755,8.121.556,11.993,1.836,5.511,1.8,9.751,6.3,13.095,11.542a67.17,67.17,0,0,1,4.579,8.761c2.016,4.564,3.9,8.929,5.653,13.178,1.017,2.55,1.969,5.057,2.826,7.544a110.978,110.978,0,0,1,6,24.374v.157a87.4,87.4,0,0,1,.612,9.8Z" transform="translate(-29.842 -108.263)" fill="#3e3e54"/><path d="M112.981,282.519q0,2.707-.113,5.508-.127,2.786-.443,5.7l-.141,1.27c-.16,1.322-.339,2.655-.556,4.008a.385.385,0,0,0,0,.147c-.122.745-.254,1.5-.386,2.266a24.725,24.725,0,0,1-1.357,12.171h0a89.617,89.617,0,0,1-10.071-.178,77.028,77.028,0,0,1-19.275-3.819h0a77.332,77.332,0,0,1-17.57-13.776,14.255,14.255,0,0,1-3.382-5.047,18.949,18.949,0,0,1-.575-6.474,135.7,135.7,0,0,0-4.268-35.957c-.65-2.539-1.385-5.057-2.186-7.544-.942-2.822-1.884-5.6-3.005-8.394-2.581-6.474-5.709-12.79-6.887-19.746a35.946,35.946,0,0,1-.113-11.542,3.264,3.264,0,0,1,.659-1.847,2.623,2.623,0,0,1,2.148-.661c7.857.241,15,5.246,22.761,6.726,3.985.755,8.121.556,11.993,1.836,5.511,1.8,9.751,6.3,13.095,11.542a67.17,67.17,0,0,1,4.579,8.761c2.016,4.564,3.9,8.929,5.653,13.178,1.017,2.55,1.969,5.057,2.826,7.544a110.978,110.978,0,0,1,6,24.374v.157a87.4,87.4,0,0,1,.612,9.8Z" transform="translate(-29.842 -108.263)" fill="url(#g)"/><rect width="87.001" height="7.544" transform="translate(235.709 132.517)" fill="#454595"/><rect width="87.001" height="7.544" transform="translate(235.709 132.517)" fill="url(#h)"/><path d="M343.123,246v53.364q-1.978,1.616-4.07,3.053c-21.668,14.8-49.111,13.766-74.151,8.887l-5.332-1.049V246Z" transform="translate(-42.429 -104.796)" fill="#454595"/><rect width="46.643" height="33.817" transform="translate(170.027 10.293)" fill="#fff"/><path d="M220.066,152.653a9.823,9.823,0,0,1,8.874-5.246c1.234,0,2.478.094,3.7.094,3.542,0,8.874-1.374,11.927.651,1.262.829,2.318,4.585,2.939,6.075a.979.979,0,0,1,.047.923c-.179.262-.452.241-.707.241-6.284-.073-12.549,0-18.842,0H219.19a6.145,6.145,0,0,1,.876-2.738Z" transform="translate(-40.091 -110.799)" fill="#454595"/><path d="M233.161,149.32a3.136,3.136,0,0,0,.942.556,4,4,0,0,0,2.2.325,2.118,2.118,0,0,0,1.63-1.521,3.592,3.592,0,0,0,0-1.27l-.151-1.511a5.616,5.616,0,0,0-.49-2.161,2.278,2.278,0,0,0-2.911-1.049,3.416,3.416,0,0,0-1.507,1.773C232.2,146.172,231.663,147.956,233.161,149.32Z" transform="translate(-40.844 -111.023)" fill="url(#i)"/><path d="M237.327,143.68s-1.432,4.6-3.5,4.6-1.526-2.235-1.526-2.235Z" transform="translate(-40.846 -110.965)" fill="url(#j)"/><path d="M229.262,142.4c.179.8.518,1.532.754,2.308a5.127,5.127,0,0,0,.386,1.049,2.339,2.339,0,0,0,1.206.976,3.943,3.943,0,0,0,3.213-.115,6.191,6.191,0,0,0,2.9-3.714c.518-1.584,1.423-3.148,1.46-4.858,0-.724-.782-1.595-1.008-2.277a5.347,5.347,0,0,0-1.244-1.889,6.061,6.061,0,0,0-1.488-1.291,4.164,4.164,0,0,0-4.324.577,3.9,3.9,0,0,0-1.131,1.049c-.735,1.123-.622,2.5-.631,3.809C229.347,139.533,228.932,140.907,229.262,142.4Z" transform="translate(-40.667 -111.529)" fill="url(#k)"/><path d="M227.386,134.972a8.677,8.677,0,0,1-.669-2.634,1.092,1.092,0,0,1,0-.651c.132-.3.48-.4.688-.64.443-.525.094-1.364.122-2.1a2.272,2.272,0,0,1,1.3-1.857,5.487,5.487,0,0,1,2.2-.409,3.331,3.331,0,0,1,2.826.745c.377.42.575,1.049.942,1.4.857.787,2.157.273,3.241.556a2.64,2.64,0,0,1,1.884,2.193c.151,1.049-.217,2.235.32,3.148a3.749,3.749,0,0,1,.537.808,1.669,1.669,0,0,1-.085,1.049A18.212,18.212,0,0,1,239,140.47a1.567,1.567,0,0,1-.509.6c-.226.126-.612,1.605-.744,1.374a5.438,5.438,0,0,1,.207-2.55,3.143,3.143,0,0,0,.593-.881,1.139,1.139,0,0,0-.183-.781.927.927,0,0,0-.627-.4.884.884,0,0,0-.773.283c.245-1.679-.565-3.662-2.063-4.008a3.883,3.883,0,0,0-2.6.6C230.57,135.57,228.714,137.627,227.386,134.972Z" transform="translate(-40.524 -111.805)" fill="#f55959"/><path d="M238.18,137.858a.263.263,0,0,1,.141-.168.361.361,0,0,1,.226.084.55.55,0,0,1,.264.325.641.641,0,0,1,0,.325,2.489,2.489,0,0,1-.226.63.671.671,0,0,1-.49.367c-.094,0-.236-.241-.236-.336s.094-.147.132-.241C238.1,138.55,237.992,138.183,238.18,137.858Z" transform="translate(-41.172 -111.26)" fill="url(#l)"/><rect width="46.643" height="33.817" transform="translate(220.947 10.534)" fill="#fff"/><rect width="46.643" height="33.817" transform="translate(220.947 48.254)" fill="#fff"/><rect width="46.643" height="33.817" transform="translate(170.027 48.254)" fill="#fff"/><path d="M282.67,161.745a10.094,10.094,0,0,1,5.351-.315,7.056,7.056,0,0,1,2.9.934c1.639,1.049,2.459,3.242,2.826,5.32a42.016,42.016,0,0,0,1.149,6.232c.8,2.287,2.383,4.2,2.92,6.589.854,3.853-1.253,7.748-4.71,8.709a5.955,5.955,0,0,1-1.6.21c-1.375,0-2.713-.5-4.089-.5-2.826,0-5.549,2.161-8.328,1.532-2.28-.525-3.91-2.822-4.842-5.246a7.46,7.46,0,0,1-.518-4.68c.622-2.1,2.61-3.316,3.5-5.246,1.121-2.466.283-5.393,1.244-7.9C279.345,165.092,280.39,162.658,282.67,161.745Z" transform="translate(-43.24 -110.102)" fill="#f55959"/><path d="M292.49,181.086c1.526.336,3.241.178,4.484,1.175a4.467,4.467,0,0,1,1.432,2.613,14.089,14.089,0,0,1,.132,3.085l-.1,3.043a.525.525,0,0,1-.075.315.442.442,0,0,1-.32.084l-23.552.094a6.919,6.919,0,0,1,.612-4.952,11.475,11.475,0,0,1,2.374-3.421c1.432-1.207,4.767-1.312,6.34-2.308.414-.252,0-.619.5-.755s.264-.734.716-.745a15.182,15.182,0,0,1,4.136.2C290.324,179.89,291.237,180.8,292.49,181.086Z" transform="translate(-43.281 -109.214)" fill="#454595"/><path d="M283.826,182.179a5.946,5.946,0,0,0-.226,1.291,2.937,2.937,0,0,0,1.243,2.476,2.573,2.573,0,0,0,2.572.147,4.186,4.186,0,0,0,1.884-2.413,10.422,10.422,0,0,0,.48-3.242,29.612,29.612,0,0,0-.235-4.386.974.974,0,0,0-.13-.68.8.8,0,0,0-.529-.369h-.2a3.5,3.5,0,0,0-3.768,2.371,8.9,8.9,0,0,0-.32,1.647q-.313,1.6-.773,3.158Z" transform="translate(-43.821 -109.425)" fill="url(#m)"/><path d="M284.459,179.8s-.141,1.343.405,1.847,2.7,1.668,3.768,0a9.082,9.082,0,0,0,1.234-3.578Z" transform="translate(-43.87 -109.272)" fill="url(#n)"/><path d="M281.26,176c.273.986,1.941,4.459,4.23,5.089,4.946,1.364,6.444-8.32,6.2-10.356a8.661,8.661,0,0,0-2.27-4.417,3.993,3.993,0,0,0-4.494-.577C281.043,167.587,280.045,171.795,281.26,176Z" transform="translate(-43.657 -109.901)" fill="url(#o)"/><path d="M279.586,170.7a1.081,1.081,0,0,0,.763.85,2.558,2.558,0,0,0,1.187-.367c.471-.157.942-.094,1.46-.294a.947.947,0,0,0,.565-1.28c-.141.672.659,1.112,1.272,1.049a3.6,3.6,0,0,1,1.828-.126l.236-1.343a1.256,1.256,0,0,0,.725,1.322,2.111,2.111,0,0,0,1.479,0c.217-.063.48-.252.4-.483.5.672,1.46.388,2.186,0a.549.549,0,0,0,.283-.241.638.638,0,0,0,0-.42,15.35,15.35,0,0,0-1.253-3.767,4.494,4.494,0,0,0-2.826-2.371,5.268,5.268,0,0,0-2.063.126,7.385,7.385,0,0,0-4.607,2.885C280.368,167.366,279.218,169.286,279.586,170.7Z" transform="translate(-43.585 -110.005)" fill="#f55959"/><path d="M282.912,126.145a10.2,10.2,0,0,1,5.351-.3,7.056,7.056,0,0,1,2.9.934c2.883,1.9,2.2,4.617,2.468,7.586a2.852,2.852,0,0,0,1.347,2.35c.546.262,1.206.231,1.667.651a2.272,2.272,0,0,1,.443,2.1c-.16.724-.48,1.4-.612,2.1a1.261,1.261,0,0,0,.085.85c.2.325.6.378.942.525a2.87,2.87,0,0,1,1.347,2.319c.113.955,0,1.92.066,2.885a11.649,11.649,0,0,1,.141,1.815,3.971,3.971,0,0,1-3.448,3.462,10.377,10.377,0,0,1-4.908-.976,9.633,9.633,0,0,0-4.918-.881c-1.79.325-3.684,1.626-5.266.651a3.617,3.617,0,0,1-1.423-2.99,11.145,11.145,0,0,1,.65-3.441,1.7,1.7,0,0,0,.085-1.1,2.054,2.054,0,0,0-.612-.661c-2.318-2-1.47-9.621-.49-12.213C279.586,129.5,280.632,127.068,282.912,126.145Z" transform="translate(-43.481 -111.854)" fill="#f55959"/><path d="M292.489,145.493c1.526.336,3.241.178,4.484,1.175a4.467,4.467,0,0,1,1.432,2.613,13.881,13.881,0,0,1,.1,3.148l-.1,3.043a.49.49,0,0,1-.075.3.4.4,0,0,1-.32.094l-23.552.094a6.919,6.919,0,0,1,.612-4.952,11.474,11.474,0,0,1,2.374-3.42c1.432-1.207,4.767-1.312,6.34-2.308.415-.252,0-.619.5-.755s.264-.734.716-.745a15.182,15.182,0,0,1,4.136.2C290.322,144.3,291.236,145.21,292.489,145.493Z" transform="translate(-43.28 -110.963)" fill="#454595"/><path d="M283.826,146.589a5.947,5.947,0,0,0-.226,1.291,2.937,2.937,0,0,0,1.243,2.476,2.573,2.573,0,0,0,2.572.147,4.186,4.186,0,0,0,1.884-2.413,10.422,10.422,0,0,0,.48-3.242,29.612,29.612,0,0,0-.235-4.386.974.974,0,0,0-.13-.68.8.8,0,0,0-.529-.369h-.2a3.5,3.5,0,0,0-3.768,2.371,8.9,8.9,0,0,0-.32,1.647q-.313,1.6-.773,3.158Z" transform="translate(-43.821 -111.177)" fill="url(#m)"/><path d="M284.459,144.211s-.141,1.343.405,1.847,2.7,1.668,3.768,0a9.082,9.082,0,0,0,1.234-3.578Z" transform="translate(-43.87 -111.024)" fill="url(#n)"/><path d="M281.26,140.412c.273.986,1.941,4.459,4.23,5.089,4.946,1.364,6.444-8.32,6.2-10.356a8.661,8.661,0,0,0-2.27-4.417,3.993,3.993,0,0,0-4.494-.577C281.043,132,280.045,136.2,281.26,140.412Z" transform="translate(-43.657 -111.653)" fill="url(#r)"/><path d="M223.68,178.878a14.959,14.959,0,0,1,6.246-1.186c2.327-.1,4.823-.136,6.755.986a10.074,10.074,0,0,1,2.412,2.161,3.657,3.657,0,0,1,.65.892,3.148,3.148,0,0,1,.188,1.322V189.2a2.529,2.529,0,0,1-.188,1.186c-.509,1.049,1.272,1.049,0,1.049H218.47c.339,0,.7-3.5.688-3.861,0-1.217-.339-2.256.188-3.4a10.4,10.4,0,0,1,4.334-5.3Z" transform="translate(-40.049 -109.293)" fill="#454595"/><path d="M229.486,181.33a2.969,2.969,0,0,0,2.336.8,2.693,2.693,0,0,0,1.884-2.476c.141-1.1-.085-2.235,0-3.358a7.821,7.821,0,0,0,0-2.1,2.892,2.892,0,0,0-2.346-2,3.16,3.16,0,0,0-2.826,1.154c-.989,1.228-.688,2.7-.735,4.2A4.88,4.88,0,0,0,229.486,181.33Z" transform="translate(-40.589 -109.563)" fill="#a67c52"/><path d="M228.08,176s1.112,3.588,3.25,3.588,2.44-1.207,2.44-1.207l-.094-1.931Z" transform="translate(-40.606 -109.374)" fill="url(#s)"/><path d="M235.634,172.208a13.065,13.065,0,0,1-.471,3.148,4.926,4.926,0,0,1-1.63,2.529,3.669,3.669,0,0,1-3.768.315,6.048,6.048,0,0,1-2.826-3.032,12.294,12.294,0,0,1-1.14-4.2,6.725,6.725,0,0,1,.537-3.284,4.16,4.16,0,0,1,2.449-2.1,8.6,8.6,0,0,1,3.137-.357,5.248,5.248,0,0,1,2.515.535,2.429,2.429,0,0,1,1.262,2.5C235.521,169.491,235.7,170.886,235.634,172.208Z" transform="translate(-40.472 -109.905)" fill="#a67c52"/><path d="M227.029,171.9c-.273-.157-.424-.567-.725-.6a.471.471,0,0,0-.443.315,1.164,1.164,0,0,0,0,.619,2.3,2.3,0,0,0,.631,1.27,1.205,1.205,0,0,1,.367.462,1.164,1.164,0,0,1,0,.451l-.122,1.049a1.838,1.838,0,0,1-1.008-1.186c-.075-.22-.151-.651-.415-.713s-.443.315-.763,0a.689.689,0,0,1-.141-.829c-.3.367-.942,0-1-.451a1.274,1.274,0,0,1,.641-1.2,1.441,1.441,0,0,1-.942-1.154.885.885,0,0,1,.716-1,.846.846,0,0,1,.226,0,1.43,1.43,0,0,1,0-1.626,1.738,1.738,0,0,1,1.394-.713v-1.595a2.114,2.114,0,0,1,.207-1.049.53.53,0,0,1,.782-.157h.047c.066-.745.236-1.626.857-1.889a1.728,1.728,0,0,1,1.413.3,1.546,1.546,0,0,1,1.065-1.4,1.891,1.891,0,0,1,1.677.4.441.441,0,0,0,.207.126.468.468,0,0,0,.292,0,1.74,1.74,0,0,1,1.4-.384,1.865,1.865,0,0,1,1.235.835,2.291,2.291,0,0,1,.311,1.721c0-.346.471-.367.773-.283a1.655,1.655,0,0,1,.942.493,1.954,1.954,0,0,1-.085,1.983,1.282,1.282,0,0,1,1.206,1.207c.1,1.186-.942,1.207-1.507,1.847-.377.43-.546,1.049-.942,1.437a1.65,1.65,0,0,1-1.762.084A13.566,13.566,0,0,1,232,169.237a1.124,1.124,0,0,0-.857-.252c-.424.094-.669.609-1.046.85a1.512,1.512,0,0,1-1.131.115c-.462-.1-.942-.2-1.3.273A5.265,5.265,0,0,0,227.029,171.9Z" transform="translate(-40.317 -110.124)" fill="#f55959"/><path d="M226.75,171.888q-.046-.129-.1-.252a.233.233,0,0,0-.207-.136.212.212,0,0,0-.16.189.665.665,0,0,0,0,.273,2.524,2.524,0,0,0,.188.535.869.869,0,0,0,.2.294.758.758,0,0,0,.32.147.145.145,0,0,0,.132,0,.174.174,0,0,0,.047-.094c0-.157.094-.493,0-.63s-.132,0-.2-.084a.511.511,0,0,1-.217-.241Z" transform="translate(-40.5 -109.596)" opacity="0.5" fill="url(#t)" style="isolation:isolate"/><path d="M284.769,133.839a18.426,18.426,0,0,0,3.156.734c.066.693.151,1.385.264,2.1a2.452,2.452,0,0,0,.236.818,1.417,1.417,0,0,0,.942.672,3.751,3.751,0,0,0,1.187,0,.629.629,0,0,1,.509.094.8.8,0,0,1,.169.294l.7,1.826a.128.128,0,0,0,.131,0,.157.157,0,0,0,.077-.118.769.769,0,0,0,0-.294,4.4,4.4,0,0,1,.593-2.1c.669-1.71.226-3.693-.349-5.456a8.914,8.914,0,0,0-1.027-2.287,6.2,6.2,0,0,0-4.475-2.371,4.749,4.749,0,0,0-2.506.241,3.822,3.822,0,0,0-2.054,3.221C282.3,132.674,283.733,133.493,284.769,133.839Z" transform="translate(-43.747 -111.753)" fill="#f55959"/></svg>