<svg xmlns="http://www.w3.org/2000/svg" xmlns:xlink="http://www.w3.org/1999/xlink" width="296.488" height="227.222" viewBox="0 0 296.488 227.222"><defs><linearGradient id="a" x1="0.557" y1="0.577" x2="-0.074" y2="1.489" gradientUnits="objectBoundingBox"><stop offset="0" stop-color="#010101" stop-opacity="0"/><stop offset="0.95" stop-color="#010101"/></linearGradient><linearGradient id="b" x1="0.247" y1="0.813" x2="2.351" y2="-0.881" gradientUnits="objectBoundingBox"><stop offset="0" stop-color="#fff" stop-opacity="0"/><stop offset="0.95" stop-color="#fff"/></linearGradient><linearGradient id="c" x1="0.394" y1="0.873" x2="1.017" y2="-1.183" xlink:href="#b"/><linearGradient id="d" x1="0.314" y1="0.81" x2="0.786" y2="-0.752" xlink:href="#a"/><linearGradient id="e" x1="0" y1="0.5" x2="1" y2="0.5" xlink:href="#b"/><linearGradient id="f" x1="0.001" y1="0.499" x2="1.001" y2="0.499" xlink:href="#a"/><linearGradient id="g" x1="-3.567" y1="0.339" x2="-2.433" y2="0.339" xlink:href="#a"/><linearGradient id="h" x1="2.85" y1="0.391" x2="-16.851" y2="1.312" xlink:href="#b"/><linearGradient id="i" x1="0" y1="0.5" x2="1" y2="0.5" xlink:href="#a"/></defs><path d="M300.509,111.134l-.549,44.06-9.682,5.922L287.825,128.3l-98.277,72.888L138.3,153.666,36.676,232.985c-2.132-4.186-4.514-8.264-6.876-12.327l109.182-85.273,51.451,47.758,89.341-64.715c.1.032-25.644-10.027-25.644-10.027.76-.606,5.438-6.431,6.256-7.09,0,0,33.04,6.731,33.2,6.8C298.281,109.853,296.073,108.674,300.509,111.134Z" transform="translate(-29.8 -101.31)" fill="#454595" opacity="0.24" style="isolation:isolate"/><rect width="48.448" height="18.903" rx="9.451" transform="translate(246.447 49.553)" fill="#454595" opacity="0.24" style="isolation:isolate"/><rect width="69.453" height="27.097" rx="13.549" transform="translate(197.671 197.113)" fill="#454595" opacity="0.24" style="isolation:isolate"/><rect width="63.245" height="24.953" rx="12.477" transform="translate(16.241 134.215)" fill="#454595" opacity="0.24" style="isolation:isolate"/><rect width="49.358" height="21.32" rx="10.61" transform="translate(36.283 193.972)" fill="#454595" opacity="0.24" style="isolation:isolate"/><g transform="translate(183.163 59.784)" opacity="0.37" style="isolation:isolate"><path d="M410.43,254.5q0-19.7,9.071-30.666t25.268-10.971q16.6,0,25.581,10.778t8.984,30.2q0,14.1-3.927,23.126a31.75,31.75,0,0,1-11.342,14.042q-7.411,5-18.483,5-11.246,0-18.618-4.336t-11.929-13.693Q410.43,268.6,410.43,254.5Zm20.548.113q0,12.182,3.744,17.5a12.54,12.54,0,0,0,20.432.107q3.628-5.215,3.628-18.7,0-11.357-3.787-16.614a11.876,11.876,0,0,0-10.274-5.2A11.664,11.664,0,0,0,434.765,237Q430.982,242.321,430.978,254.61Z" transform="translate(-410.43 -212.86)" fill="#454595"/></g><g transform="translate(49.618 64.565)" opacity="0.37" style="isolation:isolate"><path d="M132.91,272.9l19.662-1.372q.64,5.359,2.6,8.13a10.494,10.494,0,0,0,9.143,4.523q4.427,0,6.819-2.315a7.3,7.3,0,0,0,2.406-5.359,7.16,7.16,0,0,0-2.281-5.183q-2.281-2.288-10.587-4.32-13.594-3.4-19.388-9.041a19.131,19.131,0,0,1-5.837-14.379,21.131,21.131,0,0,1,2.988-10.847,20.469,20.469,0,0,1,8.984-8.039q6-2.932,16.448-2.921,12.819,0,19.547,5.311t8.007,16.893l-19.494,1.281q-.78-5.032-3.263-7.316a9.781,9.781,0,0,0-6.867-2.288,7.7,7.7,0,0,0-5.428,1.7,5.445,5.445,0,0,0-1.824,4.143,4.3,4.3,0,0,0,1.506,3.216q1.444,1.468,6.934,2.744,13.551,3.248,19.412,6.576a21.255,21.255,0,0,1,8.527,8.259,22.749,22.749,0,0,1,2.656,11.008,25.58,25.58,0,0,1-3.561,13.211,22.969,22.969,0,0,1-9.942,9.17q-6.386,3.125-16.106,3.125-17.054,0-23.627-7.316T132.91,272.9Z" transform="translate(-132.91 -221.78)" fill="#454595"/><path d="M280.52,224.17H335.9v15.907H301.231V251.91H333.39V267.1H301.231v14.685H336.9v16.866H280.52Z" transform="translate(-209.489 -222.889)" fill="#454595"/></g><path d="M134.05,250.793l19.662-1.372q.635,5.359,2.6,8.13a10.526,10.526,0,0,0,9.143,4.523q4.422,0,6.819-2.315a7.275,7.275,0,0,0,2.406-5.359,7.16,7.16,0,0,0-2.281-5.183q-2.281-2.288-10.587-4.32-13.6-3.4-19.388-9.041a19.164,19.164,0,0,1-5.842-14.379,21.131,21.131,0,0,1,2.988-10.847,20.507,20.507,0,0,1,8.989-8.039q6-2.937,16.443-2.921,12.819,0,19.552,5.311t8,16.893l-19.479,1.27q-.77-5.032-3.263-7.316a9.8,9.8,0,0,0-6.862-2.288,7.678,7.678,0,0,0-5.428,1.7,5.443,5.443,0,0,0-1.829,4.137A4.3,4.3,0,0,0,157.2,222.6q1.444,1.479,6.934,2.749,13.546,3.248,19.412,6.576a21.248,21.248,0,0,1,8.532,8.259,22.818,22.818,0,0,1,2.666,11.024,25.623,25.623,0,0,1-3.556,13.211,23.013,23.013,0,0,1-9.947,9.17q-6.386,3.13-16.1,3.124-17.064,0-23.632-7.316T134.05,250.793Z" transform="translate(-83.884 -146.955)" fill="#fff"/><path d="M281.65,202.06h55.382v15.9H302.361V229.8h32.164v15.194H302.361v14.685h35.677v16.845H281.65Z" transform="translate(-160.457 -148.064)" fill="#fff"/><rect width="191.339" height="25.119" rx="12.56" transform="translate(53.087 163.472)" fill="#fff"/><path d="M326.339,404.916a7.1,7.1,0,0,0-2.887-.606H146.016c-4.369,0-7.912,3.94-7.926,8.805v9.647c.011,4.867,3.555,8.808,7.926,8.811H323.471c4.356-.032,7.88-3.959,7.906-8.811v-9.647A8.84,8.84,0,0,0,326.339,404.916Zm3.1,17.868c-.008,3.67-2.677,6.642-5.972,6.651H146.016c-3.3,0-5.98-2.974-5.991-6.651v-9.647c.013-3.675,2.692-6.646,5.991-6.646H323.471c3.293.009,5.961,2.978,5.972,6.646Z" transform="translate(-85.98 -241.92)" fill="#454595" opacity="0.24" style="isolation:isolate"/><g transform="translate(59.689 170.75)" opacity="0.56" style="isolation:isolate"><path d="M154.1,429.917a2.4,2.4,0,0,0,1.294.434c.712,0,1.044-.4,1.044-.9s-.279-.8-1-1.1c-.962-.386-1.444-.981-1.444-1.7a1.739,1.739,0,0,1,1.862-1.763,2.488,2.488,0,0,1,1.328.37l-.245.8a1.933,1.933,0,0,0-1.1-.348.819.819,0,0,0-.9.82c0,.45.322.718,1.025,1.018a1.87,1.87,0,0,1,1.415,1.811,1.78,1.78,0,0,1-2.016,1.8,2.844,2.844,0,0,1-1.516-.413Z" transform="translate(-153.84 -422.221)" fill="#454595"/><path d="M163.968,428.243a2.057,2.057,0,0,0,.487,1.505,1.636,1.636,0,0,0,1.341.574,3.2,3.2,0,0,0,1.5-.311l.168.782a3.946,3.946,0,0,1-1.795.375c-1.665,0-2.656-1.217-2.656-3.033s.962-3.216,2.531-3.216c1.761,0,2.228,1.726,2.228,2.83q0,.255-.029.509Zm2.887-.782c0-.7-.26-1.774-1.362-1.774-.991,0-1.444,1.013-1.506,1.774Z" transform="translate(-158.597 -422.235)" fill="#454595"/><path d="M177.952,431.032l-.077-.756h-.034a1.95,1.95,0,0,1-1.651.895,1.449,1.449,0,0,1-1.165-.46,1.813,1.813,0,0,1-.486-1.265c0-1.452,1.16-2.246,3.243-2.235v-.118a1.328,1.328,0,0,0-.307-1.028,1.048,1.048,0,0,0-.915-.366,2.473,2.473,0,0,0-1.405.45l-.226-.724a3.111,3.111,0,0,1,1.776-.536c1.651,0,2.05,1.254,2.05,2.455V429.6a9.307,9.307,0,0,0,.087,1.436Zm-.144-3.066c-1.068-.027-2.286.188-2.286,1.356a1.03,1.03,0,0,0,.248.756.819.819,0,0,0,.676.284,1.351,1.351,0,0,0,1.3-1,1.257,1.257,0,0,0,.058-.348Z" transform="translate(-164.579 -422.221)" fill="#454595"/><path d="M186.533,426.9c0-.707,0-1.318-.043-1.876h.857l.034,1.179h.043a1.667,1.667,0,0,1,1.5-1.313.913.913,0,0,1,.279.038v1.029a1.263,1.263,0,0,0-.337-.038,1.453,1.453,0,0,0-1.314,1.4,3.148,3.148,0,0,0-.043.509v3.216h-.962Z" transform="translate(-170.779 -422.221)" fill="#454595"/><path d="M197.341,430.817a3.274,3.274,0,0,1-1.549.348c-1.626,0-2.685-1.233-2.685-3.071a3.246,3.246,0,0,1,.807-2.309,2.589,2.589,0,0,1,2.08-.879,3,3,0,0,1,1.362.311l-.226.847a2.061,2.061,0,0,0-1.136-.289,2.012,2.012,0,0,0-1.925,2.272,2.213,2.213,0,0,0,.486,1.59,1.768,1.768,0,0,0,1.386.661,2.573,2.573,0,0,0,1.2-.3Z" transform="translate(-174.21 -422.226)" fill="#454595"/><path d="M204.29,419.91h.962v3.752h0a1.983,1.983,0,0,1,.7-.772,1.906,1.906,0,0,1,1.006-.305c.727,0,1.882.493,1.882,2.567v3.575h-.962v-3.451c0-.965-.322-1.785-1.246-1.785a1.435,1.435,0,0,0-1.314,1.072,1.4,1.4,0,0,0-.067.536v3.623h-.962Z" transform="translate(-180.013 -419.91)" fill="#454595"/></g><path d="M511.455,413.882v9.932a9.45,9.45,0,0,1-3.157,7.223H485.2v-25.6h21.221A9.132,9.132,0,0,1,511.455,413.882Z" transform="translate(-266.057 -242.445)" fill="#f55959"/><path d="M499.044,424.726c-3.756,0-6.8-3.387-6.8-7.571s3.046-7.577,6.8-7.575,6.8,3.393,6.8,7.576-3.045,7.56-6.795,7.569Zm0-13.034a5.5,5.5,0,1,0,4.9,5.467A5.209,5.209,0,0,0,499.044,411.692Z" transform="translate(-269.709 -244.366)" fill="#fff"/><path d="M.528.155,2.658.042l-.4,7.78-2.13.113Z" transform="matrix(0.784, -0.62, 0.62, 0.784, 231.224, 178.302)" fill="#fff"/><path d="M472.72,209.345q-8.787-10.129-24.98-10.145-15.817,0-24.691,10.317c-5.89,6.908-8.859,16.512-8.859,28.882q0,13.275,4.48,22.1t11.684,12.905q7.185,4.084,18.18,4.078,10.813,0,18.041-4.727a30.255,30.255,0,0,0,11.068-13.206q3.8-8.521,3.816-21.781Q481.468,219.517,472.72,209.345Zm-38.449,29.16q0-11.592,3.662-16.577a11.392,11.392,0,0,1,9.143-4.963,2.82,2.82,0,0,1,.6-.043,11.914,11.914,0,0,1,10.038,4.92,17.842,17.842,0,0,1,2.945,7.208,42.03,42.03,0,0,1,.755,8.42c0,1.9-.058,3.644-.173,5.284q-.616,8.521-3.368,12.327a12.533,12.533,0,0,1-19.961-.107c-2.406-3.323-3.623-8.72-3.643-16.255Z" transform="translate(-229.218 -146.737)" fill="#fff"/><path d="M482.922,247.7q-.616,8.521-3.368,12.327a12.533,12.533,0,0,1-19.961-.107c-2.406-3.323-3.624-8.72-3.643-16.255q.427-2.1,1.044-4.143a14.105,14.105,0,0,0,4.418-4.555c1.689-2.782,2.56-6.19,4.673-8.575a13.9,13.9,0,0,0,2.074-2.444,5.291,5.291,0,0,0,.6-2.026,34.4,34.4,0,0,0-.058-4.448,15.567,15.567,0,0,1,1.9-7.616c4.013.064,7.964,2.09,11.9,2.889,1.723,3.216-1.28,7.364-.448,11.008.294,1.3,1.068,2.4,1.4,3.693.544,2.2-.289,4.357-1.1,6.56a23.936,23.936,0,0,0-.934,3.044C480.641,240.6,481.651,244.235,482.922,247.7Z" transform="translate(-250.883 -151.684)" fill="#454595"/><path d="M482.922,247.7q-.616,8.521-3.368,12.327a12.533,12.533,0,0,1-19.961-.107c-2.406-3.323-3.624-8.72-3.643-16.255q.427-2.1,1.044-4.143a14.105,14.105,0,0,0,4.418-4.555c1.689-2.782,2.56-6.19,4.673-8.575a13.9,13.9,0,0,0,2.074-2.444,5.291,5.291,0,0,0,.6-2.026,34.4,34.4,0,0,0-.058-4.448,15.567,15.567,0,0,1,1.9-7.616c4.013.064,7.964,2.09,11.9,2.889,1.723,3.216-1.28,7.364-.448,11.008.294,1.3,1.068,2.4,1.4,3.693.544,2.2-.289,4.357-1.1,6.56a23.936,23.936,0,0,0-.934,3.044C480.641,240.6,481.651,244.235,482.922,247.7Z" transform="translate(-250.883 -151.684)" fill="url(#a)"/><path d="M485.1,250.307q-.481,8.516-2.526,12.327c-1.771,3.259-4.268,4.9-7.507,4.9q-4.706,0-7.449-5.011c-1.8-3.323-2.714-8.72-2.728-16.25q.322-2.144.784-4.143a13.313,13.313,0,0,0,3.311-4.555c1.261-2.787,1.925-6.2,3.5-8.575a14.088,14.088,0,0,0,1.554-2.439,6.718,6.718,0,0,0,.448-2.031q.086-2.221-.043-4.443a19.877,19.877,0,0,1,1.444-7.621c3,.064,5.967,2.1,8.912,2.894,1.294,3.216-.962,7.358-.332,11.008.217,1.292.8,2.4,1.044,3.687.409,2.2-.217,4.363-.828,6.565q-.423,1.5-.7,3.039C483.4,243.206,484.158,246.85,485.1,250.307Z" transform="translate(-255.52 -152.895)" fill="url(#b)"/><path d="M480.721,235.04l.626-.777a18.339,18.339,0,0,1-3.368,11.121c-1.044,1.436-2.344,2.765-2.748,4.561a21.571,21.571,0,0,0,8.258-13.774c.337-1.988.481-4.164,1.617-5.735l.236,2.739a59.655,59.655,0,0,0,2.584-6.56c.144-.434.26-.991-.053-1.3a1,1,0,0,0-.611-.22c-1.925-.209-4.061-.922-5.053,1.254C481.077,228.85,480.817,232.306,480.721,235.04Z" transform="translate(-260.885 -158.625)" fill="url(#c)"/><path d="M484.728,212.48s-.274,4.405.481,5.7,5.866,3.8,7.844,2.68a13.618,13.618,0,0,0,3.344-2.808l1-4.073Z" transform="translate(-265.787 -152.9)" fill="#454595"/><path d="M484.728,212.48s-.274,4.405.481,5.7,5.866,3.8,7.844,2.68a13.618,13.618,0,0,0,3.344-2.808l1-4.073Z" transform="translate(-265.787 -152.9)" fill="url(#d)"/><path d="M482.56,167.106s2.18-33.228,13.82-36.867,1.444,44.161,1.444,44.161S482.56,187.365,482.56,167.106Z" transform="translate(-264.687 -114.643)" fill="#454595"/><path d="M482.56,167.106s2.18-33.228,13.82-36.867,1.444,44.161,1.444,44.161S482.56,187.365,482.56,167.106Z" transform="translate(-264.687 -114.643)" fill="url(#e)"/><path d="M471.958,186.334c-2.671,2.824-5.443,5.82-6.554,9.733-.833,2.91-.654,6.04-.481,9.111.053.82.207,1.806.9,2.1.78.332,1.54-.5,2.016-1.265,1.617-2.583,2.979-5.461,5.216-7.38a4.429,4.429,0,0,0,1.03-1.072,4.21,4.21,0,0,0,.39-2c.125-3.805.356-7.68.375-11.453A7,7,0,0,0,471.958,186.334Z" transform="translate(-255.462 -139.734)" fill="#454595"/><path d="M471.958,186.334c-2.671,2.824-5.443,5.82-6.554,9.733-.833,2.91-.654,6.04-.481,9.111.053.82.207,1.806.9,2.1.78.332,1.54-.5,2.016-1.265,1.617-2.583,2.979-5.461,5.216-7.38a4.429,4.429,0,0,0,1.03-1.072,4.21,4.21,0,0,0,.39-2c.125-3.805.356-7.68.375-11.453A7,7,0,0,0,471.958,186.334Z" transform="translate(-255.462 -139.734)" fill="url(#f)"/><path d="M518.281,192.138c2,3.451,4.052,7.1,4.3,11.185a27,27,0,0,1-1.482,8.956c-.221.782-.582,1.7-1.314,1.806-.832.118-1.391-.9-1.694-1.763-1.02-2.932-1.732-6.088-3.5-8.543a4.79,4.79,0,0,1-.775-1.3,4.341,4.341,0,0,1,.043-2.047c.688-3.752,1.285-7.551,2.074-11.255A7.907,7.907,0,0,1,518.281,192.138Z" transform="translate(-280.852 -142.087)" fill="#454595"/><path d="M518.247,192.318c1.992,3.446,4.047,7.09,4.3,11.185a26.925,26.925,0,0,1-1.482,8.956c-.221.782-.582,1.7-1.314,1.8-.828.118-1.391-.9-1.694-1.763-1.02-2.932-1.732-6.083-3.494-8.538a4.677,4.677,0,0,1-.775-1.3,4.278,4.278,0,0,1,.039-2.047c.688-3.752,1.29-7.557,2.074-11.255A7.919,7.919,0,0,1,518.247,192.318Z" transform="translate(-280.832 -142.171)" fill="url(#g)"/><path d="M491.117,244.943a19.184,19.184,0,0,0-1.164,4.17c-.173,1.426-.029,2.878-.144,4.288-.226,2.9-1.482,5.568-2.18,8.382-.991,4.009-.823,8.243-.645,12.391l4.268-15.3a26.155,26.155,0,0,0,.962-4.288,37.3,37.3,0,0,0-.024-4.973,55.453,55.453,0,0,1,.529-8.666A20.149,20.149,0,0,0,491.117,244.943Z" transform="translate(-266.912 -166.111)" fill="url(#h)"/><ellipse cx="3.445" cy="3.837" rx="3.445" ry="3.837" transform="translate(225.899 33.443)" fill="#454595"/><ellipse cx="2.805" cy="3.125" rx="2.805" ry="3.125" transform="translate(226.515 34.145)" fill="url(#i)"/><rect width="66.753" height="26.041" rx="13.021" transform="translate(200.289 201.181)" fill="#fff"/><rect width="54.054" height="2.24" rx="1.12" transform="translate(207.199 208.319)" fill="#454595" opacity="0.24" style="isolation:isolate"/><rect width="38.044" height="2.117" rx="1.058" transform="translate(207.199 214.515)" fill="#454595" opacity="0.24" style="isolation:isolate"/><rect width="66.753" height="26.041" rx="13.021" transform="translate(10.255 128.572)" fill="#fff"/><rect width="54.054" height="2.24" rx="1.12" transform="translate(17.17 135.71)" fill="#454595" opacity="0.24" style="isolation:isolate"/><rect width="38.044" height="2.117" rx="1.058" transform="translate(17.17 141.906)" fill="#454595" opacity="0.24" style="isolation:isolate"/><rect width="48.448" height="18.903" rx="9.451" transform="translate(35.128 196.673)" fill="#fff"/><rect width="39.233" height="1.624" rx="0.812" transform="translate(40.147 201.856)" fill="#454595" opacity="0.24" style="isolation:isolate"/><rect width="27.617" height="1.538" rx="0.769" transform="translate(40.147 206.353)" fill="#454595" opacity="0.24" style="isolation:isolate"/><rect width="48.448" height="18.903" rx="9.451" transform="translate(248.04 43.679)" fill="#fff"/><rect width="39.233" height="1.624" rx="0.812" transform="translate(253.059 48.862)" fill="#454595" opacity="0.24" style="isolation:isolate"/><rect width="27.617" height="1.538" rx="0.769" transform="translate(253.059 53.358)" fill="#454595" opacity="0.24" style="isolation:isolate"/><rect width="0.727" height="15.799" transform="translate(90.554 167.116)" fill="#454595" opacity="0.24" style="isolation:isolate"/></svg>