<svg xmlns="http://www.w3.org/2000/svg" width="130.734" height="32.784" viewBox="0 0 130.734 32.784"><path d="M.036,36.66H.452v.759H.036Zm1.678,0h.432v.759H1.713V36.66Zm1.694,0h.433v.759H3.408ZM7.12,35.43l-.613.9c-.18.253-.54.687-.9.687-.215,0-.252-.181-.252-.362a4.01,4.01,0,0,1,.288-1.266c.216-.47.432-.869,1.009-.869a2.024,2.024,0,0,1,.65.11ZM6.8,37.059l-.072.4.938-.036v-.29l-.253-.037.108-.542.54-2.93.217-.869-.938.037-.035.29.252.037-.072.506-.108.615a3.146,3.146,0,0,0-.541-.072c-1.153,0-2.091,1.519-2.091,2.6,0,.4.18.723.613.723.685,0,1.333-.867,1.658-1.41h.037l-.253.977Zm3.533-2.534a.373.373,0,0,1,.36.4c0,.29-.325.94-1.406,1.013.036-.542.432-1.411,1.045-1.411ZM9.247,36.189c1.406-.037,1.983-.8,1.983-1.411a.6.6,0,0,0-.649-.614,2.216,2.216,0,0,0-1.946,2.242.98.98,0,0,0,.973,1.086,2.726,2.726,0,0,0,1.55-.579l.072-.4a2.494,2.494,0,0,1-1.3.579.716.716,0,0,1-.686-.8V36.19ZM13.212,34.6l.071-.4-.9.037-.036.288.252.037-.071.508-.288,1.483-.217.868h.65l.215-1.194c.253-.4.974-1.519,1.478-1.519.144,0,.216.107.216.253,0,.073-.036.144-.036.253l-.288,1.338-.181.868h.937l.037-.29-.253-.037.036-.542.288-1.338a2.429,2.429,0,0,0,.073-.506.5.5,0,0,0-.505-.543c-.65,0-1.37.869-1.658,1.374h-.037l.217-.94m4,0,.072-.4-.9.037-.036.288.252.037-.036.508-.325,1.483-.179.868h.612l.216-1.194c.253-.4.973-1.519,1.478-1.519.145,0,.216.107.216.253a.716.716,0,0,1-.036.253l-.253,1.338-.216.868h.938l.035-.29-.252-.037.072-.542.252-1.338a2.427,2.427,0,0,0,.072-.506.5.5,0,0,0-.5-.543c-.649,0-1.37.869-1.658,1.374H17l.217-.94m6.38,2.5H22.511l.108-.543.5-2.606.144-.543.252-.035.073-.29H22.367v.29l.253.035-.108.543-.5,2.606-.144.543-.253.037-.109.288h2.992l.109-.686-.288.036-.108.253-.613.072m3.353-2.569a.372.372,0,0,1,.36.4c0,.29-.324.94-1.405,1.013.036-.542.432-1.411,1.045-1.411Zm-1.082,1.665c1.405-.037,1.982-.8,1.982-1.411a.6.6,0,0,0-.649-.614,2.217,2.217,0,0,0-1.946,2.242.98.98,0,0,0,.973,1.086,2.726,2.726,0,0,0,1.55-.579l.072-.4a2.491,2.491,0,0,1-1.3.579.715.715,0,0,1-.685-.8V36.19Zm3.569.037.649-.9c.18-.217.541-.687.865-.687.217,0,.288.216.288.4a2.959,2.959,0,0,1-.325,1.23c-.179.507-.4.869-1.008.869a1.217,1.217,0,0,1-.613-.11l.145-.8Zm-.865,1.266.468-.145a1.456,1.456,0,0,0,.684.145c1.189,0,2.126-1.519,2.126-2.569a.676.676,0,0,0-.649-.759c-.685,0-1.333.869-1.622,1.41h-.036l.4-1.952.217-.869-.938.037-.036.29.253.037-.072.506-.541,2.857-.252,1.013Zm5.514-2.967a.373.373,0,0,1,.36.4c0,.29-.325.94-1.442,1.013.072-.542.469-1.411,1.081-1.411ZM33,36.189c1.406-.037,1.983-.8,1.983-1.411a.608.608,0,0,0-.685-.614,2.189,2.189,0,0,0-1.91,2.242.961.961,0,0,0,.973,1.086,2.826,2.826,0,0,0,1.551-.579l.072-.4a2.494,2.494,0,0,1-1.3.579c-.468,0-.685-.361-.685-.8V36.19ZM36.964,34.6l.072-.4-.937.037v.288l.252.037-.071.508-.288,1.483-.216.868h.613l.252-1.194c.217-.4.973-1.519,1.442-1.519a.228.228,0,0,1,.253.253c0,.073-.037.144-.037.253l-.288,1.338-.216.868h.973v-.29l-.252-.037.072-.542.288-1.338a2.488,2.488,0,0,0,.072-.506.532.532,0,0,0-.541-.543c-.648,0-1.333.869-1.622,1.374h-.037l.216-.94m5.407-.939h.576l.108-.579h-.576l-.109.579Zm-.541,2.822-.253.941h.974v-.29l-.253-.037.108-.542.253-1.483.217-.869-.938.037-.036.288.252.037-.071.508-.253,1.41Zm1.442.759a2.124,2.124,0,0,0,1.045.253c.721,0,1.154-.326,1.154-.867,0-.761-1.082-1.194-1.082-1.736a.481.481,0,0,1,.5-.435.951.951,0,0,1,.576.217l-.036.289.288.037.145-.615a2.1,2.1,0,0,0-.938-.217c-.576,0-1.081.326-1.081.869,0,.65,1.081,1.229,1.081,1.7,0,.326-.325.469-.613.469a1.078,1.078,0,0,1-.65-.216l.037-.29-.288-.036-.144.579m3.316-.8a1.091,1.091,0,0,0-.071.362.673.673,0,0,0,.72.687,1.288,1.288,0,0,0,.5-.108l.072-.361a.822.822,0,0,1-.4.108.3.3,0,0,1-.325-.29c0-.108.037-.216.037-.326l.4-1.99h.757l.072-.288H47.6l.145-.761-.613.181-.108.579h-.4l-.072.288h.4l-.36,1.918m4.939-1.122h.108c1.045,0,1.153.542,1.153.833a1.014,1.014,0,0,1-1.189.977l-.432-.037Zm.288,2.1c1.153,0,1.586-.615,1.586-1.231a1.053,1.053,0,0,0-1.009-.976,1.535,1.535,0,0,0,1.262-1.3c0-.361-.217-.832-1.226-.832H51.058v.29l.253.035-.109.543-.5,2.606-.144.543-.252.037-.073.288h1.586ZM51.6,35.032l.325-1.664c.468,0,1.153-.037,1.153.578a1.135,1.135,0,0,1-1.189,1.086H51.6Zm4.253-.507a.353.353,0,0,1,.361.4c0,.29-.288.94-1.406,1.013.036-.542.432-1.411,1.045-1.411ZM54.77,36.189c1.442-.037,2.018-.8,2.018-1.411a.627.627,0,0,0-.685-.614,2.217,2.217,0,0,0-1.946,2.242.98.98,0,0,0,.973,1.086,2.835,2.835,0,0,0,1.586-.579l.072-.4a2.63,2.63,0,0,1-1.3.579.722.722,0,0,1-.721-.8V36.19Zm4.073.29h-.036a8.252,8.252,0,0,0-.433-2.28l-.757.037v.288l.252.037a4.373,4.373,0,0,1,.325,1.122,5.877,5.877,0,0,1,.072.833,4.118,4.118,0,0,1,0,.94h.288l.576-.9.722-1.338a6.333,6.333,0,0,1,.215,1.628l-.035.614h.289l1.009-1.519.541-.8a2.108,2.108,0,0,0,.252-.759.518.518,0,0,0-.071-.217l-.65.073a.488.488,0,0,1,.145.4,4.146,4.146,0,0,1-.938,1.808,9.537,9.537,0,0,0-.431-2.206h-.288a5.438,5.438,0,0,1-.794,1.809l-.252.434m5.369-1.955a.352.352,0,0,1,.36.4c0,.29-.288.94-1.405,1.013.037-.542.432-1.411,1.045-1.411Zm-1.081,1.665c1.441-.037,2.019-.8,2.019-1.411a.627.627,0,0,0-.685-.614,2.216,2.216,0,0,0-1.946,2.242.98.98,0,0,0,.973,1.086,2.836,2.836,0,0,0,1.586-.579l.072-.4a2.63,2.63,0,0,1-1.3.579.721.721,0,0,1-.721-.8V36.19Zm5.119-.759-.65.9c-.18.253-.54.687-.865.687-.217,0-.288-.181-.288-.362a4.01,4.01,0,0,1,.288-1.266c.216-.47.432-.869,1.009-.869a2.018,2.018,0,0,1,.65.11ZM65.835,38.5a2.493,2.493,0,0,0,.9.182,1.538,1.538,0,0,0,1.693-1.375l.433-2.135.252-1.012-.648.073a3.035,3.035,0,0,0-.541-.073c-1.154,0-2.091,1.519-2.091,2.6,0,.4.18.723.613.723.684,0,1.333-.867,1.657-1.41h.036l-.215.977-.073.253c-.108.542-.144,1.049-.828,1.049a2.519,2.519,0,0,1-1.334-.507l.145.651Zm5.983-1.446-.072.4.938-.036v-.29l-.253-.037.107-.542.253-1.483.217-.869-.938.037-.036.288.252.037-.072.508-.072.361c-.216.433-.973,1.555-1.442,1.555a.239.239,0,0,1-.216-.253.534.534,0,0,1,.037-.253l.252-1.411.217-.869-.973.037v.288l.252.037-.072.508-.288,1.41c0,.145-.036.326-.036.47a.485.485,0,0,0,.5.543c.649,0,1.369-.833,1.658-1.375h.036l-.253.942m3.1-2.46.071-.4-.9.037-.037.288.253.037-.036.508-.325,1.483-.179.868h.613l.216-1.194c.252-.4.973-1.519,1.478-1.519.144,0,.216.107.216.253a.7.7,0,0,1-.037.253L76,36.551l-.217.868h.938l.035-.29-.252-.037.072-.542.252-1.338a2.427,2.427,0,0,0,.072-.506.5.5,0,0,0-.505-.543c-.648,0-1.369.869-1.657,1.374H74.7l.217-.94m5.154.834-.65.9c-.179.253-.54.687-.865.687-.216,0-.287-.181-.287-.362a4.034,4.034,0,0,1,.287-1.266c.217-.47.433-.869,1.01-.869a2.01,2.01,0,0,1,.648.11ZM77.657,38.5a2.5,2.5,0,0,0,.9.182,1.539,1.539,0,0,0,1.694-1.375l.432-2.135.216-1.012-.613.073a3.01,3.01,0,0,0-.54-.073c-1.155,0-2.091,1.519-2.091,2.6,0,.4.18.723.613.723.684,0,1.333-.867,1.657-1.41h.037l-.216.977-.072.253c-.108.542-.144,1.049-.829,1.049a2.519,2.519,0,0,1-1.333-.507l.145.651ZM9.683,26.914a19.8,19.8,0,0,0,2.091,1.664,8.328,8.328,0,0,0,4.4,1.267,7.338,7.338,0,0,0,5.515-1.918,5.937,5.937,0,0,0,1.838-4.378,5.137,5.137,0,0,0-.9-3.255,6.658,6.658,0,0,0-3.208-2.1l-2.452-.724a1.767,1.767,0,0,1-.72-.4,1.3,1.3,0,0,1-.5-1.085c0-.869.793-1.483,1.874-1.483A5.235,5.235,0,0,1,21.037,16.1l1.8-3.762A10.069,10.069,0,0,0,17.432,10.6c-3.965,0-6.668,2.351-6.668,5.86a4.6,4.6,0,0,0,.937,3.074c.829,1.122,1.8,1.665,4.4,2.388a5.268,5.268,0,0,1,2.271,1.086,1.715,1.715,0,0,1,.253.941c0,1.085-.973,1.808-2.488,1.808-1.3,0-2.487-.723-4-2.532l-2.451,3.69M26.012,11.07h5.046v18.3H26.012Zm8.506,0v18.3H45.33V25.141H40.14a1.664,1.664,0,0,0-.613.073A1.612,1.612,0,0,0,39.6,24.6V22.718a1.61,1.61,0,0,0-.072-.615,1.684,1.684,0,0,0,.613.072H44.9V18.052H40.14a3.335,3.335,0,0,0-.613.036,1.508,1.508,0,0,0,.072-.579V15.736a1.707,1.707,0,0,0-.072-.615,1.684,1.684,0,0,0,.613.072h5.19V11.07H34.517m12.291,18.3h4.831l.793-4.919a39.057,39.057,0,0,0,.613-5.788l.18-.037a40.609,40.609,0,0,0,1.514,5.824l1.586,4.919h3.893l1.478-4.919a47.57,47.57,0,0,0,1.37-5.86h.181a40.619,40.619,0,0,0,.72,5.86l.829,4.919h4.794l-2.739-18.3H61.694l-1.946,6.475a35.244,35.244,0,0,0-1.3,5.1h-.145a44.408,44.408,0,0,0-1.333-5.1L54.918,11.07H49.763l-2.955,18.3m24.87-18.3v18.3H82.491V25.141H77.265a1.379,1.379,0,0,0-.576.073,3.21,3.21,0,0,0,.035-.615V22.718a3.2,3.2,0,0,0-.035-.615,1.4,1.4,0,0,0,.576.072h4.757V18.052H77.265a2.754,2.754,0,0,0-.576.036,2.96,2.96,0,0,0,.036-.579V15.736a3.4,3.4,0,0,0-.035-.615,1.4,1.4,0,0,0,.576.072h5.226V11.07H71.678m20.4,4.122a1.936,1.936,0,0,1,2.091,2.1,1.989,1.989,0,0,1-2.091,2.1H90.89a2.691,2.691,0,0,0-.576.037,2.79,2.79,0,0,0,.036-.579V15.736a3.36,3.36,0,0,0-.036-.615,1.4,1.4,0,0,0,.576.072Zm8.687,14.181L96.512,23.55a11.737,11.737,0,0,0-1.188-1.483V22.03a4.879,4.879,0,0,0,3.964-5.1,5.828,5.828,0,0,0-2.126-4.7,6.5,6.5,0,0,0-4-1.157H85.447v18.3h4.866V26.226a23.726,23.726,0,0,0-.217-3.617l.109-.037a27.92,27.92,0,0,0,2.162,3.509L94.6,29.374h6.165Z" transform="translate(-0.036 -5.902)" fill="#1c446b" fill-rule="evenodd"/><path d="M209.318,40.373c.029,0,24.582-3.516,32.378-23.558-3.591,17.668-16.5,23.676-32.378,23.558" transform="translate(-113.583 -9.274)" fill="#b19f47" fill-rule="evenodd"/><path d="M254.213.331c-.029,0-20.232,2.9-26.655,19.426C230.507,5.165,241.133.243,254.213.331" transform="translate(-123.479 -0.329)" fill="#a6aec1" fill-rule="evenodd"/><path d="M232.65,41.14H237.3v4.671H232.65Z" transform="translate(-126.242 -22.471)" fill="#1c446b" fill-rule="evenodd"/><path d="M242.826,30.926h4.655V35.6h-4.655Z" transform="translate(-131.763 -16.93)" fill="#667897" fill-rule="evenodd"/><path d="M253,20.713h4.655v4.671H253V20.713Z" transform="translate(-137.283 -11.389)" fill="#a6aec1" fill-rule="evenodd"/></svg>