<svg xmlns="http://www.w3.org/2000/svg" width="140.508" height="35.216" viewBox="0 0 140.508 35.216"><path d="M42.988,19.169a.852.852,0,0,0-.855-.855.832.832,0,0,0-.832.855.847.847,0,0,0,.832.855.867.867,0,0,0,.855-.855m-2.733-1.188c0-.665-.19-1.354-1.45-1.925-.547-.238-.879-.475-.879-.951a.707.707,0,0,1,.784-.76,1.822,1.822,0,0,1,.974.285l.333-.951A2.729,2.729,0,0,0,38.5,13.3a1.959,1.959,0,0,0-2.067,2.02,1.908,1.908,0,0,0,1.307,1.806c.665.285.9.547.9.974a.777.777,0,0,1-.879.784,1.881,1.881,0,0,1-1.046-.309l-.356,1.069a3.139,3.139,0,0,0,1.711.38,2.024,2.024,0,0,0,2.186-2.044m-4.824,1.972V18.908H33.626V17.1h1.568v-1H33.626V14.441h1.806V13.4H32.081V19.93h3.351Zm-6.107-4.515c0,.784-.38,1.283-1.188,1.283a.984.984,0,0,1-.333-.048v-2.4a1.16,1.16,0,0,1,.451-.1c.832,0,1.069.428,1.069,1.259m1.758,4.515-1.758-2.923h0a1.73,1.73,0,0,0,1.521-1.663c0-1.236-.808-2.044-2.59-2.044a4.545,4.545,0,0,0-1.972.38v6.25H27.8v-2.9h.024l1.545,2.9ZM23.5,16.627c0,1.711-.356,2.352-1.307,2.352a1.2,1.2,0,0,1-.451-.071V14.393a1.151,1.151,0,0,1,.428-.071c.951,0,1.331.689,1.331,2.3m1.545.024c0-1.9-.808-3.327-2.947-3.327a4.208,4.208,0,0,0-1.9.38v5.964a4.326,4.326,0,0,0,1.972.38c2.115,0,2.875-1.521,2.875-3.4" transform="translate(-19.202 -12.777)" fill="#00a7e7"/><path d="M282.252,12.454a.774.774,0,1,1,.5.974.783.783,0,0,1-.5-.974m-1.4,3.089a1.165,1.165,0,1,1,.737,1.473,1.191,1.191,0,0,1-.737-1.473m6.2-.9a.765.765,0,1,1,.166,1.069.784.784,0,0,1-.166-1.069m-2.281,2.5a1.157,1.157,0,1,1,.261,1.616,1.148,1.148,0,0,1-.261-1.616m6.178,1.046a.765.765,0,1,1-.166,1.069.758.758,0,0,1,.166-1.069M288,19.845a1.157,1.157,0,1,1-.261,1.616A1.148,1.148,0,0,1,288,19.845m5.56,2.923a.774.774,0,1,1-.5.974.773.773,0,0,1,.5-.974m-3.327.665a1.165,1.165,0,1,1-.737,1.473,1.152,1.152,0,0,1,.737-1.473m3.612,5.275a.787.787,0,0,1,.76-.784.807.807,0,0,1,.784.784.791.791,0,0,1-.784.784.771.771,0,0,1-.76-.784m-3.755,0a1.164,1.164,0,1,1,1.164,1.164,1.166,1.166,0,0,1-1.164-1.164m3.945,4.467a.774.774,0,1,1-.974.5.773.773,0,0,1,.974-.5m-3.089-1.426a1.165,1.165,0,1,1-1.473.737,1.2,1.2,0,0,1,1.473-.737m.9,6.226a.765.765,0,1,1-1.069.166.745.745,0,0,1,1.069-.166m-2.471-2.3a1.157,1.157,0,1,1-1.616.261,1.152,1.152,0,0,1,1.616-.261m-1.069,6.2a.765.765,0,1,1-1.069-.166.745.745,0,0,1,1.069.166m-1.663-2.97a1.157,1.157,0,1,1-1.616-.261,1.192,1.192,0,0,1,1.616.261m-2.923,5.56a.774.774,0,1,1-.974-.5.783.783,0,0,1,.974.5m-.665-3.327a1.165,1.165,0,1,1-1.473-.737,1.191,1.191,0,0,1,1.473.737m-6.036,4.4a.771.771,0,0,1,.784-.76.772.772,0,1,1-.784.76m-.4-3.374a1.164,1.164,0,1,1,1.164,1.164,1.166,1.166,0,0,1-1.164-1.164m-3.279,2.78a.774.774,0,1,1-.5-.974.793.793,0,0,1,.5.974m1.4-3.065a1.165,1.165,0,1,1-.737-1.473,1.18,1.18,0,0,1,.737,1.473m-6.2.9a.765.765,0,1,1-.166-1.069.78.78,0,0,1,.166,1.069m2.281-2.5a1.157,1.157,0,1,1-.261-1.616,1.152,1.152,0,0,1,.261,1.616m-6.178-1.069a.765.765,0,1,1,.166-1.069.78.78,0,0,1-.166,1.069m2.947-1.663a1.157,1.157,0,1,1,.261-1.616,1.148,1.148,0,0,1-.261,1.616m-5.56-2.9a.774.774,0,1,1,.5-.974.793.793,0,0,1-.5.974m3.327-.689a1.165,1.165,0,1,1,.737-1.473,1.133,1.133,0,0,1-.737,1.473M260.2,28.708a.791.791,0,0,1,.784-.784.771.771,0,0,1,.76.784.772.772,0,1,1-1.545,0m2.97,0a1.164,1.164,0,1,1,1.164,1.164,1.166,1.166,0,0,1-1.164-1.164m-1.616-4.467a.774.774,0,1,1,.974-.5.793.793,0,0,1-.974.5m3.089,1.4a1.165,1.165,0,1,1,1.473-.737,1.161,1.161,0,0,1-1.473.737m-.927-6.2a.765.765,0,1,1,1.069-.166.78.78,0,0,1-1.069.166m2.5,2.281a1.157,1.157,0,1,1,1.616-.261,1.125,1.125,0,0,1-1.616.261m1.069-6.178a.765.765,0,1,1,1.069.166.742.742,0,0,1-1.069-.166m1.663,2.947a1.157,1.157,0,1,1,1.616.261,1.148,1.148,0,0,1-1.616-.261m2.923-5.56a.774.774,0,1,1,.974.5.746.746,0,0,1-.974-.5m.665,3.327a1.165,1.165,0,1,1,1.473.737,1.142,1.142,0,0,1-1.473-.737m4.491-4.372a.784.784,0,1,1,.784.784.791.791,0,0,1-.784-.784m-.4,3.351a1.164,1.164,0,1,1,1.164,1.164,1.166,1.166,0,0,1-1.164-1.164m2.828,3.4a1.548,1.548,0,0,1,2.947.95,1.32,1.32,0,0,1-.214.4,2.091,2.091,0,0,0,.285-.356,1.547,1.547,0,1,1,2.5,1.83,2.05,2.05,0,0,1-.309.333,2.153,2.153,0,0,0,.38-.261,1.547,1.547,0,1,1,1.83,2.5,1.321,1.321,0,0,1-.4.214,3.305,3.305,0,0,0,.452-.143,1.548,1.548,0,0,1,.951,2.947,1.492,1.492,0,0,1-.452.071l.024.071a1.383,1.383,0,0,1,.451-.071,1.545,1.545,0,0,1,0,3.089,1.383,1.383,0,0,1-.451-.071l-.024.071a1.492,1.492,0,0,1,.452.071,1.548,1.548,0,0,1-.951,2.947,1.321,1.321,0,0,1-.4-.214,2.088,2.088,0,0,0,.356.285,1.547,1.547,0,1,1-1.83,2.5,2.048,2.048,0,0,1-.333-.309,2.157,2.157,0,0,0,.261.38,1.547,1.547,0,1,1-2.5,1.83,1.319,1.319,0,0,1-.214-.4,3.309,3.309,0,0,0,.143.451,1.548,1.548,0,1,1-2.946.951,1.489,1.489,0,0,1-.071-.451l-.071.024a1.382,1.382,0,0,1,.071.451,1.545,1.545,0,0,1-3.089,0,1.384,1.384,0,0,1,.071-.451l-.071-.024a1.494,1.494,0,0,1-.071.451,1.548,1.548,0,1,1-2.947-.95,2.106,2.106,0,0,1,.19-.4,2.085,2.085,0,0,0-.285.356,1.547,1.547,0,1,1-2.5-1.83,2.048,2.048,0,0,1,.309-.333,2.154,2.154,0,0,0-.38.261,1.547,1.547,0,0,1-1.83-2.5,1.322,1.322,0,0,1,.4-.214,3.3,3.3,0,0,0-.452.143,1.548,1.548,0,1,1-.95-2.947,1.491,1.491,0,0,1,.451-.071l-.024-.071a1.384,1.384,0,0,1-.452.071,1.545,1.545,0,1,1,0-3.089,1.384,1.384,0,0,1,.452.071l.024-.071a1.492,1.492,0,0,1-.451-.071,1.548,1.548,0,1,1,.95-2.947,1.321,1.321,0,0,1,.4.214,2.083,2.083,0,0,0-.356-.285,1.547,1.547,0,0,1,1.83-2.5,2.051,2.051,0,0,1,.333.309,2.156,2.156,0,0,0-.261-.38,1.547,1.547,0,1,1,2.5-1.83,1.321,1.321,0,0,1,.214.4,3.3,3.3,0,0,0-.143-.451,1.548,1.548,0,0,1,2.947-.95,1.491,1.491,0,0,1,.071.451l.071-.024a1.385,1.385,0,0,1-.071-.451,1.545,1.545,0,1,1,3.089,0,1.383,1.383,0,0,1-.071.451l.071.024a1.389,1.389,0,0,1,.1-.451m-1.711,15.945c2.424,0,4.562-1,7.129-3.469l-.57-1.022a10.78,10.78,0,0,1-13.141,0l-.57,1.022c2.59,2.471,4.752,3.469,7.152,3.469" transform="translate(-202.172 -11.1)" fill="#00a7e7"/><path d="M24.626,71.282V64.914H20.634v1.663h1.4V69.9a1.7,1.7,0,0,1-.879.166c-1.426,0-2.376-1.354-2.376-4.111,0-2.851,1.069-4.087,2.923-4.087a3.891,3.891,0,0,1,1.972.428l.808-1.711A6.1,6.1,0,0,0,21.37,59.9C18.02,59.9,16,62.3,16,65.864c0,3.754,1.758,6.083,5.323,6.083a5.975,5.975,0,0,0,3.3-.665m11.406.523-3.8-11.739H29.545L25.719,71.805H28.19l.76-2.5h3.541l.713,2.5Zm-3.945-4.111H29.355l1.093-3.826a10.165,10.165,0,0,0,.309-1.426h.024a9.338,9.338,0,0,0,.261,1.426Zm13.592.855a3.2,3.2,0,0,0-2.448-2.923V65.6a2.667,2.667,0,0,0,2.091-2.59c0-1.758-1.426-3.113-4.515-3.113a7.971,7.971,0,0,0-3.612.689V71.306A8.394,8.394,0,0,0,40.951,72c2.923-.024,4.729-1.117,4.729-3.446M42.709,63.2c0,1.283-.57,1.853-2.329,1.853h-.547V61.587a3.16,3.16,0,0,1,1-.143c1.259,0,1.877.57,1.877,1.758m.214,5.251c0,1.354-.76,1.853-2.02,1.853a3.254,3.254,0,0,1-1.069-.166V66.363h.547c1.9,0,2.543.689,2.543,2.091m10.123,3.351V69.952H50.052V60.066H47.3V71.805Zm7.628,0V69.952H57.442V66.72h2.8V64.914h-2.8V61.92h3.232V60.066H54.662V71.805Zm10.408,0-3.113-5.228v-.024a3.066,3.066,0,0,0,2.709-2.994c0-2.234-1.473-3.659-4.634-3.659a8.145,8.145,0,0,0-3.541.689V71.805h2.733V66.6h.024l2.78,5.2Zm-3.113-8.1c0,1.426-.689,2.281-2.139,2.281a1.818,1.818,0,0,1-.594-.071v-4.3a1.894,1.894,0,0,1,.808-.143c1.473,0,1.925.713,1.925,2.234" transform="translate(-16 -48.304)" fill="#00a7e7"/><path d="M427.534,68.212c0-1.188-.333-2.448-2.59-3.469-1-.451-1.592-.879-1.592-1.711a1.27,1.27,0,0,1,1.426-1.354,3.35,3.35,0,0,1,1.758.523l.57-1.687a4.949,4.949,0,0,0-2.756-.689,3.532,3.532,0,0,0-3.707,3.612,3.441,3.441,0,0,0,2.329,3.232c1.188.523,1.64,1,1.64,1.735a1.4,1.4,0,0,1-1.568,1.4,3.544,3.544,0,0,1-1.9-.547l-.642,1.925a5.358,5.358,0,0,0,3.065.689,3.658,3.658,0,0,0,3.968-3.659m7.842-6.368V59.99h-6.844v1.853h2.044v9.885h2.78V61.844Zm9.79,4.016c0-3.3-1.307-6.036-4.586-6.036s-4.586,2.733-4.586,6.036c0,3.327,1.307,6.036,4.586,6.036s4.586-2.709,4.586-6.036m-2.8-.119c0,2.02-.261,4.111-1.782,4.111-1.5,0-1.782-2.091-1.782-4.111,0-2,.285-4.111,1.782-4.111,1.473,0,1.782,2.115,1.782,4.111m12.76-2.186c0-2.091-1.259-3.754-4.515-3.754a8.109,8.109,0,0,0-3.564.689v11.24h2.709v-4.42l.38.024c3.517.333,4.99-1.568,4.99-3.778m-2.638,0c0,1.545-.641,2.257-2.376,2.186l-.38-.024V61.511a2.088,2.088,0,0,1,.832-.143c1.426.024,1.925.713,1.925,2.186m12.4,0c0-2.091-1.259-3.754-4.515-3.754a8.111,8.111,0,0,0-3.564.689v11.24h2.709v-4.42l.38.024c3.517.333,4.99-1.568,4.99-3.778m-2.638,0c0,1.545-.642,2.257-2.376,2.186l-.38-.024V61.511a2.087,2.087,0,0,1,.832-.143c1.426.024,1.925.713,1.925,2.186" transform="translate(-324.381 -48.228)" fill="#00a7e7"/></svg>