<?xml version="1.0" encoding="utf-8"?>
<!-- Generator: Adobe Illustrator 25.3.0, SVG Export Plug-In . SVG Version: 6.00 Build 0)  -->
<svg version="1.1" id="Ebene_1" xmlns="http://www.w3.org/2000/svg" xmlns:xlink="http://www.w3.org/1999/xlink" x="0px" y="0px"
	 viewBox="0 0 697.5 237.9" style="enable-background:new 0 0 697.5 237.9;" xml:space="preserve">
<style type="text/css">
	.st0{fill-rule:evenodd;clip-rule:evenodd;fill:#0099A1;}
	.st1{fill-rule:evenodd;clip-rule:evenodd;fill:#65B3C4;}
	.st2{fill-rule:evenodd;clip-rule:evenodd;fill:#B2D3DE;}
	.st3{fill-rule:evenodd;clip-rule:evenodd;fill:#259FAF;}
	.st4{fill:#283536;}
	.st5{fill:#0099A1;}
</style>
<path class="st0" d="M484.4,172.1c-0.1,1.3-1.2,3-1.8,3.8c-1.9,2.8-5.4,26.5-3.6,30.4c0.8,1.7,1.4,2.5,2.9,2.6
	c0.3-4.2-0.7-8.9,0-13.2c0.7-4.3,2-9.4,2.9-14c0.5-2.1,1.2-5,2.4-6.4C489.4,172.5,487.5,170.8,484.4,172.1L484.4,172.1z
	 M528.2,191.2c0.2-1.5,0.9-3.2,1.9-4.1c4.7-4.5,3.7,0.1,0.7,2.2L530,190c-0.1,0-0.1,0.1-0.2,0.1C529,190.8,529.2,190.9,528.2,191.2
	L528.2,191.2z M538.9,199.2c0,2.3-0.1,2,0.9,3.3c3.3,0.2,2.7-0.4,5.8-4.4c0-0.1,0.1-0.1,0.1-0.2c0-0.1,0.1-0.1,0.1-0.2l2.7-4.7
	c0-0.1,0.1-0.2,0.1-0.2c0-0.1,0.1-0.2,0.1-0.2c0.8-1.5,1.9-3.7,3.6-3.9c0,1.1-0.7,3.7-0.7,8.3c0,1.4,0.4,3,0.8,4.3
	c0.6,1.7,1.7,1.6,3.7,1.5c-0.3-3.1-2.2-0.3-1.7-8.8c0.2-3.2,2.8-13.7-3.7-8.7c-0.6,0.4-0.2,0-0.8,0.6l-4.8,6.3
	c0,0.1-0.1,0.1-0.1,0.2c-1.1,1.5-0.5,1.6-1.6,2c0-6.3,3-11.5-1.8-10.8c-0.5,3-0.5,6.4-1.6,9.2c-0.8,2.1-1.2,3.6-1.4,6
	c-1.8-0.3-1.1-0.4-3.2,0.8l-6.3,3c-0.9,0.1-1.7,0.1-2.4-0.2c-0.1,0-0.1-0.1-0.2-0.1c-1.8-1.1-2.7-5.1,1-6.8l2.7-1.7
	c1.2-1,1.5-1.9,2.5-3.2c1.6-2.4,7-8.7,0.1-8.5c-1.3,0.1-2.9,1.1-3.8,2c-0.3,0.3-0.8,0.8-1,1.1c-0.1,0.2-0.6,0.8-0.7,1l-0.4,0.6
	c-0.3,0.5,0,0-0.4,0.6c-1.8,2.7-2.9,5.1-3.7,8c-1.4,5.4-0.4,10,5.6,9.9c2,0,3.4-0.4,4.7-1.6c0.1,0,0.1-0.1,0.2-0.2
	c2.2-2.1,0.8,0.3,4.6-3.8C538.9,199.1,537.9,199.7,538.9,199.2L538.9,199.2z M487.3,207c2.3,0,1.9-0.3,3.3-2.4l3.5-4.9
	c0.6-1,0.9-1.8,1.5-2.9l2.5-3.6c0.3-0.3,0.1-0.1,0.5-0.5c0.2-0.3,0.5-0.6,0.6-0.8c0.1-0.1,0.3-0.4,0.4-0.6l1.2-1.5
	c0-0.1,0.1-0.1,0.2-0.2l0.5-0.5c1.3-1.5,1-1.3,2.3-1.2l-0.4,2.7l-1.8,12.8c0.1,2,1,3,3,3.2c0.1-4.8,0.6-7.4,1.3-11.3l0.7-5.7
	c0.1-2.9,0.5-3.4-1-5.4c-1.6-1.1-4.2,0.6-5.5,1.9l-2.2,2.6c-2.2,1.9-3.1,4.8-5,7.1c-2.5,3-0.7,1-1.8,2.7c-0.7-1-0.2-2,0.1-3.1l1-4.1
	c0.3-0.9,0.3-0.6,0.3-0.7c0.8-1.6,0.9-2.4,1.4-4.6c0.4-1.5,1.1-4.8,1.7-6.4c0.9-2.4,3.4-7.7-0.8-7.3c-1.6,2.5-1.5,4.8-2,5.9
	c-1.6,3.5-2.6,10.8-4,15.5l-0.6,2.1c-0.5,2.1,0.2,0.8-0.6,2.2c-0.6,1.3-0.6,2.3-1.1,4.5C486,204.7,486.3,205.7,487.3,207L487.3,207z
	 M512.4,188.5l-0.1-3.5c-3.5-0.2-2.5,1.1-2.9,3.9c-0.7,5.1-3.9,13.7-2.8,17.4l2.7,0c0.9-3.2-0.7-3.5,3.7-13.9
	c0.2-0.4,0.3-0.8,0.7-1.3c0.5-0.6-0.1,0.1,0.5-0.5l3.8-4.6c0.1,0,0.1-0.1,0.2-0.1l2.1-1.3c1.1-0.6,0.5-0.4,1.7-0.2l0.4,3.5
	c1.3,0.2,0.6,0.2,2-0.2l0.1-4.5c-1.5-1.1-1.9-2.2-3.9-1.9c-0.5,0.1-0.4,0.1-0.7,0.2l-0.8,0.5c-4,2.3-3.7,3.5-5.3,5.2L512.4,188.5
	L512.4,188.5z M202.7,222.8c1,0,1.9,0.9,1.9,1.9s-0.9,1.9-1.9,1.9c-1,0-1.9-0.9-1.9-1.9S201.7,222.8,202.7,222.8L202.7,222.8z
	 M229.6,195.3c1,0,1.9,0.8,1.9,1.9c0,1-0.9,1.9-1.9,1.9c-1,0-1.9-0.9-1.9-1.9C227.7,196.1,228.5,195.3,229.6,195.3L229.6,195.3z
	 M323,186.9c1,0,1.9,0.9,1.9,1.9c0,1-0.9,1.9-1.9,1.9c-1,0-1.9-0.9-1.9-1.9C321.1,187.7,322,186.9,323,186.9L323,186.9z
	 M437.7,179.8c1,0,1.9,0.9,1.9,1.9c0,1-0.9,1.9-1.9,1.9c-1,0-1.9-0.9-1.9-1.9C435.8,180.6,436.7,179.8,437.7,179.8L437.7,179.8z
	 M193.4,223.4c1,0,1.9,0.9,1.9,1.9c0,1-0.9,1.9-1.9,1.9c-1,0-1.9-0.8-1.9-1.9C191.5,224.2,192.4,223.4,193.4,223.4L193.4,223.4z
	 M184.1,223.8c1,0,1.9,0.9,1.9,1.9c0,1-0.9,1.9-1.9,1.9c-1,0-1.9-0.9-1.9-1.9C182.2,224.6,183.1,223.8,184.1,223.8L184.1,223.8z
	 M666.6,181.9c1-0.3,0.8-0.4,1.7-1.1c0.1,0,0.1-0.1,0.2-0.1l0.7-0.6c1.5-1.5,1.9-2.1,2-4C669.4,176.5,666.8,179.9,666.6,181.9
	L666.6,181.9z M652.8,175.5l-1.7-0.9c-0.8-0.4-0.9-0.6-1.8-0.6c-1.9-0.1-4,3.2-4.7,4.8c-1.9,4-2.2,6.7-2.8,11.4
	c-0.5,4.7-0.3,5.1,1.7,7.6l3.7,0.1c1.2-1,2.6-1.8,3.3-3.4l0.5-0.5c1-1.2,0.6-1.7,2-2.8l0.6,0.7c0.2,0.3,0.3,0.6,0.5,0.8
	c2.5,3.6,5,1,7.3-0.1c1.6,0.7,1.6,2.3,3.4,2.8c1.9,0.5,4.4,0.3,6.1-0.5l0.9-0.5c0.8-0.5,1.7-1,2.5-1.5c1.2-1.1,2.5-2.3,2.7-4
	c-2,0.1-2.4,0.9-4.4,2l-0.7,0.4c-0.4,0.2-0.9,0.5-1.3,0.8c-4.8,3.5-7.1-0.5-6.7-3.2c0.1-0.5,0.9-2.6,1.7-3c1.1-0.6,1.3,0.2,3.1-1.6
	c0.5-0.5,0.9-0.9,1.5-1.5c1-1.1,0.4-0.9,1.6-2.1l2.1-2.9c1.1-2.1,0.6-3.7-0.3-5.5c-4.3-0.3-3.8,0.6-6.6,3.3l-2.3,3.1
	c-1.2,2.4-1.2,1.7-1.7,3.7c-0.5,2.3-1.1,2.8-1.5,5.8c-1.6,0.6-0.2-0.2-1.2,0.9c-0.6,0.7-1.2,1.3-1.8,1.9c-0.7,0.4-1.5,0.4-2.3,0.1
	c-0.1-0.1-0.3-0.2-0.4-0.3c-2.1-2.3-1.3-8.6,0.2-11.1c1.5-2.4,2.7-13.3,1.9-16.3c-3.2-0.8-3.4,0.4-4.1,4.2
	C653.7,170.5,653,172.5,652.8,175.5L652.8,175.5z M644.8,194.8c1.1,0.2,1.9,0.3,3.3-1.7l2.7-4.4c0.7-0.9-0.1,0.5,0.6-0.8
	c0.8-1.7,0.7-6.3,0.7-8.2c-1.6-0.5-1.7-1.1-1.9-1.3c-0.2-0.2-0.1-0.8-1-0.4c-1,0.4-2.6,4.8-3,5.7c-0.4,0.9-0.5,0.4-0.9,1.8
	c-0.2,0.9-0.5,1.8-0.6,2.7C644.6,190,644.7,193,644.8,194.8L644.8,194.8z M317.9,219.2c0,0,0.1,0,0.1,0.1c0.3,0.2,0.7,0.3,1.1,0.4
	c1.9,0.3,2.2-0.3,3.1-1.1c0.4-0.3,0.3-0.2,0.8-0.6l2-2c0.1-0.1,0.2-0.4,0.3-0.4c0-0.1,0.1-0.2,0.1-0.2c0-0.1,0.1-0.2,0.1-0.2
	l0.9,2.2c1.3,2.1,1.8,3.2,4.3,1.4c4.6-3.4,3.9-6.8,5.6-3.2c1.9,4.1,5.3-0.2,6.5,0.7c1.3,1,2,2.2,4,1.4c2.1-0.8,2.7-4.6,4.4-2.4
	l1.6,1.8c2.1,1.2,5.3,0.3,7.1-0.8c1.5-0.9,1.7-1.5,2.8-2.9c0.7-0.9,1.4-1.4,1.9-2.5c0.4-0.9,0.6-1.5,1.4-1.8c1,2.2,0.4,6.8,7.6,6.8
	c0,2.9-0.4,4.3-0.9,6.8l-1.2,4.1c-1.1,1.7-2.8,8.5-5.8,9.3l-1.7,0.4c0.4,1.7,2.3,1.8,3.7,1.3c2.9-0.8,5.8-6.3,6.5-9.1
	c0.9-3.9,2.4-8.7,3.1-12.4c0.2-1.3,0.6-3.2,0.9-4.5c0.3-1.2,0.4-3,0.9-4.2c1.2-3.1,3.2-10.6,0.9-13.2c-0.6-0.7-0.7-0.7-1.6-0.8
	c-0.9-0.1-1.8,0-2.5,0.3c-6.1,2.1-5.5,2.7-8.2,7.7l-0.2-0.5c-0.3-0.9-0.7-1.8-1-2.7c-0.3-0.4-0.5-0.8-0.7-1.2
	c-0.4-0.7-0.7-1.4-1.6-1.8c-1.5-0.7-2.9-0.5-4,0.7c-0.5,0.5-0.2,0.3-0.9,0.8l-2,1.3c-3.2,2.3-4.2,5-5.4,8.8c-0.7,2.3-1,2.8-1.2,5.9
	c-0.5,0-1,0-1.5,0.2c-1.4,0.5-1.3,1.7-3.4,1.7c-0.2-4.5,0.3-6.6,0.7-10.5c0.2-2.8,2.9-15.8,4-18.2c0.5-1.2,0.6-2.7,1.1-4.3l0.2-0.5
	c0-0.1,0.1-0.2,0.1-0.2c0-0.1,0.1-0.2,0.1-0.2c0.5-1.2,0.9-1.8,0.8-3.5c-2.5-0.6-3.1-0.2-3.9,1.7c-1.1,2.7-2.1,6-2.6,8.9
	c-0.1,0.8-0.4,1.7-0.5,2.5c-0.5,2.3-0.5,1.2-1.1,4.6c-1,6.1-1.8,12.2-2.1,18.6c-0.9,0.5-1.5,1.1-3.2,1.1c-0.7-1-1.1-2.7-1.1-4.2
	c0.1-1.7,1.2-7.2,2-8.5c0.6-1.1,0.4-3.4,0.3-4.8c-4-0.2-2.7-2.4-5.6-1.1c-0.4,0.2-1.4,1.2-1.8,1.5c-1.4,1.7-2.9,3.4-4.4,5
	c-0.8,1.1-2.3,4.6-2.4,5.9c-0.2,2.1,0.2,2.6-1.1,3.7c0,0-0.4,0.3-0.6,0.4c-1.4,1.2-2.4,4-4.5,3.8c-1.8-3.8,0.5-12.6,1.9-16.5
	c0-0.1,0.1-0.2,0.1-0.2c0.5-1.3,0.3-1.4,0.3-2.7c-1.1-0.4-0.3-0.3-0.8-0.5c-0.5-0.2-0.3-0.3-1-0.2c-1,0.1-1.5,1.2-2,2
	c-0.3,0.5-0.1,0.2-0.4,0.9l-0.3,1c-0.1,0.5-0.1,0.5-0.2,1.1c-0.5,3.2-2.3,14.7,0.3,17.4c0,0,0.1,0.1,0.2,0.2
	C317.8,219.1,317.9,219.2,317.9,219.2L317.9,219.2z M287.3,185c-0.6,2.8,0.7,3.1,2.6,4.6l-2.6,13.8c-0.5,5.4-1,10.4-1.1,15.8
	c-1.7,1-4,0.7-4,1.7c0,2,10.6,0,13.7-2c2.6-1.7,7.1-3,9.9-5.9l4.1-3.7c0.8-1,3.8-5,4.1-5.6c4-8.6-2-12.7-8.9-15.7l-0.7-0.3
	c-1.1-0.4-4.1-1.4-5.2-1.4c-3.1-0.1-4,0.2-5-1.5c-1.8-2.9-3.6-0.6-4.1-0.3C289.5,184.9,288.2,184.8,287.3,185L287.3,185z
	 M251.7,216.6c0.1-3.4,2.1-10.1,0.1-12.8c-0.8-1.1-1.2-1.6-2.5-0.9c-1.4,0.8-7.4,8.3-8.4,9.8c-0.7,1.1-1.9,3.3-2.9,3.7
	c-0.6-4.5,3.3-12.8-1.9-12.7c-0.6,0-0.7-0.1-0.8,0.5c-0.3,1.8,0.4,0.9,0.5,2.8c0.2,2.4-0.3,4.9-0.9,7.1c-0.4,1.5-0.5,1.9-0.5,3.6
	c-3.4,0.6-6.1,5.2-8.2,5c-1.1-2,0.1-9,0.4-11.4c0.2-1.9,2.5-6.2,1.7-7.8c-2.3-4.6-4.9,6.2-5.3,7.9c-0.8,2.9-1.7,14.2,2.9,14.6
	c1.5,0.1,3.6-0.9,4.3-1.9c0.1-0.1,0.2-0.3,0.3-0.4c0.9-1.6-0.4,0.6,0.2-0.4c0.5-0.9,0.5-0.9,1-1.7c0.5-0.7,1.5-2.3,2.3-2.8
	c0,2.7-1.3,3-1,5.6c3.9,0.8,2.6-1,6.3-4.9c1.7-1.8,3.2-4.1,4.7-6l3.4-4.7l1.3-1.2c0.2,5.6-1.5,10.3-0.6,15.8c3-0.2,6-5.5,8-8
	c0.3-0.5,0.4-0.5,0.8-1.2l3.8-5.6c0.7-0.8,1.3-2,2.3-2.3c-0.2,2.9-3.6,12.4-1.5,17.7c1.2,3,2.1,1.7,3.4,0.2c-0.3-0.9-2-0.5-0.6-8.2
	c0.3-1.8,0.2-4,1.1-5.7c6.4-12.2-3.9-9-9.1-0.7c-1,1.5-1.8,3-2.9,4.5C253,215.6,252.8,216.1,251.7,216.6L251.7,216.6z M289.9,217.8
	c3.3,0,6-1.9,9-3.4l11.2-10.1c1.3-2.2,2.8-7.3,0.1-9.8l-5.5-3c-2.8-1-7.7-2-10.8-1.4c-0.8,4.9,0,3.2-1.6,8c-0.5,2.6-1.4,5.5-1.6,8.2
	C290.4,209.1,289.7,216.1,289.9,217.8L289.9,217.8z M415.2,205.5c0-2.8,2.2-11.6,0.1-13.7c-1.2-1.2-2.7,0-3.4,0.9
	c0,0-0.6,0.7-0.6,0.7c-0.5,0.5-0.8,0.8-1.3,1.3c-0.9,0.9-2,1.7-2.6,2.7c-0.5,0.9-0.5,1-1,1.7l-3.5,4.5c-0.4,0.6,0.2,0-0.5,0.8
	c-0.5,0.5-0.1,0.2-0.8,0.5c0-4.4,0.5-3.8,0.8-6.7c0.3-2.9,0.2-4.5-1.2-6.3l-2.2,0.1c-0.3,3.3,1.2,3-0.4,11.5c-0.4,2-1.2,3.3-1.5,5.1
	c-0.3,1.7-0.9,3-0.1,4.3c0.7,0.2,2,0.9,2.4,0.3l3-4.3c0.3-0.4,0.6-0.7,0.9-1.1c2.2-2.2,2.8-4,4.5-5.9c1.4-1.6,3.1-4.6,4.2-5.1
	c1.7,2.4-1.1,8.1-0.2,15.2c1.3,0.1,2-0.1,2.8-1l1-1c1.3-1.5,2-3.4,3.3-4.8l4.2-5.9c0.4-0.6,0.5-0.7,0.9-1.1l0.9-1.1
	c0.6-0.9,0.9-1.8,1.9-2.1c-0.2,4.1-1.8,6.4-2,10.1c-0.1,2.3-1.1,9.8,3,9.3c1.2-1.7,0.8-1.7,0.6-2.2l-0.4-1.3
	c-0.4-3.1,0.2-6.7,0.4-9.8c2.6-1.4,4.4-15.3-1.6-10.1l-1.1,1c-2.6,2.9-2.8,2.4-5.5,6.6c-1.1,1.7-2.2,3-3,4.8
	c-0.2,0.4-0.5,0.9-0.8,1.2C415.4,205.6,416.2,205,415.2,205.5L415.2,205.5z M580.1,159.9c-0.1,3.6-1.3,7.3-1.5,11.1l-1.1,8.6
	c-0.4,0.9-0.2-0.5-0.6,2.2l-1.9,13.5c-0.7,2.9-0.9,6.1-0.7,9l2.5,0c0.2-1.7-0.1-3.3,0.2-4.7c0.5-2.7,0.4,1.2,0.9-4
	c0.1-1.5,0.5-2.4,0.7-4.4c0.2-2.2,0.7-3.4,0.8-3.7c0-0.1,0.1-0.2,0.1-0.3c0-0.1,0.1-0.2,0.1-0.3c1.4,0.4,1,0.9,3,2.2
	c0.3,0.2,0.6,0.5,1,0.7c1.2,1,2.6,1.9,3.9,2.8c2.3,1.3,6.7,3.2,9.5,1.8c0-0.3,0.6-1.2-1.9-1.6c-2.2-0.4-1.6,0.4-3.3-1l-1.8-1.2
	c-3.4-2.5-4.4-2.2-6.2-4.9l-1.6-2.1c-0.5-1.2-0.2-4.1,0-3.7l1.9-2.1c1.9-1.5,1.2-1.4,2.4-2.4c0.9-0.8,2.8-1.5,6.6-4.9
	c0.2-0.1,0.3-0.2,0.6-0.4c3.3-2.4,2.7-2.1,6-3.5l1.6-1.5c0.6-1.2,0.5-1.4,0.2-2.6c-2.8-0.7-4.4,0.6-6.4,2.4c-2.2,2-4.5,3.2-6.7,5.4
	c-0.9,0.7-1.8,1.4-2.7,2c-1.6,1.1-2.7,2.1-4.3,2.3c0.5-2.8,1.6-5.9,1.7-8.2l0.6-3.1c0.9-2.3,1.2-2.6-0.3-4.5
	C580.3,159,581.7,159.1,580.1,159.9L580.1,159.9z M604,197c-0.5-9.4,2.8-14.6,2.4-17.7c-1.9-0.2-1.6-0.5-2.5,1
	c-0.3,0.4-0.5,0.8-0.8,1.3c-1.6,2.9-2.3,10.5-2.2,13.5c0.2,11.9,8.1,2.2,11.1-0.3c0.6-0.5,0.1-0.3,0.9-0.6c1.3,0.9,0,0,1,1.2
	c3.4,4.4,7.9-1.2,8.4-2.5c0.3-0.9,0.3-1.5,0.3-2.4c-1.7,0.2-0.8-0.1-1.8,0.7c-0.6,0.5-0.2,0.2-0.5,0.5c-1.3,1.5-1.7,2.4-4,2.1
	c-0.6-1.5-0.5-4.5,0-6.2c0.3-1,4.2-9.1,1.5-10.1c-1-0.4-1.1,0.4-1.6,1.3c-0.9,2.1-2.4,5.1-2.9,7.2c-0.7,2.6-2,4.6-3.3,6.8l-1.5,1.8
	c-0.3,0.4-0.6,0.7-1,1.1c-0.3,0.3-0.6,0.5-0.9,0.8C605.7,197.2,605.3,197.1,604,197L604,197z M448.2,193l-1.9,7.1
	c-0.6,2.9-0.2,6.2,0.6,8.6c1.1,3,5.7,2.6,8.2-0.1c0.1-0.1,0.2-0.3,0.3-0.3l2.1-3.2c-1.7-0.1-0.8,0-2.1,0.5c-1.6,0.5-4.5,2.9-5.9,1.9
	c-1.4-1-0.5-9.4,1-11.7l1.3-3c0-0.1,0.1-0.2,0.1-0.3c0-0.1,0.1-0.2,0.1-0.3c0.5-1.3,5.1-0.9,6.7-1.1c0.1-2.4-2.5-2.6-5-2.6
	c0-4,2.2-5.3,2.3-7.3c0.2-1.8,0.4-3.1-0.4-4c-0.9-1-0.8-1.1-2.3-0.9c-0.2,1.4-0.5,2.5-0.8,3.7l-1.3,5.1c-0.5,1.6-0.2,1.3-0.9,2.4
	c-0.1,0.2-0.5,0.7-0.6,0.8c-0.1,0.1-0.1,0.2-0.5,0.5c-1.2,0.9-1-0.1-4.1,1.5c-1.1,0.6-2.3,0.6-2.3,2.7c0,1.4,1,2.4,2.3,1.8
	C446.1,194.4,446.2,193.2,448.2,193L448.2,193z M636.2,182.8c0.1,1.5-1.6,9,0.3,12.6c0.8,1.5,1.2,1.6,3.4,1.7
	c-0.1-0.8,0-0.4-0.2-1.1c-0.6-2.1-1.8-1.6-1.1-7.8c0.2-1.5,0.5-1.2,0.6-4.4c0.1-1.8,0.5-8.2-3-5.2c-1.2,1-1.1,0.5-2.5,1.9
	c-0.6,0.7-0.9,1.2-1.4,2l-5.1,7.2c-0.3-1.1,0.1-1.4,0.3-2.3c0.5-2.2,1.2-7.2,0.6-9.6c-3.3-0.5-2.4,1.2-2.6,3.6
	c-0.1,1.2-0.8,3.4-1.1,5.3c-0.2,1.2-0.3,1-0.6,2.4c-0.3,1.9-2.2,7.3,0.8,7.7c0.8,0.1,1.5-0.2,2.1-0.7l2.7-3.7c1-1.8,0.6-0.8,1.4-1.9
	l1.7-3.1c0.3-0.6,0.2-0.6,0.5-1.1C633.7,185.2,635.1,183.4,636.2,182.8L636.2,182.8z M691.4,179.1c0.1,1.5-1.6,9,0.3,12.6
	c0.8,1.5,1.2,1.6,3.4,1.7c-0.1-0.8,0-0.4-0.2-1.1c-0.6-2.1-1.8-1.6-1.1-7.8c0.2-1.5,0.5-1.2,0.6-4.4c0.1-1.8,0.5-8.2-3-5.2
	c-1.2,1-1.1,0.5-2.5,1.9c-0.6,0.7-0.9,1.2-1.4,2l-5.1,7.2c-0.3-1.1,0.1-1.4,0.3-2.3c0.5-2.2,1.2-7.2,0.6-9.6
	c-3.3-0.5-2.4,1.2-2.6,3.6c-0.1,1.2-0.8,3.4-1.1,5.3c-0.2,1.2-0.3,1-0.6,2.4c-0.3,1.9-2.2,7.3,0.8,7.7c0.8,0.1,1.5-0.2,2.1-0.7
	l2.7-3.7c1-1.8,0.6-0.8,1.4-1.9l1.7-3.1c0.3-0.6,0.2-0.6,0.5-1.1C688.9,181.5,690.3,179.7,691.4,179.1L691.4,179.1z M443.7,202.1
	c-2.3,0.4,0.6,0.2-2.5,2.4c-1.8,2.1-2.9,4.7-4.9,4.2c-0.2-4.9-0.4-12.6,1.9-17c1.4-2.6-1.1-3.3-1.2-3.2c-1.5,0-1.9,1.2-2.4,2.3
	c-1.7,4.2-1.9,11.2-1.9,15.9c0,2.3,0.3,3.6,1.8,4.4c1.8,1.1,4.5,0,5.5-1.4l3.4-5.3C444,203.5,444.2,203.2,443.7,202.1L443.7,202.1z
	 M357.6,202.1c-1.1,0.7-0.1,0.1-0.8,1.2c-0.3,0.5,0,0.1-0.4,0.6c-1.9,2.2-2.4,3.2-3,7.1c-0.3,1.9,0.2,2.4,0.5,3.7
	c1.6,0,2.8,0.1,4.1-1l1.7-1.7c2.5-2.3,3.4-3.4,4.3-7.5c0.2-1,0.2-2.3,0.2-3.3c-0.2-2.2-0.4-2.1-0.6-3.2c-0.4,0-3.1,0-3.1,0.4
	c0.1,2.6,0.2-0.1,0.8,1.9c0.3,1.1-0.5,4.1-1.9,3.3C358.5,203.1,358.7,202.4,357.6,202.1L357.6,202.1z M377.7,196.4
	c-1.6,0.1-2.4,1-4,1.8c-0.6,0.5-1.4,1.1-2,1.7c-5.3,5.3-1.8,16.3,2.1,11.6c1.5-1.8,3-9.1,3.9-12C378,198.4,377.9,197.6,377.7,196.4
	L377.7,196.4z M328.8,216.3c1.2,0.1,1.4,0.1,2.1-0.6c1.8-1.6,0.7-1.8,3.1-4.3l2.1-5.7c0.3-1.1,1.3-3.4,1-4.2
	c-1.1,1.2-0.6,1.3-2.4,1.3c0.2-1.6,0.8-2.1,1.2-3.4c-0.8,0-1.2,0.2-1.8,0.9c-1.1,1.2-2.9,4.8-3.7,6.5l-1.6,3.4
	C328.2,212,328.3,214.5,328.8,216.3L328.8,216.3z"/>
<path class="st0" d="M8.1,0h23.2c4.4,0,8,3.6,8,8v23.2c0,4.4-3.6,8-8,8H8.1c-4.4,0-8-3.6-8-8V8C0.1,3.6,3.7,0,8.1,0L8.1,0z"/>
<path class="st0" d="M8,48.8h23.2c4.4,0,8,3.6,8,8V80c0,4.4-3.6,8-8,8H8c-4.4,0-8-3.6-8-8V56.8C0,52.4,3.6,48.8,8,48.8L8,48.8z"/>
<path class="st1" d="M8,97.8h23.2c4.4,0,8,3.6,8,8v23.2c0,4.4-3.6,8-8,8H8c-4.4,0-8-3.6-8-8v-23.2C0,101.4,3.6,97.8,8,97.8L8,97.8z"
	/>
<path class="st2" d="M56.9,0h23.2c4.4,0,8,3.6,8,8v23.2c0,4.4-3.6,8-8,8H56.9c-4.4,0-8-3.6-8-8V8C49,3.6,52.5,0,56.9,0L56.9,0z"/>
<path class="st1" d="M56.8,48.8H80c4.4,0,8,3.6,8,8V80c0,4.4-3.6,8-8,8H56.8c-4.4,0-8-3.6-8-8V56.8C48.9,52.4,52.5,48.8,56.8,48.8
	L56.8,48.8z"/>
<path class="st3" d="M56.8,97.8H80c4.4,0,8,3.6,8,8v23.2c0,4.4-3.6,8-8,8H56.8c-4.4,0-8-3.6-8-8v-23.2
	C48.9,101.4,52.5,97.8,56.8,97.8L56.8,97.8z"/>
<path class="st2" d="M105.9,0h23.2c4.4,0,8,3.6,8,8v23.2c0,4.4-3.6,8-8,8h-23.2c-4.4,0-8-3.6-8-8V8C97.9,3.6,101.5,0,105.9,0
	L105.9,0z"/>
<path class="st3" d="M105.8,48.9H129c4.4,0,8,3.6,8,8V80c0,4.4-3.6,8-8,8h-23.2c-4.4,0-8-3.6-8-8V56.8
	C97.8,52.4,101.4,48.9,105.8,48.9L105.8,48.9z"/>
<path class="st2" d="M105.8,97.8H129c4.4,0,8,3.6,8,8v23.2c0,4.4-3.6,8-8,8h-23.2c-4.4,0-8-3.6-8-8v-23.2
	C97.8,101.4,101.4,97.8,105.8,97.8L105.8,97.8z"/>
<g>
	<path class="st4" d="M216.2,74.3h-15.8c-0.4,0-0.6,0.2-0.6,0.6v41.3c0,4.5,1,7.6,3,9.4c2,1.8,5.2,2.7,9.5,2.7h3.5
		c0.9,0,1.4,0.5,1.4,1.4v5.7c0,0.9-0.5,1.4-1.4,1.4c-1.1,0.1-2.8,0.1-5.2,0.1c-6.7,0-11.8-1.3-15.3-3.8c-3.5-2.5-5.2-7.2-5.2-14
		V74.9c0-0.4-0.2-0.6-0.6-0.6h-8.5c-0.9,0-1.4-0.5-1.4-1.4v-5.5c0-0.9,0.5-1.4,1.4-1.4h8.5c0.4,0,0.6-0.2,0.6-0.6V49.2
		c0-0.9,0.5-1.4,1.4-1.4h6.9c0.9,0,1.4,0.5,1.4,1.4v16.2c0,0.4,0.2,0.6,0.6,0.6h15.8c0.9,0,1.4,0.5,1.4,1.4v5.5
		C217.6,73.8,217.1,74.3,216.2,74.3z"/>
	<path class="st4" d="M263.5,67.2c0.7,0.4,1,1,0.8,1.8l-1.5,6.9c-0.3,0.9-0.9,1.2-1.8,0.8c-1.6-0.7-3.4-1-5.5-1l-1.8,0.1
		c-4.9,0.2-8.9,2-12,5.4c-3.2,3.4-4.8,7.7-4.8,12.9v41.3c0,0.9-0.5,1.4-1.4,1.4h-7.1c-0.9,0-1.4-0.5-1.4-1.4v-68
		c0-0.9,0.5-1.4,1.4-1.4h7.1c0.9,0,1.4,0.5,1.4,1.4V76c0,0.3,0.1,0.4,0.2,0.5c0.1,0,0.3,0,0.4-0.2c2-3.5,4.5-6.1,7.5-8
		c3-1.9,6.6-2.9,10.6-2.9C258.6,65.3,261.3,65.9,263.5,67.2z"/>
	<path class="st4" d="M322.3,99.4v4.5c0,0.9-0.5,1.4-1.4,1.4h-45.2c-0.4,0-0.6,0.2-0.6,0.6c0.2,5.1,0.5,8.4,0.8,9.9
		c1,4.2,3.2,7.5,6.6,9.9c3.4,2.4,7.7,3.6,12.9,3.6c3.9,0,7.4-0.9,10.4-2.7c3-1.8,5.3-4.3,7-7.6c0.6-0.8,1.2-1,2-0.6l5.5,3.2
		c0.7,0.5,0.9,1.1,0.6,2c-2.3,4.5-5.8,8-10.5,10.6c-4.7,2.6-10,3.8-16.1,3.8c-6.6-0.1-12.2-1.7-16.7-4.8s-7.7-7.4-9.7-12.9
		c-1.7-4.5-2.5-10.9-2.5-19.3c0-3.9,0.1-7.1,0.2-9.6c0.1-2.5,0.5-4.7,1-6.6c1.6-6.1,4.8-10.9,9.6-14.6c4.8-3.6,10.6-5.5,17.4-5.5
		c8.5,0,15,2.1,19.6,6.4c4.6,4.3,7.4,10.4,8.5,18.2C322.1,92.2,322.3,95.4,322.3,99.4z M282.2,77.2c-3,2.4-5,5.6-6,9.6
		c-0.6,2-0.9,5.1-1.1,9.5c0,0.4,0.2,0.6,0.6,0.6H312c0.4,0,0.6-0.2,0.6-0.6c-0.2-4.2-0.5-7.2-0.8-9c-1-4.2-3.1-7.5-6.2-10
		c-3.1-2.5-7.1-3.7-11.8-3.7C289.1,73.6,285.3,74.8,282.2,77.2z"/>
	<path class="st4" d="M378.1,71.6c4.4,4.4,6.6,10.3,6.6,17.6v46.2c0,0.9-0.5,1.4-1.4,1.4h-7.1c-0.9,0-1.4-0.5-1.4-1.4V91.2
		c0-5.1-1.6-9.3-4.7-12.6c-3.1-3.3-7.2-4.9-12.1-4.9c-5.1,0-9.3,1.6-12.5,4.8c-3.2,3.2-4.8,7.3-4.8,12.5v44.5c0,0.9-0.5,1.4-1.4,1.4
		h-7.1c-0.9,0-1.4-0.5-1.4-1.4v-68c0-0.9,0.5-1.4,1.4-1.4h7.1c0.9,0,1.4,0.5,1.4,1.4v6c0,0.2,0.1,0.3,0.2,0.4c0.1,0.1,0.3,0,0.4-0.1
		c4.1-5.8,10.4-8.7,18.9-8.7C367.7,65.1,373.7,67.3,378.1,71.6z"/>
	<path class="st4" d="M439.5,38.9h7.1c0.9,0,1.4,0.5,1.4,1.4v95.2c0,0.9-0.5,1.4-1.4,1.4h-7.1c-0.9,0-1.4-0.5-1.4-1.4v-5.9
		c0-0.2-0.1-0.3-0.2-0.3c-0.1,0-0.3,0-0.5,0.2c-2.1,2.7-4.6,4.8-7.6,6.3c-3,1.5-6.4,2.2-10.2,2.2c-6.5,0-12-1.7-16.4-5
		c-4.4-3.4-7.5-7.9-9.2-13.7c-1.3-4.2-2-10.1-2-17.8c0-7.7,0.6-13.5,1.7-17.4c1.7-6,4.8-10.7,9.2-14.1c4.5-3.4,10-5.1,16.7-5.1
		c3.6,0,7,0.7,10.1,2.2c3.1,1.4,5.6,3.5,7.7,6.2c0.2,0.2,0.3,0.3,0.5,0.2c0.1,0,0.2-0.2,0.2-0.4V40.3
		C438.1,39.3,438.6,38.9,439.5,38.9z M437.4,112c0.4-2.5,0.6-6,0.6-10.5s-0.2-8-0.6-10.6c-0.4-2.6-1-4.8-2-6.8
		c-1.1-3.2-3-5.7-5.5-7.6c-2.6-1.9-5.6-2.9-9.2-2.9c-3.7,0-7,0.9-9.7,2.8c-2.7,1.9-4.7,4.3-5.9,7.4c-1.1,2.1-1.9,4.4-2.5,6.9
		c-0.5,2.6-0.8,6.1-0.8,10.7c0,4.4,0.2,7.8,0.6,10.3c0.4,2.5,1,4.7,2,6.6c1.1,3.4,3.1,6,6,8c2.8,2,6.2,2.9,10.2,2.9
		c3.7,0,6.9-1,9.4-2.9c2.5-2,4.4-4.6,5.6-7.8C436.4,116.7,437,114.5,437.4,112z"/>
	<path class="st5" d="M476.9,133.9c-5.3-2.8-9.4-6.6-12.3-11.6c-2.9-4.9-4.3-10.7-4.3-17.2V70.5c0-6.5,1.4-12.3,4.3-17.2
		c2.9-4.9,7-8.8,12.3-11.5c5.3-2.7,11.5-4.1,18.5-4.1c6.9,0,13,1.3,18.3,3.9c5.3,2.6,9.4,6.3,12.3,11.1c2.9,4.8,4.3,10.3,4.3,16.5
		c0,0.5-0.2,0.9-0.5,1.2c-0.3,0.3-0.7,0.5-1.2,0.5l-12.9,0.7c-1.1,0-1.7-0.5-1.7-1.5c0-5.5-1.7-9.9-5.1-13.3c-3.4-3.4-8-5-13.6-5
		c-5.7,0-10.3,1.7-13.7,5c-3.5,3.4-5.2,7.8-5.2,13.3v35.7c0,5.4,1.7,9.8,5.2,13.2c3.5,3.4,8,5,13.7,5c5.7,0,10.2-1.7,13.6-5
		c3.4-3.3,5.1-7.7,5.1-13.2c0-1,0.6-1.5,1.7-1.5l12.9,0.6c0.5,0,0.9,0.1,1.2,0.4c0.3,0.3,0.5,0.6,0.5,1c0,6.3-1.4,11.9-4.3,16.7
		c-2.9,4.8-7,8.5-12.3,11.1c-5.3,2.6-11.4,3.9-18.3,3.9C488.4,138,482.2,136.6,476.9,133.9z"/>
	<path class="st5" d="M555.3,134c-5.4-2.8-9.6-6.9-12.5-12.1c-2.9-5.2-4.4-11.2-4.4-18.1V71.9c0-6.7,1.5-12.7,4.5-17.9
		c3-5.2,7.2-9.2,12.5-12c5.4-2.8,11.6-4.3,18.6-4.3c7.1,0,13.3,1.4,18.7,4.3c5.4,2.8,9.5,6.9,12.5,12c3,5.2,4.5,11.1,4.5,17.9v31.9
		c0,6.8-1.5,12.8-4.5,18.1c-3,5.2-7.2,9.3-12.5,12.1c-5.4,2.8-11.6,4.3-18.7,4.3C566.9,138.3,560.7,136.9,555.3,134z M588,118.8
		c3.5-3.6,5.3-8.4,5.3-14.4V71.8c0-6.1-1.8-10.9-5.3-14.6c-3.5-3.6-8.3-5.5-14.1-5.5c-5.8,0-10.5,1.8-14,5.5
		c-3.5,3.6-5.3,8.5-5.3,14.6v32.6c0,6,1.8,10.8,5.3,14.4c3.5,3.6,8.2,5.5,14,5.5C579.8,124.3,584.5,122.5,588,118.8z"/>
	<path class="st5" d="M683,38.9h12.9c0.5,0,0.9,0.2,1.2,0.5c0.3,0.3,0.5,0.7,0.5,1.2v94.6c0,0.5-0.2,0.9-0.5,1.2
		c-0.3,0.3-0.7,0.5-1.2,0.5H683c-0.5,0-0.9-0.2-1.2-0.5c-0.3-0.3-0.5-0.7-0.5-1.2V68.4c0-0.3-0.1-0.5-0.3-0.6
		c-0.2-0.1-0.4,0-0.5,0.3L662.9,95c-0.5,0.7-1.1,1.1-2,1.1h-6.4c-0.8,0-1.5-0.4-2-1.1l-17.6-26.7c-0.1-0.3-0.3-0.4-0.5-0.3
		c-0.2,0.1-0.3,0.3-0.3,0.6v66.6c0,0.5-0.2,0.9-0.5,1.2c-0.3,0.3-0.7,0.5-1.2,0.5h-12.9c-0.5,0-0.9-0.2-1.2-0.5
		c-0.3-0.3-0.5-0.7-0.5-1.2V40.6c0-0.5,0.2-0.9,0.5-1.2c0.3-0.3,0.7-0.5,1.2-0.5h12.9c0.8,0,1.5,0.4,2,1.1l22.8,34.6
		c0.2,0.2,0.4,0.3,0.6,0.3c0.2,0,0.3-0.1,0.4-0.3L681,40C681.5,39.3,682.1,38.9,683,38.9z"/>
</g>
</svg>
