<svg xmlns="http://www.w3.org/2000/svg" xmlns:xlink="http://www.w3.org/1999/xlink" width="285.896" height="231.995" viewBox="0 0 285.896 231.995"><defs><linearGradient id="a" x1="-0.532" y1="-2.028" x2="2.132" y2="4.081" gradientUnits="objectBoundingBox"><stop offset="0.01"/><stop offset="0.08" stop-opacity="0.69"/><stop offset="0.21" stop-opacity="0.322"/><stop offset="1" stop-opacity="0"/></linearGradient><linearGradient id="b" x1="0.428" y1="-0.231" x2="0.767" y2="2.572" xlink:href="#a"/><linearGradient id="c" x1="0.578" y1="-1.34" x2="0.3" y2="4.961" xlink:href="#a"/><linearGradient id="d" x1="0.4" y1="-2.438" x2="0.722" y2="6.336" xlink:href="#a"/><linearGradient id="e" x1="0.628" y1="-1.691" x2="0.183" y2="5.822" xlink:href="#a"/><linearGradient id="f" x1="0.616" y1="-0.599" x2="0.099" y2="3.874" xlink:href="#a"/><linearGradient id="g" x1="0.433" y1="-0.274" x2="0.923" y2="5.348" xlink:href="#a"/><linearGradient id="h" x1="0.457" y1="-0.093" x2="0.671" y2="1.932" xlink:href="#a"/><linearGradient id="i" x1="-0.625" y1="0.584" x2="2.903" y2="0.302" xlink:href="#a"/><linearGradient id="j" x1="-2.483" y1="-2.114" x2="8.378" y2="7.405" xlink:href="#a"/></defs><path d="M353.461,186.982l-17.24,13.554-76.546,59.9A183.732,183.732,0,0,1,241.34,273.4c-5.162,3.106-8.113,9.036-14.36,10.617a22.368,22.368,0,0,1-9.36-.181,80.454,80.454,0,0,1-14.816-4.19c-.588-.226-1.43-.361-1.694.271s1.156.565.659.136c-44.875-6.777-87.752-24.848-132.221-34.336a2.605,2.605,0,0,1-1.971-2.39,2.743,2.743,0,0,1,1.514-2.772c3.58-1.626,7.484-2.259,11.429-3.117,7.1-1.457,14.1-2.88,21.175-4.168a321.077,321.077,0,0,1,43.131-5.331c24.014-1.13,48.252,1.728,72-2.417,22.564-3.931,43.8-13.971,64.792-24.024,5.071-2.417,10.232-4.924,14.2-9.171,3.113-3.332,5.608-7.726,9.573-9.917,4.117-2.259,9.127-1.864,13.549-1.638C330.6,181.346,342.123,183.989,353.461,186.982Z" transform="translate(-67.565 -52.428)" fill="url(#a)"/><path d="M71.453,229.09l100.236-48.567a10.958,10.958,0,0,1,7.028-1.3l123.976,11.735c2.373.373,1.947,11.735,0,13.554l-73.22,69.417a17.073,17.073,0,0,1-16.4,4.586L72.335,240.4C70.54,239.91,69.77,230.016,71.453,229.09Z" transform="translate(-67.524 -52.622)" fill="#454595"/><path d="M71.453,229.09l100.236-48.567a10.958,10.958,0,0,1,7.028-1.3l123.976,11.735c2.373.373,1.947,11.735,0,13.554l-73.22,69.417a17.073,17.073,0,0,1-16.4,4.586L72.335,240.4C70.54,239.91,69.77,230.016,71.453,229.09Z" transform="translate(-67.524 -52.622)" fill="url(#b)"/><path d="M302.719,196.765,229.5,266.182a17.056,17.056,0,0,1-16.4,4.6l-140.77-38.13c-1.795-.486-2.028-3.648-.355-4.586l38.577-24.249,10.141-6.348,30.839-19.3a10.949,10.949,0,0,1,7.028-1.3l142.91,13.847C303.844,191.028,304.635,194.947,302.719,196.765Z" transform="translate(-67.519 -52.927)" fill="#454595"/><path d="M133.228,138.97l130.629,21.516-40.21,36.369L89.59,166.642Z" transform="translate(-42.195 -11.249)" fill="url(#c)"/><path d="M290.21,204.065c-.385,1.3-1.653,1.965-2.8,2.474a230.1,230.1,0,0,1-25.515,8.945c-8.2,2.519-16.764,5.06-25.14,3.388a8.476,8.476,0,0,0-3.225-.294c-1.785.361-3.1,1.977-4.493,3.253-6.926,6.348-17.047,4.9-25.87,3.117a82.77,82.77,0,0,0,.568-9.77,370.023,370.023,0,0,1-70.512-5.354c-5.071-.87-18.771-1.559-22.23-6.246a6.163,6.163,0,0,1-1.014-1.762l10.141-6.348a5.587,5.587,0,0,1,1.359.237,226.554,226.554,0,0,0,82.975,9.6c.72-4.055-3.042-9.126-.183-11.814a4.763,4.763,0,0,1,3.235-1.05,23.833,23.833,0,0,1,12.393,2.891c2.282,1.242,4.432,2.869,6.9,3.569a20.172,20.172,0,0,0,7.322.26,377.87,377.87,0,0,1,46.761-.994c2.566.1,5.253.271,7.433,1.773C289.591,200.8,290.7,202.472,290.21,204.065Z" transform="translate(-66.966 -50.897)" fill="url(#d)"/><path d="M119.557,171.45l53.83,12.119-27.838,25.289L89.59,194.875Z" transform="translate(-42.195 -7.044)" fill="url(#e)"/><path d="M117.31,237.3a8.987,8.987,0,0,0,5.547,5.049c3.955,1.062,27.006,7.635,27.006,7.635s3.752.5,5.831-2.259Z" transform="translate(-66.863 -45.087)" fill="url(#f)"/><path d="M153.29,190.988l147.433,23.369a4.348,4.348,0,0,0,4.787-3.784L326.542,92.285A9.977,9.977,0,0,0,325.054,85a8.057,8.057,0,0,0-5.864-3.627l-145.6-14.22c-4.457-.435-8.409,3.178-8.894,8.132Z" transform="translate(-66.355 -67.119)" fill="#454595"/><path d="M153.29,190.988l147.048,23.3a4.77,4.77,0,0,0,5.263-4.156L326.542,92.285A9.977,9.977,0,0,0,325.054,85a8.057,8.057,0,0,0-5.864-3.627l-145.6-14.22c-4.457-.435-8.409,3.178-8.894,8.132Z" transform="translate(-66.355 -67.119)" fill="url(#g)"/><path d="M273.27,165.66,294.212,46.31,145.734,31.04l-11.8,113Z" transform="translate(-41.569 -25.222)" fill="#fff"/><path d="M285.45,108.067,181.31,95.993l2.363-14.683L287.843,93.384a6.131,6.131,0,0,1,4.534,2.651,7.615,7.615,0,0,1,1.267,5.526h0c-.828,4.189-4.369,7-8.194,6.506Z" transform="translate(-65.959 -65.281)" fill="#454595"/><path d="M156.6,54.769l84.121,9.77,2.363-14.728L158.963,40.03Z" transform="translate(-41.249 -24.058)" fill="#fff" opacity="0.56"/><path d="M3.678.044A3.205,3.205,0,0,1,7.065,3.4,3.824,3.824,0,0,1,3.433,7.019,3.205,3.205,0,0,1,.045,3.665,3.824,3.824,0,0,1,3.678.044Z" transform="matrix(0.931, -0.364, 0.364, 0.931, 208.677, 31.766)" fill="none" stroke="#fff" stroke-width="1.04"/><path d="M280.013,102.749c-.071-.192-.953-2.869-.953-2.869" transform="translate(-64.579 -62.877)" fill="none" stroke="#fff" stroke-miterlimit="10" stroke-width="1.04"/><path d="M259.78,84.265,153.5,71.593l.558-1.943,106.27,12.673Z" transform="translate(-41.293 -20.223)" fill="#454595" opacity="0.18" style="isolation:isolate"/><path d="M191.26,69.771l-35.89-4.732.73-3.479L192,65.92Z" transform="translate(-41.266 -21.271)" fill="#454595" opacity="0.18" style="isolation:isolate"/><path d="M258.48,91.2,152.2,78.523l.548-1.943,106.28,12.673Z" transform="translate(-41.311 -19.326)" fill="#454595" opacity="0.18" style="isolation:isolate"/><g transform="translate(103.79 71.553)" opacity="0.66" style="isolation:isolate"><path d="M185.63,97.451,149.74,92.73l.73-3.49,35.9,4.36Z" transform="translate(-145.136 -89.24)" fill="#454595" opacity="0.18" style="isolation:isolate"/><path d="M253.87,112.567,147.59,99.894l.558-1.954,106.28,12.684Z" transform="translate(-145.166 -88.114)" fill="#454595" opacity="0.18" style="isolation:isolate"/><path d="M251.48,120.585,145.2,107.913l.558-1.943,106.27,12.673Z" transform="translate(-145.2 -87.074)" fill="#454595" opacity="0.18" style="isolation:isolate"/></g><path d="M249.448,138.231,143.28,122.791l.548-1.931L250,136.3Z" transform="translate(-41.437 -13.594)" fill="#454595" opacity="0.18" style="isolation:isolate"/><path d="M216.453,172.15S107.841,212.2,92.994,176.25s66.455-45.8,66.455-45.8-95,10.538-73.686,54.948,137.17.5,137.17.5Z" transform="translate(-67.352 -58.92)" fill="#fff"/><path d="M214.84,166.612a11.056,11.056,0,0,0,1.176,4.687l2.677,6.37a15.934,15.934,0,0,0,2.373,4.348,6.669,6.669,0,0,0,6.085,2.259,3.043,3.043,0,0,0,2.495-1.807c.456-1.321-.314-2.733-.933-3.964-1.663-3.309-2.373-7.082-3.164-10.764-.608-2.869-1.846-6.912-4.989-7.319C217.781,160.062,215,163.6,214.84,166.612Z" transform="translate(-65.486 -55.043)" fill="#454595"/><path d="M242.373,153.953s-22.98-23.414-45.443,0c0,0,17.362-2.5,22.716,8.155Z" transform="translate(-65.739 -57.224)" fill="#454595"/><path d="M251.443,171.71s-1.1,34.674-31.833,36.143c0,0,13.762-12.051,10.689-23.775Z" transform="translate(-65.418 -53.578)" fill="#454595"/><path d="M219.33,164.551s72.459-46.308,113.2-38.9c0,0-9.208,33.342-102.254,64.492Z" transform="translate(-65.422 -59.645)" fill="#fff"/><path d="M332.577,125.632s-9.208,33.342-102.254,64.492l-3.316-7.759-7.677-17.812s64.316-41.158,105.824-39.689a51.339,51.339,0,0,1,7.423.768Z" transform="translate(-65.422 -59.648)" fill="url(#h)"/><path d="M332.577,125.662c-6.44,9.408-28.669,26.746-74.366,45.235q-3.874,1.581-7.981,3.162-10.8,4.156-23.223,8.335l-7.667-17.812s7.92-5.3,20.029-12.029c6.389-3.558,13.944-7.511,22.118-11.295C284.294,130.7,311.939,121.381,332.577,125.662Z" transform="translate(-65.422 -59.677)" fill="#fff"/><path d="M276.461,141.044c-3.864,1.8-8.2,1.5-12.382,1.807a14.514,14.514,0,0,0-3.671.644,18.826,18.826,0,0,0-6.338,4.518,1.531,1.531,0,0,0-.527.779,1.626,1.626,0,0,0,.2.937,48.462,48.462,0,0,0,3.184,6.043c1.42,2.259,3.093,4.665,3.042,7.443A10.815,10.815,0,0,1,257.852,169l-.3.474a62.233,62.233,0,0,1-4.756,6.246c-1.257,1.446-.446,5.862-3.489,4.8-2.647-.915-1.359-4.416-.456-6.257l1.014-2.1,1.7-3.513c1.3-2.654,2.616-5.805,1.521-8.573-.771-1.931-2.545-3.095-4.209-4.134a62.014,62.014,0,0,0-9.837-5.3c6.389-3.558,13.944-7.511,22.118-11.295a104.215,104.215,0,0,0,16.043.26C277.648,140.084,277.019,140.784,276.461,141.044Z" transform="translate(-65.144 -57.768)" fill="url(#i)"/><ellipse cx="8.336" cy="9.284" rx="8.336" ry="9.284" transform="translate(193.955 84.655)" fill="#454595"/><ellipse cx="5.679" cy="6.325" rx="5.679" ry="6.325" transform="translate(196.612 87.298)" fill="url(#j)"/><path d="M254.766,133.167c0,.056-1.2-.169-1.166-.1a2.626,2.626,0,0,0,1.014.813,34.054,34.054,0,0,0,4.4,1.626c1.491.169,2.211-1.4,2.677-2.722.375-1.062.761-2.123,1.156-3.174a6.872,6.872,0,0,0,.568-2.157,1.249,1.249,0,0,0-.061-.508.89.89,0,0,0-.456-.452,1.121,1.121,0,0,0-.933,0c-.548.26-.8.949-1.075,1.536-.639,1.344-1.643,2.44-2.19,3.829a1.482,1.482,0,0,1-1.126-.418l-1.775-1.288a.62.62,0,0,0-.294-.147.518.518,0,0,0-.456.237,2.863,2.863,0,0,0-.548,1.513,2.434,2.434,0,0,0,0,.858A2.264,2.264,0,0,0,254.766,133.167Z" transform="translate(-64.938 -59.445)" fill="#fcab9a"/><path d="M256.175,129.991l.629.429c.091,0,.183.113.213.226a.512.512,0,0,1,0,.248l-.416,2.056a7.192,7.192,0,0,1-.872,2.586c-.243.373-2.028-1.005-2.332-1.186a8.083,8.083,0,0,1-1.957-2.09,3.6,3.6,0,0,1-.558-1.129,5.11,5.11,0,0,1,.406-3.061c.71-1.547,1.907-.779,2.809.169A14.162,14.162,0,0,0,256.175,129.991Z" transform="translate(-64.978 -59.342)" fill="#454595"/><path d="M244.81,175.435a.767.767,0,0,0,.2.384,14.5,14.5,0,0,0,5.061,3.58.739.739,0,0,0,.375.113.591.591,0,0,0,.426-.621,1.7,1.7,0,0,0-.274-.791,15.062,15.062,0,0,0-1.247-1.864,2.459,2.459,0,0,1-.761-1.57,4.362,4.362,0,0,1,.213-.892c.3-1.276-1.6-1.536-2.4-1.231A3.78,3.78,0,0,0,244.81,175.435Z" transform="translate(-65.062 -53.485)" fill="#fcab9a"/><path d="M240.231,143.33s-3.458,5.376.1,10.165c2.464,3.321,6.166,5.58,9.573,7.477.6.339,1.308.61,1.886,1.017,1.126.791.436,1.457-.162,2.507q-2.251,4.032-4.543,8.008a11.975,11.975,0,0,0-1.775,4.518l3.864,1.31a82.9,82.9,0,0,1,7.1-11.216c1.146-1.513,2.627-3.388,2.414-5.489a10.7,10.7,0,0,0-2.211-5.229l-7.231-9.352Z" transform="translate(-65.148 -57.252)" fill="#473f47"/><path d="M256.877,121.037c.122.4.466.712.517,1.129s-.335.915-.588,1.378-.426,1.355-.771,1.977a.68.68,0,0,1-.284.316.922.922,0,0,1-.345.068,4.674,4.674,0,0,1-1.359-.248.373.373,0,0,0-.264-.068.4.4,0,0,0-.162.226,8.884,8.884,0,0,0-.72,3.818c0,.429,0,.971-.314,1.186a.581.581,0,0,1-.385.113c-.892,0-1.572-.892-2.028-1.773a12.347,12.347,0,0,1-.862-2.5,2.239,2.239,0,0,1-.081-.779,2.792,2.792,0,0,1,.284-.87,18.126,18.126,0,0,0,1.085-3.061,14.986,14.986,0,0,1,1.257-3.964,2.089,2.089,0,0,1,.963-.87,2.325,2.325,0,0,1,1.359.079,3.567,3.567,0,0,1,2.3,1.536C256.653,119.026,256.735,120.529,256.877,121.037Z" transform="translate(-65 -60.654)" fill="#fcab9a"/><path d="M248.151,150.148a4.918,4.918,0,0,1-2.322-.147,10.842,10.842,0,0,0-3.367-.215,12.178,12.178,0,0,0-1.957.734,3.382,3.382,0,0,1-3.042-.576v-.52c.152-1.513-.416-3.659,0-5.116,1.491-5.817,2.758-10.165,5.73-15.157.852-1.434,4.209-3.275,5.588-4.043a2.335,2.335,0,0,1,1.014-.328,2.445,2.445,0,0,1,1.166.361c1.227.666,1.7,1.909,2.3,3.2a13.346,13.346,0,0,1,1.4,4.258c.152,1.943.771,3.761-.223,5.568-1.369,2.541-3.641,4.258-4.908,7a2.862,2.862,0,0,0-.365,1.321c0,.655.416,1.254.416,1.909a1.943,1.943,0,0,1-1.43,1.751Z" transform="translate(-65.168 -59.654)" fill="#454595"/><path d="M255.741,139.6c.487.248,1.014.463,1.43.644a26.533,26.533,0,0,0,7.352,1.491,39.705,39.705,0,0,0,9.472.192,7.879,7.879,0,0,0,3.651-1.276c.324-.237.659-.666.5-1.062a.909.909,0,0,0-.406-.4,6.739,6.739,0,0,0-3.965-.926c0-.531-.122-1.209-.588-1.254s-.74.666-1.014,1.129c-.608,1.129-2.028,1.254-3.164,1.242a30.351,30.351,0,0,1-7.809-.892,16.2,16.2,0,0,1-3.712-1.5c-.761-.429-2.292-2.2-3.042-1.254s-1.45,1.581-.436,2.586A6.864,6.864,0,0,0,255.741,139.6Z" transform="translate(-64.94 -58.27)" fill="#fcab9a"/><path d="M251.872,129.587s3.975,6.246,4.553,6.619-3.57,4.913-3.57,4.913-4.807-5.794-5.365-8.753S249.418,127.374,251.872,129.587Z" transform="translate(-65.026 -59.153)" fill="#454595"/><path d="M256.705,118.6a2.09,2.09,0,0,1-1.45.949,9.657,9.657,0,0,1-1.511.147h-.122a.243.243,0,0,0-.051.169,3.313,3.313,0,0,1-1.014,2.259.538.538,0,0,0-.183.226.689.689,0,0,0,0,.407,4.421,4.421,0,0,1,0,1.367,2.195,2.195,0,0,1-.548,1.209.431.431,0,0,0-.152.237.478.478,0,0,0,.061.237,2.133,2.133,0,0,1-.081,1.434,3,3,0,0,0-2.718-.655,1.292,1.292,0,0,0-.771.361c-1.359,1.593-2.474,3.479-3.9,5.015-.608.655-1.288,1.231-1.856,1.943a14.626,14.626,0,0,0-2.028,3.874,14.7,14.7,0,0,1-1.47,3.106,3.972,3.972,0,0,1-2.6,1.818,3.344,3.344,0,0,1-2.708-1.039,5.345,5.345,0,0,1-1.217-5.218,1.444,1.444,0,0,0,.1-.915,1.335,1.335,0,0,0-.325-.44,4.2,4.2,0,0,1,0-5.365c.679-.712,2.312-1.4,2.4-2.575s-.852-2.338-.466-3.693a3.933,3.933,0,0,1,.6-1.129,5.362,5.362,0,0,1,1.927-1.886,6.857,6.857,0,0,1,2.434-.44,9.8,9.8,0,0,0,7.19-3.388,14.177,14.177,0,0,1,1.3-1.649,5.278,5.278,0,0,1,1.846-1.039,6.586,6.586,0,0,1,5.01-.079,4.393,4.393,0,0,1,2.343,2.948,2.406,2.406,0,0,1-.041,1.807Z" transform="translate(-65.255 -61.129)" fill="#f55959"/><path d="M256.077,122.343a9.97,9.97,0,0,1-1.166-.113c-.112.237.4,1.129.507,1.2a.272.272,0,0,0,.385,0,.671.671,0,0,0,.091-.237l.183-.858" transform="translate(-64.92 -59.984)" fill="#fff"/><ellipse cx="0.304" cy="0.339" rx="0.304" ry="0.339" transform="translate(189.94 59.761)" fill="#231f20"/><path d="M.439,0,1,.009a.5.5,0,0,1,.46.508l.065,3.438a.454.454,0,0,1-.441.489L.522,4.432a.5.5,0,0,1-.46-.508L0,.486A.454.454,0,0,1,.439,0Z" transform="translate(196.561 64.187) rotate(10.78)" fill="#454595"/><path d="M261.448,124.351a1.494,1.494,0,0,0-1.207,1.028,1.952,1.952,0,0,0,.649,1.965,3.892,3.892,0,0,0,1.866.757.6.6,0,0,0,.588-.09.761.761,0,0,0,.162-.384,4.333,4.333,0,0,0,.193-1.57A2.16,2.16,0,0,0,261.448,124.351Z" transform="translate(-64.845 -59.711)" fill="#fcab9a"/><path d="M259.612,122.489l-.1,1.288a.672.672,0,0,0,.446.791,14.509,14.509,0,0,1,5.608,1.626,19.6,19.6,0,0,1,2.718,2.056c.345.3.842,0,.923-.655l.9-6.777c.081-.6-.3-1.017-.71-.791-1.694.96-5.5,2.722-9.016,1.638C260.007,121.563,259.652,121.959,259.612,122.489Z" transform="translate(-64.855 -60.277)" fill="#454595"/><path d="M245.065,173.86a2.71,2.71,0,0,0-1.014,1.491,1.052,1.052,0,0,0,0,.587,1.113,1.113,0,0,0,.314.429,22.188,22.188,0,0,0,5.415,3.964,2.045,2.045,0,0,0,.8.26.768.768,0,0,0,.73-.35,1.23,1.23,0,0,0,.142-.6,3.066,3.066,0,0,0-.735-2.1,2.461,2.461,0,0,0-1.871-.867,4.154,4.154,0,0,1-.75,0,1.826,1.826,0,0,1-.649-.339,9.953,9.953,0,0,1-1.5-1.2,15.218,15.218,0,0,1-.882-1.276Z" transform="translate(-65.074 -53.3)" fill="#473f47"/></svg>